<svg width="121" height="40" viewBox="0 0 121 40" fill="none" xmlns="http://www.w3.org/2000/svg">
<g clip-path="url(#clip0_167_3484)">
<path d="M110.803 0.00013H10.2026C9.83595 0.00013 9.47365 0.00013 9.10792 0.00213C8.80177 0.00413 8.49806 0.00994 8.18897 0.01483C7.51748 0.0227318 6.84758 0.0818063 6.18507 0.19154C5.52349 0.303663 4.88264 0.515046 4.28419 0.81854C3.68647 1.1246 3.14031 1.5223 2.66554 1.9972C2.18827 2.47077 1.79043 3.01815 1.48732 3.61829C1.18337 4.21724 0.972609 4.85907 0.862319 5.52161C0.75098 6.18332 0.691067 6.85265 0.683119 7.52361C0.673839 7.83021 0.672859 8.13783 0.667969 8.44447V31.5587C0.672859 31.8692 0.673839 32.17 0.683119 32.4806C0.69107 33.1516 0.750982 33.8209 0.862319 34.4825C0.972305 35.1455 1.18308 35.7877 1.48732 36.3868C1.79029 36.985 2.18819 37.5302 2.66554 38.0011C3.13851 38.4781 3.68502 38.8761 4.28419 39.1798C4.88264 39.4841 5.52342 39.6968 6.18507 39.8106C6.84769 39.9195 7.51753 39.9786 8.18897 39.9874C8.49806 39.9942 8.80177 39.9981 9.10792 39.9981C9.47364 40.0001 9.83597 40.0001 10.2026 40.0001H110.803C111.162 40.0001 111.527 40.0001 111.887 39.9981C112.191 39.9981 112.504 39.9942 112.809 39.9874C113.479 39.9791 114.147 39.92 114.809 39.8106C115.472 39.696 116.116 39.4834 116.717 39.1798C117.315 38.8759 117.861 38.478 118.334 38.0011C118.81 37.5284 119.209 36.9836 119.516 36.3868C119.818 35.7872 120.026 35.1451 120.135 34.4825C120.246 33.8208 120.308 33.1516 120.32 32.4806C120.324 32.17 120.324 31.8692 120.324 31.5587C120.332 31.1954 120.332 30.8341 120.332 30.4649V9.53626C120.332 9.17005 120.332 8.80677 120.324 8.44447C120.324 8.13783 120.324 7.83021 120.32 7.52357C120.308 6.85255 120.246 6.18337 120.135 5.52157C120.026 4.85941 119.817 4.21763 119.516 3.61825C118.898 2.41533 117.92 1.43616 116.717 0.81845C116.115 0.515697 115.472 0.30437 114.809 0.19145C114.148 0.0812328 113.479 0.0221378 112.809 0.01469C112.504 0.00981 112.191 0.00395 111.887 0.002C111.527 0 111.162 0 110.803 0V0.00013Z" fill="black"/>
<path d="M9.11277 39.125C8.80809 39.125 8.51077 39.1211 8.20848 39.1143C7.58227 39.1061 6.95751 39.0516 6.33934 38.9512C5.76293 38.8519 5.20455 38.6673 4.6826 38.4033C4.16545 38.1415 3.69376 37.7983 3.2856 37.3867C2.87155 36.98 2.52682 36.5082 2.26509 35.9902C2.00048 35.4688 1.81736 34.9099 1.72209 34.333C1.61922 33.7131 1.56356 33.0863 1.55559 32.458C1.54925 32.2471 1.54095 31.5449 1.54095 31.5449V8.44434C1.54095 8.44434 1.54979 7.75293 1.55564 7.5498C1.56327 6.92248 1.61861 6.29665 1.72117 5.67773C1.81661 5.09925 1.99988 4.53875 2.26463 4.01563C2.5254 3.49794 2.86821 3.02586 3.27977 2.61768C3.69088 2.20562 4.16408 1.8606 4.68211 1.59521C5.20286 1.33209 5.76019 1.14873 6.33543 1.05127C6.95563 0.949836 7.58256 0.894996 8.21094 0.88721L9.11326 0.875H111.882L112.795 0.8877C113.418 0.895099 114.039 0.94945 114.653 1.05029C115.234 1.14898 115.798 1.33362 116.324 1.59814C117.362 2.13299 118.206 2.97916 118.739 4.01807C119 4.53758 119.18 5.09351 119.274 5.66699C119.378 6.29099 119.436 6.92174 119.448 7.5542C119.451 7.8374 119.451 8.1416 119.451 8.44434C119.459 8.81934 119.459 9.17627 119.459 9.53613V30.4648C119.459 30.8281 119.459 31.1826 119.451 31.54C119.451 31.8652 119.451 32.1631 119.447 32.4697C119.436 33.0909 119.378 33.7104 119.276 34.3232C119.183 34.9043 119.001 35.4675 118.736 35.9932C118.473 36.5056 118.13 36.9733 117.721 37.3789C117.312 37.7927 116.84 38.1379 116.321 38.4014C115.796 38.6674 115.234 38.8527 114.653 38.9512C114.035 39.0522 113.41 39.1067 112.784 39.1143C112.491 39.1211 112.185 39.125 111.887 39.125L110.803 39.127L9.11277 39.125Z" fill="white"/>
<path d="M42.9697 27.1397H38.2363L37.0996 30.4961H35.0947L39.5781 18.0781H41.6611L46.1445 30.4961H44.1055L42.9697 27.1397ZM38.7266 25.5908H42.4786L40.6289 20.1436H40.5771L38.7266 25.5908Z" fill="black"/>
<path d="M55.8272 25.9695C55.8272 28.7829 54.3213 30.5905 52.0489 30.5905C51.4732 30.6207 50.9007 30.4881 50.3969 30.2079C49.8931 29.9278 49.4784 29.5114 49.2002 29.0065H49.1572V33.4909H47.2988V21.4421H49.0977V22.948H49.1318C49.4228 22.4455 49.8445 22.0313 50.3521 21.7495C50.8598 21.4676 51.4343 21.3287 52.0146 21.3474C54.3125 21.3474 55.8272 23.1638 55.8272 25.9695ZM53.917 25.9695C53.917 24.1365 52.9697 22.9314 51.5244 22.9314C50.1045 22.9314 49.1494 24.1618 49.1494 25.9695C49.1494 27.7937 50.1045 29.0154 51.5244 29.0154C52.9698 29.0154 53.917 27.8191 53.917 25.9695H53.917Z" fill="black"/>
<path d="M65.7924 25.9695C65.7924 28.7829 64.2861 30.5905 62.0136 30.5905C61.438 30.6207 60.8655 30.4881 60.3617 30.2079C59.8579 29.9278 59.4432 29.5114 59.165 29.0065H59.122V33.4909H57.2636V21.4421H59.0624V22.948H59.0966C59.3876 22.4455 59.8093 22.0313 60.3169 21.7495C60.8246 21.4676 61.3991 21.3287 61.9794 21.3474C64.2773 21.3474 65.7924 23.1638 65.7924 25.9695ZM63.8818 25.9695C63.8818 24.1365 62.9345 22.9314 61.4892 22.9314C60.0693 22.9314 59.1142 24.1618 59.1142 25.9695C59.1142 27.7937 60.0693 29.0154 61.4892 29.0154C62.9345 29.0154 63.8818 27.8191 63.8818 25.9695Z" fill="black"/>
<path d="M72.3774 27.0362C72.5151 28.2676 73.7114 29.0762 75.3462 29.0762C76.9126 29.0762 78.0395 28.2676 78.0395 27.1572C78.0395 26.1934 77.3599 25.6162 75.7505 25.2207L74.1411 24.833C71.8608 24.2822 70.8022 23.2158 70.8022 21.4854C70.8022 19.3428 72.6694 17.8711 75.3198 17.8711C77.9448 17.8711 79.7436 19.3428 79.8042 21.4854H77.9282C77.8159 20.2461 76.7915 19.4981 75.2944 19.4981C73.7973 19.4981 72.7729 20.2549 72.7729 21.3565C72.7729 22.2344 73.4272 22.751 75.0278 23.1465L76.396 23.4824C78.9438 24.0849 80.0014 25.1084 80.0014 26.9248C80.0014 29.248 78.1518 30.7031 75.2084 30.7031C72.4545 30.7031 70.5952 29.2822 70.475 27.0361L72.3774 27.0362Z" fill="black"/>
<path d="M84.0142 19.2998V21.4424H85.7358V22.9141H84.0142V27.9053C84.0142 28.6807 84.3589 29.042 85.1157 29.042C85.3201 29.0384 85.5242 29.0241 85.727 28.999V30.4619C85.3868 30.5255 85.0409 30.5543 84.6948 30.5478C82.8618 30.5478 82.147 29.8593 82.147 28.1035V22.9141H80.8306V21.4424H82.1469V19.2998H84.0142Z" fill="black"/>
<path d="M86.7319 25.9697C86.7319 23.1211 88.4097 21.3311 91.0259 21.3311C93.6509 21.3311 95.3208 23.1211 95.3208 25.9697C95.3208 28.8262 93.6597 30.6084 91.0259 30.6084C88.393 30.6084 86.7319 28.8262 86.7319 25.9697ZM93.4272 25.9697C93.4272 24.0156 92.5317 22.8623 91.0259 22.8623C89.52 22.8623 88.6245 24.0244 88.6245 25.9697C88.6245 27.9316 89.52 29.0762 91.0259 29.0762C92.5317 29.0762 93.4272 27.9316 93.4272 25.9697H93.4272Z" fill="black"/>
<path d="M96.853 21.442H98.6255V22.983H98.6685C98.7884 22.5017 99.0704 22.0764 99.467 21.7785C99.8635 21.4806 100.351 21.3284 100.846 21.3473C101.06 21.3465 101.274 21.3698 101.483 21.4166V23.1549C101.213 23.0723 100.931 23.0343 100.648 23.0426C100.378 23.0316 100.109 23.0792 99.859 23.1821C99.6091 23.285 99.3845 23.4408 99.2005 23.6386C99.0166 23.8365 98.8776 24.0719 98.7932 24.3286C98.7087 24.5852 98.6809 24.8571 98.7114 25.1256V30.4957H96.853L96.853 21.442Z" fill="black"/>
<path d="M110.051 27.8369C109.801 29.4805 108.201 30.6084 106.153 30.6084C103.519 30.6084 101.884 28.8437 101.884 26.0127C101.884 23.1729 103.528 21.3311 106.075 21.3311C108.58 21.3311 110.155 23.0518 110.155 25.7969V26.4336H103.76V26.5459C103.731 26.8791 103.772 27.2148 103.883 27.5306C103.993 27.8464 104.169 28.1352 104.399 28.3778C104.63 28.6203 104.909 28.8111 105.219 28.9374C105.528 29.0637 105.862 29.1226 106.196 29.1103C106.635 29.1515 107.076 29.0498 107.452 28.8203C107.829 28.5909 108.122 28.246 108.287 27.8369L110.051 27.8369ZM103.769 25.1348H108.295C108.312 24.8352 108.267 24.5354 108.162 24.2541C108.057 23.9729 107.896 23.7164 107.687 23.5006C107.479 23.2849 107.228 23.1145 106.95 23.0003C106.673 22.8861 106.375 22.8305 106.075 22.8369C105.772 22.8351 105.472 22.8933 105.192 23.008C104.912 23.1227 104.657 23.2918 104.443 23.5054C104.229 23.7191 104.059 23.973 103.943 24.2527C103.827 24.5323 103.768 24.8321 103.769 25.1348V25.1348Z" fill="black"/>
<path d="M38.4941 8.7304C38.8838 8.70244 39.2747 8.7613 39.6388 8.90274C40.0029 9.04417 40.3311 9.26465 40.5997 9.54828C40.8683 9.8319 41.0706 10.1716 41.192 10.5429C41.3134 10.9141 41.3509 11.3077 41.3018 11.6952C41.3018 13.6015 40.2715 14.6972 38.4941 14.6972H36.3389V8.7304H38.4941ZM37.2656 13.8534H38.3906C38.669 13.87 38.9476 13.8244 39.2062 13.7198C39.4647 13.6152 39.6967 13.4542 39.8852 13.2487C40.0737 13.0431 40.2139 12.7981 40.2958 12.5315C40.3777 12.2648 40.399 11.9833 40.3584 11.7074C40.3961 11.4326 40.3725 11.1528 40.2894 10.8881C40.2063 10.6235 40.0657 10.3805 39.8776 10.1765C39.6896 9.97261 39.4587 9.8128 39.2016 9.70856C38.9445 9.60433 38.6676 9.55824 38.3906 9.57361H37.2656V13.8534Z" fill="black"/>
<path d="M42.3486 12.4438C42.3203 12.1479 42.3542 11.8493 42.448 11.5672C42.5418 11.2852 42.6936 11.0258 42.8935 10.8059C43.0935 10.5859 43.3372 10.4101 43.609 10.2898C43.8809 10.1696 44.1749 10.1074 44.4721 10.1074C44.7694 10.1074 45.0634 10.1696 45.3353 10.2898C45.6071 10.4101 45.8508 10.5859 46.0508 10.8059C46.2507 11.0258 46.4025 11.2852 46.4963 11.5672C46.5901 11.8493 46.624 12.1479 46.5957 12.4438C46.6245 12.74 46.5911 13.039 46.4975 13.3215C46.4039 13.6041 46.2522 13.8639 46.0522 14.0843C45.8522 14.3047 45.6083 14.4808 45.3362 14.6014C45.0641 14.7219 44.7698 14.7842 44.4721 14.7842C44.1745 14.7842 43.8802 14.7219 43.6081 14.6014C43.3359 14.4808 43.092 14.3047 42.8921 14.0843C42.6921 13.8639 42.5404 13.6041 42.4468 13.3215C42.3532 13.039 42.3198 12.74 42.3486 12.4438ZM45.6816 12.4438C45.6816 11.4677 45.2431 10.8969 44.4736 10.8969C43.7011 10.8969 43.2666 11.4677 43.2666 12.4438C43.2666 13.4277 43.7012 13.9941 44.4736 13.9941C45.2431 13.9941 45.6816 13.4238 45.6816 12.4438H45.6816Z" fill="black"/>
<path d="M52.2412 14.6973H51.3193L50.3887 11.3809H50.3184L49.3916 14.6973H48.4785L47.2373 10.1943H48.1387L48.9453 13.6303H49.0117L49.9375 10.1943H50.79L51.7158 13.6303H51.7861L52.5889 10.1943H53.4775L52.2412 14.6973Z" fill="black"/>
<path d="M54.5215 10.1939H55.377V10.9092H55.4434C55.556 10.6523 55.746 10.4369 55.9869 10.2931C56.2278 10.1493 56.5075 10.0842 56.7871 10.107C57.0062 10.0905 57.2262 10.1235 57.4308 10.2036C57.6354 10.2837 57.8194 10.4088 57.969 10.5697C58.1187 10.7305 58.2303 10.923 58.2955 11.1328C58.3607 11.3426 58.3779 11.5644 58.3457 11.7818V14.6968H57.457V12.0049C57.457 11.2813 57.1426 10.9214 56.4854 10.9214C56.3366 10.9145 56.1881 10.9398 56.05 10.9957C55.912 11.0515 55.7876 11.1365 55.6855 11.2449C55.5834 11.3533 55.5059 11.4825 55.4584 11.6236C55.4108 11.7647 55.3944 11.9145 55.4102 12.0625V14.6968H54.5215L54.5215 10.1939Z" fill="black"/>
<path d="M59.7617 8.43652H60.6504V14.6973H59.7617V8.43652Z" fill="black"/>
<path d="M61.8858 12.4439C61.8575 12.1479 61.8913 11.8494 61.9852 11.5673C62.0791 11.2852 62.2308 11.0259 62.4308 10.8059C62.6308 10.5859 62.8745 10.4101 63.1464 10.2898C63.4182 10.1696 63.7122 10.1074 64.0095 10.1074C64.3068 10.1074 64.6008 10.1696 64.8727 10.2898C65.1446 10.4101 65.3883 10.5859 65.5883 10.8059C65.7882 11.0259 65.94 11.2852 66.0339 11.5673C66.1277 11.8494 66.1616 12.1479 66.1333 12.4439C66.1621 12.7401 66.1286 13.0391 66.035 13.3216C65.9414 13.6042 65.7897 13.864 65.5897 14.0844C65.3897 14.3048 65.1458 14.4809 64.8736 14.6014C64.6015 14.722 64.3072 14.7842 64.0095 14.7842C63.7119 14.7842 63.4176 14.722 63.1454 14.6014C62.8733 14.4809 62.6294 14.3048 62.4294 14.0844C62.2294 13.864 62.0777 13.6042 61.984 13.3216C61.8904 13.0391 61.8569 12.7401 61.8858 12.4439ZM65.2188 12.4439C65.2188 11.4678 64.7803 10.897 64.0108 10.897C63.2383 10.897 62.8038 11.4678 62.8038 12.4439C62.8038 13.4278 63.2383 13.9942 64.0108 13.9942C64.7803 13.9942 65.2188 13.4239 65.2188 12.4439H65.2188Z" fill="black"/>
<path d="M67.0688 13.4238C67.0688 12.6133 67.6724 12.146 68.7436 12.0796L69.9634 12.0093V11.6206C69.9634 11.145 69.6489 10.8765 69.0415 10.8765C68.5454 10.8765 68.2017 11.0586 68.103 11.377H67.2427C67.3335 10.6035 68.061 10.1074 69.0825 10.1074C70.2114 10.1074 70.8481 10.6694 70.8481 11.6206V14.6973H69.9927V14.0645H69.9224C69.7796 14.2914 69.5792 14.4765 69.3416 14.6007C69.104 14.7249 68.8377 14.7838 68.5698 14.7715C68.3808 14.7911 68.1897 14.7709 68.009 14.7122C67.8282 14.6536 67.6618 14.5576 67.5203 14.4307C67.3789 14.3037 67.2657 14.1485 67.1879 13.9751C67.1102 13.8017 67.0696 13.6139 67.0688 13.4238ZM69.9634 13.0391V12.6626L68.8638 12.7329C68.2436 12.7744 67.9624 12.9853 67.9624 13.3823C67.9624 13.7876 68.314 14.0234 68.7974 14.0234C68.939 14.0378 69.0821 14.0235 69.2181 13.9814C69.3541 13.9393 69.4803 13.8703 69.5891 13.7784C69.6979 13.6866 69.7871 13.5738 69.8514 13.4468C69.9157 13.3198 69.9538 13.1811 69.9634 13.0391Z" fill="black"/>
<path d="M72.0161 12.4439C72.0161 11.021 72.7476 10.1196 73.8853 10.1196C74.1667 10.1067 74.446 10.1741 74.6905 10.314C74.935 10.4539 75.1347 10.6605 75.2661 10.9096H75.3325V8.43652H76.2212V14.6973H75.3696V13.9858H75.2993C75.1577 14.2333 74.9511 14.4374 74.7019 14.5758C74.4526 14.7143 74.1702 14.782 73.8853 14.7715C72.7398 14.7715 72.0161 13.8701 72.0161 12.4439ZM72.9341 12.4439C72.9341 13.3989 73.3843 13.9737 74.1372 13.9737C74.8862 13.9737 75.3492 13.3907 75.3492 12.4478C75.3492 11.5093 74.8814 10.918 74.1372 10.918C73.3892 10.918 72.9341 11.4966 72.9341 12.4439H72.9341Z" fill="black"/>
<path d="M79.8979 12.4438C79.8696 12.1479 79.9035 11.8493 79.9973 11.5672C80.0911 11.2852 80.2429 11.0258 80.4428 10.8059C80.6428 10.5859 80.8865 10.4101 81.1583 10.2898C81.4302 10.1696 81.7242 10.1074 82.0215 10.1074C82.3187 10.1074 82.6127 10.1696 82.8846 10.2898C83.1564 10.4101 83.4001 10.5859 83.6001 10.8059C83.8 11.0258 83.9518 11.2852 84.0456 11.5672C84.1394 11.8493 84.1733 12.1479 84.145 12.4438C84.1738 12.74 84.1404 13.039 84.0468 13.3215C83.9532 13.6041 83.8015 13.8639 83.6015 14.0843C83.4016 14.3047 83.1577 14.4808 82.8855 14.6014C82.6134 14.7219 82.3191 14.7842 82.0215 14.7842C81.7238 14.7842 81.4295 14.7219 81.1574 14.6014C80.8853 14.4808 80.6414 14.3047 80.4414 14.0843C80.2414 13.8639 80.0897 13.6041 79.9961 13.3215C79.9025 13.039 79.8691 12.74 79.8979 12.4438ZM83.2309 12.4438C83.2309 11.4677 82.7924 10.8969 82.0229 10.8969C81.2505 10.8969 80.8159 11.4677 80.8159 12.4438C80.8159 13.4277 81.2505 13.9941 82.0229 13.9941C82.7925 13.9941 83.2309 13.4238 83.2309 12.4438Z" fill="black"/>
<path d="M85.3374 10.1939H86.1929V10.9092H86.2593C86.3719 10.6523 86.5619 10.4369 86.8028 10.2931C87.0437 10.1493 87.3234 10.0842 87.603 10.107C87.8221 10.0905 88.0421 10.1235 88.2467 10.2036C88.4513 10.2837 88.6353 10.4088 88.785 10.5697C88.9346 10.7305 89.0462 10.923 89.1114 11.1328C89.1766 11.3426 89.1938 11.5644 89.1616 11.7818V14.6968H88.273V12.0049C88.273 11.2813 87.9585 10.9214 87.3013 10.9214C87.1525 10.9145 87.004 10.9398 86.866 10.9957C86.7279 11.0515 86.6036 11.1365 86.5014 11.2449C86.3993 11.3533 86.3218 11.4825 86.2743 11.6236C86.2268 11.7647 86.2103 11.9145 86.2261 12.0625V14.6968H85.3374V10.1939Z" fill="black"/>
<path d="M94.1831 9.07324V10.2148H95.1587V10.9634H94.1831V13.2788C94.1831 13.7505 94.3774 13.957 94.8198 13.957C94.9331 13.9567 95.0462 13.9498 95.1587 13.9365V14.6768C94.9991 14.7053 94.8374 14.7205 94.6753 14.7222C93.687 14.7222 93.2935 14.3745 93.2935 13.5063V10.9633H92.5786V10.2148H93.2935V9.07324H94.1831Z" fill="black"/>
<path d="M96.3726 8.43652H97.2534V10.918H97.3237C97.4419 10.6587 97.6371 10.4421 97.8828 10.2977C98.1285 10.1534 98.4127 10.0883 98.6967 10.1113C98.9147 10.0995 99.1326 10.1359 99.3349 10.2179C99.5371 10.2999 99.7188 10.4256 99.8669 10.586C100.015 10.7463 100.126 10.9373 100.192 11.1455C100.258 11.3536 100.277 11.5737 100.248 11.79V14.6973H99.3579V12.0093C99.3579 11.29 99.0229 10.9258 98.3951 10.9258C98.2423 10.9132 98.0887 10.9342 97.9449 10.9873C97.8011 11.0404 97.6707 11.1242 97.5627 11.2329C97.4547 11.3417 97.3718 11.4727 97.3197 11.6168C97.2676 11.761 97.2477 11.9147 97.2613 12.0674V14.6973H96.3726L96.3726 8.43652Z" fill="black"/>
<path d="M105.429 13.4815C105.308 13.8931 105.047 14.249 104.69 14.4872C104.333 14.7253 103.904 14.8305 103.478 14.7842C103.181 14.7921 102.887 14.7353 102.614 14.6177C102.342 14.5002 102.098 14.3248 101.9 14.1036C101.702 13.8825 101.555 13.6209 101.468 13.3371C101.381 13.0533 101.357 12.754 101.398 12.46C101.358 12.1652 101.383 11.8652 101.469 11.5805C101.556 11.2959 101.702 11.0331 101.899 10.81C102.096 10.587 102.339 10.4088 102.61 10.2876C102.882 10.1664 103.177 10.105 103.474 10.1075C104.727 10.1075 105.483 10.9635 105.483 12.3775V12.6876H102.303V12.7374C102.289 12.9026 102.31 13.069 102.364 13.2257C102.418 13.3825 102.505 13.5262 102.617 13.6476C102.73 13.7691 102.867 13.8656 103.02 13.931C103.172 13.9964 103.337 14.0292 103.502 14.0274C103.715 14.0529 103.93 14.0146 104.121 13.9174C104.312 13.8202 104.469 13.6685 104.574 13.4815L105.429 13.4815ZM102.303 12.0303H104.578C104.589 11.8792 104.568 11.7274 104.517 11.5847C104.466 11.442 104.386 11.3115 104.282 11.2016C104.177 11.0918 104.051 11.005 103.911 10.9468C103.771 10.8886 103.621 10.8604 103.469 10.8638C103.315 10.8619 103.163 10.8908 103.021 10.9487C102.878 11.0067 102.749 11.0925 102.64 11.2012C102.532 11.3099 102.446 11.4393 102.388 11.5817C102.33 11.7241 102.301 11.8766 102.303 12.0303H102.303Z" fill="black"/>
<path d="M25.6645 19.8887C25.6757 19.0208 25.9062 18.1697 26.3347 17.4148C26.7632 16.6599 27.3756 16.0256 28.1151 15.571C27.6453 14.9001 27.0256 14.348 26.3051 13.9585C25.5847 13.569 24.7833 13.3529 23.9647 13.3272C22.2185 13.1439 20.5256 14.3722 19.6357 14.3722C18.7286 14.3722 17.3586 13.3454 15.8832 13.3758C14.9289 13.4066 13.9989 13.6841 13.1838 14.1813C12.3686 14.6784 11.6961 15.3782 11.2319 16.2125C9.22075 19.6945 10.7209 24.8119 12.6474 27.6265C13.6113 29.0047 14.7377 30.5442 16.2118 30.4896C17.6542 30.4298 18.1929 29.5699 19.934 29.5699C21.6589 29.5699 22.1643 30.4896 23.6682 30.4549C25.216 30.4298 26.1911 29.0706 27.1212 27.6793C27.8138 26.6973 28.3467 25.6119 28.7002 24.4634C27.801 24.0831 27.0337 23.4465 26.4938 22.633C25.954 21.8195 25.6656 20.865 25.6645 19.8887Z" fill="black"/>
<path d="M22.8239 11.4766C23.6679 10.4635 24.0836 9.16135 23.9829 7.84668C22.6936 7.98209 21.5027 8.59829 20.6474 9.5725C20.2292 10.0484 19.9089 10.6021 19.7048 11.2019C19.5008 11.8017 19.4169 12.4358 19.4581 13.068C20.1029 13.0746 20.7409 12.9349 21.3239 12.6592C21.907 12.3835 22.4198 11.9792 22.8239 11.4766Z" fill="black"/>
</g>
<defs>
<clipPath id="clip0_167_3484">
<rect width="119.664" height="40" fill="white" transform="translate(0.667969)"/>
</clipPath>
</defs>
</svg>
