<svg width="175" height="190" viewBox="0 0 175 190" fill="none" xmlns="http://www.w3.org/2000/svg">
<path fill-rule="evenodd" clip-rule="evenodd" d="M53.331 4.54297C53.331 4.54297 52.6853 6.65149 52.4273 10.038L50.9067 13.4266C50.7612 13.752 50.9593 14.1273 51.3125 14.1929L52.5851 14.4313C52.8373 14.4791 53.0312 14.6817 53.0643 14.9343L53.465 17.9612C53.5955 18.9494 54.6109 19.5688 55.5614 19.2391L61.2689 17.2583L62.9466 7.22661L53.331 4.54297Z" fill="#EBA188"/>
<path fill-rule="evenodd" clip-rule="evenodd" d="M52.2601 0.800177C53.0405 0.000295 55.263 2.43562 55.6831 1.30537C56.1033 0.175827 57.1244 -0.656878 58.8663 0.710984C60.6073 2.07885 61.328 -0.418555 62.9495 0.473374C64.5709 1.3653 63.9108 1.9554 66.1326 2.19587C68.3543 2.43562 70.2907 8.13897 65.8695 11.7388C61.4483 15.3386 60.1807 12.7221 60.0942 11.2357C60.007 9.74944 60.1872 9.11153 58.1456 8.95526C56.1033 8.79757 57.5446 6.36011 56.1638 5.82495C54.7823 5.28979 51.213 6.33085 50.8404 4.55127C50.617 3.48096 51.9048 3.6308 52.1102 2.614C52.2002 2.16804 51.6208 1.4545 52.2601 0.800177Z" fill="#131B42"/>
<mask id="mask0_237_1970" style="mask-type:luminance" maskUnits="userSpaceOnUse" x="0" y="99" width="175" height="91">
<path fill-rule="evenodd" clip-rule="evenodd" d="M0 99.1182H174.861V189.999H0V99.1182Z" fill="white"/>
</mask>
<g mask="url(#mask0_237_1970)">
<path fill-rule="evenodd" clip-rule="evenodd" d="M9.08305 189.999C9.08305 189.999 16.2067 186.071 18.8435 171.251C21.4804 156.43 -1.69727 118.04 0.0994493 106.256C1.89617 94.4708 11.5985 97.3277 39.0092 114.469C54.4545 124.128 76.7532 131.903 94.7204 134.849C112.688 137.795 103.231 158.335 137.968 169.763C172.704 181.191 174.861 189.999 174.861 189.999H9.08305Z" fill="#131B42"/>
</g>
<path fill-rule="evenodd" clip-rule="evenodd" d="M81.0721 121.494C81.0721 121.494 82.5713 125.965 83.4086 128.508C83.4912 128.759 83.2857 129.007 83.0219 128.975C81.6356 128.804 77.9696 128.496 75.0467 129.506C74.7146 129.62 74.7326 130.097 75.0697 130.195C77.524 130.906 83.9627 132.737 87.8853 133.55C88.1282 133.601 88.3445 133.396 88.3143 133.152L86.8813 121.494H81.0721Z" fill="#B87E6C"/>
<path fill-rule="evenodd" clip-rule="evenodd" d="M19.232 95.2393L17.048 103.36C16.9905 103.576 16.754 103.69 16.5492 103.596C15.1578 102.956 10.3735 100.883 8.19947 101.595C7.94075 101.681 7.88972 102.029 8.09814 102.204C9.39249 103.289 13.6378 106.592 18.867 107.917C19.0279 107.958 19.199 107.883 19.2788 107.738L24.7437 97.7983L19.232 95.2393Z" fill="#B87E6C"/>
<mask id="mask1_237_1970" style="mask-type:luminance" maskUnits="userSpaceOnUse" x="18" y="58" width="70" height="65">
<path fill-rule="evenodd" clip-rule="evenodd" d="M29.2228 67.0485C27.5271 67.9207 26.2083 69.366 25.5299 71.1318C22.0852 80.0997 18.8182 93.5546 18.1995 96.1565C18.1369 96.4195 18.2678 96.6854 18.5132 96.8027L23.9083 99.3996C24.0946 99.4884 24.322 99.4351 24.4471 99.2716C32.9387 88.1917 37.3295 75.3346 37.3295 75.3346C58.1747 73.4387 67.1569 70.4622 67.1569 70.4622C69.4152 106.497 79.3277 120.472 80.4774 121.981C80.5465 122.07 80.6515 122.12 80.7645 122.12H86.7934C87.0035 122.12 87.1704 121.94 87.1567 121.732C85.9322 102.895 82.2659 100.641 82.3847 95.8167C82.5055 90.9592 83.7041 64.7744 83.7041 64.7744L84.0638 58.9693L57.8041 58.1396C46.3614 58.8576 34.3683 64.4011 29.2228 67.0485Z" fill="white"/>
</mask>
<g mask="url(#mask1_237_1970)">
<path fill-rule="evenodd" clip-rule="evenodd" d="M83.7043 64.7753C83.7043 64.7753 82.5049 90.9595 82.3848 95.8177C82.2654 100.675 85.982 102.927 87.1813 122.12H80.5862C80.5862 122.12 69.555 108.732 67.1571 70.4624C67.1571 70.4624 58.1748 73.4396 37.3296 75.3349C37.3296 75.3349 32.8633 88.4123 24.23 99.5541L18.0946 96.6025C18.0946 96.6025 22.4242 77.9929 26.6301 68.4471C26.8337 68.3291 42.7924 59.0818 57.8043 58.1406L84.064 58.9695L83.7043 64.7753Z" fill="#242E59"/>
</g>
<path fill-rule="evenodd" clip-rule="evenodd" d="M33.6287 11.1511C33.6287 11.1511 39.7242 6.21335 42.1389 5.85642C44.5529 5.49949 50.5282 4.66712 50.5883 5.85642C50.6491 7.04643 44.1307 6.98718 44.734 7.76029C45.3373 8.5334 48.3553 7.46261 48.0533 8.4149C47.752 9.36648 42.501 8.71187 40.5694 10.0803C38.6377 11.4488 37.5513 12.6381 37.5513 12.6381L33.6287 11.1511Z" fill="#EBA188"/>
<path fill-rule="evenodd" clip-rule="evenodd" d="M89.0365 73.8534C89.0365 73.8534 88.3122 76.7681 89.0966 78.7312C89.881 80.6944 89.8209 76.1735 90.183 76.1142C90.5452 76.0542 90.5452 81.4082 91.5106 82.0628C92.4768 82.7167 94.4077 77.7797 93.02 73.4372C91.6316 69.0941 92.0538 68.2617 92.0538 68.2617L88.9757 71.5334C88.9757 71.5334 89.881 72.128 89.0365 73.8534Z" fill="#EBA188"/>
<mask id="mask2_237_1970" style="mask-type:luminance" maskUnits="userSpaceOnUse" x="22" y="8" width="71" height="64">
<path fill-rule="evenodd" clip-rule="evenodd" d="M54.8725 22.0703C44.9339 18.5036 33.7685 19.0729 33.7685 19.0729C35.6791 17.9074 38.4132 14.9433 39.7475 13.4319C40.1644 12.9597 40.0317 12.2352 39.4778 11.9303L35.066 9.50363C34.7624 9.33703 34.3945 9.33561 34.0902 9.50221C31.8652 10.7223 24.4286 16.1471 23.2205 17.9209C17.7269 25.9872 43.477 31.6559 49.363 32.5002C50.315 32.6363 51.0781 33.3474 51.2663 34.2747C52.8177 41.8958 55.2764 50.3074 56.2486 53.5309C56.5039 54.3774 56.2868 55.2891 55.5411 56.0767L54.8472 56.8091C53.8202 57.893 54.3618 59.6611 55.8281 60.0057C65.5893 62.3012 77.8329 64.2231 82.5793 64.9335C83.677 65.0987 84.6925 64.3345 84.8224 63.2491L84.9464 62.2147L87.7001 70.7121C87.9381 71.4451 88.8483 71.7181 89.4613 71.2409L92.0924 69.1942C92.3614 68.9837 92.5179 68.6654 92.5165 68.3272C92.502 65.4191 92.4386 51.4069 92.5186 45.466C92.6088 38.8197 80.4387 27.6341 76.7431 22.4056C76.1329 21.5428 75.1643 20.9693 73.9721 20.6134C75.1982 20.2185 76.2051 19.4111 76.5664 17.9067C77.8473 12.5762 69.0122 8.4707 69.0122 8.4707" fill="white"/>
</mask>
<g mask="url(#mask2_237_1970)">
<path fill-rule="evenodd" clip-rule="evenodd" d="M92.5188 45.4654C92.609 38.8191 80.4389 27.6334 76.7426 22.405C75.1732 20.1846 71.2295 19.8819 67.2122 20.2647C66.7052 20.4037 80.8983 20.4292 80.6718 15.3525C80.1908 4.57728 53.4821 3.52734 53.4821 3.52734L54.8727 22.0697C44.9334 18.503 33.7687 19.0723 33.7687 19.0723C35.6785 17.9061 38.4134 14.9427 39.7477 13.4312C40.1639 12.9591 40.0319 12.2338 39.4773 11.929L35.0662 9.503C34.7626 9.3364 34.394 9.33498 34.0904 9.50158C31.8654 10.7217 24.4973 16.1926 23.2207 17.9202C17.3607 25.8483 43.4765 31.6552 49.3625 32.4989C50.3145 32.6357 51.0775 33.3468 51.2665 34.2741C52.8179 41.8952 55.2758 50.3067 56.2488 53.5303C56.5034 54.376 56.287 55.2885 55.5405 56.0754L54.8474 56.8084C53.8204 57.8924 54.362 59.6598 55.8276 60.005C65.5887 62.3006 77.8331 64.2225 82.5788 64.9329C83.6772 65.0973 84.692 64.3338 84.8218 63.2484L84.9459 62.2141L87.6995 70.7114C87.9375 71.4445 88.8477 71.7174 89.4615 71.2396L92.0918 69.1929C92.3616 68.983 92.5181 68.6647 92.5166 68.3266C92.5022 65.4185 92.4388 51.4063 92.5188 45.4654Z" fill="#00CACB"/>
</g>
<mask id="mask3_237_1970" style="mask-type:luminance" maskUnits="userSpaceOnUse" x="60" y="19" width="29" height="36">
<path fill-rule="evenodd" clip-rule="evenodd" d="M62.7071 21.8064C61.521 22.5815 60.8116 23.876 60.8036 25.268C60.77 31.6328 62.1517 50.1776 70.3103 53.6243C74.5064 55.3968 80.5286 53.4868 84.6298 51.7029C87.3311 50.5281 88.8003 47.6571 88.1566 44.8402C86.1465 36.0447 82.7744 25.9805 78.8864 20.7542C77.9908 19.5502 75.9763 19.0771 73.6254 19.0771C69.7213 19.0771 64.8894 20.3809 62.7071 21.8064Z" fill="white"/>
</mask>
<g mask="url(#mask3_237_1970)">
<path fill-rule="evenodd" clip-rule="evenodd" d="M62.7064 21.8072C61.521 22.5816 60.8109 23.8761 60.8036 25.2682C60.77 31.6329 62.1509 50.1785 70.3103 53.6244C74.5064 55.3969 80.5286 53.4876 84.6298 51.703C87.3304 50.5283 88.8003 47.6579 88.1566 44.8411C86.1465 36.0449 82.7737 25.9813 78.8864 20.7543C76.5026 17.5506 66.2032 19.5225 62.7064 21.8072Z" fill="#131B42"/>
</g>
<path fill-rule="evenodd" clip-rule="evenodd" d="M54.0538 22.0156C54.0538 22.0156 60.1922 28.1892 61.9917 34.0059L65.5906 32.1069C65.5906 32.1069 61.9924 25.221 57.7413 22.9495L54.0538 22.0156Z" fill="#131B42"/>
<path fill-rule="evenodd" clip-rule="evenodd" d="M66.7887 70.9248C66.4519 70.9248 66.151 70.6898 66.0833 70.35C66.0063 69.9646 66.2604 69.59 66.6505 69.5137C66.7204 69.5002 73.7498 68.1219 75.5608 67.4388C75.9315 67.2978 76.3476 67.4837 76.4901 67.8512C76.6311 68.2188 76.4447 68.6305 76.0733 68.7708C74.1493 69.4959 67.2235 70.8536 66.9284 70.9113C66.8816 70.9206 66.8348 70.9248 66.7887 70.9248Z" fill="black"/>
<path fill-rule="evenodd" clip-rule="evenodd" d="M73.8389 75.4961C73.7857 75.4961 73.7317 75.4904 73.677 75.4783L68.1886 74.2317C67.8013 74.1441 67.5588 73.7609 67.648 73.3777C67.7373 72.9945 68.1252 72.7537 68.511 72.8427L73.9994 74.0893C74.3867 74.1769 74.6293 74.5601 74.54 74.9433C74.463 75.2731 74.1664 75.4961 73.8389 75.4961Z" fill="black"/>
<path fill-rule="evenodd" clip-rule="evenodd" d="M80.8592 118.254C80.5346 118.254 80.2395 118.034 80.1596 117.708C80.0667 117.325 80.305 116.94 80.6922 116.849L85.6451 115.672C86.0302 115.583 86.421 115.816 86.5132 116.199C86.606 116.581 86.3678 116.966 85.9813 117.058L81.0277 118.235C80.9715 118.247 80.9146 118.254 80.8592 118.254Z" fill="black"/>
<path fill-rule="evenodd" clip-rule="evenodd" d="M25.3544 97.7461C25.2198 97.7461 25.0845 97.709 24.9636 97.6314L20.1683 94.5542C19.8351 94.3398 19.7393 93.8989 19.956 93.5691C20.1719 93.2379 20.6175 93.1431 20.9515 93.359L25.7467 96.4361C26.08 96.6505 26.1757 97.0915 25.959 97.4213C25.8208 97.6321 25.5898 97.7461 25.3544 97.7461Z" fill="black"/>
<path fill-rule="evenodd" clip-rule="evenodd" d="M36.9484 75.4969H34.4291C34.0311 75.4969 33.7094 75.1785 33.7094 74.7846C33.7094 74.3907 34.0311 74.0723 34.4291 74.0723H36.9484C37.3465 74.0723 37.6682 74.3907 37.6682 74.7846C37.6682 75.1785 37.3465 75.4969 36.9484 75.4969Z" fill="black"/>
<path fill-rule="evenodd" clip-rule="evenodd" d="M84.9941 63.3851C84.6213 63.3851 84.3067 63.1016 84.2772 62.7276L83.5589 53.593C83.5279 53.2012 83.8245 52.8586 84.2211 52.828C84.6105 52.7931 84.9632 53.0908 84.9941 53.4833L85.7125 62.6179C85.7434 63.0097 85.4469 63.3523 85.0503 63.3829C85.0315 63.3843 85.0128 63.3851 84.9941 63.3851Z" fill="#293059"/>
<path fill-rule="evenodd" clip-rule="evenodd" d="M32.5991 20.0398H29.2003C28.8029 20.0398 28.4805 19.7214 28.4805 19.3275C28.4805 18.9336 28.8029 18.6152 29.2003 18.6152H32.5991C32.9972 18.6152 33.3189 18.9336 33.3189 19.3275C33.3189 19.7214 32.9972 20.0398 32.5991 20.0398Z" fill="#293059"/>
<path fill-rule="evenodd" clip-rule="evenodd" d="M56.9547 22.7082C56.5711 22.7082 56.2522 22.4083 56.2364 22.0258C56.2198 21.6326 56.5279 21.3007 56.9252 21.2843L61.1813 21.1076C61.5866 21.0848 61.9148 21.3961 61.9306 21.7893C61.9479 22.1825 61.6391 22.5144 61.2418 22.5308L56.9857 22.7075C56.9749 22.7082 56.9655 22.7082 56.9547 22.7082Z" fill="#293059"/>
<path fill-rule="evenodd" clip-rule="evenodd" d="M57.0112 55.2889C56.6887 55.2889 56.3958 55.0724 56.313 54.749C56.2173 54.3672 56.4519 53.9804 56.8377 53.885L61.0363 52.8486C61.4206 52.756 61.8122 52.9861 61.9094 53.3679C62.0044 53.7497 61.7705 54.1364 61.3847 54.2319L57.1861 55.2683C57.1278 55.2818 57.0688 55.2889 57.0112 55.2889Z" fill="#293059"/>
<path fill-rule="evenodd" clip-rule="evenodd" d="M53.5232 21.08C52.7437 20.1305 52.8898 18.7343 53.85 17.9629L67.4972 6.99484C68.4574 6.22341 69.8682 6.36801 70.6478 7.31822C71.4273 8.26844 71.2812 9.66384 70.321 10.4353L56.6738 21.4033C55.7136 22.1748 54.3028 22.0302 53.5232 21.08Z" fill="#F7F1ED"/>
<path fill-rule="evenodd" clip-rule="evenodd" d="M101.161 189.572C100.837 189.572 100.542 189.352 100.462 189.026C96.5165 172.837 84.175 170.368 72.2394 167.98C61.2727 165.785 50.9128 163.713 47.9753 151.387C45.2192 139.821 38.3243 131.786 29.0599 129.342C22.2788 127.555 15.2695 129.175 11.2026 133.474C10.9313 133.761 10.4742 133.775 10.1849 133.507C9.8955 133.238 9.88038 132.787 10.1517 132.5C14.5763 127.824 22.1449 126.043 29.4306 127.966C39.2241 130.549 46.4947 138.966 49.3774 151.06C52.1033 162.498 62.0227 164.482 72.5252 166.584C84.3254 168.945 97.7006 171.621 101.862 188.693C101.955 189.075 101.717 189.46 101.33 189.552C101.274 189.565 101.217 189.572 101.161 189.572Z" fill="#293059"/>
<path fill-rule="evenodd" clip-rule="evenodd" d="M62.5924 172.828C62.5463 172.828 62.4995 172.824 62.4527 172.815C43.9512 169.201 40.389 150.999 40.3552 150.816C40.2839 150.429 40.543 150.058 40.9339 149.988C41.3255 149.919 41.6997 150.174 41.771 150.559C41.8034 150.733 45.208 167.995 62.7306 171.417C63.1207 171.494 63.3748 171.868 63.2978 172.254C63.2301 172.593 62.9292 172.828 62.5924 172.828Z" fill="#293059"/>
<path fill-rule="evenodd" clip-rule="evenodd" d="M78.0665 176.567C77.9758 176.567 77.8836 176.551 77.7951 176.514C73.1208 174.63 68.3961 174.608 68.3493 174.608C67.9513 174.608 67.6295 174.29 67.6295 173.896C67.6295 173.502 67.9513 173.184 68.3493 173.184C68.553 173.184 73.4051 173.206 78.3378 175.195C78.7064 175.343 78.8834 175.759 78.733 176.123C78.6193 176.4 78.3508 176.567 78.0665 176.567Z" fill="#293059"/>
<path fill-rule="evenodd" clip-rule="evenodd" d="M55.3949 50.6676C55.3949 50.6676 59.6157 52.0259 66.7899 49.837L65.59 46.5127C65.59 46.5127 60.6529 48.7985 54.5714 47.7272L55.3949 50.6676Z" fill="#131B42"/>
<path fill-rule="evenodd" clip-rule="evenodd" d="M105.665 180.129C105.337 180.129 105.041 179.906 104.964 179.577C101.934 166.65 85.8238 163.042 85.6611 163.007C85.2725 162.924 85.0263 162.544 85.1105 162.159C85.1954 161.775 85.5805 161.53 85.9663 161.614C86.1369 161.651 103.129 165.442 106.367 179.255C106.457 179.639 106.215 180.022 105.828 180.111C105.774 180.123 105.719 180.129 105.665 180.129Z" fill="#293059"/>
<path fill-rule="evenodd" clip-rule="evenodd" d="M67.015 40.3507C66.7055 40.3507 66.4198 40.152 66.3262 39.8436C64.2683 33.0866 62.0579 24.6045 63.2146 22.5702C63.4161 22.2169 63.6759 22.105 63.8141 22.0701C64.1971 21.9676 64.5915 22.2005 64.6908 22.5816C64.7635 22.8587 64.6606 23.1407 64.4497 23.311C64.313 23.655 63.6846 26.2321 67.7039 39.4333C67.8191 39.8094 67.6031 40.2068 67.2223 40.3201C67.1532 40.3408 67.0834 40.3507 67.015 40.3507Z" fill="#293059"/>
<path fill-rule="evenodd" clip-rule="evenodd" d="M72.5704 39.1853C72.2515 39.1853 71.9593 38.9731 71.8743 38.6532C71.7743 38.2729 72.0046 37.8832 72.389 37.7835L83.396 34.9343C83.7804 34.8381 84.1734 35.0632 84.2749 35.4436C84.3749 35.824 84.1446 36.2136 83.7602 36.3133L72.7532 39.1625C72.692 39.1775 72.6308 39.1853 72.5704 39.1853Z" fill="#293059"/>
<path fill-rule="evenodd" clip-rule="evenodd" d="M40.6779 187.292C40.3684 187.292 40.0826 187.094 39.989 186.786C35.9474 173.521 22.686 170.246 22.5521 170.214C22.1663 170.123 21.9273 169.738 22.0188 169.356C22.1116 168.974 22.501 168.737 22.8847 168.828C23.0265 168.861 37.0811 172.308 41.3667 186.374C41.4819 186.751 41.2659 187.149 40.8859 187.262C40.8161 187.283 40.747 187.292 40.6779 187.292Z" fill="#293059"/>
<path fill-rule="evenodd" clip-rule="evenodd" d="M54.4237 16.1545C54.2395 16.1545 54.0552 16.0847 53.9148 15.9458C52.6293 14.6737 53.1008 12.5268 53.1209 12.4363C53.2094 12.0524 53.5988 11.8102 53.9818 11.8978C54.369 11.9847 54.6123 12.3651 54.5267 12.7476C54.436 13.1557 54.333 14.3453 54.9326 14.9386C55.2141 15.2171 55.2141 15.6673 54.9326 15.9458C54.7923 16.0847 54.608 16.1545 54.4237 16.1545Z" fill="#E38F74"/>
</svg>
