<svg width="268" height="190" viewBox="0 0 268 190" fill="none" xmlns="http://www.w3.org/2000/svg">
<path fill-rule="evenodd" clip-rule="evenodd" d="M204.051 43.9521C203.827 43.5424 203.633 43.191 203.6 43.2227C200.049 35.2042 193.332 24.563 185.483 18.8878C188.504 22.131 188.561 22.2382 192.839 27.6253C188.865 24.3066 185.956 19.6057 181.102 15.7108C184.848 19.0825 179.549 15.1272 175.994 12.8242C169.614 7.86807 157.721 2.48266 146.871 0.86191C142.229 -0.12794 126.789 -0.405651 129.091 0.7824C122.558 1.47956 121.54 0.925865 116.65 1.80797C103.071 6.62182 90.5057 9.66052 79.8917 22.4398C80.1058 21.2316 74.7188 27.294 72.9207 29.9127C68.3162 35.2238 61.7795 50.4011 64.3916 47.5376C66.6663 43.5033 69.9566 34.4563 75.0326 29.2996C79.3149 24.9381 77.3219 27.4519 74.5797 31.2471C71.8172 35.0573 68.9212 40.6074 69.3442 40.9422C70.0523 39.3278 71.1632 38.8669 73.7719 34.2622C71.1176 38.8553 71.731 38.3754 72.8452 37.1389C71.2471 39.7392 69.8039 42.4471 68.5246 45.2502C67.4915 46.444 66.8003 46.9994 66.6415 46.4267C59.9138 58.9808 59.8068 72.3864 61.099 88.4441C61.2962 92.2467 63.4249 100.002 64.1595 100.152C65.0484 100.081 61.3627 89.3619 61.4252 82.4808C62.6814 89.8199 64.5955 102.314 69.7239 111.158C69.3595 110.216 69.0215 109.266 68.7009 108.311C71.1401 113.58 74.1679 118.508 77.6971 123.006C78.9797 124.827 80.3463 126.55 81.8154 128.089C81.0814 127.496 80.3103 126.935 79.6101 126.298C83.0525 130.45 87.3703 135.234 89.0597 135.488C86.3079 133.112 85.5378 132.049 82.9235 129.679C82.6587 129.06 84.2523 130.493 84.9999 131.028C88.1831 134.046 91.6284 136.78 95.3023 139.181C95.9017 139.629 96.461 140.049 96.9517 140.433C97.7527 140.899 98.983 141.531 100.357 142.194C110.493 147.694 122.051 150.814 134.323 150.814C145.39 150.814 155.875 148.278 165.26 143.745C166.244 143.408 167.234 143.066 167.566 143.045C171.55 140.813 175.423 138.108 179.079 135.021C196.013 121.433 206.892 100.311 206.892 76.5889C206.892 75.4337 206.864 74.2866 206.813 73.1452C208.048 67.5858 208.36 56.7326 204.051 43.9521ZM66.4545 98.9429C65.636 96.7949 64.6164 94.121 64.2812 91.0517C64.8772 93.2861 65.3926 95.5838 66.4545 98.9429ZM63.2869 57.3321C63.1026 58.4897 63.0007 59.6611 62.8565 60.8163C63.3595 59.4116 63.8102 58.0039 64.3995 56.643C62.9359 63.033 62.1912 60.3329 61.5123 66.8606C61.2307 64.024 61.9106 63.2214 63.2869 57.3321V57.3321Z" fill="#F07E58"/>
<path d="M3.59034 181.24C-3.37124 182.889 1.37219 187.768 4.61411 190.001H133.608H134.12H263.114C266.356 187.768 271.099 182.889 264.137 181.24C255.435 179.179 239.567 175.056 230.865 177.117C222.163 179.179 208.854 175.056 205.271 173.51C201.688 171.964 187.867 171.964 183.26 155.474C178.654 138.983 180.189 124.039 179.677 116.824C179.165 109.61 176.094 99.8188 161.25 95.6962C146.405 91.5736 143.334 79.2058 143.334 79.2058C144.528 77.4881 147.019 73.6403 147.429 71.9913C147.941 69.93 155.107 66.8381 147.429 58.5929C147.768 53.1358 145.516 42.2612 133.864 42.1043C122.211 42.2612 119.96 53.1358 120.299 58.5929C112.621 66.8381 119.787 69.93 120.299 71.9913C120.709 73.6403 123.2 77.4881 124.394 79.2058C124.394 79.2058 121.323 91.5736 106.478 95.6962C91.6337 99.8188 88.5624 109.61 88.0506 116.824C87.5387 124.039 89.0743 138.983 84.4674 155.474C79.8605 171.964 66.0397 171.964 62.4565 173.51C58.8733 175.056 45.5644 179.179 36.8624 177.117C28.1605 175.056 12.2923 179.179 3.59034 181.24Z" fill="#0D1A27"/>
</svg>
