<svg width="34" height="34" viewBox="0 0 34 34" fill="none" xmlns="http://www.w3.org/2000/svg">
<path d="M13.7394 11.8437C13.7313 11.8499 13.7228 11.856 13.7139 11.8619C13.6275 11.9196 13.5346 11.9409 13.4552 11.9409H13.6623L13.7521 11.8511L13.7394 11.8437ZM13.7394 11.8437L13.6285 11.7797H13.6284H13.628H13.6277H13.6273H13.6269H13.6265H13.6262H13.6258H13.6254H13.625H13.6246H13.6243H13.6239H13.6235H13.6231H13.6228H13.6224H13.622H13.6216H13.6212H13.6209H13.6205H13.6201H13.6197H13.6194H13.619H13.6186H13.6182H13.6178H13.6175H13.6171H13.6167H13.6163V11.7727L13.5671 11.7443L13.5595 11.7366L13.7394 11.8437ZM23.8963 15.3402L24.1679 14.9204L24.1576 14.9137L24.1469 14.9075L19.4742 12.2006L19.4733 12.2L14.8328 9.52529L14.8328 9.52529L14.8312 9.52437C14.2708 9.20415 13.6168 9.11609 13.0278 9.28437C12.4743 9.44253 11.9481 9.79942 11.6172 10.363C11.538 10.476 11.4911 10.5898 11.4594 10.6759C11.437 10.7365 11.4256 10.7712 11.416 10.8C11.4056 10.8317 11.3974 10.8563 11.3797 10.9007L11.3742 10.9143L11.3696 10.9283C11.3374 11.0249 11.3242 11.1243 11.317 11.1786C11.3167 11.181 11.3164 11.1833 11.3161 11.1855C11.307 11.2538 11.3023 11.288 11.2944 11.3196L11.2795 11.3793V11.4409V11.4411V11.4412V11.4414V11.4416V11.4418V11.442V11.4422V11.4424V11.4426V11.4428V11.443V11.4432V11.4434V11.4436V11.4438V11.444V11.4442V11.4444V11.4446V11.4448V11.445V11.4452V11.4454V11.4456V11.4458V11.446V11.4462V11.4464V11.4466V11.4468V11.4471V11.4473V11.4475V11.4477V11.4479V11.4481V11.4483V11.4485V11.4488V11.449V11.4492V11.4494V11.4496V11.4498V11.4501V11.4503V11.4505V11.4507V11.4509V11.4512V11.4514V11.4516V11.4518V11.4521V11.4523V11.4525V11.4527V11.453V11.4532V11.4534V11.4536V11.4539V11.4541V11.4543V11.4546V11.4548V11.455V11.4553V11.4555V11.4557V11.456V11.4562V11.4564V11.4567V11.4569V11.4571V11.4574V11.4576V11.4578V11.4581V11.4583V11.4586V11.4588V11.459V11.4593V11.4595V11.4598V11.46V11.4603V11.4605V11.4607V11.461V11.4612V11.4615V11.4617V11.462V11.4622V11.4625V11.4627V11.463V11.4632V11.4635V11.4637V11.464V11.4642V11.4645V11.4647V11.465V11.4652V11.4655V11.4657V11.466V11.4662V11.4665V11.4667V11.467V11.4672V11.4675V11.4677V11.468V11.4683V11.4685V11.4688V11.469V11.4693V11.4696V11.4698V11.4701V11.4703V11.4706V11.4708V11.4711V11.4714V11.4716V11.4719V11.4722V11.4724V11.4727V11.4729V11.4732V11.4735V11.4737V11.474V11.4743V11.4745V11.4748V11.4751V11.4753V11.4756V11.4759V11.4761V11.4764V11.4767V11.4769V11.4772V11.4775V11.4777V11.478V11.4783V11.4786V11.4788V11.4791V11.4794V11.4796V11.4799V11.4802V11.4804V11.4807V11.481V11.4813V11.4815V11.4818V11.4821V11.4824V11.4826V11.4829V11.4832V11.4835V11.4837V11.484V11.4843V11.4846V11.4848V11.4851V11.4854V11.4857V11.4859V11.4862V11.4865V11.4868V11.487V11.4873V11.4876V11.4879V11.4881V11.4884V11.4887V11.489V11.4893V11.4895V11.4898V11.4901V11.4904V11.4907V11.4909V11.4912V11.4915V11.4918V11.4921V11.4923V11.4926V11.4929V11.4932V11.4935V11.4937V11.494V11.4943V11.4946V11.4949V11.4951V11.4954V11.4957V11.496V11.4963V11.4966V11.4968V11.4971V11.4974V11.4977V11.498V11.4982V11.4985V11.4988V11.4991V11.4994V11.4997V11.4999V11.5002V11.5005V11.5008V11.5011V11.5014V11.5016V11.5019V11.5022V11.5025V11.5028V11.5031V11.5033V11.5036V11.5039V11.5042V11.5045V11.5047V11.505V11.5053V11.5056V11.5059V11.5062V11.5064V11.5067V11.507V11.5073V11.5076V11.5079V11.5081V11.5084V11.5087V11.509V11.5093V11.5096V11.5098V11.5101V11.5104V11.5107V11.511V11.5113V11.5115V11.5118V11.5121V11.5124V11.5127V11.513V11.5132V11.5135V11.5138V11.5141V11.5144V11.5146V11.5149V11.5152V11.5155V11.5158V11.5161V11.5163V11.5166V11.5169V11.5172V11.5175V11.5177V11.518V11.5183V11.5186V11.5189V11.5191V11.5194V11.5197V11.52V11.5203V11.5205V11.5208V11.5211V11.5214V11.5216V11.5219V11.5222V11.5225V11.5228V11.523V11.5233V11.5236V11.5239V11.5241V11.5244V11.5247V11.525V11.5253V11.5255V11.5258V11.5261V11.5264V11.5266V11.5269V11.5272V11.5275V11.5277V11.528V11.5283V11.5285V11.5288V11.5291V11.5294V11.5296V11.5299V11.5302V11.5305V11.5307V11.531V11.5313V11.5315V11.5318V11.5321V11.5324V11.5326V11.5329V11.5332V11.5334V11.5337V11.534V11.5342V11.5345V11.5348V11.535V11.5353V11.5356V11.5358V11.5361V11.5364V11.5366V11.5369V11.5372V11.5374V11.5377V11.5379V11.5382V11.5385V11.5387V11.539V11.5393V11.5395V11.5398V11.54V11.5403V11.5406V11.5408V11.5411V11.5413V11.5416V11.5419V11.5421V11.5424V11.5426V11.5429V11.5431V11.5434V11.5437V11.5439V11.5442V11.5444V11.5447V11.5449V11.5452V11.5454V11.5457V11.5459V11.5462V11.5464V11.5467V11.5469V11.5472V11.5474V11.5477V11.5479V11.5482V11.5484V11.5487V11.5489V11.5492V11.5494V11.5496V11.5499V11.5501V11.5504V11.5506V11.5509V11.5511V11.5513V11.5516V11.5518V11.5521V11.5523V11.5525V11.5528V11.553V11.5533V11.5535V11.5537V11.554V11.5542V11.5544V11.5547V11.5549V11.5551V11.5554V11.5556V11.5558V11.5561V11.5563V11.5565V11.5568V11.557V11.5572V11.5574V11.5577V11.5579V11.5581V11.5583V11.5586V11.5588V11.559V11.5592V11.5595V11.5597V11.5599V11.5601V11.5603V11.5606V11.5608V11.561V11.5612V11.5614V11.5617V11.5619V11.5621V11.5623V11.5625V11.5627V11.5629V11.5632V11.5634V11.5636V11.5638V11.564V11.5642V11.5644V11.5646V11.5648V11.565V11.5652V11.5654V11.5656V11.5658V11.566V11.5663V11.5665V11.5667V11.5669V11.5671V11.5673V11.5674V11.5676V11.5678V11.568V11.5682V11.5684V11.5686V11.5688V11.569V11.5692V11.5694V11.5696V11.5698V17.0481V22.5265C11.2795 23.1834 11.5641 23.7916 11.9738 24.2013L12.3273 23.8477L11.9738 24.2013C12.4203 24.6478 12.9979 24.8955 13.6486 24.8955C13.8919 24.8955 14.1931 24.7999 14.4002 24.7242C14.6188 24.6443 14.8436 24.5444 14.9651 24.4723L19.422 21.8986H19.5274L19.6596 21.7663L24.3377 19.0613C24.3381 19.0611 24.3385 19.0608 24.3389 19.0606C24.9152 18.7309 25.279 18.1991 25.4396 17.6079C25.4931 17.4349 25.4924 17.2404 25.492 17.1353C25.492 17.1272 25.492 17.1196 25.492 17.1126C25.492 16.4068 25.1306 15.8495 24.8189 15.4966C24.6592 15.3158 24.5007 15.1749 24.3819 15.0788C24.3222 15.0305 24.2716 14.9927 24.2346 14.9662C24.216 14.953 24.2009 14.9425 24.1896 14.9348L24.1756 14.9254L24.171 14.9224L24.1693 14.9212L24.1685 14.9208L24.1682 14.9206C24.1681 14.9205 24.1679 14.9204 23.8963 15.3402ZM18.3855 14.5033L22.6832 16.993L18.3833 19.484C18.3211 19.507 18.2774 19.5352 18.2574 19.5485C18.248 19.5548 18.2393 19.561 18.2312 19.5669L13.923 22.0548V17.0159V11.9498L18.1646 14.3991C18.2221 14.4422 18.2814 14.4709 18.3364 14.4892C18.3534 14.4949 18.3698 14.4995 18.3855 14.5033ZM13.4874 11.4731C13.5044 11.4901 13.5205 11.5062 13.5358 11.5214L13.5358 11.5214L13.4874 11.4731H13.4874ZM13.5841 11.5698L13.5519 11.5375C13.5631 11.5488 13.5739 11.5595 13.5841 11.5698C13.5954 11.5811 13.6061 11.5918 13.6163 11.602V11.602L13.5841 11.5698ZM13.7775 11.7631V11.763C13.7894 11.7749 13.7968 11.7822 13.8014 11.7868C13.8013 11.7868 13.8013 11.7869 13.8013 11.7869L13.7775 11.7631ZM13.923 11.6759C13.9375 11.6638 13.9536 11.6496 13.9699 11.6333L13.9395 11.6029L13.923 11.6759Z" fill="#3A3A3B" stroke="#3A3A3B"/>
<path d="M5.36749 5.31916L5.36569 5.32097C2.14536 8.57449 0.516113 12.7943 0.516113 17.0161C0.516113 21.2348 2.1111 25.4567 5.33527 28.6808C8.55944 31.905 12.7813 33.5 17 33.5C21.2187 33.5 25.4406 31.905 28.6647 28.6808C31.8889 25.4567 33.4839 21.2348 33.4839 17.0161C33.4839 12.7978 31.8892 8.57635 28.6656 5.3523C25.4746 2.12846 21.2527 0.5 17.0322 0.5C12.8135 0.5 8.59166 2.09499 5.36749 5.31916ZM26.8317 26.8116L26.8297 26.8136C24.1226 29.5207 20.5772 30.8887 17.0322 30.8887C13.4872 30.8887 9.94185 29.5207 7.23473 26.8136L7.2327 26.8116C4.49705 24.107 3.15962 20.5637 3.15962 17.0161C3.15962 13.4711 4.52759 9.92574 7.23472 7.21861C9.94185 4.51148 13.4872 3.1435 17.0322 3.1435C20.5772 3.1435 24.1226 4.51148 26.8297 7.21861C29.5369 9.92574 30.9048 13.4711 30.9048 17.0161C30.9048 20.5637 29.5674 24.107 26.8317 26.8116Z" fill="#3A3A3B" stroke="#3A3A3B"/>
</svg>
