<svg width="191" height="192" viewBox="0 0 191 192" fill="none" xmlns="http://www.w3.org/2000/svg">
<rect x="0.5" width="190" height="192" rx="30" fill="white"/>
<g opacity="0.461565">
<path d="M96.0257 27.3027L96.1266 27.2988C96.9605 27.2988 97.6365 27.9819 97.6365 28.8246C97.6365 31.3784 100.375 34.0834 106.171 36.7408C106.804 37.0356 107.852 37.6072 109.182 38.4748C111.382 39.9098 113.579 41.6711 115.632 43.7764C121.154 49.4382 124.62 56.482 125.034 64.9613C133.552 65.3141 140.62 68.8328 146.288 74.4777C148.371 76.5526 150.114 78.773 151.534 80.996C152.393 82.3401 152.959 83.3985 153.25 84.0381C155.88 89.8956 158.557 92.6629 161.084 92.6629C161.918 92.6629 162.594 93.346 162.594 94.1887C162.594 94.2256 162.593 94.2621 162.59 94.2983L162.594 94.4003C162.594 95.243 161.918 95.9261 161.084 95.9261C158.557 95.9261 155.88 98.6934 153.25 104.551C152.959 105.19 152.393 106.249 151.534 107.593C150.114 109.816 148.371 112.036 146.288 114.111C140.623 119.753 133.56 123.271 125.044 123.625C124.687 132.211 121.208 139.337 115.632 145.054C113.579 147.159 111.382 148.921 109.182 150.356C107.852 151.223 106.804 151.795 106.171 152.09C101.204 154.367 98.4823 156.679 97.8054 158.902C97.8686 159.265 97.898 159.633 97.898 160.006C97.898 160.848 97.222 161.532 96.3881 161.532L96.2542 161.519L96.1266 161.532C95.397 161.532 94.7882 161.009 94.6474 160.313L94.6167 160.006C94.6167 159.635 94.6457 159.27 94.7034 158.909C94.0388 156.685 91.3165 154.37 86.3432 152.09C85.7103 151.795 84.6629 151.223 83.3328 150.356C81.133 148.921 78.9357 147.159 76.8825 145.054C71.3096 139.34 67.8309 132.218 67.47 123.633C58.8843 123.316 51.7668 119.789 46.0655 114.111C43.9821 112.036 42.2392 109.816 40.8191 107.593C39.9605 106.249 39.3948 105.19 39.1031 104.551C36.8495 99.531 34.5612 96.7807 32.3622 96.0968C32.0027 96.1606 31.6385 96.1903 31.2694 96.1903C30.4355 96.1903 29.7595 95.5072 29.7595 94.6645L29.7716 94.5292L29.7595 94.4003C29.7595 93.663 30.2771 93.0478 30.9651 92.9055L31.2694 92.8745C31.6359 92.8745 31.9976 92.9038 32.3546 92.9621C34.5559 92.2905 36.8469 89.5396 39.1031 84.5139C39.3948 83.8743 39.9605 82.8159 40.8191 81.4718C42.2392 79.2488 43.9821 77.0284 46.0655 74.9536C51.6589 69.3831 58.6155 65.8832 66.9877 65.4549L66.9843 65.5414L66.9899 65.4371C67.2956 56.7452 70.787 49.5437 76.4116 43.7764C78.4648 41.6711 80.6621 39.9098 82.8619 38.4748C84.1921 37.6072 85.2394 37.0356 85.8724 36.7408C91.6688 34.0834 94.4074 31.3784 94.4074 28.8246C94.4074 27.9819 95.0834 27.2988 95.9172 27.2988C95.9537 27.2988 95.9899 27.3001 96.0257 27.3027ZM96.0171 33.0807C94.4123 35.4208 91.4182 37.5492 87.1282 39.5159C87.0157 39.5683 86.7802 39.6868 86.4394 39.8728C85.8573 40.1905 85.2048 40.5787 84.4997 41.0386C82.4765 42.3584 80.4507 43.9821 78.5624 45.9184C73.321 51.2929 70.1413 57.9725 69.9931 66.0933C70.157 66.3355 70.2492 66.625 70.2492 66.9363C70.2492 67.7789 69.5732 68.4621 68.7393 68.4621C60.4362 68.4621 53.6331 71.7014 48.1851 77.127C46.2691 79.0352 44.6622 81.0823 43.3562 83.1268C42.901 83.8393 42.5169 84.4986 42.2025 85.0869C42.0185 85.4313 41.9012 85.6693 41.8494 85.783C39.994 89.9158 37.9931 92.8585 35.804 94.5377C37.9931 96.2063 39.994 99.149 41.8494 103.282C41.9012 103.396 42.0185 103.634 42.2025 103.978C42.5169 104.566 42.901 105.226 43.3562 105.938C44.6622 107.983 46.2691 110.03 48.1851 111.938C53.6331 117.363 60.4362 120.603 68.7393 120.603L68.9214 120.616C68.9305 120.616 68.9396 120.616 68.9487 120.616C69.7826 120.616 70.4586 121.299 70.4586 122.141C70.4586 130.532 73.6642 137.407 79.0333 142.912C80.9216 144.848 82.9473 146.472 84.9706 147.792C85.6756 148.252 86.3281 148.64 86.9103 148.958C87.251 149.144 87.4865 149.262 87.5991 149.314C91.6889 151.189 94.6009 153.211 96.2626 155.423C97.9138 153.211 100.826 151.189 104.916 149.314C105.028 149.262 105.264 149.144 105.604 148.958C106.187 148.64 106.839 148.252 107.544 147.792C109.567 146.472 111.593 144.848 113.481 142.912C118.851 137.407 122.056 130.532 122.056 122.141C122.056 121.403 122.576 120.787 123.265 120.646C123.376 120.617 123.493 120.603 123.614 120.603C131.917 120.603 138.72 117.363 144.168 111.938C146.084 110.03 147.691 107.983 148.997 105.938C149.452 105.226 149.837 104.566 150.151 103.978C150.335 103.634 150.452 103.396 150.504 103.282C152.45 98.9467 154.557 95.921 156.872 94.2896C154.557 92.668 152.45 89.6423 150.504 85.3072C150.452 85.1935 150.335 84.9555 150.151 84.6111C149.837 84.0228 149.452 83.3635 148.997 82.651C147.691 80.6065 146.084 78.5594 144.168 76.6512C138.878 71.3826 132.31 68.1755 124.331 67.9944C124.106 68.1383 123.845 68.2147 123.566 68.2147C122.732 68.2147 122.056 67.5316 122.056 66.6889C122.056 58.2984 118.851 51.4237 113.481 45.9184C111.593 43.9821 109.567 42.3584 107.544 41.0386C106.839 40.5787 106.187 40.1905 105.604 39.8728C105.264 39.6868 105.028 39.5683 104.916 39.5159C100.626 37.5492 97.6315 35.4208 96.0171 33.0807Z" fill="#3A3A3B" fill-opacity="0.46"/>
</g>
<g opacity="0.551595">
<path d="M142.747 48.259L142.821 48.3279C143.407 48.92 143.407 49.8801 142.821 50.4723C141.045 52.2669 141.088 56.1124 143.313 62.096C143.553 62.7526 143.892 63.898 144.223 65.4523C144.771 68.0228 145.09 70.8208 145.069 73.7583C145.011 81.7452 142.495 89.2325 136.757 95.5284C142.477 101.818 144.987 109.296 145.044 117.272C145.065 120.209 144.746 123.007 144.198 125.578C143.867 127.132 143.528 128.277 143.288 128.934C141.379 134.068 141.076 137.628 142.15 139.669C142.448 139.876 142.722 140.112 142.979 140.372C143.565 140.964 143.565 141.924 142.979 142.516L142.877 142.603L142.796 142.702C142.283 143.22 141.491 143.285 140.909 142.896L140.674 142.702C140.414 142.44 140.179 142.161 139.968 141.864C137.95 140.779 134.429 141.087 129.355 143.014C128.705 143.257 127.572 143.599 126.033 143.934C123.49 144.487 120.721 144.81 117.814 144.788C109.925 144.73 102.528 142.196 96.3043 136.42C90.0495 142.293 82.5954 144.869 74.6406 144.928C71.7337 144.95 68.9649 144.627 66.4211 144.073C64.883 143.738 63.7496 143.396 63.0998 143.154C58.0194 141.224 54.4966 140.918 52.4768 142.004C52.2721 142.304 52.0384 142.581 51.7809 142.842C51.1949 143.434 50.2448 143.434 49.6588 142.842L49.5732 142.738L49.4751 142.656C48.9624 142.138 48.8983 141.338 49.2828 140.749L49.4751 140.512C49.7344 140.25 50.0109 140.012 50.3045 139.798C51.3778 137.759 51.0732 134.201 49.1661 129.074C48.9263 128.417 48.5878 127.271 48.2564 125.717C47.7085 123.147 47.3891 120.349 47.4103 117.411C47.4673 109.524 49.9224 102.124 55.509 95.8774L56.3517 96.7602C49.916 90.2568 47.1155 82.3832 47.0546 73.953C47.0334 71.0156 47.3527 68.2176 47.9007 65.647C48.232 64.0927 48.5705 62.9473 48.8103 62.2907C51.0357 56.3072 51.079 52.4616 49.3031 50.667C48.7171 50.0749 48.7171 49.1148 49.3031 48.5226C49.3287 48.4967 49.3551 48.4719 49.382 48.4483L49.4502 48.3739C50.0362 47.7818 50.9863 47.7818 51.5723 48.3739C53.3482 50.1686 57.1537 50.1247 63.0749 47.876C63.7247 47.6337 64.8582 47.2916 66.3963 46.9568C68.94 46.403 71.7089 46.0803 74.6158 46.1018C82.4327 46.1594 89.7661 48.6478 95.9535 54.3115C102.186 48.5117 109.599 45.9653 117.508 45.907C120.415 45.8856 123.184 46.2083 125.727 46.762C127.266 47.0968 128.399 47.4389 129.049 47.6812C134.97 49.93 138.775 49.9738 140.551 48.1792C141.137 47.587 142.087 47.587 142.673 48.1792C142.699 48.2051 142.724 48.2317 142.747 48.259ZM138.723 52.3147C136.196 52.7758 132.974 52.2844 129.08 50.9176L128.001 50.5232L127.73 50.4296C127.608 50.3893 127.454 50.3405 127.269 50.2848C126.639 50.0947 125.911 49.9041 125.095 49.7266C122.756 49.2173 120.203 48.9199 117.53 48.9396C110.147 48.994 103.301 51.4052 97.5673 56.9454C97.5114 57.2046 97.3811 57.4434 97.1854 57.6412C96.5994 58.2333 95.6493 58.2333 95.0633 57.6412C89.2286 51.745 82.1952 49.1904 74.5939 49.1343C71.9205 49.1146 69.3678 49.4121 67.0282 49.9214C66.2129 50.0989 65.4845 50.2894 64.8544 50.4796C64.67 50.5352 64.5159 50.584 64.3934 50.6243L64.1222 50.7179C59.7407 52.382 56.1571 53.0125 53.3955 52.515C53.8519 55.068 53.3656 58.3237 52.013 62.259L51.6227 63.3491L51.53 63.623C51.4902 63.7468 51.4419 63.9026 51.3868 64.089C51.1986 64.7256 51.0101 65.4617 50.8344 66.2857C50.3304 68.6498 50.0361 71.2294 50.0556 73.9309C50.1097 81.4292 52.5199 88.3805 58.0621 94.1921C58.3469 94.2473 58.6131 94.3852 58.8295 94.604C59.4155 95.1961 59.4155 96.1562 58.8295 96.7484C52.9948 102.645 50.4668 109.752 50.4113 117.433C50.3918 120.135 50.6862 122.714 51.1902 125.079C51.3658 125.902 51.5544 126.639 51.7425 127.275C51.8527 127.648 51.9358 127.898 51.9784 128.015C53.5486 132.237 54.1889 135.726 53.8182 138.46C56.5169 138.078 59.9693 138.725 64.1471 140.312C64.2626 140.355 64.5105 140.439 64.8793 140.55C65.5093 140.74 66.2378 140.931 67.0531 141.108C69.3926 141.618 71.9453 141.915 74.6187 141.896C82.2201 141.839 89.2534 139.285 95.0882 133.389L95.2093 133.286C95.2207 133.273 95.2324 133.261 95.2443 133.249C95.8303 132.657 96.7804 132.657 97.3664 133.249C103.201 139.145 110.234 141.7 117.836 141.756C120.509 141.776 123.062 141.478 125.401 140.969C126.217 140.791 126.945 140.601 127.575 140.411C127.944 140.299 128.192 140.215 128.307 140.172C132.485 138.586 135.938 137.939 138.644 138.313C138.266 135.586 138.906 132.097 140.476 127.876C140.519 127.759 140.602 127.508 140.712 127.136C140.9 126.499 141.089 125.763 141.264 124.939C141.768 122.575 142.063 119.995 142.043 117.294C141.988 109.612 139.46 102.505 133.625 96.6088C133.108 96.086 133.047 95.2765 133.443 94.6865C133.499 94.5922 133.569 94.5031 133.65 94.4211C139.485 88.5249 142.013 81.4175 142.068 73.7362C142.088 71.0346 141.793 68.4551 141.289 66.0909C141.114 65.267 140.925 64.5309 140.737 63.8942C140.682 63.7079 140.634 63.5521 140.594 63.4283L140.501 63.1543C138.854 58.7267 138.23 55.1053 138.723 52.3147Z" fill="black" fill-opacity="0.55"/>
</g>
<path d="M125.284 66.556C125.87 67.1482 125.87 68.1082 125.284 68.7004C124.753 69.2369 124.231 69.6346 123.595 69.9352C123.137 70.9729 122.969 72.7187 122.819 76.3226C122.656 80.2354 122.364 82.2801 121.401 84.2301C119.94 87.1892 116.615 90.7125 111.404 94.8846C117.473 99.7067 121.333 103.72 123.008 107.022C124.06 109.096 124.41 111.272 124.658 115.432C124.973 120.701 125.254 122.279 126.313 123.35C126.826 123.868 126.89 124.668 126.506 125.257L126.313 125.494L126.078 125.689C125.496 126.077 124.704 126.012 124.192 125.494C123.132 124.423 121.57 124.14 116.356 123.821C112.24 123.57 110.086 123.217 108.034 122.154C104.758 120.458 100.776 116.542 95.9949 110.383C91.7361 115.86 88.1573 119.34 85.1625 120.85C83.2328 121.823 81.2094 122.118 77.3374 122.283C72.5046 122.489 71.0483 122.727 70.116 123.67C69.53 124.262 68.5799 124.262 67.9939 123.67C67.939 123.614 67.8892 123.555 67.8446 123.494L67.6725 123.345C67.0865 122.753 67.0865 121.793 67.6725 121.2C68.6048 120.258 68.8409 118.787 69.0445 113.903C69.2075 109.99 69.4999 107.946 70.4626 105.996C71.9446 102.994 75.345 99.4116 80.6856 95.1605C75.2598 90.7372 71.7709 87.0184 70.2012 83.9234C69.1495 81.85 68.7998 79.673 68.5513 75.514C68.2365 70.2444 67.9556 68.6664 66.8958 67.5955C66.3831 67.0774 66.319 66.2776 66.7036 65.689L66.8957 65.4512C67.4817 64.8591 68.4318 64.8591 69.0178 65.4512C70.0775 66.5221 71.639 66.806 76.8538 67.1241C80.9695 67.3752 83.1238 67.7287 85.1756 68.7913C88.3955 70.459 92.2974 74.2699 96.97 80.2488C101.364 74.5397 105.047 70.9228 108.116 69.3755C110.046 68.4026 112.069 68.1072 115.941 67.9424C118.842 67.8189 120.527 67.6836 121.611 67.3913C121.749 67.2177 121.902 67.0497 122.069 66.8808C122.402 66.5446 122.852 66.3993 123.286 66.4449C123.873 65.9665 124.737 66.0032 125.284 66.556ZM120.246 70.7013C119.15 70.8238 117.792 70.899 116.067 70.9724C112.622 71.119 110.874 71.3743 109.456 72.0892C106.713 73.4719 103.031 77.1806 98.5256 83.1862C98.456 83.5245 98.2693 83.8334 97.9798 84.0567C97.321 84.5648 96.3794 84.437 95.8766 83.7713C90.8781 77.1533 86.8165 73.0489 83.8068 71.4901C82.2534 70.6856 80.3718 70.3769 76.673 70.1512C74.1482 69.9972 72.3617 69.8528 71.0062 69.6092C71.2516 70.9746 71.3945 72.7799 71.5469 75.3313C71.7702 79.069 72.0757 80.9704 72.8718 82.5402C74.2827 85.3219 77.8009 88.9929 83.4022 93.4642C83.8523 93.4682 84.2886 93.6754 84.5774 94.0617C84.6978 94.2228 84.7816 94.4003 84.8302 94.5841L85.0251 94.737C85.6839 95.2451 85.8103 96.1967 85.3075 96.8624C84.8047 97.5281 83.8631 97.6558 83.2043 97.1477L83.1236 97.084C77.7706 101.283 74.4374 104.738 73.148 107.349C72.4406 108.782 72.1879 110.549 72.0428 114.031C71.9348 116.623 71.8228 118.397 71.5838 119.72C72.89 119.476 74.6455 119.362 77.2111 119.253C80.6562 119.107 82.4047 118.851 83.8228 118.136C86.5892 116.742 90.3113 112.98 94.8702 106.883C95.3698 106.214 96.3107 106.082 96.972 106.587C97.2496 106.799 97.4338 107.089 97.5171 107.405L97.3327 107.174C102.331 113.792 106.393 117.897 109.403 119.455C110.956 120.26 112.838 120.569 116.536 120.794C119.061 120.948 120.848 121.093 122.199 121.341C121.958 119.971 121.815 118.166 121.662 115.614C121.439 111.877 121.134 109.975 120.337 108.405C118.795 105.364 114.733 101.26 108.184 96.2085L108.842 96.7228C108.277 96.8626 107.659 96.6623 107.286 96.1639C106.787 95.4957 106.918 94.5448 107.579 94.04C113.613 89.4331 117.335 85.6719 118.716 82.8763C119.423 81.4433 119.676 79.6764 119.821 76.195C119.924 73.7282 120.03 72.0025 120.246 70.7013Z" fill="#E27454"/>
<path d="M95.6882 54.0908C96.5092 54.0908 97.1748 54.7759 97.1748 55.6211C97.1748 56.3883 97.0842 57.0498 96.8459 57.7244C97.2501 58.7961 98.3431 60.1629 100.732 62.8381C103.33 65.7479 104.543 67.4178 105.22 69.5036C106.253 72.6822 106.362 77.6226 105.593 84.4015C113.198 83.5092 118.7 83.5984 122.188 84.7135C124.403 85.4216 126.19 86.699 129.304 89.4367C133.25 92.9055 134.565 93.812 136.077 93.812C136.913 93.812 137.591 94.4846 137.591 95.3143V95.5009C137.591 96.3305 136.913 97.0031 136.077 97.0031C134.565 97.0031 133.25 97.9097 129.304 101.378C126.19 104.116 124.403 105.394 122.188 106.102C118.691 107.22 113.17 107.306 105.542 106.408C106.367 113.427 106.276 118.518 105.22 121.768C104.543 123.854 103.33 125.524 100.732 128.434C97.4889 132.065 96.6341 133.286 96.6341 134.631C96.6341 135.476 95.9685 136.161 95.1475 136.161C95.0709 136.161 94.9956 136.155 94.9221 136.143L94.6971 136.161C93.8761 136.161 93.2106 135.476 93.2106 134.631C93.2106 133.286 92.3558 132.065 89.1128 128.434C86.5145 125.524 85.3019 123.854 84.6244 121.768C83.5771 118.543 83.4796 113.505 84.2853 106.573C77.408 107.291 72.368 107.147 69.0984 106.102C66.8838 105.394 65.0969 104.116 61.9826 101.378C58.0366 97.9097 56.7219 97.0031 55.2094 97.0031C54.373 97.0031 53.6951 96.3305 53.6951 95.5009L53.698 95.4081C53.696 95.377 53.6951 95.3458 53.6951 95.3143C53.6951 94.4846 54.373 93.812 55.2094 93.812C56.7219 93.812 58.0366 92.9055 61.9826 89.4367C65.0969 86.699 66.8838 85.4216 69.0984 84.7135C72.5351 83.6147 77.9277 83.512 85.3543 84.3614C84.4653 77.0775 84.534 71.8135 85.6155 68.4834C86.2929 66.3976 87.5055 64.7277 90.1038 61.8179C92.0501 59.6383 93.1362 58.3272 93.6936 57.3365C93.6699 57.1135 93.6609 56.8826 93.6609 56.6412C93.6609 56.1604 93.8764 55.7313 94.2133 55.4508C94.2918 54.687 94.9223 54.0908 95.6882 54.0908ZM95.031 60.6804C94.3514 61.5576 93.4512 62.5917 92.2928 63.889C89.981 66.478 88.9331 67.9211 88.4353 69.4538C87.5212 72.2681 87.4675 77.1888 88.3261 84.1267L88.4537 85.118L88.4375 84.952C88.8526 85.269 89.0903 85.7912 89.0156 86.3433C88.9043 87.1656 88.1421 87.7426 87.3132 87.6322C79.0727 86.5345 73.2759 86.5345 70.0274 87.5732C68.3508 88.1092 66.79 89.225 63.9912 91.6854C62.0042 93.432 60.5945 94.6207 59.4289 95.4102C60.5945 96.1945 62.0042 97.3831 63.9912 99.1298C66.79 101.59 68.3508 102.706 70.0274 103.242C72.9675 104.182 77.9948 104.271 85.0318 103.466C85.346 103.164 85.7829 103.008 86.2394 103.074C86.4265 103.101 86.6006 103.162 86.7563 103.251L87.3132 103.183C88.1421 103.072 88.9043 103.65 89.0156 104.472C89.1269 105.294 88.5451 106.05 87.7162 106.161L87.3196 106.213C86.4769 113.103 86.534 117.995 87.4442 120.798C87.942 122.331 88.9899 123.774 91.3017 126.363C93.0236 128.291 94.1749 129.638 94.9247 130.754C95.6697 129.638 96.8211 128.291 98.5429 126.363C100.855 123.774 101.903 122.331 102.4 120.798C103.35 117.875 103.371 112.682 102.407 105.317C102.281 105.059 102.231 104.77 102.271 104.472C102.305 104.221 102.399 103.993 102.538 103.8C102.759 103.419 103.142 103.14 103.605 103.074C103.937 103.026 104.259 103.095 104.531 103.251L103.973 103.183C112.214 104.281 118.01 104.281 121.259 103.242C122.936 102.706 124.496 101.59 127.295 99.1298C129.282 97.3831 130.692 96.1945 131.858 95.4049C130.692 94.6207 129.282 93.432 127.295 91.6854C124.496 89.225 122.936 88.1092 121.259 87.5732C118.157 86.5813 112.731 86.5366 105.073 87.4905C104.771 87.9886 104.205 88.2841 103.605 88.198C102.835 88.0876 102.285 87.3877 102.326 86.6025C102.303 86.5192 102.283 86.4327 102.271 86.3433C102.223 85.9915 102.302 85.6519 102.474 85.3698L102.338 86.4713C103.372 78.8323 103.372 73.4642 102.4 70.474C101.903 68.9413 100.855 67.4981 98.5429 64.9092C96.9039 63.0737 95.7818 61.7651 95.031 60.6804Z" fill="#00C0C5"/>
</svg>
