<svg width="197" height="50" viewBox="0 0 197 50" fill="none" xmlns="http://www.w3.org/2000/svg">
<path d="M17.9678 36L12.3278 26.28H8.12781V36H2.60781V8H13.8078C16.3945 8 18.5945 8.90667 20.4078 10.72C22.2211 12.5333 23.1278 14.72 23.1278 17.28C23.1278 19.0133 22.6345 20.6267 21.6478 22.12C20.6611 23.5867 19.3545 24.6933 17.7278 25.44L23.9278 36H17.9678ZM8.12781 13.16V21.44H13.8078C14.8478 21.44 15.7411 21.04 16.4878 20.24C17.2345 19.4133 17.6078 18.4267 17.6078 17.28C17.6078 16.1333 17.2345 15.16 16.4878 14.36C15.7411 13.56 14.8478 13.16 13.8078 13.16H8.12781ZM30.2825 28.12C30.9758 30.6267 32.8558 31.88 35.9225 31.88C37.8958 31.88 39.3892 31.2133 40.4025 29.88L44.5625 32.28C42.5892 35.1333 39.6825 36.56 35.8425 36.56C32.5358 36.56 29.8825 35.56 27.8825 33.56C25.8825 31.56 24.8825 29.04 24.8825 26C24.8825 22.9867 25.8692 20.48 27.8425 18.48C29.8158 16.4533 32.3492 15.44 35.4425 15.44C38.3758 15.44 40.7892 16.4533 42.6825 18.48C44.6025 20.5067 45.5625 23.0133 45.5625 26C45.5625 26.6667 45.4958 27.3733 45.3625 28.12H30.2825ZM30.2025 24.12H40.4025C40.1092 22.76 39.4958 21.7467 38.5625 21.08C37.6558 20.4133 36.6158 20.08 35.4425 20.08C34.0558 20.08 32.9092 20.44 32.0025 21.16C31.0958 21.8533 30.4958 22.84 30.2025 24.12ZM60.2847 15.44C62.4714 15.44 64.2714 16.1733 65.6847 17.64C67.1247 19.1067 67.8447 21.1333 67.8447 23.72V36H62.6847V24.36C62.6847 23.0267 62.3247 22.0133 61.6047 21.32C60.8847 20.6 59.9247 20.24 58.7247 20.24C57.3914 20.24 56.3247 20.6533 55.5247 21.48C54.7247 22.3067 54.3247 23.5467 54.3247 25.2V36H49.1647V16H54.3247V18.24C55.578 16.3733 57.5647 15.44 60.2847 15.44ZM76.6106 28.12C77.304 30.6267 79.184 31.88 82.2506 31.88C84.224 31.88 85.7173 31.2133 86.7306 29.88L90.8906 32.28C88.9173 35.1333 86.0106 36.56 82.1706 36.56C78.864 36.56 76.2106 35.56 74.2106 33.56C72.2106 31.56 71.2106 29.04 71.2106 26C71.2106 22.9867 72.1973 20.48 74.1706 18.48C76.144 16.4533 78.6773 15.44 81.7706 15.44C84.704 15.44 87.1173 16.4533 89.0106 18.48C90.9306 20.5067 91.8906 23.0133 91.8906 26C91.8906 26.6667 91.824 27.3733 91.6906 28.12H76.6106ZM76.5306 24.12H86.7306C86.4373 22.76 85.824 21.7467 84.8906 21.08C83.984 20.4133 82.944 20.08 81.7706 20.08C80.384 20.08 79.2373 20.44 78.3306 21.16C77.424 21.8533 76.824 22.84 76.5306 24.12ZM117.232 16H122.712L116.352 36H111.432L107.752 23.88L104.072 36H99.1516L92.7916 16H98.2716L101.672 28.28L105.312 16H110.192L113.832 28.32L117.232 16ZM153.133 8V36H147.653V17.84L139.773 30.84H139.133L131.253 17.88V36H125.733V8H131.413L139.453 21.24L147.453 8H153.133ZM162.47 28.12C163.163 30.6267 165.043 31.88 168.11 31.88C170.083 31.88 171.577 31.2133 172.59 29.88L176.75 32.28C174.777 35.1333 171.87 36.56 168.03 36.56C164.723 36.56 162.07 35.56 160.07 33.56C158.07 31.56 157.07 29.04 157.07 26C157.07 22.9867 158.057 20.48 160.03 18.48C162.003 16.4533 164.537 15.44 167.63 15.44C170.563 15.44 172.977 16.4533 174.87 18.48C176.79 20.5067 177.75 23.0133 177.75 26C177.75 26.6667 177.683 27.3733 177.55 28.12H162.47ZM162.39 24.12H172.59C172.297 22.76 171.683 21.7467 170.75 21.08C169.843 20.4133 168.803 20.08 167.63 20.08C166.243 20.08 165.097 20.44 164.19 21.16C163.283 21.8533 162.683 22.84 162.39 24.12Z" fill="white"/>
<path d="M186.708 2.6V3.656H184.224V11H183.12V3.656H180.648V2.6H186.708ZM195.672 2.6V11H194.568V4.436L191.82 9.008H191.676L188.928 4.448V11H187.812V2.6H189.072L191.748 7.04L194.412 2.6H195.672Z" fill="white"/>
</svg>
