<svg viewBox="0 0 64 64" fill="none" xmlns="http://www.w3.org/2000/svg">
  <g filter="url(#prefix__filter0_d_1603_294)">
    <circle cx="32" cy="30" r="26.25" fill="#fff" fill-opacity="0.6" stroke="#333" stroke-width="3.5" />
    <path
      d="M32.7742 18.217C32.6887 18.0106 32.5633 17.823 32.4053 17.665C32.2473 17.5069 32.0597 17.3816 31.8532 17.2961C31.6468 17.2105 31.4255 17.1665 31.202 17.1665C30.9786 17.1665 30.7573 17.2105 30.5508 17.2961C30.3444 17.3816 30.1568 17.5069 29.9988 17.665L19.4502 28.2136C19.2922 28.3716 19.1668 28.5592 19.0813 28.7656C18.9957 28.9721 18.9517 29.1934 18.9517 29.4168C18.9517 29.6403 18.9957 29.8616 19.0813 30.068C19.1668 30.2745 19.2922 30.462 19.4502 30.62L29.9988 41.1686C30.3179 41.4878 30.7507 41.667 31.202 41.667C31.6533 41.667 32.0862 41.4878 32.4053 41.1686C32.7244 40.8495 32.9037 40.4167 32.9037 39.9654C32.9037 39.5141 32.7244 39.0813 32.4053 38.7622L24.7613 31.1182L44.1326 31.1182C44.5838 31.1182 45.0166 30.939 45.3357 30.6199C45.6547 30.3008 45.834 29.8681 45.834 29.4168C45.834 28.9656 45.6547 28.5328 45.3357 28.2138C45.0166 27.8947 44.5838 27.7154 44.1326 27.7154L24.7613 27.7154L32.4053 20.0714C32.5633 19.9134 32.6887 19.7259 32.7742 19.5194C32.8597 19.313 32.9037 19.0917 32.9037 18.8682C32.9037 18.6447 32.8597 18.4235 32.7742 18.217Z"
      fill="#333" />
  </g>
  <defs>
    <filter id="prefix__filter0_d_1603_294" x="0" y="0" filterUnits="userSpaceOnUse" color-interpolation-filters="sRGB">
      <feFlood flood-opacity="0" result="BackgroundImageFix" />
      <feColorMatrix in="SourceAlpha" values="0 0 0 0 0 0 0 0 0 0 0 0 0 0 0 0 0 0 127 0" result="hardAlpha" />
      <feOffset dy="2" />
      <feGaussianBlur stdDeviation="2" />
      <feComposite in2="hardAlpha" operator="out" />
      <feColorMatrix values="0 0 0 0 0 0 0 0 0 0 0 0 0 0 0 0 0 0 0.12 0" />
      <feBlend in2="BackgroundImageFix" result="effect1_dropShadow_1603_294" />
      <feBlend in="SourceGraphic" in2="effect1_dropShadow_1603_294" result="shape" />
    </filter>
  </defs>
</svg>