<svg width="183" height="37" viewBox="0 0 183 37" fill="none" xmlns="http://www.w3.org/2000/svg">
  <path opacity="0.774926" fill-rule="evenodd" clip-rule="evenodd"
    d="M160.155 5.94326C158.7 7.41973 157.831 9.26345 157.831 11.5137C157.831 11.7181 157.681 11.8876 157.485 11.918C157.42 11.963 157.34 11.9893 157.254 11.9893C155.004 11.9893 153.16 12.8581 151.684 14.3131C151.165 14.8249 150.729 15.3739 150.375 15.9222C150.252 16.1133 150.148 16.2901 150.063 16.4479C150.013 16.5402 149.981 16.6041 149.967 16.6346C149.465 17.7419 148.923 18.5307 148.33 18.9812C148.923 19.4317 149.465 20.2205 149.967 21.3278C149.981 21.3583 150.013 21.4222 150.063 21.5145C150.148 21.6723 150.252 21.8491 150.375 22.0402C150.729 22.5885 151.165 23.1375 151.684 23.6493C153.16 25.1043 155.004 25.9731 157.254 25.9731C157.272 25.9731 157.29 25.9743 157.308 25.9765C157.308 25.9765 157.309 25.9765 157.309 25.9765C157.535 25.9765 157.719 26.1597 157.719 26.3857C157.719 28.636 158.587 30.4797 160.042 31.9562C160.554 32.4754 161.103 32.9109 161.652 33.2648C161.843 33.3882 162.019 33.4923 162.177 33.5775C162.27 33.6274 162.333 33.6592 162.364 33.6732C163.471 34.1757 164.26 34.7175 164.711 35.3103C165.161 34.7175 165.95 34.1757 167.058 33.6732C167.088 33.6592 167.152 33.6274 167.244 33.5775C167.402 33.4923 167.579 33.3882 167.77 33.2648C168.318 32.9109 168.867 32.4754 169.379 31.9562C170.834 30.4797 171.703 28.636 171.703 26.3857C171.703 26.194 171.835 26.0331 172.013 25.9887C172.048 25.979 172.085 25.9738 172.123 25.9738C174.373 25.9738 176.217 25.105 177.693 23.6499C178.212 23.1382 178.648 22.5892 179.002 22.0409C179.125 21.8498 179.229 21.6729 179.314 21.5152C179.364 21.4228 179.396 21.359 179.41 21.3285C179.937 20.1669 180.507 19.3559 181.134 18.9181C180.507 18.4803 179.937 17.6693 179.41 16.5078C179.396 16.4773 179.364 16.4134 179.314 16.3211C179.229 16.1633 179.125 15.9865 179.002 15.7954C178.648 15.2471 178.212 14.6981 177.693 14.1863C176.311 12.8239 174.606 11.9755 172.548 11.873C172.489 11.9048 172.423 11.9229 172.352 11.9229C172.273 11.9229 172.2 11.9008 172.138 11.8625L172.123 11.8625C171.897 11.8625 171.713 11.6793 171.713 11.4533C171.713 11.2962 171.802 11.1597 171.932 11.0912C171.83 9.03146 170.981 7.32625 169.619 5.94326C169.107 5.42398 168.558 4.98852 168.009 4.63456C167.818 4.51121 167.642 4.40711 167.484 4.3219C167.391 4.27203 167.328 4.24025 167.297 4.22619C166.136 3.69924 165.325 3.12899 164.887 2.50211C164.449 3.12899 163.638 3.69924 162.476 4.22619C162.446 4.24025 162.382 4.27203 162.29 4.3219C162.132 4.40711 161.955 4.51121 161.764 4.63456C161.216 4.98852 160.667 5.42398 160.155 5.94326ZM156.909 26.7852C157.006 29.0878 157.949 30.998 159.46 32.5306C160.016 33.0952 160.611 33.5676 161.208 33.9524C161.568 34.1851 161.852 34.3384 162.024 34.4175C163.369 35.028 164.107 35.6479 164.291 36.2436C164.275 36.3413 164.267 36.4402 164.267 36.5405C164.267 36.7665 164.45 36.9497 164.676 36.9497C164.688 36.9497 164.699 36.9492 164.711 36.9482C164.722 36.9492 164.734 36.9497 164.746 36.9497C164.972 36.9497 165.155 36.7665 165.155 36.5405C165.155 36.4402 165.147 36.3413 165.131 36.2436C165.315 35.6479 166.052 35.028 167.398 34.4175C167.57 34.3384 167.853 34.1851 168.214 33.9524C168.81 33.5676 169.406 33.0952 169.962 32.5306C171.473 30.9978 172.416 29.0872 172.513 26.7841C174.82 26.6885 176.733 25.7452 178.268 24.2328C178.832 23.6764 179.305 23.0809 179.689 22.4847C179.922 22.1242 180.075 21.8404 180.154 21.6688C180.867 20.0979 181.593 19.3558 182.277 19.3558C182.503 19.3558 182.687 19.1726 182.687 18.9466L182.686 18.9331L182.686 18.9181C182.686 18.9087 182.687 18.8993 182.687 18.8897C182.687 18.6637 182.503 18.4805 182.277 18.4805C181.593 18.4805 180.867 17.7383 180.154 16.1674C180.075 15.9959 179.922 15.712 179.689 15.3516C179.305 14.7554 178.832 14.1599 178.268 13.6034C176.786 12.1432 174.951 11.2134 172.75 11.065C172.641 8.78443 171.701 6.8905 170.201 5.36881C169.645 4.80418 169.049 4.33183 168.453 3.94699C168.093 3.71429 167.809 3.56099 167.637 3.48194C166.067 2.76926 165.324 2.04381 165.324 1.3589C165.324 1.13291 165.141 0.949707 164.915 0.949707C164.906 0.949707 164.896 0.950035 164.887 0.95068C164.877 0.950035 164.868 0.949707 164.858 0.949707C164.632 0.949707 164.449 1.13291 164.449 1.3589C164.449 2.04381 163.707 2.76926 162.136 3.48193C161.964 3.56099 161.681 3.71429 161.32 3.94699C160.724 4.33183 160.128 4.80418 159.572 5.36881C158.049 6.91463 157.103 8.84459 157.019 11.1738C154.643 11.2328 152.678 12.1841 151.11 13.7302C150.545 14.2867 150.073 14.8822 149.688 15.4784C149.455 15.8388 149.302 16.1227 149.223 16.2942C148.613 17.6389 147.993 18.3764 147.398 18.5609C147.3 18.5448 147.2 18.5367 147.1 18.5367C146.874 18.5367 146.69 18.7199 146.69 18.9459C146.69 18.9578 146.691 18.9696 146.692 18.9812C146.691 18.9928 146.69 19.0046 146.69 19.0165C146.69 19.2425 146.874 19.4257 147.1 19.4257C147.2 19.4257 147.3 19.4176 147.398 19.4015C147.993 19.586 148.613 20.3235 149.223 21.6682C149.302 21.8397 149.455 22.1236 149.688 22.484C150.073 23.0802 150.545 23.6757 151.11 24.2322C152.654 25.7543 154.582 26.7 156.909 26.7852Z"
    fill="#93969F" />
  <path opacity="0.452172" fill-rule="evenodd" clip-rule="evenodd"
    d="M175.942 19.1495C177.604 17.4208 178.33 15.3461 178.346 13.1288C178.351 12.336 178.264 11.581 178.115 10.8873C178.025 10.4678 177.932 10.1587 177.867 9.98153C177.26 8.3668 177.248 7.32903 177.733 6.84473C177.892 6.68493 177.892 6.42584 177.733 6.26604C177.727 6.26019 177.721 6.25456 177.715 6.24914C177.708 6.24096 177.7 6.233 177.693 6.22526C177.533 6.06546 177.274 6.06546 177.114 6.22526C176.63 6.70956 175.592 6.69774 173.977 6.09088C173.8 6.02549 173.491 5.93317 173.071 5.84282C172.378 5.69338 171.623 5.6063 170.83 5.61209C168.614 5.62825 166.541 6.3529 164.814 8.01152C163.107 6.42212 161.072 5.72566 158.901 5.70981C158.108 5.70403 157.353 5.79111 156.659 5.94054C156.24 6.0309 155.931 6.12321 155.754 6.1886C154.139 6.79546 153.101 6.80729 152.617 6.32299C152.457 6.16319 152.198 6.16319 152.038 6.32299C152.031 6.32971 152.025 6.33662 152.019 6.34368C152.012 6.34984 152.005 6.35628 151.998 6.363C151.838 6.52281 151.838 6.78189 151.998 6.9417C152.483 7.426 152.471 8.46377 151.864 10.0785C151.798 10.2557 151.706 10.5648 151.616 10.9842C151.466 11.6779 151.379 12.433 151.385 13.2257C151.401 15.3999 152.099 17.4368 153.693 19.145C152.171 20.8301 151.502 22.8261 151.487 24.9533C151.481 25.746 151.568 26.5011 151.718 27.1948C151.808 27.6142 151.9 27.9233 151.966 28.1005C152.485 29.4826 152.569 30.442 152.278 30.9934C152.198 31.0514 152.122 31.1159 152.05 31.1871C151.891 31.3469 151.891 31.606 152.05 31.7658C152.058 31.7736 152.066 31.781 152.075 31.788C152.083 31.7976 152.091 31.807 152.1 31.816C152.26 31.9758 152.519 31.9758 152.679 31.816C152.75 31.7447 152.815 31.6686 152.873 31.5878C153.424 31.2972 154.384 31.3807 155.766 31.9002C155.943 31.9655 156.252 32.0579 156.672 32.1482C157.365 32.2976 158.12 32.3847 158.913 32.3789C161.082 32.3631 163.114 31.6685 164.819 30.0836C166.516 31.6417 168.533 32.3254 170.684 32.3411C171.477 32.3469 172.232 32.2598 172.926 32.1104C173.345 32.0201 173.654 31.9277 173.831 31.8624C175.213 31.3432 176.172 31.2595 176.724 31.5494C176.782 31.6305 176.846 31.7067 176.918 31.7782C177.078 31.938 177.337 31.938 177.497 31.7782C177.505 31.7697 177.513 31.761 177.521 31.752C177.53 31.7444 177.538 31.7364 177.547 31.728C177.707 31.5682 177.707 31.3091 177.547 31.1493C177.475 31.0778 177.399 31.0131 177.318 30.9549C177.028 30.4034 177.112 29.4442 177.631 28.0627C177.696 27.8855 177.789 27.5764 177.879 27.157C178.028 26.4633 178.116 25.7082 178.11 24.9155C178.094 22.806 177.437 20.8257 175.942 19.1495ZM170.836 6.43046C168.763 6.44559 166.845 7.13498 165.254 8.72614C165.193 8.78675 165.118 8.82437 165.04 8.83901C164.879 8.9835 164.632 8.97845 164.477 8.82387C162.886 7.23271 160.968 6.54331 158.895 6.52818C158.166 6.52286 157.47 6.60315 156.832 6.74058C156.609 6.78848 156.411 6.8399 156.239 6.89122C156.138 6.92125 156.071 6.94391 156.039 6.95554C154.846 7.40421 153.869 7.57447 153.116 7.44085C153.25 8.19367 153.079 9.17028 152.631 10.3641C152.619 10.3956 152.596 10.4632 152.566 10.5638C152.515 10.7356 152.464 10.9342 152.416 11.1566C152.278 11.7946 152.198 12.4907 152.203 13.2198C152.218 15.2422 152.875 17.1173 154.385 18.6851C154.464 18.6994 154.54 18.7372 154.601 18.7985C154.761 18.9583 154.761 19.2174 154.601 19.3772C153.01 20.9683 152.32 22.8863 152.305 24.9593C152.3 25.6883 152.38 26.3844 152.518 27.0224C152.566 27.2448 152.617 27.4434 152.668 27.6152C152.698 27.7158 152.721 27.7834 152.733 27.8149C153.16 28.953 153.335 29.8937 153.235 30.6312C153.972 30.5307 154.913 30.7054 156.052 31.1332C156.083 31.1448 156.151 31.1675 156.251 31.1975C156.423 31.2489 156.622 31.3003 156.844 31.3482C157.482 31.4856 158.178 31.5659 158.907 31.5606C160.98 31.5454 162.898 30.856 164.489 29.2649C164.499 29.2556 164.508 29.2469 164.518 29.2387C164.522 29.2348 164.525 29.2309 164.529 29.2271C164.689 29.0673 164.948 29.0673 165.108 29.2271C166.699 30.8182 168.617 31.5076 170.69 31.5228C171.419 31.5281 172.115 31.4478 172.753 31.3104C172.976 31.2625 173.174 31.2111 173.346 31.1597C173.447 31.1297 173.514 31.107 173.546 31.0954C174.684 30.6677 175.624 30.493 176.362 30.5934C176.262 29.8558 176.436 28.9151 176.864 27.7771C176.876 27.7456 176.898 27.678 176.928 27.5774C176.98 27.4056 177.031 27.207 177.079 26.9846C177.216 26.3466 177.297 25.6505 177.291 24.9215C177.276 22.8485 176.587 20.9305 174.996 19.3394C174.836 19.1796 174.836 18.9205 174.996 18.7607C175.078 18.6783 175.187 18.6383 175.295 18.6409C176.841 17.0625 177.512 15.168 177.527 13.1228C177.533 12.3937 177.452 11.6976 177.315 11.0596C177.267 10.8373 177.216 10.6386 177.164 10.4668C177.134 10.3662 177.112 10.2986 177.1 10.2671C176.651 9.07291 176.481 8.09603 176.615 7.3431C175.862 7.47676 174.885 7.30651 173.691 6.85781C173.66 6.84619 173.592 6.82352 173.492 6.79349C173.32 6.74218 173.121 6.69075 172.899 6.64286C172.261 6.50542 171.565 6.42514 170.836 6.43046Z"
    fill="black" fill-opacity="0.55" />
  <path fill-rule="evenodd" clip-rule="evenodd"
    d="M158.441 15.5634C158.814 16.3109 159.814 17.3143 161.433 18.5421C161.524 18.5622 161.609 18.6134 161.67 18.6933C161.807 18.8729 161.773 19.1297 161.593 19.2668C159.807 20.6299 158.699 21.7376 158.279 22.5583C158.062 22.9819 157.978 23.495 157.917 24.5037C157.876 25.1914 157.837 25.6782 157.771 26.0477C158.141 25.982 158.628 25.943 159.316 25.9015C160.325 25.8406 160.838 25.7573 161.262 25.5402C162.012 25.1557 163.002 24.1972 164.207 22.6713C164.208 22.5485 164.264 22.4274 164.37 22.3477C164.414 22.3144 164.463 22.2913 164.513 22.2782L164.553 22.2259C164.69 22.0463 164.947 22.0118 165.127 22.1489C165.306 22.286 165.341 22.5428 165.204 22.7225L165.186 22.7452C166.319 24.2043 167.251 25.113 167.956 25.4645C168.342 25.6574 168.819 25.7263 169.759 25.7659C170.457 25.7953 170.935 25.8258 171.292 25.8906C171.227 25.5338 171.196 25.0556 171.167 24.3573C171.127 23.4179 171.058 22.941 170.865 22.5543C170.489 21.7999 169.474 20.7849 167.828 19.5416C167.648 19.4054 167.612 19.1488 167.749 18.9685C167.808 18.8905 167.889 18.8395 167.977 18.8178C169.723 17.4786 170.808 16.3887 171.223 15.5784C171.44 15.1548 171.524 14.6417 171.585 13.633C171.626 12.9454 171.665 12.4585 171.731 12.0891C171.361 12.1547 170.874 12.1937 170.186 12.2352C169.177 12.2961 168.664 12.3794 168.24 12.5966C167.448 13.0029 166.387 14.0504 165.087 15.7313C165.125 15.8853 165.071 16.054 164.936 16.1557C164.756 16.2919 164.499 16.2562 164.363 16.0758C163.12 14.4303 162.105 13.4152 161.35 13.0388C160.964 12.8459 160.487 12.777 159.547 12.7375C158.884 12.7095 158.42 12.6807 158.069 12.6223C158.1 12.9224 158.12 13.2919 158.14 13.7603C158.179 14.6998 158.248 15.1767 158.441 15.5634ZM172.483 10.8549C172.406 10.8701 172.333 10.9075 172.273 10.9669C171.984 11.2559 171.559 11.3325 170.137 11.4183C169.014 11.4861 168.427 11.5815 167.867 11.8682C166.976 12.3252 165.892 13.3783 164.592 15.0345C163.466 13.6125 162.514 12.7051 161.716 12.3065C161.189 12.044 160.638 11.9643 159.582 11.9198C158.617 11.8792 158.145 11.8337 157.862 11.7125C157.781 11.5368 157.673 11.393 157.527 11.2468C157.367 11.087 157.108 11.087 156.948 11.2468C156.8 11.3952 156.789 11.6292 156.916 11.7898C156.903 11.909 156.942 12.0329 157.034 12.1243C157.081 12.1713 157.127 12.2143 157.175 12.2537C157.253 12.5497 157.289 13.0083 157.322 13.7948C157.367 14.8507 157.446 15.4025 157.709 15.9287C158.126 16.7657 159.103 17.7699 160.644 18.9676C159.029 20.2423 158.001 21.3067 157.55 22.185C157.264 22.7446 157.168 23.332 157.1 24.4544C157.015 25.8765 156.938 26.3023 156.649 26.5913C156.489 26.7511 156.489 27.0102 156.649 27.17C156.75 27.2706 156.89 27.3079 157.019 27.2818C157.096 27.2666 157.169 27.2292 157.229 27.1698C157.518 26.8808 157.943 26.8042 159.365 26.7184C160.488 26.6506 161.075 26.5552 161.635 26.2685C162.47 25.8404 163.474 24.889 164.666 23.4086C165.813 24.8653 166.78 25.7927 167.59 26.1968C168.117 26.4594 168.668 26.5391 169.724 26.5836C171.042 26.6391 171.439 26.7035 171.694 26.9577C171.853 27.1175 172.112 27.1175 172.272 26.9577C172.287 26.9427 172.301 26.9269 172.313 26.9103C172.329 26.8984 172.344 26.8853 172.359 26.8709C172.518 26.7111 172.518 26.452 172.359 26.2922C172.104 26.0379 172.04 25.6408 171.984 24.3229C171.94 23.267 171.86 22.7152 171.598 22.189C171.19 21.3721 170.251 20.396 168.773 19.2361C170.436 17.9317 171.494 16.8453 171.952 15.9517C172.238 15.3922 172.334 14.8047 172.401 13.6823C172.487 12.2602 172.564 11.8344 172.853 11.5454C173.013 11.3856 173.013 11.1265 172.853 10.9667C172.752 10.8661 172.612 10.8288 172.483 10.8549Z"
    fill="#D37760" />
  <path fill-rule="evenodd" clip-rule="evenodd"
    d="M162.713 12.1501C162.448 12.9421 162.446 14.3578 162.722 16.3696C162.774 16.4487 162.798 16.5459 162.785 16.6468C162.754 16.8708 162.548 17.028 162.325 16.9979C160.098 16.6989 158.531 16.6989 157.654 16.9818C157.2 17.1278 156.779 17.4318 156.022 18.102C155.507 18.5589 155.135 18.8756 154.827 19.0905C155.135 19.3053 155.507 19.6221 156.022 20.079C156.779 20.7491 157.2 21.0531 157.654 21.1991C158.456 21.4577 159.834 21.4799 161.766 21.2534C161.854 21.1676 161.978 21.1218 162.109 21.1401C162.164 21.1476 162.214 21.1656 162.259 21.1917L162.325 21.183C162.548 21.1529 162.754 21.3101 162.785 21.5341C162.815 21.7581 162.657 21.964 162.433 21.9941L162.405 21.9979C162.175 23.831 162.191 25.1327 162.441 25.8796C162.578 26.2894 162.866 26.6753 163.503 27.3676C163.976 27.8822 164.292 28.2419 164.499 28.5402C164.705 28.242 165.022 27.8823 165.495 27.3677C166.131 26.6754 166.419 26.2895 166.556 25.8797C166.824 25.0801 166.824 23.6446 166.539 21.6019C166.508 21.3781 166.664 21.1713 166.888 21.1402C166.984 21.1268 167.077 21.1479 167.154 21.1939C169.337 21.4818 170.875 21.4783 171.742 21.1989C172.195 21.0529 172.617 20.749 173.373 20.0788C173.889 19.6219 174.26 19.3052 174.568 19.0903C174.26 18.8755 173.889 18.5587 173.373 18.1019C172.617 17.4317 172.195 17.1277 171.742 16.9817C170.894 16.7084 169.403 16.6991 167.295 16.9685C167.213 17.1042 167.055 17.1854 166.888 17.1621C166.664 17.1309 166.508 16.9242 166.539 16.7003C166.824 14.6576 166.824 13.2222 166.556 12.4226C166.419 12.0127 166.131 11.6268 165.495 10.9345C165.045 10.4454 164.737 10.0962 164.53 9.80675C164.34 10.0409 164.092 10.3166 163.775 10.6621C163.139 11.3544 162.85 11.7403 162.713 12.1501ZM175.743 18.6811C175.336 18.6799 174.979 18.4318 173.916 17.4893C173.074 16.7436 172.591 16.3957 171.993 16.2028C171.039 15.8955 169.529 15.8742 167.438 16.126C167.647 14.3241 167.616 13.0098 167.333 12.1631C167.146 11.6053 166.812 11.1588 166.097 10.3807C165.442 9.66795 165.141 9.30253 165.027 9.01638C165.094 8.83501 165.119 8.65739 165.119 8.45119C165.119 8.2252 164.935 8.04199 164.709 8.04199C164.499 8.04199 164.326 8.20094 164.303 8.40537C164.21 8.48039 164.151 8.59509 164.151 8.72365C164.151 8.78913 164.153 8.85174 164.159 8.91249C164.005 9.1771 163.706 9.5273 163.172 10.1082C162.457 10.8863 162.123 11.3329 161.937 11.8906C161.64 12.7778 161.62 14.1781 161.863 16.1149C159.821 15.875 158.342 15.9002 157.403 16.2029C156.804 16.3958 156.321 16.7437 155.48 17.4894C154.413 18.4343 154.058 18.6812 153.649 18.6812C153.423 18.6812 153.24 18.8644 153.24 19.0904V19.0905C153.24 19.3165 153.423 19.4997 153.649 19.4997C154.058 19.4997 154.413 19.7466 155.48 20.6915C156.321 21.4372 156.804 21.7851 157.403 21.978C158.296 22.2659 159.678 22.3028 161.569 22.0992C161.35 23.9407 161.378 25.2803 161.665 26.139C161.851 26.6968 162.185 27.1433 162.9 27.9214C163.793 28.8926 164.028 29.2189 164.028 29.5785C164.028 29.8045 164.211 29.9877 164.437 29.9877C164.458 29.9877 164.478 29.9861 164.498 29.9832C164.518 29.9862 164.539 29.9878 164.56 29.9878C164.786 29.9878 164.969 29.8046 164.969 29.5786C164.969 29.219 165.205 28.8927 166.097 27.9215C166.812 27.1434 167.146 26.6969 167.333 26.1391C167.622 25.2732 167.648 23.9183 167.423 22.0529C169.522 22.3065 171.037 22.2859 171.993 21.9779C172.591 21.785 173.074 21.437 173.916 20.6913C174.979 19.7489 175.336 19.5008 175.743 19.4995C175.744 19.4995 175.745 19.4995 175.746 19.4995C175.972 19.4995 176.155 19.3163 176.155 19.0903C176.155 18.8643 175.972 18.6811 175.746 18.6811C175.745 18.6811 175.744 18.6811 175.743 18.6811Z"
    fill="#00C0C5" />
  <path
    d="M114.101 5.62549L107.856 15.9603L101.58 5.62549H97.1465V27.4815H101.455V13.3376L107.606 23.4538H108.106L114.257 13.3063V27.4815H118.534V5.62549H114.101Z"
    fill="#778294" />
  <path
    d="M137.801 21.3306C137.895 20.7374 137.957 20.2066 137.957 19.6758C137.957 17.3341 137.208 15.3983 135.709 13.8059C134.242 12.2135 132.337 11.433 130.058 11.433C127.654 11.433 125.656 12.2135 124.126 13.8059C122.596 15.367 121.815 17.3341 121.815 19.6758C121.815 22.0487 122.596 24.0158 124.157 25.5769C125.718 27.1381 127.779 27.9187 130.37 27.9187C133.368 27.9187 135.647 26.7946 137.177 24.5778L133.93 22.7044C133.149 23.7348 131.963 24.2656 130.433 24.2656C128.029 24.2656 126.561 23.2977 126.03 21.3306H137.801ZM125.968 18.2083C126.436 16.2101 127.904 15.0548 130.058 15.0548C131.9 15.0548 133.461 16.0852 133.93 18.2083H125.968Z"
    fill="#778294" />
  <path
    d="M16.6418 27.4815L11.8023 19.2387C14.3313 18.0834 16.0174 15.5856 16.0174 12.8692C16.0174 10.8709 15.2992 9.15368 13.8942 7.74865C12.4892 6.34362 10.7719 5.62549 8.74243 5.62549H0V27.4815H4.30877V19.8944H7.58718L11.9896 27.4815H16.6418ZM8.74243 9.65325C10.366 9.65325 11.7086 11.0895 11.7086 12.8692C11.7086 14.6489 10.366 16.1164 8.74243 16.1164H4.30877V9.65325H8.74243Z"
    fill="#5D697C" />
  <path
    d="M33.5809 21.3306C33.6746 20.7374 33.737 20.2066 33.737 19.6758C33.737 17.3341 32.9877 15.3983 31.489 13.8059C30.0215 12.2135 28.1169 11.433 25.8376 11.433C23.4335 11.433 21.4352 12.2135 19.9053 13.8059C18.3753 15.367 17.5948 17.3341 17.5948 19.6758C17.5948 22.0487 18.3753 24.0158 19.9365 25.5769C21.4976 27.1381 23.5583 27.9187 26.1499 27.9187C29.1473 27.9187 31.4265 26.7946 32.9565 24.5778L29.7093 22.7044C28.9287 23.7348 27.7422 24.2656 26.2123 24.2656C23.8081 24.2656 22.3407 23.2977 21.8099 21.3306H33.5809ZM21.7474 18.2083C22.2158 16.2101 23.6832 15.0548 25.8376 15.0548C27.6798 15.0548 29.2409 16.0852 29.7093 18.2083H21.7474Z"
    fill="#5D697C" />
  <path
    d="M45.4365 11.433C43.3133 11.433 41.7522 12.1511 40.7843 13.6186V11.8701H36.7565V27.4815H40.7843V19.0513C40.7843 16.4598 42.1269 15.1797 44.2188 15.1797C46.0922 15.1797 47.3099 16.3037 47.3099 18.3957V27.4815H51.3376V17.8961C51.3376 15.8666 50.7756 14.3055 49.6516 13.1502C48.5588 11.995 47.1538 11.433 45.4365 11.433Z"
    fill="#5D697C" />
  <path
    d="M70.1589 21.3306C70.2526 20.7374 70.315 20.2066 70.315 19.6758C70.315 17.3341 69.5657 15.3983 68.0669 13.8059C66.5995 12.2135 64.6949 11.433 62.4156 11.433C60.0114 11.433 58.0132 12.2135 56.4832 13.8059C54.9533 15.367 54.1727 17.3341 54.1727 19.6758C54.1727 22.0487 54.9533 24.0158 56.5145 25.5769C58.0756 27.1381 60.1363 27.9187 62.7278 27.9187C65.7252 27.9187 68.0045 26.7946 69.5344 24.5778L66.2872 22.7044C65.5067 23.7348 64.3202 24.2656 62.7903 24.2656C60.3861 24.2656 58.9186 23.2977 58.3878 21.3306H70.1589ZM58.3254 18.2083C58.7937 16.2101 60.2612 15.0548 62.4156 15.0548C64.2577 15.0548 65.8189 16.0852 66.2872 18.2083H58.3254Z"
    fill="#5D697C" />
  <path
    d="M87.6492 21.4867L84.808 11.8701H80.9988L78.1575 21.4555L75.5035 11.8701H71.226L76.1904 27.4815H80.0308L82.9034 18.021L85.7759 27.4815H89.6163L94.5807 11.8701H90.3032L87.6492 21.4867Z"
    fill="#5D697C" />
</svg>