<svg width="194" height="36" viewBox="0 0 194 36" fill="none" xmlns="http://www.w3.org/2000/svg">
  <g opacity="0.6">
    <path
      d="M175.4 0.00104024L175.427 0C175.653 0 175.837 0.183205 175.837 0.4092C175.837 1.09411 176.579 1.81957 178.15 2.53225C178.321 2.61131 178.605 2.7646 178.966 2.9973C179.562 3.38215 180.157 3.85451 180.714 4.41914C182.21 5.93757 183.149 7.82667 183.262 10.1007C185.57 10.1953 187.486 11.139 189.022 12.653C189.586 13.2094 190.059 13.8049 190.444 14.4011C190.676 14.7616 190.83 15.0454 190.909 15.217C191.621 16.7879 192.347 17.5301 193.032 17.5301C193.258 17.5301 193.441 17.7133 193.441 17.9393C193.441 17.9491 193.441 17.959 193.44 17.9687L193.441 17.996C193.441 18.222 193.258 18.4052 193.032 18.4052C192.347 18.4052 191.621 19.1474 190.909 20.7183C190.83 20.8898 190.676 21.1737 190.444 21.5342C190.059 22.1304 189.586 22.7259 189.022 23.2823C187.487 24.7953 185.572 25.7388 183.264 25.8337C183.168 28.1365 182.225 30.0477 180.714 31.5809C180.157 32.1455 179.562 32.6178 178.966 33.0027C178.605 33.2354 178.321 33.3887 178.15 33.4678C176.803 34.0785 176.066 34.6987 175.882 35.2946C175.899 35.3921 175.907 35.4908 175.907 35.5908C175.907 35.8168 175.724 36 175.498 36L175.462 35.9967L175.427 36C175.23 36 175.065 35.8597 175.026 35.6733L175.018 35.5908C175.018 35.4915 175.026 35.3934 175.042 35.2967C174.862 34.7001 174.124 34.0792 172.776 33.4678C172.604 33.3887 172.321 33.2354 171.96 33.0027C171.364 32.6178 170.768 32.1455 170.212 31.5809C168.702 30.0483 167.759 28.1383 167.661 25.8359C165.334 25.7509 163.405 24.8051 161.86 23.2823C161.295 22.7259 160.823 22.1304 160.438 21.5342C160.206 21.1737 160.052 20.8898 159.973 20.7183C159.362 19.372 158.742 18.6344 158.146 18.451C158.049 18.4681 157.95 18.4761 157.85 18.4761C157.624 18.4761 157.441 18.2929 157.441 18.0669L157.444 18.0306L157.441 17.996C157.441 17.7983 157.581 17.6333 157.768 17.5951L157.85 17.5868C157.949 17.5868 158.047 17.5947 158.144 17.6103C158.741 17.4302 159.362 16.6924 159.973 15.3446C160.052 15.173 160.206 14.8892 160.438 14.5287C160.823 13.9325 161.295 13.337 161.86 12.7806C163.376 11.2866 165.261 10.348 167.53 10.2331L167.529 10.2563L167.531 10.2283C167.614 7.89724 168.56 5.96588 170.084 4.41914C170.641 3.85451 171.236 3.38215 171.832 2.9973C172.193 2.7646 172.477 2.61131 172.648 2.53225C174.219 1.81957 174.961 1.09411 174.961 0.4092C174.961 0.183205 175.145 0 175.371 0C175.38 0 175.39 0.000350666 175.4 0.00104024ZM175.398 1.55064C174.963 2.17823 174.151 2.74906 172.989 3.27651C172.958 3.29057 172.894 3.32235 172.802 3.37222C172.644 3.45743 172.467 3.56153 172.276 3.68489C171.728 4.03885 171.179 4.47431 170.667 4.99359C169.247 6.43499 168.385 8.22639 168.345 10.4043C168.389 10.4693 168.414 10.5469 168.414 10.6304C168.414 10.8564 168.231 11.0396 168.005 11.0396C165.755 11.0396 163.911 11.9084 162.435 13.3635C161.915 13.8752 161.48 14.4242 161.126 14.9726C161.002 15.1636 160.898 15.3405 160.813 15.4982C160.763 15.5906 160.731 15.6544 160.717 15.6849C160.215 16.7933 159.672 17.5825 159.079 18.0328C159.672 18.4804 160.215 19.2696 160.717 20.3779C160.731 20.4084 160.763 20.4723 160.813 20.5646C160.898 20.7224 161.002 20.8992 161.126 21.0903C161.48 21.6386 161.915 22.1876 162.435 22.6994C163.911 24.1545 165.755 25.0233 168.005 25.0233L168.054 25.0268C168.057 25.0268 168.059 25.0267 168.062 25.0267C168.288 25.0267 168.471 25.2099 168.471 25.4359C168.471 27.6862 169.34 29.5299 170.795 31.0064C171.307 31.5257 171.856 31.9612 172.404 32.3151C172.595 32.4385 172.772 32.5426 172.93 32.6278C173.022 32.6777 173.086 32.7094 173.116 32.7235C174.225 33.2263 175.014 33.7686 175.464 34.3619C175.912 33.7686 176.701 33.2263 177.809 32.7235C177.84 32.7094 177.904 32.6777 177.996 32.6278C178.154 32.5426 178.331 32.4385 178.522 32.3151C179.07 31.9612 179.619 31.5257 180.131 31.0064C181.586 29.5299 182.455 27.6862 182.455 25.4359C182.455 25.2378 182.595 25.0726 182.782 25.0348C182.812 25.0271 182.844 25.0233 182.877 25.0233C185.127 25.0233 186.971 24.1545 188.447 22.6994C188.967 22.1876 189.402 21.6386 189.756 21.0903C189.879 20.8992 189.984 20.7224 190.069 20.5646C190.119 20.4723 190.15 20.4084 190.164 20.3779C190.692 19.2153 191.263 18.4039 191.89 17.9663C191.263 17.5314 190.692 16.72 190.164 15.5573C190.15 15.5268 190.119 15.463 190.069 15.3706C189.984 15.2129 189.879 15.036 189.756 14.8449C189.402 14.2966 188.967 13.7476 188.447 13.2359C187.014 11.8229 185.233 10.9627 183.071 10.9142C183.01 10.9528 182.939 10.9733 182.864 10.9733C182.638 10.9733 182.455 10.7901 182.455 10.5641C182.455 8.31382 181.586 6.47008 180.131 4.99359C179.619 4.47431 179.07 4.03885 178.522 3.68489C178.331 3.56153 178.154 3.45743 177.996 3.37222C177.904 3.32235 177.84 3.29057 177.809 3.27651C176.647 2.74906 175.835 2.17823 175.398 1.55064Z"
      fill="white" />
  </g>
  <path opacity="0.55"
    d="M188.063 5.62225L188.083 5.64073C188.242 5.79954 188.242 6.05703 188.083 6.21584C187.602 6.69714 187.614 7.72848 188.217 9.33321C188.282 9.50931 188.373 9.8165 188.463 10.2333C188.612 10.9227 188.698 11.6731 188.693 12.4609C188.677 14.6029 187.995 16.611 186.44 18.2995C187.99 19.9862 188.67 21.9917 188.686 24.1308C188.692 24.9186 188.605 25.669 188.456 26.3584C188.367 26.7752 188.275 27.0824 188.21 27.2585C187.692 28.6354 187.61 29.5901 187.901 30.1375C187.982 30.193 188.056 30.2563 188.126 30.3261C188.285 30.4849 188.285 30.7424 188.126 30.9012L188.098 30.9244L188.076 30.951C187.937 31.09 187.723 31.1073 187.565 31.0031L187.501 30.951C187.431 30.8807 187.367 30.8058 187.31 30.7262C186.763 30.4354 185.809 30.5179 184.434 31.0348C184.258 31.0998 183.95 31.1915 183.534 31.2813C182.844 31.4298 182.094 31.5163 181.306 31.5106C179.168 31.495 177.163 30.8153 175.477 29.2663C173.781 30.8415 171.761 31.5323 169.605 31.548C168.818 31.5538 168.067 31.4672 167.378 31.3187C166.961 31.2289 166.654 31.1372 166.478 31.0722C165.101 30.5548 164.146 30.4726 163.599 30.7637C163.543 30.8443 163.48 30.9187 163.41 30.9885C163.251 31.1473 162.994 31.1473 162.835 30.9885L162.812 30.9607L162.785 30.9387C162.646 30.7997 162.629 30.5852 162.733 30.4273L162.785 30.3636C162.855 30.2933 162.93 30.2295 163.01 30.1722C163.301 29.6254 163.218 28.6712 162.701 27.296C162.636 27.1199 162.545 26.8127 162.455 26.3959C162.306 25.7065 162.22 24.9561 162.226 24.1683C162.241 22.053 162.906 20.0684 164.42 18.3931L164.649 18.6299C162.905 16.8857 162.146 14.7741 162.129 12.5132C162.123 11.7254 162.21 10.975 162.358 10.2856C162.448 9.86873 162.54 9.56154 162.605 9.38544C163.208 7.78071 163.22 6.74937 162.739 6.26807C162.58 6.10926 162.58 5.85177 162.739 5.69296C162.745 5.68601 162.753 5.67937 162.76 5.67303L162.778 5.65309C162.937 5.49427 163.195 5.49427 163.354 5.65309C163.835 6.13439 164.866 6.12263 166.471 5.51954C166.647 5.45455 166.954 5.3628 167.371 5.27301C168.06 5.1245 168.811 5.03796 169.599 5.04371C171.717 5.05917 173.705 5.72654 175.381 7.24548C177.071 5.69003 179.08 5.00712 181.223 4.99148C182.011 4.98573 182.761 5.07227 183.451 5.22078C183.867 5.31057 184.175 5.40232 184.351 5.46731C185.956 6.0704 186.987 6.08216 187.468 5.60086C187.627 5.44204 187.884 5.44204 188.043 5.60085C188.05 5.6078 188.057 5.61494 188.063 5.62225ZM186.973 6.70995C186.288 6.83363 185.415 6.70184 184.359 6.33527L184.067 6.22949L183.993 6.20439C183.96 6.19358 183.918 6.18049 183.868 6.16556C183.698 6.11457 183.5 6.06346 183.279 6.01586C182.645 5.87928 181.954 5.79949 181.229 5.80478C179.228 5.81938 177.373 6.46604 175.819 7.95188C175.804 8.0214 175.768 8.08544 175.715 8.13847C175.557 8.29728 175.299 8.29728 175.14 8.13847C173.559 6.55717 171.653 5.87205 169.593 5.85701C168.868 5.85173 168.176 5.93151 167.542 6.06809C167.321 6.11569 167.124 6.1668 166.953 6.2178C166.903 6.23272 166.861 6.24581 166.828 6.25662L166.755 6.28172C165.567 6.728 164.596 6.89711 163.848 6.76368C163.971 7.44836 163.84 8.32151 163.473 9.37692L163.367 9.66927L163.342 9.74276C163.331 9.77596 163.318 9.81774 163.303 9.86771C163.252 10.0385 163.201 10.2359 163.154 10.4568C163.017 11.0909 162.937 11.7827 162.942 12.5072C162.957 14.5182 163.61 16.3825 165.112 17.9411C165.19 17.9559 165.262 17.9929 165.32 18.0516C165.479 18.2104 165.479 18.4679 165.32 18.6267C163.739 20.208 163.054 22.1141 163.039 24.1742C163.034 24.8987 163.113 25.5905 163.25 26.2246C163.298 26.4455 163.349 26.643 163.4 26.8137C163.43 26.9137 163.452 26.9808 163.464 27.0121C163.889 28.1444 164.063 29.08 163.962 29.8134C164.694 29.711 165.629 29.8845 166.761 30.31C166.793 30.3216 166.86 30.3441 166.96 30.3739C167.131 30.4249 167.328 30.4761 167.549 30.5237C168.183 30.6602 168.875 30.74 169.599 30.7347C171.66 30.7197 173.566 30.0346 175.147 28.4533L175.18 28.4256C175.183 28.4223 175.186 28.4191 175.189 28.4158C175.348 28.257 175.606 28.257 175.764 28.4158C177.346 29.9971 179.252 30.6823 181.312 30.6973C182.036 30.7026 182.728 30.6228 183.362 30.4862C183.583 30.4386 183.781 30.3875 183.951 30.3365C184.051 30.3067 184.119 30.2841 184.15 30.2726C185.282 29.8471 186.218 29.6735 186.951 29.774C186.849 29.0426 187.022 28.1069 187.448 26.9747C187.459 26.9434 187.482 26.8762 187.512 26.7763C187.563 26.6055 187.614 26.4081 187.661 26.1871C187.798 25.5531 187.878 24.8613 187.872 24.1367C187.857 22.0767 187.172 20.1705 185.591 18.5892C185.451 18.449 185.434 18.2319 185.542 18.0737C185.557 18.0484 185.576 18.0245 185.598 18.0025C187.179 16.4212 187.864 14.5151 187.879 12.455C187.884 11.7305 187.805 11.0387 187.668 10.4046C187.621 10.1836 187.569 9.98623 187.518 9.81548C187.503 9.76551 187.49 9.72373 187.48 9.69053L187.454 9.61704C187.008 8.42959 186.839 7.45838 186.973 6.70995Z"
    fill="white" />
  <path
    d="M183.329 10.5301C183.487 10.689 183.487 10.9464 183.329 11.1053C183.185 11.2492 183.043 11.3558 182.871 11.4364C182.747 11.7147 182.701 12.1829 182.66 13.1495C182.616 14.1988 182.537 14.7472 182.276 15.2702C181.88 16.0638 180.979 17.0087 179.567 18.1276C181.211 19.4209 182.258 20.4971 182.712 21.3828C182.997 21.9389 183.091 22.5227 183.159 23.6381C183.244 25.0514 183.32 25.4746 183.607 25.7618C183.746 25.9007 183.764 26.1153 183.66 26.2731L183.607 26.3369L183.544 26.389C183.386 26.4932 183.171 26.4758 183.032 26.3369C182.745 26.0497 182.322 25.9735 180.909 25.8882C179.793 25.8209 179.209 25.7261 178.653 25.4411C177.766 24.9861 176.686 23.9361 175.391 22.2841C174.236 23.753 173.267 24.6864 172.455 25.0913C171.932 25.3523 171.384 25.4315 170.334 25.4757C169.024 25.5308 168.63 25.5948 168.377 25.8475C168.218 26.0063 167.961 26.0063 167.802 25.8475C167.787 25.8326 167.774 25.8169 167.761 25.8004L167.715 25.7604C167.556 25.6016 167.556 25.3441 167.715 25.1853C167.968 24.9326 168.032 24.5379 168.087 23.2282C168.131 22.1788 168.21 21.6305 168.471 21.1075C168.873 20.3024 169.794 19.3417 171.242 18.2016C169.771 17.0153 168.826 16.018 168.4 15.1879C168.115 14.6318 168.02 14.048 167.953 12.9326C167.868 11.5193 167.792 11.0961 167.504 10.8089C167.365 10.67 167.348 10.4555 167.452 10.2976L167.504 10.2339C167.663 10.075 167.921 10.075 168.079 10.2339C168.367 10.5211 168.79 10.5972 170.203 10.6825C171.319 10.7498 171.902 10.8446 172.458 11.1296C173.331 11.5769 174.389 12.5989 175.655 14.2024C176.846 12.6713 177.844 11.7013 178.676 11.2863C179.199 11.0254 179.747 10.9462 180.796 10.902C181.583 10.8689 182.039 10.8326 182.333 10.7542C182.37 10.7076 182.412 10.6625 182.457 10.6173C182.547 10.5271 182.669 10.4881 182.787 10.5003C182.946 10.372 183.18 10.3819 183.329 10.5301ZM181.963 11.6419C181.666 11.6747 181.298 11.6949 180.831 11.7146C179.897 11.7539 179.423 11.8224 179.039 12.0141C178.295 12.3849 177.298 13.3796 176.076 14.9902C176.058 15.0809 176.007 15.1638 175.929 15.2237C175.75 15.3599 175.495 15.3257 175.359 15.1471C174.004 13.3722 172.903 12.2715 172.087 11.8534C171.666 11.6377 171.157 11.5549 170.154 11.4944C169.47 11.453 168.986 11.4143 168.618 11.349C168.685 11.7152 168.724 12.1993 168.765 12.8836C168.825 13.886 168.908 14.396 169.124 14.817C169.506 15.563 170.46 16.5475 171.978 17.7467C172.1 17.7478 172.218 17.8033 172.296 17.9069C172.329 17.9501 172.352 17.9977 172.365 18.047L172.418 18.088C172.596 18.2243 172.63 18.4795 172.494 18.658C172.358 18.8366 172.103 18.8708 171.924 18.7346L171.902 18.7175C170.452 19.8437 169.548 20.7701 169.199 21.4706C169.007 21.8549 168.939 22.3287 168.899 23.2624C168.87 23.9577 168.84 24.4335 168.775 24.7883C169.129 24.7227 169.605 24.6924 170.3 24.6631C171.234 24.6238 171.707 24.5553 172.092 24.3636C172.842 23.9895 173.85 22.9808 175.086 21.3454C175.221 21.1662 175.476 21.1307 175.655 21.266C175.731 21.3229 175.781 21.4008 175.803 21.4854L175.753 21.4236C177.108 23.1985 178.209 24.2992 179.024 24.7173C179.445 24.9331 179.955 25.0159 180.958 25.0764C181.642 25.1177 182.126 25.1564 182.492 25.2229C182.427 24.8555 182.388 24.3714 182.347 23.6871C182.286 22.6847 182.204 22.1748 181.988 21.7538C181.57 20.9381 180.469 19.8373 178.694 18.4827L178.872 18.6206C178.719 18.6581 178.552 18.6044 178.451 18.4707C178.315 18.2915 178.351 18.0365 178.53 17.9011C180.165 16.6656 181.174 15.6569 181.548 14.9071C181.74 14.5228 181.808 14.0489 181.848 13.1152C181.876 12.4537 181.904 11.9909 181.963 11.6419Z"
    fill="white" fill-opacity="0.7" />
  <path
    d="M175.308 7.18604C175.53 7.18604 175.711 7.36978 175.711 7.59644C175.711 7.8022 175.686 7.97959 175.622 8.16054C175.731 8.44794 176.027 8.81451 176.675 9.53197C177.379 10.3123 177.708 10.7602 177.891 11.3196C178.171 12.1721 178.201 13.4971 177.992 15.3151C180.053 15.0758 181.545 15.0997 182.49 15.3988C183.09 15.5887 183.574 15.9313 184.418 16.6655C185.488 17.5958 185.844 17.8389 186.254 17.8389C186.481 17.8389 186.664 18.0193 186.664 18.2418V18.2918C186.664 18.5143 186.481 18.6947 186.254 18.6947C185.844 18.6947 185.488 18.9379 184.418 19.8681C183.574 20.6024 183.09 20.945 182.49 21.1349C181.542 21.4347 180.046 21.458 177.978 21.2171C178.202 23.0993 178.177 24.4649 177.891 25.3365C177.708 25.8959 177.379 26.3437 176.675 27.1241C175.796 28.0981 175.564 28.4254 175.564 28.7861C175.564 29.0127 175.384 29.1965 175.161 29.1965C175.141 29.1965 175.12 29.1949 175.1 29.1918L175.039 29.1965C174.817 29.1965 174.637 29.0127 174.637 28.7861C174.637 28.4254 174.405 28.0981 173.526 27.1241C172.822 26.3437 172.493 25.8959 172.31 25.3365C172.026 24.4716 171.999 23.1203 172.218 21.2612C170.354 21.4538 168.988 21.4152 168.102 21.1349C167.502 20.945 167.017 20.6024 166.173 19.8681C165.104 18.9379 164.748 18.6947 164.338 18.6947C164.111 18.6947 163.927 18.5143 163.927 18.2918L163.928 18.2669C163.928 18.2586 163.927 18.2502 163.927 18.2418C163.927 18.0193 164.111 17.8389 164.338 17.8389C164.748 17.8389 165.104 17.5958 166.173 16.6655C167.017 15.9313 167.502 15.5887 168.102 15.3988C169.033 15.1041 170.495 15.0765 172.507 15.3043C172.266 13.3509 172.285 11.9391 172.578 11.046C172.762 10.4866 173.09 10.0387 173.795 9.25837C174.322 8.67381 174.616 8.32219 174.767 8.0565C174.761 7.9967 174.759 7.93477 174.759 7.87003C174.759 7.74107 174.817 7.62601 174.908 7.55077C174.93 7.34592 175.1 7.18604 175.308 7.18604ZM175.13 8.95331C174.946 9.18856 174.702 9.4659 174.388 9.81383C173.761 10.5082 173.477 10.8952 173.342 11.3062C173.095 12.061 173.08 13.3807 173.313 15.2414L173.347 15.5072L173.343 15.4627C173.455 15.5477 173.52 15.6878 173.5 15.8358C173.469 16.0564 173.263 16.2111 173.038 16.1815C170.805 15.8871 169.234 15.8871 168.354 16.1657C167.899 16.3095 167.476 16.6087 166.718 17.2685C166.179 17.737 165.797 18.0558 165.481 18.2675C165.797 18.4779 166.179 18.7966 166.718 19.2651C167.476 19.9249 167.899 20.2242 168.354 20.3679C169.15 20.62 170.513 20.644 172.42 20.428C172.505 20.3469 172.624 20.3053 172.747 20.3228C172.798 20.33 172.845 20.3465 172.887 20.3704L173.038 20.3521C173.263 20.3225 173.469 20.4772 173.5 20.6978C173.53 20.9183 173.372 21.1211 173.147 21.1507L173.04 21.1647C172.812 23.0127 172.827 24.3246 173.074 25.0762C173.209 25.4873 173.493 25.8743 174.119 26.5687C174.586 27.0858 174.898 27.447 175.101 27.7464C175.303 27.447 175.615 27.0858 176.082 26.5687C176.708 25.8743 176.992 25.4873 177.127 25.0762C177.384 24.2925 177.39 22.8996 177.129 20.9243C177.095 20.8553 177.081 20.7777 177.092 20.6978C177.101 20.6304 177.127 20.5692 177.164 20.5175C177.224 20.4155 177.328 20.3406 177.454 20.3228C177.544 20.31 177.631 20.3286 177.704 20.3703L177.553 20.3521C179.787 20.6465 181.358 20.6465 182.238 20.3679C182.692 20.2242 183.115 19.9249 183.874 19.2651C184.412 18.7966 184.794 18.4779 185.11 18.2661C184.794 18.0558 184.412 17.737 183.874 17.2685C183.115 16.6087 182.692 16.3095 182.238 16.1657C181.397 15.8997 179.927 15.8877 177.851 16.1435C177.77 16.2771 177.616 16.3564 177.454 16.3333C177.245 16.3037 177.096 16.116 177.107 15.9054C177.101 15.883 177.095 15.8598 177.092 15.8358C177.079 15.7415 177.101 15.6504 177.147 15.5748L177.11 15.8702C177.39 13.8215 177.39 12.3818 177.127 11.5798C176.992 11.1688 176.708 10.7818 176.082 10.0874C175.637 9.59517 175.333 9.24421 175.13 8.95331Z"
    fill="white" />
  <path fill-rule="evenodd" clip-rule="evenodd"
    d="M12.3366 29.2922L7.79153 21.5006H4.43684V29.2922H0V6.85547H8.9819C11.038 6.85547 12.8055 7.57691 14.2845 9.01978C15.7273 10.4627 16.4488 12.2302 16.4488 14.2863C16.4488 15.657 16.052 16.9556 15.2584 18.146C14.4648 19.3363 13.4187 20.2381 12.1202 20.8153L17.0981 29.2561H12.3366V29.2922ZM4.43684 11.0037V17.641H8.9819C9.81155 17.641 10.533 17.3163 11.1462 16.667C11.7594 16.0177 12.048 15.2241 12.048 14.3223C12.048 13.4205 11.7594 12.627 11.1462 11.9777C10.533 11.3284 9.84763 11.0037 8.9819 11.0037H4.43684ZM22.181 22.9769C22.722 24.9969 24.2371 25.9709 26.6899 25.9709C28.2771 25.9709 29.4675 25.4298 30.2611 24.3837L33.5797 26.2955C31.9925 28.5681 29.6839 29.7224 26.5817 29.7224C23.9485 29.7224 21.8202 28.9288 20.197 27.3055C18.6098 25.7184 17.7802 23.6984 17.7802 21.2455C17.7802 18.8287 18.5738 16.8086 20.1609 15.2215C21.7481 13.5982 23.7681 12.8047 26.2571 12.8047C28.6017 12.8047 30.5496 13.6343 32.0647 15.2575C33.5797 16.8808 34.3733 18.9008 34.3733 21.2815C34.3733 21.8226 34.3372 22.3637 34.229 22.9769H22.181ZM22.1449 19.7665H30.2971C30.0446 18.6844 29.5757 17.8547 28.8543 17.3136C28.1328 16.7726 27.2671 16.5201 26.3292 16.5201C25.211 16.5201 24.3092 16.8086 23.5878 17.3858C22.8302 17.9269 22.3613 18.7565 22.1449 19.7665ZM50.5726 14.5719C49.4544 13.3815 48.0115 12.8043 46.244 12.8043C44.0436 12.8043 42.4565 13.5618 41.4464 15.0769V13.2733H37.2982V29.2892H41.4464V20.6319C41.4464 19.2973 41.7711 18.2873 42.4204 17.638C43.0697 16.9526 43.8993 16.628 44.9815 16.628C45.9554 16.628 46.713 16.9165 47.2901 17.4937C47.8673 18.0708 48.1558 18.8644 48.1558 19.9466V29.2892H52.3041V19.4416C52.3041 17.3855 51.7269 15.7622 50.5726 14.5719ZM59.3048 22.9766C59.8458 24.9966 61.3609 25.9706 63.8137 25.9706C65.4009 25.9706 66.5913 25.4295 67.3849 24.3834L70.7035 26.2952C69.1163 28.5677 66.8077 29.722 63.7055 29.722C61.0723 29.722 58.944 28.9285 57.3208 27.3052C55.7336 25.7181 54.904 23.698 54.904 21.2452C54.904 18.8283 55.6976 16.8083 57.2847 15.2212C58.8719 13.5979 60.8919 12.8043 63.3809 12.8043C65.7256 12.8043 67.6734 13.634 69.1885 15.2572C70.7035 16.8805 71.4971 18.9005 71.4971 21.2812C71.4971 21.8223 71.461 22.3634 71.3528 22.9766H59.3048ZM59.2326 19.7662H67.3849C67.1324 18.6841 66.6634 17.8544 65.942 17.3133C65.2206 16.7722 64.3548 16.5197 63.417 16.5197C62.2987 16.5197 61.3969 16.8083 60.6755 17.3855C59.9541 17.9265 59.4851 18.7562 59.2326 19.7662ZM95.771 13.2702H91.8031L89.0977 23.1539L86.1759 13.2702H82.2801L79.3583 23.1178L76.6169 13.2702H72.2522L76.9776 29.2861H81.0176L84.0477 19.5828L87.0777 29.2861H91.0817L95.771 13.2702Z"
    fill="white" />
  <path fill-rule="evenodd" clip-rule="evenodd"
    d="M121.108 6.49463H121.469V6.85535V29.3281V29.6888H121.108H116.707H116.347V29.3281V16.0537L110.683 25.3602L110.575 25.5406H110.395H109.89H109.673L109.565 25.3602L103.902 16.0897V29.292V29.6528H103.541H99.1044H98.7437V29.292V6.85535V6.49463H99.1044H103.649H103.866L103.974 6.67499L110.106 16.739L116.202 6.67499L116.311 6.49463H116.527H121.108ZM126.343 14.9726C128.003 13.3133 130.131 12.4475 132.692 12.4475C135.145 12.4475 137.201 13.3133 138.788 15.0447C140.375 16.7401 141.169 18.8323 141.169 21.3212C141.169 21.8623 141.097 22.4755 140.988 23.0887L140.952 23.3773H140.664H129.085C129.662 24.8923 130.997 25.6498 133.089 25.6498C134.568 25.6498 135.65 25.1809 136.407 24.207L136.588 23.9545L136.876 24.0988L140.195 26.0106L140.52 26.1909L140.303 26.5156C138.644 28.8963 136.191 30.0867 133.017 30.0867C130.275 30.0867 128.039 29.221 126.379 27.5617C124.684 25.9023 123.854 23.7741 123.854 21.2491C123.854 18.7601 124.684 16.6319 126.343 14.9726ZM130.167 17.678C129.626 18.1108 129.229 18.688 128.977 19.4094H136.191C135.975 18.6519 135.578 18.0387 135.001 17.6419C134.315 17.173 133.558 16.9205 132.692 16.9205C131.682 16.9205 130.816 17.173 130.167 17.678Z"
    fill="#C3DEF2" />
  <g opacity="0.65">
    <path d="M145.897 6.85156V7.42871H145.067V9.98981H144.454V7.42871H143.624V6.85156H145.897Z" fill="white" />
    <path
      d="M149.324 6.85156V9.98981H148.711V7.96979L147.809 9.41266H147.737L146.871 7.96979V9.98981H146.258V6.85156H146.907L147.809 8.33051L148.711 6.85156H149.324Z"
      fill="white" />
  </g>
</svg>