<svg width="190" height="42" viewBox="0 0 190 42" fill="none" xmlns="http://www.w3.org/2000/svg">
<path d="M12.648 32.0338L7.98818 24.0456H4.54882V32.0338H0V9.03076H9.20859C11.3166 9.03076 13.1287 9.77041 14.645 11.2497C16.1243 12.729 16.8639 14.5411 16.8639 16.6491C16.8639 18.0544 16.4571 19.3858 15.6435 20.6062C14.8299 21.8266 13.7574 22.7512 12.4261 23.3429L17.5296 31.9968H12.648V32.0338ZM4.54882 13.2837V20.0885H9.20859C10.0592 20.0885 10.7988 19.7556 11.4275 19.09C12.0562 18.4243 12.3521 17.6107 12.3521 16.6861C12.3521 15.7615 12.0562 14.9479 11.4275 14.2823C10.7988 13.6166 10.0962 13.2837 9.20859 13.2837H4.54882Z" fill="white"/>
<path d="M22.7438 25.5589C23.2985 27.6299 24.8518 28.6284 27.3666 28.6284C28.9938 28.6284 30.2142 28.0737 31.0278 27.0012L34.4302 28.9613C32.803 31.2912 30.4361 32.4746 27.2556 32.4746C24.5559 32.4746 22.374 31.661 20.7098 29.9968C19.0825 28.3696 18.2319 26.2985 18.2319 23.7837C18.2319 21.3059 19.0455 19.2349 20.6728 17.6077C22.3 15.9435 24.371 15.1299 26.9228 15.1299C29.3266 15.1299 31.3237 15.9805 32.8769 17.6447C34.4302 19.3089 35.2438 21.3799 35.2438 23.8207C35.2438 24.3755 35.2068 24.9302 35.0959 25.5589H22.7438ZM22.7068 22.2675H31.0648C30.8059 21.158 30.3252 20.3074 29.5855 19.7527C28.8459 19.1979 27.9583 18.9391 26.9967 18.9391C25.8503 18.9391 24.9257 19.2349 24.1861 19.8266C23.4095 20.3814 22.9287 21.232 22.7068 22.2675Z" fill="white"/>
<path d="M47.4084 15.1299C49.2206 15.1299 50.6999 15.7216 51.8463 16.942C53.0297 18.1624 53.6215 19.8266 53.6215 21.9346V32.0308H49.3685V22.4524C49.3685 21.3429 49.0726 20.5293 48.4809 19.9376C47.8892 19.3459 47.1126 19.05 46.114 19.05C45.0046 19.05 44.154 19.3828 43.4883 20.0855C42.8226 20.7512 42.4898 21.7867 42.4898 23.155V32.0308H38.2368V15.6107H42.4898V17.4598C43.5253 15.9065 45.1525 15.1299 47.4084 15.1299Z" fill="white"/>
<path d="M60.7999 25.5589C61.3547 27.6299 62.9079 28.6284 65.4227 28.6284C67.0499 28.6284 68.2704 28.0737 69.084 27.0012L72.4863 28.9613C70.8591 31.2912 68.4923 32.4746 65.3118 32.4746C62.6121 32.4746 60.4301 31.661 58.7659 29.9968C57.1387 28.3696 56.2881 26.2985 56.2881 23.7837C56.2881 21.3059 57.1017 19.2349 58.7289 17.6077C60.3561 15.9435 62.4272 15.1299 64.9789 15.1299C67.3828 15.1299 69.3798 15.9805 70.9331 17.6447C72.4863 19.3089 73.3 21.3799 73.3 23.8207C73.3 24.3755 73.263 24.9302 73.152 25.5589H60.7999ZM60.726 22.2675H69.084C68.8251 21.158 68.3443 20.3074 67.6047 19.7527C66.865 19.1979 65.9775 18.9391 65.0159 18.9391C63.8695 18.9391 62.9449 19.2349 62.2053 19.8266C61.4656 20.3814 60.9848 21.232 60.726 22.2675Z" fill="white"/>
<path d="M94.123 15.6084H98.1911L93.3834 32.0285H89.2783L86.1718 22.0803L83.0653 32.0285H78.9233L74.0786 15.6084H78.5535L81.3641 25.7046L84.3597 15.6084H88.3538L91.3494 25.7416L94.123 15.6084Z" fill="white"/>
<g opacity="0.65">
<path d="M119.462 32.2195V17.7594L113.286 27.9665L112.546 28.0035L106.37 17.8334V32.2195H101.488V8.84668H106.444L112.916 19.5346L119.388 8.84668H124.343V32.2195H119.462Z" fill="white"/>
<path d="M124.163 9.03096V32.034H119.651V17.0931L113.179 27.744H112.661L106.19 17.1301V31.997H101.641V9.03096H106.3L112.883 19.9038L119.429 9.03096H124.163ZM124.533 8.66113H124.163H119.466H119.244L119.133 8.84604L112.883 19.1641L106.596 8.84604L106.485 8.66113H106.263H101.604H101.234V9.03096V32.034V32.4038H101.604H106.153H106.522V32.034V18.4984L112.329 28.0029L112.44 28.1878H112.661H113.179H113.364L113.475 28.0029L119.281 18.4614V32.0709V32.4408H119.651H124.163H124.533V32.0709V9.03096V8.66113Z" fill="white"/>
</g>
<g opacity="0.65">
<path d="M136.374 32.6667C133.637 32.6667 131.381 31.8161 129.717 30.1519C128.053 28.4877 127.202 26.3427 127.202 23.8279C127.202 21.3131 128.053 19.2051 129.68 17.5039C131.344 15.8397 133.489 14.9521 136.041 14.9521C138.482 14.9521 140.553 15.8027 142.143 17.5039C143.733 19.2051 144.547 21.3131 144.547 23.7909C144.547 24.3457 144.473 24.9374 144.362 25.5661L144.325 25.714H132.047C132.639 27.5261 134.081 28.4137 136.448 28.4137C138.001 28.4137 139.184 27.896 139.961 26.8605L140.072 26.7125L143.807 28.8575L143.696 29.0054C142.069 31.4463 139.591 32.6667 136.374 32.6667ZM139.887 22.0897C139.628 21.1282 139.184 20.4255 138.519 19.9448C137.816 19.427 136.965 19.1681 136.041 19.1681C134.968 19.1681 134.044 19.464 133.341 19.9817C132.676 20.4995 132.232 21.2022 131.973 22.0897H139.887Z" fill="white"/>
<path d="M136.042 15.1364C138.446 15.1364 140.443 15.987 141.996 17.6512C143.55 19.3154 144.363 21.3864 144.363 23.8273C144.363 24.382 144.326 24.9367 144.215 25.5654H131.826C132.381 27.6364 133.934 28.635 136.449 28.635C138.076 28.635 139.297 28.0802 140.11 27.0077L143.513 28.9678C141.885 31.2977 139.518 32.4811 136.338 32.4811C133.638 32.4811 131.456 31.6675 129.792 30.0033C128.165 28.3761 127.314 26.3051 127.314 23.7903C127.314 21.3125 128.128 19.2415 129.755 17.6142C131.456 15.987 133.527 15.1364 136.042 15.1364ZM131.752 22.274H140.11C139.851 21.1645 139.371 20.3139 138.631 19.7592C137.891 19.2045 137.004 18.9456 136.042 18.9456C134.896 18.9456 133.971 19.2415 133.231 19.8332C132.492 20.3879 132.011 21.2385 131.752 22.274ZM136.042 14.7666C133.416 14.7666 131.234 15.6542 129.533 17.3554C127.832 19.0566 126.981 21.2385 126.981 23.7903C126.981 26.379 127.832 28.561 129.57 30.2622C131.271 31.9634 133.564 32.851 136.375 32.851C139.629 32.851 142.144 31.6305 143.845 29.1897L144.067 28.8569L143.734 28.672L140.332 26.7119L140.036 26.564L139.851 26.8228C139.075 27.8214 137.965 28.3021 136.449 28.3021C134.304 28.3021 132.936 27.5255 132.344 25.9722H144.215H144.511L144.548 25.6764C144.659 25.0477 144.733 24.419 144.733 23.8643C144.733 21.3125 143.919 19.1675 142.292 17.4293C140.665 15.6542 138.557 14.7666 136.042 14.7666ZM132.233 21.9042C132.492 21.1645 132.899 20.5728 133.453 20.129C134.119 19.6113 135.007 19.3524 136.042 19.3524C136.93 19.3524 137.706 19.6113 138.409 20.0921C139.001 20.4989 139.408 21.1276 139.629 21.9042H132.233Z" fill="white"/>
</g>
<path opacity="0.774926" fill-rule="evenodd" clip-rule="evenodd" d="M165.303 10.0561C164.144 11.2449 163.452 12.7294 163.452 14.5411C163.452 14.7009 163.339 14.8342 163.19 14.8642C163.136 14.9039 163.07 14.9274 162.998 14.9274C161.205 14.9274 159.736 15.6269 158.56 16.7984C158.147 17.2104 157.8 17.6524 157.518 18.0939C157.419 18.2478 157.336 18.3901 157.269 18.5172C157.229 18.5915 157.203 18.6429 157.192 18.6675C156.792 19.5581 156.361 20.1927 155.89 20.5557C156.361 20.9186 156.792 21.5532 157.192 22.4438C157.203 22.4684 157.229 22.5198 157.269 22.5941C157.336 22.7212 157.419 22.8635 157.518 23.0174C157.8 23.4589 158.147 23.9009 158.56 24.3129C159.736 25.4845 161.205 26.1839 162.998 26.1839C163.014 26.1839 163.03 26.1851 163.046 26.1874C163.223 26.1909 163.365 26.3371 163.365 26.5168C163.365 28.3286 164.057 29.813 165.216 31.0018C165.624 31.4199 166.061 31.7705 166.498 32.0554C166.65 32.1548 166.791 32.2386 166.917 32.3072C166.991 32.3473 167.041 32.3729 167.066 32.3842C167.948 32.789 168.577 33.2254 168.936 33.7029C169.295 33.2254 169.923 32.789 170.806 32.3842C170.83 32.3729 170.881 32.3473 170.955 32.3072C171.08 32.2386 171.221 32.1548 171.373 32.0554C171.81 31.7705 172.248 31.4199 172.655 31.0018C173.815 29.813 174.507 28.3286 174.507 26.5168C174.507 26.3429 174.64 26.2005 174.809 26.1882C174.821 26.1867 174.834 26.186 174.847 26.186C176.64 26.186 178.108 25.4865 179.285 24.315C179.698 23.903 180.045 23.4609 180.327 23.0195C180.425 22.8656 180.508 22.7232 180.576 22.5962C180.616 22.5219 180.641 22.4705 180.653 22.4459C181.072 21.5105 181.527 20.8574 182.026 20.505C181.527 20.1525 181.072 19.4995 180.653 18.5641C180.641 18.5395 180.616 18.4881 180.576 18.4138C180.508 18.2867 180.426 18.1444 180.327 17.9905C180.045 17.549 179.698 17.107 179.285 16.695C178.181 15.5961 176.821 14.9125 175.177 14.832C175.131 14.8566 175.079 14.8706 175.023 14.8706C174.962 14.8706 174.905 14.8536 174.856 14.824L174.847 14.824C174.667 14.824 174.521 14.6765 174.521 14.4945C174.521 14.3703 174.589 14.2622 174.689 14.206C174.609 12.5454 173.933 11.1708 172.846 10.0562C172.438 9.63809 172.001 9.28748 171.564 9.0025C171.412 8.90319 171.271 8.81937 171.145 8.75077C171.072 8.71061 171.021 8.68503 170.997 8.67371C170.07 8.24873 169.423 7.78878 169.075 7.28306C168.726 7.78876 168.08 8.2487 167.153 8.67367C167.128 8.68499 167.078 8.71057 167.004 8.75072C166.878 8.81933 166.737 8.90314 166.585 9.00246C166.148 9.28744 165.711 9.63805 165.303 10.0561ZM162.72 26.8377C162.797 28.6919 163.548 30.2301 164.752 31.4643C165.195 31.9189 165.67 32.2992 166.145 32.609C166.432 32.7964 166.658 32.9198 166.795 32.9835C167.868 33.4756 168.456 33.9753 168.601 34.4555C168.589 34.5335 168.582 34.6126 168.582 34.6928C168.582 34.8748 168.728 35.0223 168.908 35.0223L168.919 35.0221C168.925 35.0219 168.93 35.0216 168.936 35.0211C168.945 35.0219 168.954 35.0223 168.963 35.0223C169.143 35.0223 169.289 34.8748 169.289 34.6928C169.289 34.6126 169.283 34.5335 169.27 34.4555C169.416 33.9753 170.004 33.4756 171.077 32.9835C171.214 32.9198 171.44 32.7964 171.727 32.609C172.202 32.2992 172.676 31.9189 173.12 31.4643C174.323 30.2304 175.074 28.6925 175.152 26.8387C176.992 26.7631 178.518 26.0033 179.742 24.7843C180.192 24.3363 180.568 23.8568 180.875 23.3768C181.06 23.0866 181.183 22.858 181.245 22.7199C181.813 21.4551 182.391 20.8576 182.937 20.8576C183.117 20.8576 183.263 20.7101 183.263 20.5281L183.263 20.5182L183.262 20.505C183.263 20.4973 183.263 20.4896 183.263 20.4818C183.263 20.2999 183.117 20.1524 182.937 20.1524C182.391 20.1524 181.813 19.5548 181.245 18.29C181.183 18.1519 181.06 17.9234 180.875 17.6331C180.568 17.1531 180.192 16.6737 179.742 16.2257C178.561 15.0486 177.097 14.2997 175.341 14.1815C175.254 12.3446 174.505 10.8192 173.31 9.59367C172.867 9.13907 172.393 8.75876 171.918 8.44891C171.631 8.26155 171.404 8.13813 171.268 8.07448C170.016 7.50068 169.425 6.91659 169.425 6.36515C169.425 6.18319 169.279 6.03569 169.099 6.03569C169.091 6.03569 169.083 6.03598 169.075 6.03657C169.067 6.03596 169.059 6.03564 169.05 6.03564C168.87 6.03564 168.724 6.18315 168.724 6.3651C168.724 6.91655 168.133 7.50063 166.882 8.07444C166.745 8.13809 166.519 8.26151 166.232 8.44887C165.757 8.75872 165.282 9.13902 164.839 9.59363C163.624 10.839 162.871 12.394 162.805 14.271C160.914 14.3198 159.351 15.0855 158.103 16.3291C157.653 16.7771 157.276 17.2566 156.97 17.7366C156.784 18.0268 156.662 18.2553 156.599 18.3934C156.115 19.4724 155.623 20.0658 155.15 20.2169C155.071 20.2034 154.99 20.1966 154.908 20.1966C154.728 20.1966 154.582 20.3441 154.582 20.5261C154.582 20.536 154.582 20.5459 154.583 20.5557C154.582 20.5654 154.582 20.5753 154.582 20.5852C154.582 20.7672 154.728 20.9147 154.908 20.9147C154.99 20.9147 155.071 20.9079 155.15 20.8944C155.623 21.0455 156.115 21.6389 156.599 22.7179C156.662 22.856 156.784 23.0845 156.97 23.3748C157.276 23.8548 157.653 24.3342 158.103 24.7822C159.332 26.0071 160.867 26.7684 162.72 26.8377Z" fill="white"/>
<path opacity="0.452172" fill-rule="evenodd" clip-rule="evenodd" d="M173.814 10.4533C172.163 10.4655 170.635 11.0205 169.367 12.3016C169.319 12.3504 169.26 12.3807 169.197 12.3925C169.069 12.507 168.873 12.5023 168.751 12.3785C167.483 11.0974 165.955 10.5424 164.304 10.5302C163.723 10.5259 163.168 10.5905 162.66 10.7012C162.483 10.7397 162.325 10.7811 162.188 10.8225C162.108 10.8466 162.054 10.8649 162.029 10.8743C161.078 11.2353 160.3 11.3725 159.701 11.2651C159.808 11.8715 159.672 12.6583 159.314 13.6204C159.305 13.6457 159.287 13.7002 159.263 13.7811C159.222 13.9195 159.181 14.0794 159.143 14.2584C159.034 14.7721 158.97 15.3326 158.974 15.9196C158.986 17.5493 159.51 19.0602 160.715 20.3232C160.777 20.335 160.836 20.3653 160.884 20.4139C161.012 20.5426 161.012 20.7512 160.884 20.8798C159.617 22.1609 159.068 23.7052 159.056 25.3742C159.051 25.9612 159.115 26.5217 159.225 27.0353C159.263 27.2144 159.304 27.3743 159.345 27.5126C159.369 27.5936 159.387 27.648 159.396 27.6734C159.737 28.59 159.876 29.3475 159.796 29.9414C160.384 29.8604 161.133 30.001 162.04 30.3455C162.065 30.3549 162.119 30.3731 162.199 30.3973C162.336 30.4386 162.494 30.48 162.672 30.5186C163.18 30.6293 163.734 30.6939 164.315 30.6896C165.967 30.6774 167.495 30.1224 168.762 28.8413C168.766 28.8372 168.771 28.8332 168.775 28.8294C168.781 28.8214 168.788 28.8137 168.796 28.8063C168.923 28.6776 169.129 28.6776 169.257 28.8063C170.524 30.0874 172.052 30.6425 173.704 30.6546C174.284 30.6589 174.839 30.5943 175.347 30.4836C175.524 30.4451 175.683 30.4037 175.819 30.3624C175.9 30.3382 175.953 30.3199 175.979 30.3106C176.882 29.9673 177.63 29.8265 178.216 29.9055C178.137 29.312 178.276 28.5551 178.617 27.6397C178.626 27.6143 178.644 27.5599 178.668 27.4789C178.709 27.3406 178.75 27.1807 178.788 27.0017C178.897 26.488 178.961 25.9275 178.957 25.3405C178.945 23.6715 178.396 22.1273 177.128 20.8462C177.001 20.7175 177.001 20.5089 177.128 20.3802C177.194 20.3141 177.28 20.2819 177.366 20.2838C178.598 19.0129 179.133 17.4875 179.144 15.8408C179.149 15.2538 179.085 14.6933 178.975 14.1796C178.937 14.0006 178.896 13.8407 178.855 13.7023C178.831 13.6214 178.813 13.567 178.804 13.5416C178.447 12.5806 178.311 11.7944 178.417 11.1883C177.818 11.2955 177.04 11.1584 176.089 10.7974C176.064 10.788 176.01 10.7698 175.93 10.7456C175.793 10.7043 175.635 10.6629 175.458 10.6243C174.95 10.5137 174.395 10.449 173.814 10.4533ZM177.881 20.6929C179.205 19.3011 179.783 17.6308 179.796 15.8456C179.801 15.2073 179.732 14.5994 179.613 14.0409C179.541 13.7032 179.467 13.4543 179.415 13.3116C178.931 12.0115 178.922 11.176 179.308 10.7861C179.435 10.6574 179.435 10.4488 179.308 10.3201C179.304 10.3158 179.299 10.3117 179.295 10.3076C179.289 10.3009 179.283 10.2944 179.277 10.2881C179.15 10.1594 178.943 10.1594 178.816 10.2881C178.43 10.678 177.603 10.6685 176.317 10.1799C176.176 10.1272 175.93 10.0529 175.595 9.98017C175.043 9.85985 174.441 9.78974 173.81 9.7944C172.046 9.80741 170.395 10.3903 169.019 11.7243C167.659 10.4447 166.038 9.88403 164.309 9.87127C163.677 9.86661 163.076 9.93672 162.523 10.057C162.189 10.1298 161.942 10.2041 161.801 10.2568C160.515 10.7454 159.688 10.7549 159.302 10.365C159.175 10.2363 158.969 10.2363 158.841 10.365C158.832 10.3739 158.824 10.3832 158.817 10.3929L158.81 10.3989C158.683 10.5276 158.683 10.7362 158.81 10.8649C159.196 11.2548 159.187 12.0903 158.703 13.3904C158.651 13.5331 158.578 13.782 158.506 14.1197C158.387 14.6782 158.317 15.2861 158.322 15.9244C158.335 17.6755 158.891 19.3162 160.162 20.6918C158.949 22.0488 158.416 23.6562 158.404 25.3694C158.399 26.0076 158.468 26.6156 158.587 27.1741C158.659 27.5118 158.733 27.7607 158.785 27.9033C159.199 29.0169 159.265 29.7897 159.034 30.2335C158.97 30.28 158.909 30.3318 158.853 30.3889C158.725 30.5176 158.725 30.7262 158.853 30.8548C158.859 30.8613 158.866 30.8675 158.873 30.8733C158.879 30.8807 158.885 30.8879 158.892 30.8948C159.019 31.0235 159.226 31.0235 159.353 30.8948C159.41 30.8377 159.461 30.7767 159.507 30.712C159.946 30.4775 160.711 30.5445 161.813 30.963C161.954 31.0157 162.2 31.09 162.534 31.1628C163.087 31.2831 163.689 31.3532 164.32 31.3485C166.049 31.3358 167.669 30.7757 169.028 29.4975C170.38 30.7509 171.986 31.3009 173.699 31.3135C174.33 31.3182 174.932 31.2481 175.485 31.1278C175.819 31.055 176.065 30.9807 176.206 30.9281C177.298 30.5131 178.059 30.4437 178.5 30.671C178.548 30.7384 178.601 30.8018 178.659 30.8611C178.787 30.9898 178.993 30.9898 179.12 30.8611L179.129 30.8521C179.142 30.8424 179.154 30.8317 179.166 30.8199C179.293 30.6912 179.293 30.4826 179.166 30.3539C179.106 30.2935 179.042 30.2391 178.974 30.1905C178.748 29.7453 178.816 28.9755 179.228 27.8697C179.28 27.727 179.353 27.4781 179.425 27.1404C179.544 26.5819 179.614 25.974 179.609 25.3357C179.597 23.6371 179.073 22.0425 177.881 20.6929Z" fill="white"/>
<path fill-rule="evenodd" clip-rule="evenodd" d="M163.927 17.8082C164.224 18.4098 165.02 19.2174 166.31 20.2054C166.383 20.2214 166.451 20.2627 166.5 20.3275C166.609 20.4722 166.582 20.6789 166.438 20.7893C165.016 21.8868 164.133 22.7786 163.798 23.4394C163.625 23.7805 163.559 24.1936 163.51 25.0057C163.477 25.5595 163.446 25.9515 163.394 26.249C163.688 26.1961 164.076 26.1647 164.625 26.1312C165.428 26.0822 165.837 26.0151 166.175 25.8403C166.772 25.5308 167.561 24.7593 168.521 23.5312C168.522 23.4323 168.566 23.3348 168.65 23.2705C168.685 23.2437 168.724 23.2251 168.765 23.2145L168.797 23.1719C168.906 23.0273 169.111 22.9995 169.254 23.1099C169.397 23.2203 169.424 23.427 169.315 23.5717L169.301 23.5907C170.203 24.7654 170.946 25.497 171.507 25.78C171.815 25.9354 172.195 25.9908 172.943 26.0227C173.498 26.0463 173.879 26.0708 174.163 26.1227C174.111 25.8356 174.087 25.4507 174.063 24.8891C174.032 24.1327 173.977 23.7488 173.823 23.4375C173.523 22.83 172.715 22.0128 171.404 21.0118C171.26 20.9022 171.232 20.6955 171.34 20.5504C171.387 20.4878 171.451 20.4469 171.521 20.4293C172.914 19.3502 173.779 18.4722 174.11 17.8195C174.283 17.4784 174.349 17.0653 174.397 16.2531C174.43 15.7009 174.461 15.3096 174.513 15.0124C174.219 15.0649 173.832 15.0961 173.286 15.1294C172.483 15.1784 172.074 15.2455 171.736 15.4203C171.104 15.7478 170.258 16.5923 169.221 17.9477C169.249 18.0703 169.206 18.2036 169.1 18.2844C168.957 18.394 168.752 18.3653 168.644 18.2201C167.653 16.8952 166.844 16.0779 166.243 15.7749C165.935 15.6196 165.556 15.5641 164.807 15.5322C164.28 15.5098 163.91 15.4866 163.631 15.4397C163.655 15.6815 163.671 15.979 163.687 16.3565C163.719 17.1129 163.774 17.4968 163.927 17.8082ZM174.906 14.1485C174.675 14.3484 174.311 14.4067 173.247 14.4717C172.353 14.5262 171.885 14.603 171.439 14.8339C170.729 15.202 169.865 16.0504 168.829 17.3849C167.93 16.2381 167.172 15.5065 166.535 15.1853C166.115 14.9739 165.676 14.9097 164.835 14.8739C164.067 14.8412 163.692 14.8048 163.466 14.7075C163.401 14.5661 163.315 14.4504 163.199 14.3327C163.071 14.2041 162.865 14.2041 162.738 14.3327C162.62 14.4518 162.611 14.6392 162.711 14.7685C162.7 14.8647 162.732 14.9648 162.805 15.0386C162.842 15.0768 162.88 15.1118 162.919 15.1439C162.98 15.3822 163.009 15.7514 163.036 16.3842C163.071 17.2344 163.135 17.6786 163.344 18.1023C163.676 18.7761 164.454 19.5846 165.682 20.5489C164.396 21.575 163.576 22.4318 163.218 23.1389C162.989 23.5894 162.913 24.0624 162.859 24.966C162.791 26.111 162.73 26.4538 162.5 26.6865C162.373 26.8152 162.373 27.0238 162.5 27.1525C162.565 27.2184 162.651 27.2505 162.737 27.2489C162.818 27.2475 162.899 27.2154 162.962 27.1524C163.192 26.9198 163.531 26.8581 164.664 26.789C165.558 26.7344 166.026 26.6576 166.472 26.4267C167.137 26.0821 167.936 25.3164 168.886 24.1248C169.8 25.2976 170.571 26.0442 171.216 26.3696C171.635 26.581 172.075 26.6452 172.916 26.681C173.966 26.7257 174.282 26.7775 174.485 26.9823C174.612 27.1109 174.819 27.1109 174.946 26.9823C174.958 26.9696 174.97 26.9562 174.98 26.9421C174.991 26.9333 175.002 26.9235 175.013 26.9129C175.14 26.7842 175.14 26.5756 175.013 26.447C174.81 26.2423 174.759 25.9225 174.715 24.8614C174.679 24.0113 174.616 23.567 174.407 23.1433C174.082 22.4856 173.333 21.6996 172.156 20.7656C173.482 19.7148 174.325 18.8398 174.69 18.12C174.918 17.6695 174.994 17.1965 175.048 16.2928C175.112 15.2167 175.17 14.8491 175.368 14.6156C175.382 14.6022 175.396 14.5884 175.41 14.5741C175.538 14.4455 175.538 14.2369 175.41 14.1082C175.396 14.0936 175.38 14.0806 175.364 14.0693C175.237 13.9793 175.06 13.9916 174.947 14.1064C174.933 14.1205 174.919 14.1345 174.906 14.1485Z" fill="#D37760"/>
<path fill-rule="evenodd" clip-rule="evenodd" d="M167.343 15.0547C167.132 15.6927 167.13 16.8334 167.351 18.4544C167.389 18.5172 167.408 18.5934 167.397 18.6724C167.373 18.8527 167.209 18.9793 167.031 18.9551C165.257 18.7143 164.009 18.7143 163.309 18.9421C162.948 19.0597 162.612 19.3044 162.01 19.844C161.599 20.2118 161.303 20.4668 161.058 20.6398C161.303 20.8128 161.599 21.0678 162.01 21.4356C162.612 21.9752 162.948 22.2198 163.309 22.3374C163.949 22.5456 165.046 22.5635 166.585 22.3811C166.655 22.3125 166.754 22.276 166.858 22.2906C166.901 22.2966 166.941 22.311 166.977 22.3317L167.031 22.3245C167.209 22.3002 167.373 22.4268 167.397 22.6071C167.421 22.7875 167.296 22.9533 167.117 22.9775L167.094 22.9806C166.91 24.4569 166.923 25.5051 167.122 26.1065C167.231 26.4365 167.461 26.7472 167.968 27.3046C168.347 27.7208 168.6 28.0112 168.764 28.2519C168.928 28.0112 169.181 27.7208 169.56 27.3046C170.067 26.7472 170.296 26.4365 170.406 26.1065C170.619 25.4627 170.619 24.307 170.392 22.6623C170.367 22.4821 170.491 22.3157 170.67 22.2906C170.747 22.2798 170.821 22.2969 170.883 22.3344C172.617 22.5652 173.84 22.562 174.53 22.3374C174.891 22.2198 175.226 21.9752 175.829 21.4356C176.24 21.0678 176.536 20.8128 176.781 20.6398C176.536 20.4668 176.24 20.2118 175.829 19.844C175.226 19.3044 174.891 19.0597 174.53 18.9421C173.855 18.7224 172.67 18.7146 170.994 18.9306C170.928 19.0398 170.803 19.1051 170.67 19.0863C170.491 19.0612 170.367 18.8948 170.392 18.7146C170.619 17.0699 170.619 15.9142 170.406 15.2704C170.296 14.9404 170.067 14.6297 169.56 14.0723C169.202 13.6794 168.957 13.3986 168.792 13.1658C168.64 13.3548 168.443 13.5774 168.189 13.8566C167.682 14.414 167.452 14.7247 167.343 15.0547ZM177.706 20.3103C177.386 20.3049 177.099 20.1014 176.261 19.3508C175.591 18.7504 175.206 18.4703 174.73 18.315C173.971 18.0679 172.77 18.0505 171.108 18.2523C171.274 16.8014 171.249 15.7432 171.024 15.0615C170.875 14.6124 170.609 14.2529 170.04 13.6264C169.518 13.0533 169.279 12.7591 169.188 12.5289C169.24 12.3838 169.26 12.2415 169.26 12.0765C169.26 11.8946 169.114 11.7471 168.934 11.7471C168.767 11.7471 168.63 11.8732 168.61 12.0361C168.536 12.0965 168.489 12.1888 168.489 12.2922C168.489 12.3458 168.491 12.3969 168.496 12.4465C168.373 12.6597 168.135 12.9419 167.709 13.4107C167.139 14.0372 166.873 14.3967 166.725 14.8458C166.489 15.5596 166.473 16.6863 166.666 18.2445C165.038 18.051 163.858 18.0711 163.109 18.315C162.633 18.4703 162.248 18.7504 161.578 19.3508C160.739 20.1014 160.453 20.3049 160.133 20.3103L160.119 20.3102C159.939 20.3102 159.793 20.4577 159.793 20.6397V20.6398C159.793 20.8218 159.939 20.9693 160.119 20.9693L160.133 20.9693C160.453 20.9746 160.74 21.1782 161.578 21.9287C162.248 22.5291 162.633 22.8093 163.109 22.9646C163.821 23.1963 164.922 23.226 166.427 23.0622C166.253 24.5452 166.275 25.624 166.504 26.3154C166.653 26.7645 166.918 27.124 167.488 27.7505C168.199 28.5324 168.387 28.7952 168.387 29.0847C168.387 29.2666 168.533 29.4141 168.713 29.4141C168.73 29.4141 168.747 29.4128 168.764 29.4101C168.781 29.4128 168.798 29.4141 168.815 29.4141C168.995 29.4141 169.141 29.2666 169.141 29.0847C169.141 28.7952 169.329 28.5324 170.04 27.7505C170.609 27.124 170.875 26.7645 171.024 26.3154C171.254 25.6183 171.275 24.5276 171.096 23.0258C172.764 23.2291 173.969 23.2122 174.73 22.9646C175.206 22.8093 175.591 22.5291 176.261 21.9287C177.099 21.1782 177.386 20.9746 177.706 20.9693C177.711 20.9693 177.715 20.9693 177.719 20.9693C177.888 20.9693 178.027 20.8397 178.044 20.6735C178.045 20.6625 178.045 20.6512 178.045 20.6398M178.045 20.6398C178.045 20.6397 178.045 20.6397 178.045 20.6397C178.045 20.4577 177.9 20.3102 177.719 20.3102C177.715 20.3102 177.711 20.3102 177.706 20.3103" fill="#00C0C5"/>
</svg>
