<svg width="540" height="387" viewBox="0 0 540 387" fill="none" xmlns="http://www.w3.org/2000/svg">
  <g opacity="0.2" clip-path="url(#prefix__clip0_1993_805)">
    <g filter="url(#prefix__filter0_b_1993_805)">
      <path fill-rule="evenodd" clip-rule="evenodd"
        d="M201.911 45.6635C180.09 68.0406 167.062 95.9836 167.062 130.088C167.062 133.104 164.931 135.617 162.108 136.174C161.096 136.919 159.849 137.358 158.502 137.358C124.757 137.358 97.1078 150.525 74.9663 172.578C67.1791 180.334 60.6488 188.654 55.3409 196.964C53.491 199.86 51.9299 202.54 50.6521 204.932C49.9042 206.331 49.4277 207.298 49.2169 207.761C41.6922 224.523 33.5789 236.469 24.7042 243.302C33.5789 250.134 41.6922 262.08 49.2169 278.842C49.4277 279.305 49.9042 280.272 50.6521 281.671C51.9299 284.063 53.491 286.743 55.3409 289.639C60.6488 297.949 67.1791 306.269 74.9663 314.025C97.1078 336.078 124.757 349.245 158.502 349.245C158.822 349.245 159.136 349.27 159.443 349.318C162.77 349.39 165.445 352.138 165.445 355.518C165.445 389.622 178.473 417.565 200.293 439.942C207.968 447.812 216.201 454.412 224.423 459.776C227.289 461.646 229.941 463.224 232.307 464.515C233.692 465.271 234.649 465.752 235.106 465.965C251.721 473.583 263.553 481.798 270.308 490.786C277.063 481.8 288.894 473.586 305.507 465.969C305.965 465.756 306.922 465.274 308.307 464.518C310.673 463.227 313.324 461.649 316.19 459.78C324.413 454.415 332.645 447.815 340.32 439.945C362.14 417.568 375.169 389.625 375.169 355.521C375.169 352.399 377.451 349.816 380.422 349.383C380.777 349.319 381.141 349.285 381.514 349.285C415.259 349.285 442.908 336.119 465.049 314.066C472.836 306.31 479.367 297.989 484.675 289.679C486.525 286.783 488.086 284.103 489.364 281.712C490.111 280.312 490.588 279.345 490.799 278.883C498.703 261.274 507.257 248.981 516.66 242.347C507.257 235.713 498.703 223.42 490.799 205.812C490.588 205.349 490.111 204.382 489.364 202.982C488.086 200.591 486.525 197.911 484.675 195.015C479.367 186.705 472.836 178.384 465.049 170.628C444.296 149.958 418.703 137.094 387.787 135.563C386.927 136.026 385.945 136.289 384.903 136.289C383.75 136.289 382.671 135.968 381.749 135.409L381.514 135.409C378.125 135.409 375.378 132.632 375.378 129.207C375.378 126.842 376.687 124.787 378.613 123.741C377.097 92.4989 364.369 66.6365 343.917 45.6635C336.243 37.7935 328.01 31.1937 319.788 25.8292C316.922 23.9597 314.27 22.382 311.904 21.0906C310.519 20.3347 309.562 19.8532 309.105 19.6401C291.647 11.6356 279.469 2.97206 272.914 -6.55429C266.359 2.97206 254.181 11.6356 236.723 19.6401C236.266 19.8532 235.309 20.3347 233.924 21.0906C231.558 22.382 228.906 23.9597 226.041 25.8292C217.818 31.1937 209.585 37.7935 201.911 45.6635ZM153.297 361.552C154.758 396.458 168.898 425.416 191.552 448.648C199.897 457.206 208.827 464.364 217.767 470.197C223.173 473.724 227.43 476.047 230.002 477.245C250.2 486.506 261.262 495.909 264.007 504.945C263.77 506.419 263.651 507.912 263.651 509.425C263.651 512.85 266.398 515.626 269.787 515.626C269.969 515.626 270.149 515.618 270.327 515.603C270.491 515.616 270.658 515.623 270.826 515.623C274.215 515.623 276.962 512.846 276.962 509.421C276.962 507.91 276.844 506.418 276.607 504.946C279.353 495.911 290.415 486.509 310.611 477.249C313.183 476.05 317.44 473.727 322.846 470.2C331.786 464.368 340.716 457.209 349.061 448.652C371.713 425.422 385.852 396.469 387.315 361.569C421.93 360.132 450.639 345.833 473.664 322.9C482.131 314.467 489.215 305.441 494.986 296.406C498.475 290.943 500.774 286.641 501.96 284.041C512.647 260.233 523.526 248.984 533.797 248.984C537.186 248.984 539.934 246.208 539.934 242.783C539.934 242.636 539.929 242.491 539.919 242.347C539.929 242.203 539.934 242.058 539.934 241.911C539.934 238.486 537.186 235.71 533.797 235.71C523.526 235.71 512.647 224.461 501.96 200.653C500.774 198.053 498.475 193.752 494.986 188.288C489.215 179.253 482.131 170.227 473.664 161.794C451.434 139.653 423.906 125.56 390.881 123.32C389.254 88.7413 375.155 60.0267 352.659 36.9572C344.314 28.3999 335.384 21.2411 326.444 15.4085C321.038 11.8817 316.781 9.55846 314.209 8.36026C290.651 -2.44086 279.521 -13.4356 279.521 -23.8159C279.521 -27.241 276.774 -30.0176 273.385 -30.0176C273.227 -30.0176 273.069 -30.0115 272.914 -29.9996C272.759 -30.0115 272.602 -30.0176 272.443 -30.0176C269.054 -30.0176 266.307 -27.241 266.307 -23.8159C266.307 -13.4356 255.177 -2.44086 231.619 8.36026C229.047 9.55846 224.79 11.8817 219.385 15.4085C210.444 21.2411 201.514 28.3999 193.169 36.9572C170.31 60.3996 156.12 89.6711 154.878 125.001C119.288 125.917 89.8582 140.331 66.3517 163.743C57.8844 172.177 50.8011 181.202 45.0298 190.237C41.5402 195.701 39.2414 200.003 38.0558 202.602C28.9414 222.906 19.6877 234.076 10.7905 236.924C9.28714 236.669 7.76334 236.541 6.21841 236.541C2.82939 236.541 0.0820312 239.317 0.0820312 242.742C0.0820312 242.931 0.0903473 243.117 0.106628 243.302C0.0903473 243.486 0.0820312 243.672 0.0820312 243.861C0.0820312 247.286 2.82939 250.062 6.21841 250.062C7.76334 250.062 9.28714 249.934 10.7905 249.679C19.6877 252.527 28.9414 263.697 38.0558 284.001C39.2414 286.6 41.5402 290.902 45.0298 296.366C50.8011 305.401 57.8844 314.426 66.3517 322.86C89.5093 345.925 118.416 360.256 153.297 361.552Z"
        fill="#B38DB2" fill-opacity="0.5" />
    </g>
    <path fill-rule="evenodd" clip-rule="evenodd"
      d="M271.44 409.303C297.156 432.952 327.63 443.43 360.077 443.839C372.029 443.989 383.405 442.737 393.851 440.539C400.168 439.211 404.82 437.843 407.487 436.872C428.315 429.139 442.785 427.965 451.115 432.412C451.99 433.622 452.962 434.763 454.033 435.833C456.455 438.255 460.361 438.276 462.757 435.88C462.885 435.752 463.006 435.62 463.12 435.484C463.247 435.376 463.371 435.262 463.491 435.142C465.887 432.746 465.866 428.84 463.444 426.418C462.375 425.348 461.235 424.377 460.026 423.503C455.58 415.172 456.754 400.702 464.487 379.876C465.458 377.21 466.825 372.557 468.154 366.241C470.352 355.794 471.604 344.418 471.454 332.466C471.045 300.023 460.57 269.553 436.927 243.84C460.392 218.346 470.583 187.932 470.648 155.431C470.672 143.481 469.299 132.09 466.991 121.62C465.595 115.29 464.179 110.622 463.179 107.946C453.901 83.5536 453.64 67.9073 460.903 60.6446C463.299 58.2482 463.279 54.3421 460.857 51.9202C460.828 51.8914 460.799 51.863 460.77 51.8349C460.748 51.8138 460.726 51.7929 460.704 51.7722C460.648 51.7206 460.593 51.6702 460.536 51.621C460.442 51.5129 460.343 51.4074 460.24 51.3045C457.818 48.8826 453.912 48.8619 451.516 51.2583C444.253 58.521 428.607 58.2599 404.215 48.9821C401.538 47.9821 396.871 46.5657 390.54 45.17C380.07 42.8619 368.68 41.4888 356.729 41.5128C325.353 41.5757 295.922 51.0757 270.985 72.8453C245.384 49.5451 215.11 39.2108 182.891 38.8051C170.939 38.6547 159.563 39.9073 149.117 42.1048C142.8 43.4335 138.148 44.8006 135.481 45.7723C111.186 54.7924 95.5417 54.8879 88.2017 47.548C85.7798 45.1261 81.8738 45.1054 79.4774 47.5018C79.365 47.6142 79.258 47.7298 79.1563 47.8485C79.0376 47.9502 78.9219 48.0572 78.8096 48.1696C76.4132 50.566 76.4338 54.472 78.8558 56.8939C86.1957 64.2339 86.1002 79.8783 77.0801 104.174C76.1084 106.84 74.7413 111.492 73.4125 117.809C71.215 128.255 69.9625 139.631 70.1129 151.583C70.5251 184.323 81.1896 215.055 105.293 240.916C80.7749 266.729 70.1567 297.732 70.0902 330.909C70.0662 342.859 71.4393 354.25 73.7474 364.72C75.1431 371.05 76.5595 375.718 77.5595 378.394C85.4719 399.197 86.8263 413.638 82.5486 421.943C81.3054 422.826 80.1375 423.813 79.0452 424.905C76.6488 427.301 76.6695 431.207 79.0914 433.629C79.2246 433.763 79.3623 433.889 79.504 434.007C79.6227 434.149 79.7487 434.287 79.8819 434.42C82.3038 436.842 86.2098 436.862 88.6062 434.466C89.6985 433.374 90.6854 432.206 91.5681 430.963C99.8731 426.685 114.314 428.039 135.117 435.952C137.793 436.952 142.461 438.368 148.792 439.764C159.262 442.072 170.652 443.445 182.603 443.421C215.286 443.356 245.859 433.05 271.44 409.303ZM82.4502 151.558C82.8436 182.811 93.39 211.782 117.505 235.897C119.638 238.03 119.909 241.314 118.306 243.704C118.117 244.946 117.546 246.138 116.593 247.092C92.7314 270.953 82.491 299.814 82.4284 331.064C82.4063 342.055 83.6722 352.556 85.7951 362.185C86.5349 365.541 87.326 368.54 88.1133 371.134C88.5742 372.653 88.9212 373.674 89.099 374.15C95.6314 391.324 98.3413 405.508 96.897 416.614C108.004 415.17 122.188 417.88 139.361 424.412C139.837 424.59 140.858 424.937 142.377 425.398C144.971 426.185 147.97 426.976 151.326 427.716C160.955 429.839 171.457 431.105 182.447 431.083C213.697 431.02 242.558 420.78 266.42 396.919C266.647 396.691 266.887 396.486 267.139 396.302C269.543 394.005 273.375 394.058 275.763 396.447C299.878 420.562 328.849 431.108 360.102 431.502C371.093 431.64 381.582 430.485 391.189 428.464C394.538 427.76 397.528 427 400.114 426.24C401.628 425.796 402.645 425.459 403.12 425.287C420.254 418.925 434.429 416.367 445.56 417.946C443.983 406.815 446.541 392.641 452.902 375.509C453.074 375.035 453.411 374.017 453.855 372.504C454.615 369.917 455.375 366.927 456.079 363.578C458.1 353.971 459.255 343.483 459.116 332.491C458.723 301.239 448.177 272.268 424.061 248.152C421.844 245.935 421.639 242.474 423.46 240.066C423.661 239.779 423.889 239.505 424.146 239.248C448.007 215.387 458.247 186.526 458.31 155.276C458.332 144.285 457.066 133.784 454.943 124.155C454.204 120.799 453.413 117.8 452.625 115.206C452.164 113.687 451.817 112.666 451.64 112.19C444.778 94.1505 442.134 79.4097 444.092 68.0693C432.751 70.0276 418.01 67.3834 399.97 60.5216C399.494 60.3438 398.473 59.9968 396.955 59.5359C394.361 58.7486 391.362 57.9575 388.006 57.2177C378.376 55.0948 367.875 53.8289 356.884 53.851C327.592 53.9097 300.399 62.9108 277.455 83.6902C277.175 84.6261 276.666 85.5063 275.929 86.2436C275.114 87.0589 274.124 87.5944 273.077 87.8508L272.912 88.0153C270.516 90.4117 266.61 90.391 264.188 87.9691C262.516 86.2977 261.989 83.9195 262.61 81.8184C239.446 60.799 212.158 51.5112 182.866 51.1424C171.874 51.004 161.386 52.1588 151.779 54.1799C148.43 54.8842 145.44 55.6437 142.853 56.4036C141.34 56.8483 140.322 57.1846 139.848 57.3574C121.842 64.0425 107.105 66.5272 95.7332 64.4254C97.835 75.797 95.3503 90.5346 88.6651 108.541C88.4924 109.015 88.1561 110.032 87.7113 111.546C86.9514 114.132 86.192 117.123 85.4877 120.471C83.4666 130.078 82.3118 140.567 82.4502 151.558Z"
      fill="#539ED8" fill-opacity="0.5" />
    <path fill-rule="evenodd" clip-rule="evenodd"
      d="M148.869 276.607C162.848 281.428 187.838 281.737 223.348 277.233C224.738 276.357 226.439 275.954 228.202 276.209C232.156 276.782 234.93 280.446 234.399 284.394C229.122 323.641 229.122 351.289 234.115 366.835C236.692 374.859 242.056 382.36 253.885 395.834C261.952 405.024 267.544 411.647 271.336 417.119C275.129 411.726 280.721 405.221 288.791 396.199C300.62 382.975 305.983 375.588 308.561 367.618C313.124 353.507 313.517 329.2 309.522 295.075C307.999 293.514 307.186 291.294 307.509 288.983C307.644 288.015 307.965 287.122 308.431 286.333C308.38 285.947 308.329 285.56 308.277 285.171C307.746 281.212 310.52 277.607 314.473 277.118C318.427 276.629 322.061 279.442 322.592 283.401L322.661 283.915C355.008 288.33 377.978 288.282 391.158 284.015C398.392 281.673 405.203 276.653 417.421 265.551C426.466 257.332 432.801 251.822 438.051 248.234C432.792 244.535 426.448 238.883 417.378 230.45C405.16 219.089 398.349 213.925 391.115 211.43C377.003 206.563 351.668 206.295 315.615 210.935C311.665 211.443 308.016 208.648 307.466 204.692C307.228 202.981 307.608 201.334 308.435 199.974C313.518 161.497 313.457 134.341 308.525 118.987C305.948 110.963 300.584 103.462 288.756 89.9878C280.711 80.8236 275.129 74.2124 271.337 68.7498C267.545 74.1271 261.967 80.6137 253.935 89.5932C242.107 102.817 236.743 110.204 234.166 118.174C229.339 133.102 229.178 159.439 233.942 196.738C236.281 198.228 237.67 200.989 237.265 203.895C236.714 207.84 233.066 210.558 229.115 209.966C193.063 204.563 167.728 204.294 153.615 208.863C146.382 211.205 139.571 216.224 127.352 227.327C118.754 235.139 112.606 240.504 107.51 244.097C111.642 247.504 116.508 251.917 122.606 257.587C134.825 268.948 141.636 274.112 148.869 276.607ZM264.107 49.1576C263.568 55.8549 258.762 62.4173 243.125 79.8987C229.963 94.6131 223.822 103.071 220.418 113.597C214.993 130.374 214.619 157.045 219.067 194.01C187.218 189.975 163.993 190.273 149.036 195.115C139.191 198.302 131.31 204.11 117.578 216.589C105.07 227.953 98.6226 233.204 93.5851 235.186C90.3756 233.974 87.2339 233.494 83.5853 233.455C79.5967 233.413 76.3633 236.613 76.3633 240.602C76.3633 244.28 79.1127 247.345 82.6685 247.833C83.9914 249.516 86.0364 250.608 88.3314 250.633C89.53 250.645 90.6738 250.609 91.7833 250.514C96.4468 253.289 102.619 258.623 112.831 268.119C126.564 280.888 134.445 286.862 144.29 290.258C159.942 295.657 184.648 296.27 218.817 292.35C214.581 328.357 215.024 354.485 220.367 371.121C223.771 381.719 229.913 390.307 243.074 405.3C259.75 424.296 264.109 430.613 264.109 437.827C264.109 441.816 267.342 445.084 271.331 445.126C272.119 445.134 272.877 445.016 273.587 444.79C276.478 443.877 278.567 441.181 278.567 437.975C278.567 430.762 282.925 424.537 299.602 405.893C312.763 391.179 318.904 382.722 322.308 372.195C327.389 356.484 328.04 332.098 324.449 298.707C356.945 302.91 380.584 302.669 395.738 297.763C405.582 294.576 413.463 288.768 427.196 276.289C444.336 260.715 450.096 256.623 456.442 256.69C460.431 256.732 463.664 253.533 463.664 249.544C463.664 249.135 463.63 248.733 463.565 248.342C463.602 248.045 463.621 247.743 463.621 247.436C463.621 243.447 460.388 240.179 456.399 240.137C450.053 240.07 444.293 235.856 427.153 219.918C413.42 207.149 405.539 201.175 395.695 197.779C380.415 192.509 356.507 191.799 323.592 195.415C328.074 158.403 327.712 131.635 322.273 114.701C318.869 104.103 312.728 95.515 299.566 80.5221C283.919 62.6971 279.116 56.0361 278.583 49.3225C278.597 48.8783 278.604 48.4277 278.604 47.9697C278.604 43.9808 275.37 40.713 271.382 40.6708C270.503 40.6615 269.661 40.8095 268.882 41.0885C266.088 42.0561 264.088 44.7049 264.088 47.8421C264.088 48.2871 264.094 48.7253 264.107 49.1576Z"
      fill="#F07E58" fill-opacity="0.5" />
    <path fill-rule="evenodd" clip-rule="evenodd"
      d="M128.91 110.128C133.226 115.248 134.463 123.314 135.763 146.645C136.861 166.356 138.498 176.679 143.535 186.53C151.562 202.229 170.157 221.353 199.441 244.346C174.066 264.014 157.854 280.647 150.701 294.648C145.994 303.862 144.528 313.542 143.641 332.076C142.833 348.958 141.986 357.23 139.825 362.193C136.698 363.606 134.137 365.488 131.529 368.041C128.679 370.832 128.655 375.38 131.475 378.201C134.077 380.803 138.19 381.025 141.05 378.854C143.175 379.108 145.394 378.435 147.033 376.829C147.889 375.991 148.672 375.158 149.389 374.307C154.649 372.971 162.785 372.378 176.72 371.872C195.459 371.19 205.257 369.842 214.619 365.282C229.504 358.032 247.408 340.996 268.797 314.062C291.262 342.519 310.051 360.68 325.593 368.665C335.494 373.752 345.909 375.482 365.817 376.777C391.041 378.418 398.59 379.803 403.691 384.904C406.511 387.724 411.108 387.749 413.959 384.958C414.647 384.285 415.17 383.509 415.528 382.679C416.661 380.07 416.16 376.93 414.017 374.788C408.916 369.687 407.596 362.204 406.205 337.229C405.107 317.517 403.469 307.195 398.433 297.344C390.916 282.643 374.133 264.938 347.983 243.866C373.934 223.86 390.479 206.974 397.725 192.789C402.432 183.575 403.898 173.895 404.785 155.361C405.893 132.228 407.072 125.262 411.607 120.822C414.457 118.031 414.481 113.483 411.661 110.662C411.373 110.374 411.066 110.116 410.745 109.886C410.561 109.648 410.359 109.419 410.141 109.2C407.32 106.38 402.723 106.356 399.873 109.146C395.338 113.586 388.285 114.679 364.896 115.53C346.156 116.211 336.359 117.559 326.997 122.119C312.465 129.198 295.057 145.601 274.338 171.436C251.336 142.094 232.152 123.422 216.332 115.294C206.431 110.207 196.016 108.477 176.108 107.182C152.526 105.648 144.393 104.338 139.266 100.006C138.946 99.6639 138.615 99.3226 138.272 98.9806C135.452 96.16 130.855 96.1357 128.005 98.9262C127.428 99.4905 126.967 100.127 126.622 100.806C125.214 103.498 125.641 106.89 127.912 109.161C128.245 109.494 128.577 109.816 128.91 110.128ZM208.204 352.391C221.498 345.916 239.387 328.464 261.311 300.169C261.674 298.567 262.592 297.079 264.02 296.012C267.22 293.622 271.773 294.251 274.189 297.418C298.21 328.902 317.76 348.451 332.283 355.914C339.78 359.765 348.876 361.276 366.768 362.44C378.969 363.234 387.605 363.963 394.156 365.15C393.025 358.655 392.379 350.102 391.706 338.018C390.719 320.303 389.289 311.287 385.476 303.829C378.724 290.624 361.814 273.158 334.859 251.852C332.679 251.824 330.535 250.83 329.129 248.968C328.541 248.189 328.137 247.331 327.909 246.444C327.599 246.207 327.288 245.969 326.976 245.731C323.801 243.307 323.213 238.796 325.663 235.654C328.112 232.513 332.672 231.932 335.847 234.356C335.984 234.461 336.122 234.567 336.259 234.672C362.254 214.92 378.463 198.643 384.765 186.306C388.224 179.535 389.491 171.17 390.281 154.679C390.865 142.471 391.448 134.096 392.623 127.846C386.289 128.949 377.807 129.438 365.431 129.888C348.758 130.495 340.291 131.66 333.412 135.01C319.991 141.548 301.887 159.273 279.675 188.047C277.241 191.2 272.684 191.803 269.498 189.394C268.123 188.355 267.228 186.926 266.849 185.383C243.234 154.578 223.986 135.416 209.641 128.045C202.145 124.194 193.048 122.683 175.157 121.519C162.993 120.728 154.372 120.001 147.829 118.82C148.949 125.303 149.592 133.832 150.262 145.856C151.248 163.57 152.679 172.587 156.492 180.045C163.634 194.014 182.145 212.751 211.888 235.758C214.595 235.158 217.529 236.128 219.297 238.469C221.697 241.648 221.039 246.149 217.827 248.524C188.513 270.196 170.409 287.921 163.661 301.131C160.202 307.902 158.935 316.267 158.146 332.757C157.59 344.362 157.036 352.504 155.973 358.649C161.304 358.136 167.864 357.816 176.185 357.513C192.858 356.907 201.325 355.742 208.204 352.391Z"
      fill="#00C0C5" />
  </g>
  <defs>
    <clipPath id="prefix__clip0_1993_805">
      <path fill="#fff" transform="translate(0 0.5)" d="M0 0H540V390.974H0z" />
    </clipPath>
    <filter id="prefix__filter0_b_1993_805" x="-3.86277" y="-33.9624" width="547.741" height="553.534"
      filterUnits="userSpaceOnUse" color-interpolation-filters="sRGB">
      <feFlood flood-opacity="0" result="BackgroundImageFix" />
      <feGaussianBlur in="BackgroundImageFix" stdDeviation="1.9724" />
      <feComposite in2="SourceAlpha" operator="in" result="effect1_backgroundBlur_1993_805" />
      <feBlend in="SourceGraphic" in2="effect1_backgroundBlur_1993_805" result="shape" />
    </filter>
  </defs>
</svg>