<svg width="199" height="51" viewBox="0 0 199 51" fill="none" xmlns="http://www.w3.org/2000/svg">
<path d="M63.5256 36.0834L59.0462 28.4044H55.74V36.0834H51.3672V13.9707H60.2194C62.2458 13.9707 63.9878 14.6817 65.4454 16.1038C66.8674 17.5258 67.5785 19.2678 67.5785 21.2942C67.5785 22.6452 67.1874 23.925 66.4053 25.0982C65.6231 26.2714 64.5922 27.1601 63.3123 27.729L68.2184 36.0479H63.5256V36.0834ZM55.74 18.0591V24.6005H60.2194C61.0371 24.6005 61.7481 24.2805 62.3525 23.6406C62.9568 23.0007 63.2412 22.2185 63.2412 21.3298C63.2412 20.441 62.9568 19.6589 62.3525 19.019C61.7481 18.379 61.0726 18.0591 60.2194 18.0591H55.74Z" fill="white"/>
<path d="M73.2279 29.8584C73.7611 31.8493 75.2543 32.8091 77.6717 32.8091C79.236 32.8091 80.4092 32.2759 81.1913 31.2449L84.462 33.1291C82.8977 35.3688 80.6225 36.5064 77.5651 36.5064C74.9699 36.5064 72.8723 35.7243 71.2725 34.1245C69.7083 32.5603 68.8906 30.5694 68.8906 28.1519C68.8906 25.77 69.6727 23.7792 71.237 22.2149C72.8012 20.6151 74.7921 19.833 77.2451 19.833C79.5559 19.833 81.4757 20.6507 82.9688 22.2505C84.462 23.8503 85.2441 25.8411 85.2441 28.1875C85.2441 28.7208 85.2086 29.254 85.1019 29.8584H73.2279ZM73.1923 26.6944H81.2268C80.978 25.6278 80.5158 24.8102 79.8048 24.2769C79.0938 23.7436 78.2406 23.4948 77.3162 23.4948C76.2141 23.4948 75.3254 23.7792 74.6143 24.348C73.8678 24.8813 73.4056 25.6989 73.1923 26.6944Z" fill="white"/>
<path d="M96.9436 19.833C98.6856 19.833 100.108 20.4018 101.21 21.575C102.347 22.7482 102.916 24.348 102.916 26.3744V36.0798H98.8278V26.8721C98.8278 25.8056 98.5434 25.0235 97.9746 24.4546C97.4058 23.8858 96.6592 23.6014 95.6993 23.6014C94.6328 23.6014 93.8151 23.9214 93.1752 24.5968C92.5353 25.2368 92.2153 26.2322 92.2153 27.5476V36.0798H88.127V20.2952H92.2153V22.0727C93.2108 20.5796 94.775 19.833 96.9436 19.833Z" fill="white"/>
<path d="M109.816 29.8584C110.349 31.8493 111.842 32.8091 114.26 32.8091C115.824 32.8091 116.997 32.2759 117.779 31.2449L121.05 33.1291C119.486 35.3688 117.21 36.5064 114.153 36.5064C111.558 36.5064 109.46 35.7243 107.86 34.1245C106.296 32.5603 105.479 30.5694 105.479 28.1519C105.479 25.77 106.261 23.7792 107.825 22.2149C109.389 20.6151 111.38 19.833 113.833 19.833C116.144 19.833 118.064 20.6507 119.557 22.2505C121.05 23.8503 121.832 25.8411 121.832 28.1875C121.832 28.7208 121.796 29.254 121.69 29.8584H109.816ZM109.745 26.6944H117.779C117.53 25.6278 117.068 24.8102 116.357 24.2769C115.646 23.7436 114.793 23.4948 113.869 23.4948C112.766 23.4948 111.878 23.7792 111.167 24.348C110.456 24.8813 109.993 25.6989 109.745 26.6944Z" fill="white"/>
<path d="M141.845 20.293H145.755L141.134 36.0776H137.188L134.201 26.5144L131.215 36.0776H127.233L122.576 20.293H126.878L129.58 29.9984L132.459 20.293H136.299L139.179 30.034L141.845 20.293Z" fill="white"/>
<g opacity="0.65">
<path d="M166.211 36.2612V22.3608L160.274 32.1729L159.563 32.2084L153.626 22.4319V36.2612H148.934V13.793H153.697L159.919 24.0672L166.14 13.793H170.904V36.2612H166.211Z" fill="white"/>
<path d="M170.727 13.9707V36.0835H166.39V21.7209L160.169 31.9596H159.671L153.449 21.7564V36.0479H149.077V13.9707H153.556L159.884 24.4227L166.177 13.9707H170.727ZM171.083 13.6152H170.727H166.212H165.999L165.892 13.793L159.884 23.7117L153.84 13.793L153.734 13.6152H153.52H149.041H148.686V13.9707V36.0835V36.439H149.041H153.414H153.769V36.0835V23.0718L159.351 32.2084L159.458 32.3862H159.671H160.169H160.346L160.453 32.2084L166.034 23.0363V36.119V36.4746H166.39H170.727H171.083V36.119V13.9707V13.6152Z" fill="white"/>
</g>
<g opacity="0.65">
<path d="M182.463 36.6891C179.832 36.6891 177.664 35.8714 176.064 34.2716C174.464 32.6718 173.646 30.6099 173.646 28.1924C173.646 25.7749 174.464 23.7485 176.028 22.1132C177.628 20.5134 179.69 19.6602 182.143 19.6602C184.49 19.6602 186.48 20.4778 188.009 22.1132C189.538 23.7485 190.32 25.7749 190.32 28.1569C190.32 28.6901 190.249 29.2589 190.142 29.8633L190.107 30.0055H178.304C178.872 31.7475 180.259 32.6007 182.534 32.6007C184.027 32.6007 185.165 32.103 185.912 31.1076L186.018 30.9654L189.609 33.0273L189.502 33.1695C187.938 35.5159 185.556 36.6891 182.463 36.6891ZM185.84 26.5215C185.592 25.5972 185.165 24.9217 184.525 24.4595C183.85 23.9618 183.032 23.713 182.143 23.713C181.112 23.713 180.223 23.9974 179.548 24.4951C178.908 24.9928 178.481 25.6683 178.233 26.5215H185.84Z" fill="white"/>
<path d="M182.144 19.8379C184.454 19.8379 186.374 20.6556 187.867 22.2554C189.36 23.8552 190.143 25.8461 190.143 28.1924C190.143 28.7257 190.107 29.259 190 29.8633H178.091C178.624 31.8542 180.117 32.8141 182.535 32.8141C184.099 32.8141 185.272 32.2808 186.054 31.2498L189.325 33.134C187.761 35.3737 185.485 36.5114 182.428 36.5114C179.833 36.5114 177.735 35.7292 176.135 34.1294C174.571 32.5652 173.754 30.5743 173.754 28.1569C173.754 25.775 174.536 23.7841 176.1 22.2199C177.735 20.6556 179.726 19.8379 182.144 19.8379ZM178.02 26.6993H186.054C185.805 25.6328 185.343 24.8151 184.632 24.2818C183.921 23.7485 183.068 23.4997 182.144 23.4997C181.042 23.4997 180.153 23.7841 179.442 24.3529C178.731 24.8862 178.269 25.7039 178.02 26.6993ZM182.144 19.4824C179.619 19.4824 177.522 20.3356 175.887 21.971C174.251 23.6063 173.434 25.7039 173.434 28.1569C173.434 30.6454 174.251 32.743 175.922 34.3783C177.558 36.0137 179.762 36.8669 182.464 36.8669C185.592 36.8669 188.01 35.6937 189.645 33.3473L189.858 33.0274L189.538 32.8496L186.268 30.9654L185.983 30.8232L185.805 31.0721C185.059 32.0319 183.992 32.4941 182.535 32.4941C180.473 32.4941 179.157 31.7475 178.588 30.2544H190H190.285L190.32 29.97C190.427 29.3656 190.498 28.7612 190.498 28.228C190.498 25.775 189.716 23.713 188.152 22.0421C186.587 20.3356 184.561 19.4824 182.144 19.4824ZM178.482 26.3438C178.731 25.6328 179.122 25.0639 179.655 24.6373C180.295 24.1396 181.148 23.8907 182.144 23.8907C182.997 23.8907 183.743 24.1396 184.419 24.6018C184.988 24.9928 185.379 25.5972 185.592 26.3438H178.482Z" fill="white"/>
</g>
<g opacity="0.65">
<path d="M195.158 13.9658V14.5346H194.34V17.0588H193.736V14.5346H192.918V13.9658H195.158Z" fill="white"/>
<path d="M198.536 13.9658V17.0588H197.931V15.0679L197.042 16.4899H196.971L196.118 15.0679V17.0588H195.514V13.9658H196.154L197.042 15.4234L197.931 13.9658H198.536Z" fill="white"/>
</g>
<g opacity="0.6">
<path d="M25.5142 7.21685L25.5412 7.21582C25.7639 7.21582 25.9445 7.39638 25.9445 7.61911C25.9445 8.29414 26.6759 9.00912 28.2242 9.71151C28.3932 9.78943 28.673 9.94051 29.0283 10.1698C29.6158 10.5491 30.2027 11.0147 30.7511 11.5712C32.226 13.0677 33.1517 14.9295 33.2624 17.1707C35.5374 17.264 37.4253 18.194 38.9393 19.6861C39.4958 20.2345 39.9613 20.8214 40.3406 21.409C40.57 21.7643 40.7211 22.044 40.799 22.2131C41.5014 23.7613 42.2164 24.4928 42.8914 24.4928C43.1141 24.4928 43.2947 24.6733 43.2947 24.8961C43.2947 24.9058 43.2943 24.9155 43.2936 24.925L43.2947 24.952C43.2947 25.1747 43.1141 25.3553 42.8914 25.3553C42.2164 25.3553 41.5014 26.0868 40.799 27.635C40.7211 27.804 40.57 28.0838 40.3406 28.4391C39.9613 29.0266 39.4958 29.6136 38.9393 30.162C37.4262 31.6532 35.5397 32.583 33.2651 32.6766C33.1697 34.9461 32.2403 36.8296 30.7511 38.3407C30.2027 38.8972 29.6158 39.3627 29.0283 39.742C28.673 39.9714 28.3932 40.1224 28.2242 40.2004C26.8973 40.8023 26.1704 41.4135 25.9896 42.0009C26.0065 42.0969 26.0143 42.1942 26.0143 42.2927C26.0143 42.5155 25.8337 42.696 25.611 42.696L25.5753 42.6928L25.5412 42.696C25.3463 42.696 25.1837 42.5578 25.1461 42.374L25.1379 42.2927C25.1379 42.1949 25.1456 42.0982 25.161 42.0029C24.9835 41.4149 24.2564 40.803 22.928 40.2004C22.759 40.1224 22.4792 39.9714 22.1239 39.742C21.5364 39.3627 20.9495 38.8972 20.401 38.3407C18.9125 36.8303 17.9834 34.9478 17.8869 32.6787C15.5937 32.5949 13.6926 31.6627 12.1698 30.162C11.6133 29.6136 11.1478 29.0266 10.7685 28.4391C10.5391 28.0838 10.3881 27.804 10.3101 27.635C9.70819 26.3081 9.09699 25.5812 8.50963 25.4004C8.41361 25.4173 8.31633 25.4251 8.21774 25.4251C7.99501 25.4251 7.81445 25.2446 7.81445 25.0218L7.81768 24.9861L7.81445 24.952C7.81445 24.7571 7.95269 24.5945 8.13647 24.5569L8.21774 24.5487C8.31564 24.5487 8.41225 24.5564 8.5076 24.5719C9.09558 24.3943 9.70749 23.6672 10.3101 22.3388C10.3881 22.1698 10.5391 21.89 10.7685 21.5347C11.1478 20.9472 11.6133 20.3603 12.1698 19.8119C13.6638 18.3395 15.5219 17.4144 17.7581 17.3012L17.7572 17.324L17.7587 17.2965C17.8404 14.999 18.7729 13.0956 20.2753 11.5712C20.8237 11.0147 21.4106 10.5491 21.9982 10.1698C22.3534 9.94051 22.6332 9.78943 22.8023 9.71151C24.3505 9.00912 25.082 8.29414 25.082 7.61911C25.082 7.39638 25.2625 7.21582 25.4852 7.21582C25.495 7.21582 25.5047 7.21617 25.5142 7.21685ZM25.5119 8.74407C25.0833 9.3626 24.2836 9.92519 23.1377 10.445C23.1076 10.4589 23.0447 10.4902 22.9537 10.5394C22.7982 10.6233 22.6239 10.7259 22.4356 10.8475C21.8952 11.1964 21.3541 11.6255 20.8498 12.1373C19.4498 13.5579 18.6005 15.3234 18.5609 17.4699C18.6046 17.5339 18.6293 17.6105 18.6293 17.6927C18.6293 17.9155 18.4487 18.096 18.226 18.096C16.0082 18.096 14.1911 18.9523 12.7359 20.3863C12.2242 20.8907 11.795 21.4318 11.4461 21.9722C11.3246 22.1605 11.222 22.3348 11.138 22.4903C11.0888 22.5813 11.0575 22.6442 11.0437 22.6743C10.5481 23.7667 10.0136 24.5445 9.42893 24.9883C10.0136 25.4293 10.5481 26.2072 11.0437 27.2995C11.0575 27.3296 11.0888 27.3925 11.138 27.4835C11.222 27.639 11.3246 27.8133 11.4461 28.0016C11.795 28.542 12.2242 29.0831 12.7359 29.5875C14.1911 31.0216 16.0082 31.8778 18.226 31.8778L18.2746 31.8813C18.2771 31.8812 18.2795 31.8812 18.2819 31.8812C18.5047 31.8812 18.6852 32.0618 18.6852 32.2845C18.6852 34.5023 19.5414 36.3194 20.9755 37.7745C21.4799 38.2863 22.021 38.7155 22.5614 39.0644C22.7497 39.1859 22.924 39.2885 23.0795 39.3725C23.1705 39.4217 23.2334 39.453 23.2635 39.4668C24.3558 39.9624 25.1337 40.4968 25.5775 41.0816C26.0185 40.4968 26.7963 39.9624 27.8887 39.4668C27.9188 39.453 27.9817 39.4217 28.0727 39.3725C28.2282 39.2885 28.4025 39.1859 28.5908 39.0644C29.1312 38.7155 29.6723 38.2863 30.1767 37.7745C31.6107 36.3194 32.467 34.5023 32.467 32.2845C32.467 32.0893 32.6057 31.9264 32.79 31.8892C32.8194 31.8816 32.8508 31.8778 32.8831 31.8778C35.1009 31.8778 36.918 31.0216 38.3732 29.5875C38.885 29.0831 39.3141 28.542 39.663 28.0016C39.7846 27.8133 39.8872 27.639 39.9711 27.4835C40.0203 27.3925 40.0516 27.3296 40.0655 27.2995C40.5853 26.1537 41.1479 25.354 41.7664 24.9227C41.1479 24.4941 40.5853 23.6944 40.0655 22.5485C40.0516 22.5185 40.0203 22.4555 39.9711 22.3645C39.8872 22.209 39.7846 22.0348 39.663 21.8464C39.3141 21.306 38.885 20.7649 38.3732 20.2606C36.9601 18.868 35.2057 18.0203 33.0746 17.9724C33.0146 18.0104 32.9448 18.0307 32.8703 18.0307C32.6475 18.0307 32.467 17.8501 32.467 17.6274C32.467 15.4096 31.6107 13.5925 30.1767 12.1373C29.6723 11.6255 29.1312 11.1964 28.5908 10.8475C28.4025 10.7259 28.2282 10.6233 28.0727 10.5394C27.9817 10.4902 27.9188 10.4589 27.8887 10.445C26.7429 9.92519 25.9431 9.3626 25.5119 8.74407Z" fill="white"/>
</g>
<g opacity="0.551595">
<path d="M37.9947 12.7559L38.0143 12.7741C38.1709 12.9306 38.1709 13.1844 38.0143 13.3409C37.54 13.8153 37.5516 14.8317 38.146 16.4133C38.21 16.5868 38.3004 16.8896 38.3889 17.3004C38.5353 17.9798 38.6206 18.7194 38.6149 19.4958C38.5995 21.6069 37.9273 23.586 36.3948 25.2501C37.9224 26.9124 38.5929 28.889 38.6083 30.9972C38.6139 31.7737 38.5287 32.5132 38.3823 33.1927C38.2938 33.6035 38.2034 33.9062 38.1393 34.0798C37.6293 35.4368 37.5484 36.3777 37.8353 36.9172C37.9147 36.9719 37.988 37.0343 38.0568 37.1031C38.2133 37.2596 38.2133 37.5134 38.0568 37.6699L38.0295 37.6928L38.0077 37.719C37.8708 37.8559 37.6593 37.873 37.5038 37.7703L37.4409 37.719C37.3716 37.6497 37.3088 37.5758 37.2523 37.4974C36.7134 37.2108 35.773 37.2921 34.4176 37.8015C34.2441 37.8655 33.9413 37.956 33.5305 38.0445C32.851 38.1908 32.1115 38.2761 31.335 38.2705C29.2278 38.2551 27.2521 37.5852 25.5898 36.0586C23.9191 37.611 21.9281 38.2918 19.8034 38.3074C19.027 38.313 18.2874 38.2277 17.608 38.0814C17.1972 37.9929 16.8944 37.9024 16.7208 37.8384C15.3639 37.3284 14.4229 37.2475 13.8834 37.5344C13.8288 37.6138 13.7663 37.6871 13.6976 37.7559C13.541 37.9124 13.2873 37.9124 13.1308 37.7559L13.1079 37.7285L13.0817 37.7068C12.9447 37.5698 12.9276 37.3584 13.0303 37.2028L13.0817 37.14C13.1509 37.0707 13.2248 37.0079 13.3032 36.9514C13.5899 36.4124 13.5085 35.4721 12.9991 34.1167C12.9351 33.9431 12.8447 33.6404 12.7562 33.2296C12.6098 32.5501 12.5245 31.8106 12.5302 31.0341C12.5454 28.9494 13.2012 26.9934 14.6933 25.3423L14.9184 25.5757C13.1995 23.8567 12.4514 21.7756 12.4352 19.5473C12.4295 18.7709 12.5148 18.0313 12.6612 17.3519C12.7496 16.9411 12.8401 16.6383 12.9041 16.4648C13.4985 14.8832 13.5101 13.8667 13.0357 13.3924C12.8792 13.2359 12.8792 12.9821 13.0357 12.8256C13.0426 12.8187 13.0496 12.8122 13.0568 12.8059L13.075 12.7863C13.2316 12.6298 13.4853 12.6298 13.6418 12.7863C14.1162 13.2606 15.1326 13.2491 16.7142 12.6547C16.8878 12.5906 17.1905 12.5002 17.6013 12.4117C18.2808 12.2653 19.0203 12.18 19.7968 12.1857C21.8847 12.201 23.8434 12.8587 25.4961 14.3557C27.1608 12.8227 29.141 12.1497 31.2533 12.1342C32.0297 12.1286 32.7693 12.2139 33.4487 12.3602C33.8596 12.4487 34.1623 12.5391 34.3359 12.6032C35.9174 13.1976 36.9339 13.2092 37.4082 12.7348C37.5648 12.5783 37.8185 12.5783 37.975 12.7348C37.9819 12.7417 37.9884 12.7487 37.9947 12.7559ZM36.9198 13.8279C36.245 13.9498 35.3844 13.8199 34.3443 13.4586L34.0561 13.3544L33.9837 13.3296C33.951 13.319 33.9098 13.3061 33.8606 13.2914C33.6923 13.2411 33.4977 13.1907 33.2799 13.1438C32.6551 13.0092 31.9732 12.9306 31.2592 12.9358C29.2873 12.9502 27.4585 13.5875 25.9272 15.0519C25.9122 15.1204 25.8774 15.1835 25.8251 15.2358C25.6686 15.3923 25.4149 15.3923 25.2583 15.2358C23.6999 13.6773 21.8213 13.0021 19.7909 12.9873C19.0769 12.9821 18.395 13.0607 17.7701 13.1953C17.5524 13.2422 17.3578 13.2926 17.1895 13.3428C17.1403 13.3576 17.0991 13.3705 17.0664 13.3811L16.9939 13.4058C15.8236 13.8457 14.8664 14.0123 14.1288 13.8808C14.2507 14.5556 14.1208 15.4162 13.7595 16.4564L13.6553 16.7445L13.6306 16.8169C13.6199 16.8496 13.607 16.8908 13.5923 16.9401C13.542 17.1083 13.4917 17.3029 13.4448 17.5207C13.3101 18.1456 13.2315 18.8274 13.2367 19.5415C13.2512 21.5234 13.895 23.3608 15.3753 24.8969C15.4514 24.9115 15.5224 24.9479 15.5803 25.0058C15.7368 25.1623 15.7368 25.416 15.5803 25.5726C14.0218 27.131 13.3466 29.0096 13.3317 31.04C13.3265 31.754 13.4052 32.4359 13.5398 33.0608C13.5867 33.2785 13.6371 33.4731 13.6873 33.6414C13.7167 33.7399 13.7389 33.8061 13.7503 33.837C14.1697 34.9529 14.3407 35.875 14.2417 36.5978C14.9625 36.4968 15.8847 36.6678 17.0006 37.0872C17.0314 37.0986 17.0977 37.1208 17.1962 37.1502C17.3644 37.2005 17.559 37.2508 17.7768 37.2978C18.4017 37.4324 19.0835 37.511 19.7976 37.5058C21.8279 37.491 23.7065 36.8157 25.265 35.2573L25.2973 35.23C25.3004 35.2268 25.3035 35.2236 25.3067 35.2204C25.4632 35.0639 25.717 35.0639 25.8735 35.2204C27.432 36.7788 29.3106 37.4541 31.3409 37.4689C32.055 37.4741 32.7368 37.3955 33.3617 37.2609C33.5795 37.2139 33.774 37.1636 33.9423 37.1133C34.0408 37.0839 34.107 37.0617 34.1379 37.0503C35.2538 36.6309 36.1759 36.4599 36.8987 36.5589C36.7977 35.8381 36.9688 34.916 37.3881 33.8001C37.3995 33.7692 37.4217 33.703 37.4511 33.6045C37.5014 33.4362 37.5518 33.2416 37.5987 33.0239C37.7333 32.399 37.8119 31.7171 37.8067 31.0031C37.7919 28.9727 37.1167 27.0941 35.5582 25.5357C35.42 25.3975 35.4038 25.1835 35.5096 25.0276C35.5245 25.0026 35.5432 24.9791 35.5648 24.9574C37.1233 23.3989 37.7985 21.5203 37.8134 19.49C37.8186 18.7759 37.7399 18.0941 37.6053 17.4692C37.5584 17.2514 37.5081 17.0569 37.4578 16.8886C37.4431 16.8393 37.4302 16.7982 37.4195 16.7654L37.3948 16.693C36.955 15.5227 36.7883 14.5655 36.9198 13.8279Z" fill="white" fill-opacity="0.55"/>
</g>
<path d="M33.3286 17.5923C33.4851 17.7488 33.4851 18.0026 33.3286 18.1591C33.1868 18.3009 33.0473 18.406 32.8773 18.4855C32.7551 18.7597 32.7103 19.2212 32.6701 20.1738C32.6266 21.208 32.5485 21.7484 32.2914 22.2639C31.9011 23.046 31.0129 23.9773 29.6212 25.0801C31.2421 26.3546 32.2732 27.4153 32.7206 28.2882C33.0015 28.8363 33.0949 29.4117 33.1613 30.511C33.2454 31.9039 33.3204 32.3209 33.6035 32.604C33.7404 32.741 33.7575 32.9524 33.6548 33.1079L33.6035 33.1708L33.5406 33.2221C33.3851 33.3249 33.1736 33.3077 33.0367 33.1708C32.7536 32.8877 32.3366 32.8127 30.9437 32.7286C29.8444 32.6622 29.269 32.5688 28.7209 32.2879C27.8459 31.8395 26.7824 30.8046 25.5053 29.1766C24.3678 30.6242 23.4119 31.5442 22.612 31.9432C22.0966 32.2004 21.5561 32.2785 20.5219 32.322C19.2311 32.3764 18.8421 32.4394 18.5931 32.6885C18.4365 32.845 18.1828 32.845 18.0263 32.6885C18.0116 32.6738 17.9983 32.6583 17.9864 32.6421L17.9404 32.6026C17.7839 32.4461 17.7839 32.1923 17.9404 32.0358C18.1894 31.7868 18.2525 31.3978 18.3069 30.107C18.3504 29.0728 18.4285 28.5323 18.6857 28.0169C19.0815 27.2235 19.9897 26.2766 21.4162 25.153C19.967 23.9838 19.0351 23.0009 18.6158 22.1828C18.3349 21.6348 18.2415 21.0594 18.1751 19.96C18.091 18.5672 18.016 18.1501 17.733 17.867C17.596 17.7301 17.5789 17.5187 17.6816 17.3631L17.7329 17.3003C17.8895 17.1438 18.1432 17.1438 18.2997 17.3003C18.5828 17.5833 18.9999 17.6584 20.3927 17.7424C21.4921 17.8088 22.0675 17.9022 22.6155 18.1831C23.4755 18.6239 24.5177 19.6312 25.7658 21.2115C26.9395 19.7025 27.9231 18.7465 28.7429 18.3375C29.2583 18.0804 29.7987 18.0023 30.833 17.9587C31.6079 17.9261 32.0578 17.8903 32.3475 17.8131C32.3842 17.7672 32.4252 17.7228 32.4698 17.6781C32.5587 17.5893 32.6789 17.5509 32.7949 17.5629C32.9516 17.4365 33.1825 17.4462 33.3286 17.5923ZM31.9828 18.688C31.6902 18.7203 31.3273 18.7402 30.8667 18.7596C29.9465 18.7984 29.4795 18.8658 29.1007 19.0548C28.3681 19.4203 27.3847 20.4006 26.1813 21.988C26.1627 22.0774 26.1128 22.159 26.0355 22.218C25.8596 22.3523 25.608 22.3186 25.4737 22.1426C24.1386 20.3933 23.0538 19.3085 22.2499 18.8965C21.835 18.6838 21.3324 18.6022 20.3444 18.5426C19.6701 18.5019 19.1929 18.4637 18.8309 18.3993C18.8964 18.7602 18.9345 19.2374 18.9753 19.9117C19.0349 20.8997 19.1165 21.4023 19.3292 21.8172C19.706 22.5525 20.6457 23.5228 22.1418 24.7046C22.262 24.7057 22.3786 24.7605 22.4557 24.8626C22.4879 24.9051 22.5103 24.9521 22.5232 25.0006L22.5753 25.0411C22.7513 25.1754 22.785 25.4269 22.6507 25.6028C22.5164 25.7788 22.2649 25.8125 22.089 25.6783L22.0674 25.6614C20.6376 26.7714 19.7473 27.6844 19.4029 28.3747C19.214 28.7535 19.1465 29.2205 19.1077 30.1407C19.0789 30.826 19.049 31.2949 18.9851 31.6446C19.334 31.5799 19.8029 31.55 20.4882 31.5212C21.4084 31.4824 21.8754 31.4149 22.2542 31.226C22.9931 30.8573 23.9873 29.8631 25.2049 28.2514C25.3384 28.0747 25.5897 28.0397 25.7663 28.1732C25.8405 28.2292 25.8897 28.306 25.9119 28.3894L25.8627 28.3284C27.1978 30.0777 28.2826 31.1626 29.0865 31.5746C29.5015 31.7872 30.004 31.8688 30.992 31.9285C31.6664 31.9692 32.1435 32.0074 32.5044 32.0729C32.44 31.7108 32.4019 31.2337 32.3612 30.5593C32.3015 29.5713 32.2199 29.0688 32.0073 28.6539C31.5953 27.85 30.5104 26.7651 28.7611 25.43L28.9367 25.5659C28.7859 25.6029 28.6208 25.5499 28.5213 25.4182C28.3879 25.2416 28.4229 24.9902 28.5995 24.8568C30.2113 23.6391 31.2054 22.645 31.5741 21.906C31.763 21.5273 31.8305 21.0602 31.8693 20.1401C31.8967 19.488 31.9252 19.0319 31.9828 18.688Z" fill="#E27454"/>
<path d="M25.4234 14.2969C25.6427 14.2969 25.8205 14.478 25.8205 14.7013C25.8205 14.9041 25.7963 15.079 25.7327 15.2573C25.8406 15.5406 26.1326 15.9018 26.7706 16.6089C27.4646 17.378 27.7885 17.8194 27.9695 18.3708C28.2452 19.2109 28.2744 20.5168 28.0692 22.3085C30.1002 22.0727 31.57 22.0963 32.5016 22.391C33.0931 22.5782 33.5704 22.9158 34.4022 23.6395C35.4562 24.5563 35.8073 24.7959 36.2113 24.7959C36.4347 24.7959 36.6158 24.9737 36.6158 25.193V25.2423C36.6158 25.4616 36.4347 25.6394 36.2113 25.6394C35.8073 25.6394 35.4562 25.879 34.4022 26.7959C33.5704 27.5195 33.0931 27.8571 32.5016 28.0443C31.5676 28.3398 30.0928 28.3627 28.0553 28.1254C28.2756 29.9804 28.2514 31.3263 27.9695 32.1853C27.7885 32.7366 27.4646 33.178 26.7706 33.9471C25.9044 34.907 25.6761 35.2296 25.6761 35.585C25.6761 35.8084 25.4983 35.9895 25.279 35.9895C25.2585 35.9895 25.2384 35.9879 25.2188 35.9849L25.1587 35.9895C24.9394 35.9895 24.7617 35.8084 24.7617 35.585C24.7617 35.2296 24.5333 34.907 23.6671 33.9471C22.9731 33.178 22.6492 32.7366 22.4683 32.1853C22.1885 31.3329 22.1625 30.0011 22.3777 28.1688C20.5408 28.3586 19.1946 28.3206 18.3213 28.0443C17.7297 27.8571 17.2525 27.5195 16.4206 26.7959C15.3667 25.879 15.0155 25.6394 14.6115 25.6394C14.3881 25.6394 14.207 25.4616 14.207 25.2423L14.2078 25.2178C14.2073 25.2096 14.207 25.2013 14.207 25.193C14.207 24.9737 14.3881 24.7959 14.6115 24.7959C15.0155 24.7959 15.3667 24.5563 16.4206 23.6395C17.2525 22.9158 17.7297 22.5782 18.3213 22.391C19.2392 22.1006 20.6796 22.0735 22.6632 22.298C22.4258 20.3727 22.4441 18.9813 22.733 18.1011C22.9139 17.5498 23.2378 17.1084 23.9319 16.3393C24.4517 15.7632 24.7418 15.4166 24.8907 15.1548C24.8843 15.0958 24.8819 15.0348 24.8819 14.971C24.8819 14.8439 24.9395 14.7305 25.0295 14.6563C25.0504 14.4544 25.2189 14.2969 25.4234 14.2969ZM25.2479 16.0386C25.0664 16.2705 24.8259 16.5438 24.5165 16.8867C23.899 17.571 23.6191 17.9525 23.4862 18.3576C23.242 19.1015 23.2277 20.4021 23.457 22.2359L23.4911 22.4979L23.4868 22.4541C23.5977 22.5378 23.6611 22.6759 23.6412 22.8218C23.6114 23.0391 23.4079 23.1917 23.1865 23.1625C20.9854 22.8724 19.4371 22.8724 18.5694 23.1469C18.1216 23.2886 17.7047 23.5835 16.9571 24.2338C16.4264 24.6955 16.0499 25.0097 15.7385 25.2184C16.0499 25.4257 16.4264 25.7398 16.9571 26.2015C17.7047 26.8518 18.1216 27.1468 18.5694 27.2884C19.3547 27.5369 20.6975 27.5605 22.5771 27.3477C22.661 27.2677 22.7777 27.2267 22.8997 27.244C22.9496 27.2511 22.9961 27.2673 23.0377 27.2909L23.1865 27.2728C23.4079 27.2437 23.6114 27.3962 23.6412 27.6135C23.6709 27.8309 23.5155 28.0307 23.2941 28.0599L23.1882 28.0737C22.9631 29.895 22.9783 31.188 23.2215 31.9288C23.3544 32.3339 23.6343 32.7153 24.2518 33.3997C24.7117 33.9093 25.0192 34.2653 25.2195 34.5604C25.4185 34.2653 25.726 33.9093 26.1859 33.3997C26.8034 32.7153 27.0833 32.3339 27.2163 31.9288C27.4698 31.1563 27.4755 29.7835 27.218 27.8368C27.1844 27.7688 27.1709 27.6923 27.1817 27.6135C27.1907 27.5472 27.216 27.4868 27.2531 27.4359C27.3121 27.3353 27.4145 27.2615 27.5381 27.244C27.6268 27.2314 27.7126 27.2497 27.7853 27.2908L27.6364 27.2728C29.8374 27.563 31.3857 27.563 32.2534 27.2884C32.7013 27.1468 33.1181 26.8518 33.8657 26.2015C34.3964 25.7398 34.773 25.4257 35.0843 25.217C34.773 25.0097 34.3964 24.6955 33.8657 24.2338C33.1181 23.5835 32.7013 23.2886 32.2534 23.1469C31.4248 22.8847 29.9756 22.8729 27.93 23.125C27.8496 23.2567 27.6984 23.3348 27.5381 23.3121C27.3323 23.2829 27.1854 23.0979 27.1963 22.8903C27.1902 22.8683 27.1849 22.8454 27.1817 22.8218C27.169 22.7288 27.1901 22.6391 27.2358 22.5645L27.1996 22.8556C27.4757 20.8365 27.4757 19.4176 27.2163 18.6272C27.0833 18.2221 26.8034 17.8407 26.1859 17.1564C25.7482 16.6712 25.4484 16.3253 25.2479 16.0386Z" fill="#00C0C5"/>
</svg>
