<svg width="190" height="42" viewBox="0 0 190 42" fill="none" xmlns="http://www.w3.org/2000/svg">
<path d="M12.648 32.0338L7.98818 24.0456H4.54882V32.0338H0V9.03076H9.20859C11.3166 9.03076 13.1287 9.77041 14.645 11.2497C16.1243 12.729 16.8639 14.5411 16.8639 16.6491C16.8639 18.0544 16.4571 19.3858 15.6435 20.6062C14.8299 21.8266 13.7574 22.7512 12.4261 23.3429L17.5296 31.9968H12.648V32.0338ZM4.54882 13.2837V20.0885H9.20859C10.0592 20.0885 10.7988 19.7556 11.4275 19.09C12.0562 18.4243 12.3521 17.6107 12.3521 16.6861C12.3521 15.7615 12.0562 14.9479 11.4275 14.2823C10.7988 13.6166 10.0962 13.2837 9.20859 13.2837H4.54882Z" fill="#4D5D71"/>
<path d="M22.7443 25.5589C23.299 27.6299 24.8523 28.6284 27.3671 28.6284C28.9943 28.6284 30.2147 28.0737 31.0283 27.0012L34.4307 28.9613C32.8035 31.2912 30.4366 32.4746 27.2561 32.4746C24.5564 32.4746 22.3744 31.661 20.7102 29.9968C19.083 28.3696 18.2324 26.2985 18.2324 23.7837C18.2324 21.3059 19.046 19.2349 20.6733 17.6077C22.3005 15.9435 24.3715 15.1299 26.9233 15.1299C29.3271 15.1299 31.3242 15.9805 32.8774 17.6447C34.4307 19.3089 35.2443 21.3799 35.2443 23.8207C35.2443 24.3755 35.2073 24.9302 35.0964 25.5589H22.7443ZM22.7073 22.2675H31.0653C30.8064 21.158 30.3256 20.3074 29.586 19.7527C28.8464 19.1979 27.9588 18.9391 26.9972 18.9391C25.8508 18.9391 24.9262 19.2349 24.1866 19.8266C23.4099 20.3814 22.9292 21.232 22.7073 22.2675Z" fill="#4D5D71"/>
<path d="M47.4079 15.1299C49.2201 15.1299 50.6994 15.7216 51.8458 16.942C53.0293 18.1624 53.621 19.8266 53.621 21.9346V32.0308H49.368V22.4524C49.368 21.3429 49.0722 20.5293 48.4804 19.9376C47.8887 19.3459 47.1121 19.05 46.1136 19.05C45.0041 19.05 44.1535 19.3828 43.4878 20.0855C42.8221 20.7512 42.4893 21.7867 42.4893 23.155V32.0308H38.2363V15.6107H42.4893V17.4598C43.5248 15.9065 45.152 15.1299 47.4079 15.1299Z" fill="#4D5D71"/>
<path d="M60.799 25.5589C61.3537 27.6299 62.9069 28.6284 65.4217 28.6284C67.049 28.6284 68.2694 28.0737 69.083 27.0012L72.4854 28.9613C70.8581 31.2912 68.4913 32.4746 65.3108 32.4746C62.6111 32.4746 60.4291 31.661 58.7649 29.9968C57.1377 28.3696 56.2871 26.2985 56.2871 23.7837C56.2871 21.3059 57.1007 19.2349 58.7279 17.6077C60.3552 15.9435 62.4262 15.1299 64.978 15.1299C67.3818 15.1299 69.3789 15.9805 70.9321 17.6447C72.4854 19.3089 73.299 21.3799 73.299 23.8207C73.299 24.3755 73.262 24.9302 73.151 25.5589H60.799ZM60.725 22.2675H69.083C68.8241 21.158 68.3433 20.3074 67.6037 19.7527C66.8641 19.1979 65.9765 18.9391 65.0149 18.9391C63.8685 18.9391 62.9439 19.2349 62.2043 19.8266C61.4646 20.3814 60.9839 21.232 60.725 22.2675Z" fill="#4D5D71"/>
<path d="M94.1225 15.6084H98.1906L93.3829 32.0285H89.2779L86.1713 22.0803L83.0648 32.0285H78.9228L74.0781 15.6084H78.553L81.3636 25.7046L84.3592 15.6084H88.3533L91.3489 25.7416L94.1225 15.6084Z" fill="#4D5D71"/>
<g opacity="0.65">
<path d="M119.462 32.2195V17.7594L113.286 27.9665L112.546 28.0035L106.37 17.8334V32.2195H101.488V8.84668H106.444L112.916 19.5346L119.388 8.84668H124.343V32.2195H119.462Z" fill="#4D5D71"/>
<path d="M124.163 9.03096V32.034H119.652V17.0931L113.18 27.744H112.662L106.19 17.1301V31.997H101.641V9.03096H106.301L112.884 19.9038L119.43 9.03096H124.163ZM124.533 8.66113H124.163H119.467H119.245L119.134 8.84604L112.884 19.1641L106.597 8.84604L106.486 8.66113H106.264H101.604H101.234V9.03096V32.034V32.4038H101.604H106.153H106.523V32.034V18.4984L112.329 28.0029L112.44 28.1878H112.662H113.18H113.365L113.476 28.0029L119.282 18.4614V32.0709V32.4408H119.652H124.163H124.533V32.0709V9.03096V8.66113Z" fill="#4D5D71"/>
</g>
<g opacity="0.65">
<path d="M136.373 32.6667C133.636 32.6667 131.38 31.8161 129.716 30.1519C128.052 28.4877 127.201 26.3427 127.201 23.8279C127.201 21.3131 128.052 19.2051 129.679 17.5039C131.343 15.8397 133.488 14.9521 136.04 14.9521C138.481 14.9521 140.552 15.8027 142.142 17.5039C143.732 19.2051 144.546 21.3131 144.546 23.7909C144.546 24.3457 144.472 24.9374 144.361 25.5661L144.324 25.714H132.046C132.638 27.5261 134.08 28.4137 136.447 28.4137C138 28.4137 139.183 27.896 139.96 26.8605L140.071 26.7125L143.806 28.8575L143.695 29.0054C142.068 31.4463 139.59 32.6667 136.373 32.6667ZM139.886 22.0897C139.627 21.1282 139.183 20.4255 138.518 19.9448C137.815 19.427 136.965 19.1681 136.04 19.1681C134.967 19.1681 134.043 19.464 133.34 19.9817C132.675 20.4995 132.231 21.2022 131.972 22.0897H139.886Z" fill="#4D5D71"/>
<path d="M136.041 15.1364C138.445 15.1364 140.442 15.987 141.995 17.6512C143.549 19.3154 144.362 21.3864 144.362 23.8273C144.362 24.382 144.325 24.9367 144.214 25.5654H131.825C132.38 27.6364 133.933 28.635 136.448 28.635C138.075 28.635 139.296 28.0802 140.109 27.0077L143.512 28.9678C141.884 31.2977 139.517 32.4811 136.337 32.4811C133.637 32.4811 131.455 31.6675 129.791 30.0033C128.164 28.3761 127.313 26.3051 127.313 23.7903C127.313 21.3125 128.127 19.2415 129.754 17.6142C131.455 15.987 133.526 15.1364 136.041 15.1364ZM131.751 22.274H140.109C139.85 21.1645 139.37 20.3139 138.63 19.7592C137.89 19.2045 137.003 18.9456 136.041 18.9456C134.895 18.9456 133.97 19.2415 133.23 19.8332C132.491 20.3879 132.01 21.2385 131.751 22.274ZM136.041 14.7666C133.415 14.7666 131.233 15.6542 129.532 17.3554C127.831 19.0566 126.98 21.2385 126.98 23.7903C126.98 26.379 127.831 28.561 129.569 30.2622C131.27 31.9634 133.563 32.851 136.374 32.851C139.628 32.851 142.143 31.6305 143.844 29.1897L144.066 28.8569L143.733 28.672L140.331 26.7119L140.035 26.564L139.85 26.8228C139.074 27.8214 137.964 28.3021 136.448 28.3021C134.303 28.3021 132.935 27.5255 132.343 25.9722H144.214H144.51L144.547 25.6764C144.658 25.0477 144.732 24.419 144.732 23.8643C144.732 21.3125 143.918 19.1675 142.291 17.4293C140.664 15.6542 138.556 14.7666 136.041 14.7666ZM132.232 21.9042C132.491 21.1645 132.898 20.5728 133.452 20.129C134.118 19.6113 135.006 19.3524 136.041 19.3524C136.929 19.3524 137.705 19.6113 138.408 20.0921C139 20.4989 139.407 21.1276 139.628 21.9042H132.232Z" fill="#4D5D71"/>
</g>
<path opacity="0.774926" fill-rule="evenodd" clip-rule="evenodd" d="M165.304 10.0561C164.145 11.2449 163.453 12.7294 163.453 14.5411C163.453 14.7013 163.34 14.8347 163.19 14.8644C163.136 14.9041 163.07 14.9275 162.998 14.9275C161.205 14.9275 159.736 15.6269 158.56 16.7985C158.147 17.2105 157.8 17.6525 157.518 18.094C157.419 18.2479 157.336 18.3902 157.269 18.5173C157.229 18.5916 157.203 18.643 157.192 18.6676C156.793 19.5581 156.362 20.1927 155.89 20.5557C156.362 20.9186 156.793 21.5532 157.192 22.4438C157.203 22.4683 157.229 22.5197 157.269 22.5941C157.336 22.7211 157.419 22.8635 157.518 23.0173C157.8 23.4588 158.147 23.9008 158.56 24.3128C159.736 25.4844 161.205 26.1839 162.998 26.1839C163.014 26.1839 163.031 26.1851 163.046 26.1875C163.223 26.1915 163.365 26.3374 163.365 26.5169C163.365 28.3286 164.057 29.813 165.216 31.0018C165.624 31.4199 166.061 31.7705 166.498 32.0555C166.65 32.1548 166.791 32.2386 166.917 32.3072C166.991 32.3474 167.041 32.373 167.066 32.3843C167.948 32.789 168.577 33.2253 168.936 33.7027C169.295 33.2254 169.923 32.789 170.806 32.3844C170.83 32.3731 170.881 32.3475 170.954 32.3073C171.08 32.2387 171.221 32.1549 171.373 32.0556C171.81 31.7706 172.247 31.42 172.655 31.0019C173.814 29.8132 174.506 28.3287 174.506 26.517C174.506 26.3432 174.639 26.2008 174.808 26.1884C174.821 26.1868 174.834 26.186 174.848 26.186C176.64 26.186 178.109 25.4865 179.286 24.315C179.699 23.9029 180.046 23.4609 180.328 23.0194C180.426 22.8656 180.509 22.7232 180.577 22.5962C180.617 22.5218 180.642 22.4705 180.653 22.4459C181.073 21.5105 181.528 20.8574 182.027 20.505C181.528 20.1525 181.073 19.4995 180.653 18.564C180.642 18.5395 180.617 18.4881 180.577 18.4137C180.509 18.2867 180.426 18.1443 180.328 17.9905C180.046 17.549 179.699 17.107 179.286 16.695C178.182 15.5959 176.821 14.9123 175.177 14.8319C175.131 14.8566 175.079 14.8706 175.024 14.8706C174.962 14.8706 174.905 14.8536 174.856 14.824L174.848 14.824C174.668 14.824 174.522 14.6765 174.522 14.4945C174.522 14.3705 174.59 14.2626 174.69 14.2063C174.61 12.5456 173.933 11.1709 172.846 10.0561C172.439 9.63805 172.001 9.28744 171.564 9.00246C171.412 8.90314 171.271 8.81933 171.146 8.75072C171.072 8.71057 171.021 8.68499 170.997 8.67367C170.07 8.2488 169.424 7.78897 169.075 7.2834C168.727 7.78897 168.08 8.2488 167.153 8.67367C167.129 8.68499 167.078 8.71057 167.005 8.75072C166.879 8.81933 166.738 8.90314 166.586 9.00246C166.149 9.28744 165.712 9.63805 165.304 10.0561ZM162.72 26.8376C162.797 28.6919 163.548 30.2302 164.752 31.4643C165.195 31.9189 165.67 32.2992 166.145 32.6091C166.432 32.7964 166.658 32.9199 166.795 32.9835C167.867 33.4754 168.455 33.9749 168.601 34.4549C168.588 34.5332 168.582 34.6125 168.582 34.693C168.582 34.8749 168.728 35.0224 168.908 35.0224C168.914 35.0224 168.919 35.0223 168.924 35.022L168.936 35.0212C168.945 35.0219 168.954 35.0223 168.963 35.0223C169.143 35.0223 169.289 34.8748 169.289 34.6928C169.289 34.6125 169.283 34.5332 169.27 34.4549C169.416 33.9749 170.004 33.4755 171.077 32.9836C171.213 32.92 171.439 32.7966 171.727 32.6092C172.202 32.2993 172.676 31.919 173.119 31.4644C174.323 30.2305 175.074 28.6926 175.152 26.8387C176.992 26.7634 178.519 26.0036 179.743 24.7843C180.193 24.3363 180.569 23.8568 180.876 23.3768C181.061 23.0866 181.183 22.858 181.246 22.7199C181.814 21.4551 182.392 20.8576 182.938 20.8576C183.118 20.8576 183.264 20.7101 183.264 20.5281C183.264 20.5203 183.263 20.5126 183.263 20.505L183.263 20.4928L183.264 20.4818C183.264 20.2999 183.118 20.1524 182.938 20.1524C182.392 20.1524 181.814 19.5548 181.246 18.29C181.183 18.1519 181.061 17.9234 180.876 17.6331C180.569 17.1531 180.193 16.6737 179.743 16.2257C178.561 15.0485 177.097 14.2996 175.341 14.1815C175.255 12.3446 174.506 10.8191 173.311 9.59363C172.867 9.13902 172.393 8.75872 171.918 8.44887C171.631 8.26151 171.405 8.13809 171.268 8.07444C170.017 7.50063 169.425 6.91655 169.425 6.3651C169.425 6.18315 169.279 6.03564 169.099 6.03564C169.091 6.03564 169.083 6.03594 169.075 6.03653C169.067 6.03594 169.059 6.03564 169.051 6.03564C168.871 6.03564 168.725 6.18315 168.725 6.3651C168.725 6.91655 168.134 7.50063 166.882 8.07444C166.746 8.13809 166.52 8.26151 166.232 8.44887C165.757 8.75872 165.283 9.13902 164.84 9.59363C163.625 10.839 162.871 12.3941 162.806 14.271C160.915 14.3197 159.351 15.0854 158.103 16.3292C157.653 16.7772 157.276 17.2566 156.97 17.7366C156.784 18.0269 156.662 18.2554 156.599 18.3935C156.115 19.4723 155.623 20.0656 155.151 20.2169C155.071 20.2033 154.99 20.1965 154.908 20.1965C154.728 20.1965 154.582 20.344 154.582 20.526C154.582 20.536 154.582 20.5459 154.583 20.5557C154.582 20.5654 154.582 20.5753 154.582 20.5853C154.582 20.7673 154.728 20.9148 154.908 20.9148C154.99 20.9148 155.071 20.908 155.151 20.8945C155.623 21.0457 156.115 21.6391 156.599 22.7178C156.662 22.8559 156.784 23.0844 156.97 23.3747C157.276 23.8547 157.653 24.3341 158.103 24.7822C159.332 26.0071 160.867 26.7683 162.72 26.8376Z" fill="#93969F"/>
<path opacity="0.452172" fill-rule="evenodd" clip-rule="evenodd" d="M177.372 20.2863C178.605 19.0149 179.141 17.4886 179.153 15.8407C179.157 15.2537 179.093 14.6932 178.984 14.1795C178.946 14.0005 178.905 13.8406 178.864 13.7022C178.84 13.6213 178.822 13.5668 178.812 13.5415C178.455 12.5804 178.319 11.7941 178.426 11.188C177.826 11.2956 177.048 11.1585 176.097 10.7973C176.072 10.7879 176.018 10.7697 175.938 10.7455C175.801 10.7042 175.643 10.6628 175.466 10.6242C174.957 10.5136 174.403 10.4489 173.822 10.4532C172.171 10.4654 170.643 11.0204 169.375 12.3015C169.327 12.3498 169.268 12.38 169.207 12.392C169.079 12.5076 168.882 12.5033 168.759 12.3791C167.491 11.098 165.963 10.543 164.312 10.5308C163.731 10.5265 163.177 10.5911 162.668 10.7018C162.491 10.7403 162.333 10.7818 162.196 10.8231C162.116 10.8472 162.062 10.8655 162.037 10.8749C161.087 11.2358 160.309 11.3729 159.71 11.2659C159.817 11.8722 159.681 12.659 159.324 13.621C159.314 13.6464 159.296 13.7008 159.272 13.7818C159.231 13.9201 159.19 14.08 159.152 14.2591C159.043 14.7727 158.979 15.3332 158.983 15.9202C158.995 17.5503 159.519 19.0615 160.725 20.3247C160.786 20.3368 160.845 20.3669 160.892 20.415C161.019 20.5437 161.019 20.7523 160.892 20.8809C159.625 22.162 159.075 23.7063 159.063 25.3753C159.059 25.9623 159.123 26.5227 159.232 27.0364C159.271 27.2154 159.312 27.3754 159.352 27.5137C159.376 27.5947 159.394 27.6491 159.404 27.6745C159.745 28.591 159.884 29.3485 159.804 29.9424C160.391 29.8611 161.141 30.0017 162.049 30.3464C162.074 30.3558 162.128 30.374 162.208 30.3982C162.345 30.4395 162.503 30.4809 162.68 30.5195C163.188 30.6301 163.743 30.6948 164.324 30.6905C165.975 30.6783 167.503 30.1232 168.771 28.8421C168.774 28.8385 168.778 28.835 168.782 28.8316C168.788 28.8236 168.795 28.8159 168.803 28.8084C168.93 28.6798 169.136 28.6798 169.264 28.8084C170.531 30.0895 172.059 30.6446 173.711 30.6568C174.291 30.6611 174.846 30.5964 175.354 30.4858C175.531 30.4472 175.69 30.4058 175.827 30.3645C175.907 30.3403 175.961 30.3221 175.986 30.3127C176.89 29.9692 177.638 29.8284 178.225 29.9079C178.145 29.3143 178.285 28.5576 178.625 27.6422C178.634 27.6169 178.652 27.5624 178.676 27.4815C178.717 27.3431 178.758 27.1832 178.796 27.0042C178.906 26.4905 178.97 25.93 178.965 25.343C178.953 23.6741 178.404 22.1298 177.137 20.8487C177.009 20.72 177.009 20.5114 177.137 20.3828C177.201 20.3172 177.287 20.2851 177.372 20.2863ZM177.889 20.6941C179.213 19.302 179.792 17.6312 179.805 15.8455C179.809 15.2072 179.74 14.5993 179.621 14.0408C179.549 13.7031 179.476 13.4542 179.423 13.3115C178.94 12.0114 178.931 11.1759 179.316 10.786C179.444 10.6573 179.444 10.4487 179.316 10.32C179.311 10.3145 179.305 10.3091 179.299 10.304C179.295 10.2986 179.29 10.2932 179.285 10.288C179.157 10.1593 178.951 10.1593 178.824 10.288C178.438 10.6779 177.611 10.6684 176.325 10.1798C176.183 10.1271 175.937 10.0528 175.603 9.98007C175.05 9.85975 174.449 9.78964 173.817 9.7943C172.053 9.80731 170.402 10.3902 169.026 11.7243C167.667 10.4452 166.046 9.88463 164.317 9.87187C163.685 9.86722 163.084 9.93733 162.531 10.0576C162.197 10.1304 161.951 10.2047 161.809 10.2574C160.523 10.746 159.696 10.7555 159.311 10.3656C159.183 10.2369 158.977 10.2369 158.85 10.3656C158.839 10.3757 158.83 10.3863 158.822 10.3974L158.82 10.3996C158.692 10.5282 158.692 10.7368 158.82 10.8655C159.205 11.2554 159.196 12.091 158.713 13.3911C158.66 13.5337 158.587 13.7826 158.515 14.1203C158.396 14.6788 158.327 15.2868 158.331 15.925C158.344 17.6759 158.9 19.3163 160.171 20.6918C158.957 22.049 158.424 23.6568 158.411 25.3705C158.407 26.0087 158.476 26.6167 158.595 27.1752C158.667 27.5129 158.741 27.7617 158.793 27.9044C159.207 29.0185 159.273 29.7915 159.041 30.2352C158.977 30.2815 158.917 30.333 158.861 30.3898C158.734 30.5184 158.734 30.727 158.861 30.8557C158.864 30.8579 158.866 30.8601 158.868 30.8622C158.871 30.8652 158.874 30.8681 158.877 30.8709C158.884 30.8795 158.892 30.8879 158.9 30.8959C159.027 31.0246 159.233 31.0246 159.361 30.8959C159.417 30.8389 159.468 30.778 159.514 30.7134C159.953 30.4782 160.718 30.545 161.821 30.9639C161.962 31.0165 162.209 31.0909 162.543 31.1636C163.096 31.2839 163.697 31.354 164.329 31.3494C166.057 31.3366 167.676 30.7769 169.035 29.4997C170.387 30.7531 171.993 31.3031 173.706 31.3157C174.337 31.3203 174.939 31.2502 175.492 31.1299C175.826 31.0572 176.072 30.9828 176.213 30.9302C177.307 30.5148 178.068 30.4457 178.509 30.674C178.556 30.7413 178.609 30.8045 178.668 30.8637C178.795 30.9923 179.002 30.9923 179.129 30.8637C179.133 30.8592 179.137 30.8547 179.142 30.8501C179.153 30.8416 179.163 30.8322 179.173 30.822C179.301 30.6933 179.301 30.4847 179.173 30.3561C179.114 30.2962 179.051 30.2422 178.983 30.1939C178.756 29.7488 178.824 28.9788 179.236 27.8722C179.288 27.7295 179.362 27.4806 179.434 27.1429C179.553 26.5844 179.622 25.9765 179.617 25.3382C179.605 23.6391 179.081 22.044 177.889 20.6941Z" fill="#F9F9F9"/>
<path fill-rule="evenodd" clip-rule="evenodd" d="M163.935 17.8084C164.232 18.4099 165.028 19.2172 166.317 20.2049C166.391 20.2205 166.46 20.262 166.509 20.3274C166.618 20.4721 166.591 20.6788 166.448 20.7892C165.025 21.8867 164.142 22.7785 163.807 23.4393C163.634 23.7804 163.568 24.1935 163.519 25.0056C163.486 25.5594 163.455 25.9515 163.403 26.249C163.697 26.1961 164.086 26.1647 164.634 26.1313C165.437 26.0823 165.846 26.0152 166.184 25.8404C166.781 25.5309 167.57 24.7594 168.53 23.5313C168.53 23.4324 168.575 23.3349 168.659 23.2707C168.694 23.2438 168.733 23.2252 168.773 23.2146L168.806 23.172C168.915 23.0273 169.12 22.9996 169.263 23.1099C169.406 23.2203 169.433 23.4271 169.324 23.5717L169.31 23.5908C170.212 24.7655 170.955 25.4971 171.516 25.7801C171.824 25.9355 172.204 25.9909 172.952 26.0228C173.507 26.0464 173.887 26.0708 174.171 26.1227C174.119 25.8355 174.095 25.4507 174.071 24.8891C174.04 24.1326 173.985 23.7487 173.831 23.4374C173.531 22.83 172.723 22.0127 171.412 21.0118C171.268 20.9021 171.24 20.6955 171.348 20.5503C171.395 20.4876 171.46 20.4467 171.53 20.4291C172.922 19.3502 173.787 18.4723 174.118 17.8196C174.291 17.4786 174.357 17.0654 174.405 16.2533C174.438 15.7012 174.469 15.3099 174.521 15.0127C174.227 15.0651 173.841 15.0963 173.295 15.1296C172.491 15.1786 172.083 15.2457 171.745 15.4205C171.113 15.748 170.267 16.5923 169.231 17.9473C169.259 18.07 169.215 18.2034 169.109 18.2842C168.966 18.3939 168.761 18.3651 168.653 18.2199C167.662 16.895 166.854 16.0778 166.253 15.7747C165.945 15.6194 165.565 15.5639 164.816 15.5321C164.288 15.5096 163.918 15.4863 163.639 15.4393C163.663 15.6812 163.68 15.9789 163.695 16.3567C163.727 17.1131 163.782 17.497 163.935 17.8084ZM174.911 14.1521C174.68 14.3492 174.314 14.4073 173.256 14.4719C172.362 14.5264 171.894 14.6032 171.448 14.8341C170.737 15.2021 169.874 16.0504 168.838 17.3846C167.939 16.2379 167.181 15.5063 166.544 15.1851C166.125 14.9737 165.685 14.9095 164.844 14.8737C164.074 14.841 163.699 14.8044 163.474 14.7067C163.409 14.5657 163.323 14.4503 163.207 14.3329C163.079 14.2043 162.873 14.2043 162.746 14.3329C162.628 14.4523 162.619 14.6406 162.72 14.7699C162.71 14.8656 162.741 14.965 162.814 15.0384C162.851 15.0761 162.888 15.1107 162.926 15.1424C162.988 15.3807 163.017 15.7501 163.044 16.3844C163.079 17.2346 163.143 17.6788 163.352 18.1025C163.685 18.7764 164.462 19.585 165.69 20.5494C164.405 21.5752 163.586 22.4319 163.227 23.1388C162.999 23.5893 162.923 24.0623 162.869 24.9659C162.8 26.1109 162.739 26.4537 162.509 26.6864C162.382 26.8151 162.382 27.0237 162.509 27.1524C162.556 27.2002 162.615 27.2302 162.676 27.2425C162.779 27.2635 162.89 27.2335 162.971 27.1525C163.201 26.9198 163.54 26.8581 164.673 26.789C165.567 26.7345 166.035 26.6577 166.481 26.4268C167.146 26.0822 167.945 25.3164 168.895 24.1249C169.809 25.2977 170.579 26.0443 171.225 26.3697C171.644 26.5811 172.084 26.6453 172.925 26.6811C173.975 26.7258 174.291 26.7776 174.494 26.9824C174.621 27.111 174.827 27.111 174.955 26.9824C174.968 26.9692 174.98 26.9551 174.99 26.9404C175.001 26.932 175.011 26.9228 175.021 26.9128C175.148 26.7842 175.148 26.5756 175.021 26.4469C174.818 26.2422 174.767 25.9224 174.723 24.8613C174.687 24.0112 174.624 23.5669 174.415 23.1432C174.09 22.4855 173.342 21.6996 172.164 20.7656C173.49 19.7149 174.333 18.8399 174.698 18.1202C174.926 17.6697 175.002 17.1967 175.056 16.293C175.12 15.2225 175.178 14.8532 175.373 14.6195C175.388 14.6049 175.404 14.5899 175.419 14.5743C175.546 14.4457 175.546 14.2371 175.419 14.1084C175.396 14.0854 175.371 14.0665 175.344 14.0518C175.22 13.9817 175.06 14 174.955 14.1066C174.94 14.1218 174.925 14.1369 174.911 14.1521Z" fill="#D37760"/>
<path fill-rule="evenodd" clip-rule="evenodd" d="M167.343 15.0547C167.132 15.6928 167.13 16.834 167.351 18.4558C167.389 18.5183 167.407 18.594 167.397 18.6724C167.373 18.8527 167.208 18.9793 167.03 18.9551C165.256 18.7143 164.008 18.7143 163.309 18.9421C162.948 19.0597 162.612 19.3044 162.009 19.844C161.599 20.2118 161.303 20.4668 161.058 20.6398C161.303 20.8128 161.599 21.0678 162.009 21.4356C162.612 21.9752 162.948 22.2199 163.309 22.3374C163.948 22.5457 165.046 22.5635 166.586 22.3811C166.655 22.3124 166.755 22.2759 166.858 22.2905C166.901 22.2966 166.941 22.3109 166.977 22.3316L167.03 22.3245C167.208 22.3003 167.373 22.4268 167.397 22.6072C167.42 22.7875 167.295 22.9533 167.117 22.9775L167.094 22.9806C166.91 24.4568 166.924 25.505 167.123 26.1065C167.232 26.4364 167.461 26.7471 167.968 27.3045C168.347 27.7204 168.599 28.0107 168.764 28.2514C168.928 28.0107 169.181 27.7205 169.559 27.3046C170.066 26.7472 170.296 26.4365 170.405 26.1065C170.618 25.4627 170.618 24.307 170.391 22.6624C170.367 22.4821 170.491 22.3157 170.669 22.2906C170.746 22.2798 170.82 22.297 170.882 22.3344C172.617 22.5652 173.84 22.562 174.529 22.3374C174.89 22.2199 175.226 21.9752 175.829 21.4356C176.239 21.0678 176.535 20.8128 176.78 20.6398C176.535 20.4668 176.239 20.2118 175.829 19.844C175.226 19.3044 174.89 19.0597 174.529 18.9421C173.854 18.7224 172.669 18.7146 170.993 18.9306C170.928 19.0398 170.802 19.1051 170.669 19.0863C170.491 19.0612 170.367 18.8948 170.391 18.7146C170.618 17.0699 170.618 15.9142 170.405 15.2704C170.296 14.9404 170.066 14.6297 169.559 14.0723C169.202 13.6796 168.957 13.3989 168.792 13.1663C168.64 13.3551 168.443 13.5776 168.189 13.8566C167.682 14.414 167.452 14.7247 167.343 15.0547ZM177.706 20.3103C177.386 20.305 177.099 20.1014 176.261 19.3508C175.59 18.7504 175.206 18.4703 174.729 18.315C173.97 18.0679 172.769 18.0505 171.107 18.2523C171.274 16.8014 171.249 15.7432 171.023 15.0615C170.875 14.6124 170.609 14.2529 170.039 13.6264C169.519 13.0541 169.279 12.7599 169.187 12.5298C169.24 12.3844 169.26 12.2419 169.26 12.0765C169.26 11.8946 169.114 11.7471 168.934 11.7471C168.767 11.7471 168.63 11.8729 168.61 12.0355C168.536 12.0959 168.489 12.1885 168.489 12.2922C168.489 12.3461 168.491 12.3976 168.495 12.4475C168.373 12.6606 168.135 12.9427 167.709 13.4107C167.139 14.0372 166.873 14.3967 166.725 14.8458C166.489 15.5597 166.473 16.6864 166.666 18.2445C165.037 18.051 163.858 18.0711 163.109 18.315C162.632 18.4703 162.247 18.7504 161.577 19.3508C160.739 20.1014 160.452 20.305 160.132 20.3103L160.119 20.3102C159.939 20.3102 159.793 20.4577 159.793 20.6397V20.6399C159.793 20.8218 159.939 20.9693 160.119 20.9693L160.132 20.9693C160.452 20.9746 160.739 21.1782 161.577 21.9287C162.247 22.5291 162.632 22.8093 163.109 22.9646C163.821 23.1964 164.922 23.226 166.428 23.0622C166.253 24.5452 166.275 25.6239 166.504 26.3154C166.653 26.7644 166.919 27.124 167.488 27.7504C168.2 28.5323 168.387 28.7951 168.387 29.0846C168.387 29.2666 168.533 29.4141 168.713 29.4141C168.73 29.4141 168.747 29.4127 168.764 29.4101C168.78 29.4128 168.797 29.4142 168.815 29.4142C168.995 29.4142 169.141 29.2666 169.141 29.0847C169.141 28.7952 169.328 28.5324 170.039 27.7505C170.609 27.1241 170.875 26.7645 171.023 26.3155C171.254 25.6183 171.275 24.5276 171.096 23.0258C172.764 23.2292 173.969 23.2122 174.729 22.9646C175.206 22.8093 175.59 22.5291 176.261 21.9287C177.099 21.1782 177.386 20.9746 177.706 20.9693C177.71 20.9693 177.715 20.9693 177.719 20.9693C177.888 20.9693 178.027 20.8397 178.043 20.6735C178.044 20.6625 178.045 20.6512 178.045 20.6399M178.045 20.6398C178.045 20.6398 178.045 20.6397 178.045 20.6397C178.045 20.4577 177.899 20.3102 177.719 20.3102C177.715 20.3102 177.71 20.3103 177.706 20.3103" fill="#00C0C5"/>
</svg>
