<svg width="182" height="35" viewBox="0 0 182 35" fill="none" xmlns="http://www.w3.org/2000/svg">
<g opacity="0.6">
<path d="M164.785 0.444337L164.811 0.443359C165.023 0.443359 165.195 0.61548 165.195 0.827803C165.195 1.47128 165.893 2.15284 167.368 2.82241C167.529 2.89668 167.796 3.0407 168.135 3.25933C168.695 3.62089 169.254 4.06467 169.777 4.59514C171.183 6.02171 172.065 7.79651 172.171 9.933C174.34 10.0219 176.139 10.9085 177.582 12.3308C178.113 12.8536 178.557 13.4131 178.918 13.9732C179.137 14.3119 179.281 14.5785 179.355 14.7397C180.025 16.2156 180.706 16.9128 181.35 16.9128C181.562 16.9128 181.734 17.085 181.734 17.2973C181.734 17.3066 181.734 17.3158 181.733 17.3249L181.734 17.3506C181.734 17.5629 181.562 17.735 181.35 17.735C180.706 17.735 180.025 18.4323 179.355 19.9082C179.281 20.0694 179.137 20.336 178.918 20.6747C178.557 21.2348 178.113 21.7943 177.582 22.3171C176.14 23.7386 174.342 24.6249 172.174 24.7142C172.083 26.8776 171.197 28.6731 169.777 30.1136C169.254 30.644 168.695 31.0878 168.135 31.4494C167.796 31.668 167.529 31.812 167.368 31.8863C166.104 32.4601 165.411 33.0428 165.238 33.6027C165.254 33.6942 165.262 33.7869 165.262 33.8809C165.262 34.0932 165.09 34.2654 164.877 34.2654L164.843 34.2623L164.811 34.2654C164.625 34.2654 164.47 34.1336 164.434 33.9584L164.426 33.8809C164.426 33.7876 164.434 33.6955 164.448 33.6046C164.279 33.0441 163.586 32.4608 162.32 31.8863C162.159 31.812 161.892 31.668 161.553 31.4494C160.993 31.0878 160.434 30.644 159.911 30.1136C158.492 28.6738 157.606 26.8792 157.515 24.7162C155.329 24.6363 153.516 23.7477 152.065 22.3171C151.534 21.7943 151.091 21.2348 150.729 20.6747C150.51 20.336 150.366 20.0694 150.292 19.9082C149.718 18.6434 149.136 17.9504 148.576 17.7781C148.484 17.7941 148.391 17.8016 148.298 17.8016C148.085 17.8016 147.913 17.6295 147.913 17.4172L147.916 17.3831L147.913 17.3506C147.913 17.1648 148.045 17.0098 148.22 16.974L148.298 16.9662C148.391 16.9662 148.483 16.9735 148.574 16.9882C149.134 16.819 149.718 16.1259 150.292 14.8596C150.366 14.6984 150.51 14.4317 150.729 14.0931C151.091 13.533 151.534 12.9735 152.065 12.4507C153.489 11.0471 155.26 10.1653 157.392 10.0574L157.391 10.0792L157.392 10.0529C157.47 7.86282 158.359 6.04831 159.791 4.59514C160.314 4.06467 160.873 3.62089 161.433 3.25933C161.772 3.0407 162.039 2.89668 162.2 2.82241C163.676 2.15284 164.373 1.47128 164.373 0.827803C164.373 0.61548 164.545 0.443359 164.758 0.443359C164.767 0.443359 164.776 0.443689 164.785 0.444337ZM164.783 1.90018C164.374 2.4898 163.612 3.0261 162.52 3.52164C162.491 3.53485 162.431 3.56471 162.344 3.61156C162.196 3.69161 162.03 3.78942 161.85 3.90531C161.335 4.23785 160.82 4.64698 160.339 5.13484C159.004 6.48903 158.195 8.17205 158.157 10.2182C158.199 10.2792 158.222 10.3522 158.222 10.4306C158.222 10.6429 158.05 10.8151 157.838 10.8151C155.724 10.8151 153.992 11.6313 152.604 12.9983C152.117 13.4791 151.707 13.9949 151.375 14.5101C151.259 14.6896 151.161 14.8557 151.081 15.004C151.034 15.0907 151.004 15.1507 150.991 15.1793C150.519 16.2207 150.009 16.9621 149.452 17.3852C150.009 17.8056 150.519 18.5471 150.991 19.5884C151.004 19.6171 151.034 19.6771 151.081 19.7638C151.161 19.912 151.259 20.0782 151.375 20.2577C151.707 20.7729 152.117 21.2886 152.604 21.7694C153.992 23.1365 155.724 23.9527 157.838 23.9527L157.884 23.956C157.886 23.956 157.889 23.956 157.891 23.956C158.103 23.956 158.275 24.1281 158.275 24.3404C158.275 26.4545 159.092 28.1867 160.459 29.5739C160.939 30.0617 161.455 30.4709 161.97 30.8034C162.15 30.9193 162.316 31.0171 162.464 31.0972C162.551 31.144 162.611 31.1739 162.64 31.1871C163.681 31.6595 164.422 32.1689 164.845 32.7263C165.266 32.1689 166.007 31.6595 167.049 31.1871C167.077 31.1739 167.137 31.144 167.224 31.0972C167.372 31.0171 167.538 30.9193 167.718 30.8034C168.233 30.4709 168.749 30.0617 169.23 29.5739C170.597 28.1867 171.413 26.4545 171.413 24.3404C171.413 24.1543 171.545 23.9991 171.721 23.9636C171.749 23.9563 171.779 23.9527 171.809 23.9527C173.923 23.9527 175.656 23.1365 177.043 21.7694C177.531 21.2886 177.94 20.7729 178.272 20.2577C178.388 20.0782 178.486 19.912 178.566 19.7638C178.613 19.6771 178.643 19.6171 178.656 19.5884C179.151 18.4961 179.688 17.7338 180.277 17.3227C179.688 16.9141 179.151 16.1518 178.656 15.0595C178.643 15.0308 178.613 14.9708 178.566 14.8841C178.486 14.7358 178.388 14.5697 178.272 14.3902C177.94 13.875 177.531 13.3592 177.043 12.8784C175.696 11.5509 174.023 10.7429 171.992 10.6972C171.935 10.7335 171.868 10.7527 171.797 10.7527C171.585 10.7527 171.413 10.5806 171.413 10.3683C171.413 8.25419 170.597 6.522 169.23 5.13484C168.749 4.64698 168.233 4.23785 167.718 3.90531C167.538 3.78942 167.372 3.69161 167.224 3.61156C167.137 3.56471 167.077 3.53485 167.049 3.52164C165.956 3.0261 165.194 2.4898 164.783 1.90018Z" fill="white"/>
</g>
<path opacity="0.55" d="M176.682 5.7247L176.701 5.74206C176.85 5.89126 176.85 6.13317 176.701 6.28237C176.249 6.73455 176.26 7.7035 176.826 9.21114C176.887 9.37658 176.974 9.66519 177.058 10.0568C177.197 10.7045 177.279 11.4095 177.273 12.1496C177.259 14.1621 176.618 16.0486 175.157 17.635C176.613 19.2196 177.252 21.1038 177.267 23.1135C177.272 23.8536 177.191 24.5586 177.052 25.2063C176.967 25.5979 176.881 25.8865 176.82 26.052C176.334 27.3455 176.257 28.2425 176.53 28.7568C176.606 28.8089 176.676 28.8684 176.741 28.934C176.891 29.0832 176.891 29.3251 176.741 29.4743L176.715 29.4961L176.695 29.5211C176.564 29.6516 176.362 29.6679 176.214 29.57L176.154 29.5211C176.088 29.455 176.028 29.3846 175.974 29.3099C175.461 29.0366 174.564 29.1142 173.272 29.5998C173.107 29.6608 172.818 29.747 172.427 29.8314C171.779 29.9709 171.074 30.0522 170.334 30.0468C168.325 30.0321 166.442 29.3936 164.857 27.9383C163.265 29.4181 161.367 30.0672 159.342 30.082C158.601 30.0874 157.896 30.0061 157.249 29.8665C156.857 29.7822 156.569 29.696 156.403 29.6349C155.11 29.1488 154.213 29.0716 153.698 29.3451C153.646 29.4208 153.587 29.4907 153.521 29.5562C153.372 29.7054 153.13 29.7054 152.981 29.5562L152.959 29.5302L152.934 29.5095C152.804 29.3789 152.787 29.1774 152.885 29.0291L152.934 28.9691C153 28.9031 153.071 28.8432 153.145 28.7894C153.419 28.2756 153.341 27.3792 152.855 26.0872C152.794 25.9217 152.708 25.6331 152.624 25.2415C152.484 24.5938 152.403 23.8888 152.408 23.1487C152.423 21.1614 153.048 19.2968 154.47 17.7229L154.685 17.9453C153.046 16.3067 152.333 14.3228 152.318 12.1987C152.312 11.4586 152.394 10.7536 152.533 10.1059C152.618 9.71426 152.704 9.42566 152.765 9.26021C153.331 7.75257 153.343 6.78363 152.89 6.33144C152.741 6.18224 152.741 5.94033 152.89 5.79113C152.897 5.7846 152.904 5.77836 152.91 5.7724L152.928 5.75367C153.077 5.60446 153.319 5.60446 153.468 5.75367C153.92 6.20585 154.889 6.19481 156.397 5.6282C156.562 5.56714 156.851 5.48095 157.242 5.39659C157.89 5.25706 158.595 5.17576 159.335 5.18116C161.325 5.19569 163.193 5.82268 164.768 7.24972C166.355 5.78838 168.242 5.14678 170.256 5.13209C170.996 5.12669 171.701 5.20799 172.349 5.34751C172.74 5.43188 173.029 5.51807 173.194 5.57913C174.702 6.14574 175.671 6.15678 176.123 5.7046C176.272 5.55539 176.514 5.55539 176.663 5.7046C176.67 5.71112 176.676 5.71783 176.682 5.7247ZM175.657 6.74659C175.014 6.86279 174.194 6.73897 173.202 6.39458L172.928 6.2952L172.859 6.27161C172.828 6.26146 172.788 6.24916 172.741 6.23514C172.581 6.18723 172.395 6.13922 172.188 6.0945C171.592 5.96618 170.942 5.89122 170.262 5.89619C168.382 5.9099 166.639 6.51744 165.179 7.91338C165.165 7.97869 165.132 8.03886 165.082 8.08869C164.932 8.23789 164.691 8.23789 164.541 8.08869C163.056 6.60306 161.265 5.95938 159.33 5.94526C158.649 5.94029 157.999 6.01525 157.403 6.14357C157.196 6.18829 157.01 6.2363 156.85 6.28421C156.803 6.29823 156.764 6.31053 156.733 6.32069L156.663 6.34427C155.548 6.76355 154.635 6.92242 153.932 6.79707C154.049 7.44033 153.925 8.26065 153.58 9.25221L153.481 9.52688L153.457 9.59591C153.447 9.62711 153.435 9.66636 153.421 9.71331C153.373 9.87373 153.325 10.0592 153.28 10.2668C153.152 10.8625 153.077 11.5124 153.082 12.1931C153.096 14.0824 153.709 15.8339 155.121 17.2983C155.193 17.3122 155.261 17.3469 155.316 17.402C155.465 17.5512 155.465 17.7931 155.316 17.9423C153.83 19.428 153.187 21.2188 153.173 23.1542C153.168 23.8349 153.243 24.4849 153.371 25.0806C153.416 25.2882 153.464 25.4736 153.511 25.6341C153.54 25.728 153.561 25.7911 153.572 25.8205C153.971 26.8842 154.134 27.7633 154.04 28.4523C154.727 28.356 155.606 28.5191 156.67 28.9189C156.699 28.9297 156.762 28.9509 156.856 28.9789C157.017 29.0268 157.202 29.0748 157.41 29.1196C158.005 29.2479 158.655 29.3228 159.336 29.3179C161.271 29.3037 163.062 28.6601 164.548 27.1744L164.579 27.1485C164.581 27.1454 164.584 27.1423 164.587 27.1393C164.737 26.9901 164.979 26.9901 165.128 27.1393C166.613 28.6249 168.404 29.2686 170.339 29.2827C171.02 29.2877 171.67 29.2127 172.266 29.0844C172.473 29.0397 172.659 28.9916 172.819 28.9437C172.913 28.9157 172.976 28.8945 173.006 28.8837C174.069 28.4839 174.948 28.3209 175.637 28.4152C175.541 27.7281 175.704 26.8491 176.104 25.7853C176.115 25.7559 176.136 25.6928 176.164 25.5989C176.212 25.4385 176.26 25.253 176.305 25.0454C176.433 24.4497 176.508 23.7998 176.503 23.1191C176.489 21.1836 175.845 19.3928 174.36 17.9072C174.228 17.7755 174.212 17.5715 174.313 17.4228C174.327 17.3991 174.345 17.3766 174.366 17.356C175.851 15.8703 176.495 14.0795 176.509 12.1441C176.514 11.4634 176.439 10.8134 176.311 10.2177C176.266 10.0101 176.218 9.82466 176.17 9.66424C176.156 9.61729 176.144 9.57803 176.134 9.54684L176.11 9.4778C175.691 8.36219 175.532 7.44974 175.657 6.74659Z" fill="white"/>
<path d="M172.234 10.3356C172.384 10.4848 172.384 10.7267 172.234 10.8759C172.099 11.0111 171.966 11.1113 171.804 11.187C171.688 11.4485 171.645 11.8884 171.607 12.7964C171.565 13.7823 171.491 14.2975 171.246 14.7888C170.874 15.5344 170.027 16.4222 168.7 17.4734C170.245 18.6884 171.228 19.6995 171.655 20.5316C171.923 21.0541 172.012 21.6026 172.075 22.6505C172.155 23.9783 172.227 24.3759 172.496 24.6457C172.627 24.7763 172.643 24.9778 172.545 25.1261L172.496 25.186L172.436 25.2349C172.288 25.3329 172.087 25.3165 171.956 25.186C171.686 24.9162 171.289 24.8446 169.961 24.7645C168.913 24.7012 168.365 24.6122 167.842 24.3444C167.008 23.9169 165.994 22.9304 164.777 21.3784C163.693 22.7584 162.781 23.6354 162.019 24.0158C161.528 24.2609 161.012 24.3354 160.027 24.3769C158.796 24.4287 158.425 24.4888 158.188 24.7262C158.039 24.8754 157.797 24.8754 157.648 24.7262C157.634 24.7122 157.621 24.6974 157.61 24.682L157.566 24.6444C157.417 24.4952 157.417 24.2533 157.566 24.1041C157.803 23.8667 157.863 23.4959 157.915 22.2654C157.957 21.2795 158.031 20.7643 158.276 20.273C158.653 19.5167 159.519 18.6141 160.879 17.5429C159.498 16.4284 158.609 15.4914 158.21 14.7116C157.942 14.1891 157.853 13.6406 157.789 12.5927C157.709 11.2649 157.638 10.8673 157.368 10.5975C157.237 10.4669 157.221 10.2654 157.319 10.1171L157.368 10.0572C157.517 9.90801 157.759 9.90801 157.908 10.0572C158.178 10.327 158.576 10.3986 159.903 10.4787C160.951 10.542 161.5 10.631 162.022 10.8988C162.842 11.319 163.835 12.2792 165.025 13.7857C166.144 12.3472 167.082 11.4359 167.863 11.046C168.354 10.8009 168.87 10.7264 169.855 10.6849C170.594 10.6538 171.023 10.6197 171.299 10.5461C171.334 10.5023 171.373 10.46 171.416 10.4174C171.5 10.3327 171.615 10.2961 171.726 10.3076C171.875 10.187 172.095 10.1963 172.234 10.3356ZM170.951 11.38C170.673 11.4109 170.327 11.4299 169.888 11.4483C169.01 11.4853 168.565 11.5496 168.204 11.7297C167.506 12.0781 166.568 13.0126 165.421 14.5258C165.404 14.6111 165.356 14.6889 165.282 14.7451C165.115 14.8732 164.875 14.841 164.747 14.6732C163.474 13.0057 162.44 11.9716 161.674 11.5788C161.278 11.3761 160.799 11.2983 159.857 11.2415C159.215 11.2026 158.76 11.1663 158.415 11.1049C158.477 11.4489 158.513 11.9038 158.552 12.5466C158.609 13.4884 158.687 13.9675 158.89 14.363C159.249 15.0639 160.145 15.9889 161.571 17.1155C161.685 17.1165 161.796 17.1687 161.87 17.2661C161.901 17.3067 161.922 17.3514 161.934 17.3977L161.984 17.4362C162.152 17.5642 162.184 17.804 162.056 17.9717C161.928 18.1395 161.688 18.1717 161.52 18.0436L161.5 18.0276C160.137 19.0856 159.288 19.956 158.96 20.6141C158.78 20.9751 158.715 21.4204 158.678 22.2975C158.651 22.9508 158.622 23.3978 158.562 23.7311C158.894 23.6695 159.341 23.641 159.994 23.6135C160.872 23.5765 161.317 23.5122 161.678 23.3321C162.382 22.9806 163.33 22.0329 164.491 20.4965C164.618 20.3281 164.857 20.2948 165.026 20.4219C165.096 20.4754 165.143 20.5486 165.164 20.628L165.118 20.57C166.39 22.2375 167.424 23.2716 168.191 23.6644C168.586 23.8671 169.065 23.9449 170.007 24.0018C170.65 24.0406 171.105 24.0769 171.449 24.1394C171.387 23.7943 171.351 23.3394 171.312 22.6966C171.255 21.7548 171.177 21.2757 170.975 20.8802C170.582 20.1138 169.548 19.0797 167.88 17.807L168.048 17.9366C167.904 17.9718 167.747 17.9213 167.652 17.7957C167.525 17.6274 167.558 17.3878 167.726 17.2606C169.263 16.0998 170.21 15.1521 170.562 14.4477C170.742 14.0867 170.806 13.6415 170.843 12.7643C170.869 12.1427 170.897 11.7079 170.951 11.38Z" fill="white" fill-opacity="0.7"/>
<path d="M164.699 7.19531C164.908 7.19531 165.077 7.36794 165.077 7.58088C165.077 7.7742 165.054 7.94086 164.993 8.11086C165.096 8.38087 165.375 8.72526 165.983 9.39932C166.644 10.1325 166.953 10.5532 167.126 11.0788C167.388 11.8797 167.416 13.1245 167.221 14.8325C169.157 14.6077 170.558 14.6302 171.446 14.9112C172.01 15.0896 172.465 15.4114 173.258 16.1013C174.262 16.9753 174.597 17.2037 174.982 17.2037C175.195 17.2037 175.368 17.3731 175.368 17.5822V17.6292C175.368 17.8383 175.195 18.0077 174.982 18.0077C174.597 18.0077 174.262 18.2361 173.258 19.1102C172.465 19.8 172.01 20.1218 171.446 20.3002C170.556 20.5819 169.15 20.6038 167.208 20.3775C167.418 22.1459 167.394 23.4288 167.126 24.2477C166.953 24.7732 166.644 25.194 165.983 25.9271C165.157 26.8422 164.94 27.1497 164.94 27.4885C164.94 27.7015 164.77 27.8741 164.561 27.8741C164.542 27.8741 164.522 27.8726 164.504 27.8697L164.446 27.8741C164.237 27.8741 164.068 27.7015 164.068 27.4885C164.068 27.1497 163.85 26.8422 163.025 25.9271C162.363 25.194 162.054 24.7732 161.882 24.2477C161.615 23.4351 161.59 22.1655 161.795 20.4189C160.044 20.5999 158.761 20.5636 157.929 20.3002C157.365 20.1218 156.91 19.8 156.117 19.1102C155.112 18.2361 154.777 18.0077 154.392 18.0077C154.179 18.0077 154.007 17.8383 154.007 17.6292L154.008 17.6058C154.007 17.598 154.007 17.5901 154.007 17.5822C154.007 17.3731 154.179 17.2037 154.392 17.2037C154.777 17.2037 155.112 16.9753 156.117 16.1013C156.91 15.4114 157.365 15.0896 157.929 14.9112C158.804 14.6343 160.177 14.6084 162.068 14.8225C161.841 12.9872 161.859 11.6608 162.134 10.8218C162.307 10.2962 162.615 9.87544 163.277 9.14227C163.772 8.59308 164.049 8.26273 164.191 8.01312C164.185 7.95693 164.183 7.89875 164.183 7.83793C164.183 7.71677 164.237 7.60867 164.323 7.53798C164.343 7.34552 164.504 7.19531 164.699 7.19531ZM164.531 8.85566C164.358 9.07669 164.129 9.33724 163.834 9.66412C163.246 10.3164 162.979 10.6801 162.852 11.0663C162.619 11.7754 162.606 13.0152 162.824 14.7633L162.857 15.0131L162.853 14.9712C162.958 15.0511 163.019 15.1827 163 15.3218C162.971 15.529 162.777 15.6744 162.566 15.6466C160.468 15.37 158.992 15.37 158.165 15.6317C157.738 15.7668 157.341 16.0479 156.628 16.6678C156.122 17.1079 155.764 17.4074 155.467 17.6064C155.764 17.804 156.122 18.1035 156.628 18.5436C157.341 19.1635 157.738 19.4446 158.165 19.5797C158.914 19.8165 160.194 19.839 161.985 19.6361C162.065 19.56 162.177 19.5208 162.293 19.5373C162.341 19.5441 162.385 19.5596 162.425 19.582L162.566 19.5648C162.777 19.537 162.971 19.6824 163 19.8896C163.028 20.0968 162.88 20.2873 162.669 20.3151L162.568 20.3283C162.353 22.0644 162.368 23.297 162.6 24.0032C162.726 24.3894 162.993 24.753 163.582 25.4053C164.02 25.8911 164.313 26.2305 164.504 26.5118C164.694 26.2305 164.987 25.8911 165.426 25.4053C166.014 24.753 166.281 24.3894 166.408 24.0032C166.649 23.2668 166.655 21.9582 166.409 20.1024C166.377 20.0376 166.364 19.9647 166.375 19.8896C166.383 19.8263 166.407 19.7688 166.443 19.7203C166.499 19.6243 166.597 19.554 166.714 19.5373C166.799 19.5253 166.881 19.5427 166.95 19.5819L166.808 19.5648C168.906 19.8414 170.382 19.8414 171.209 19.5797C171.636 19.4446 172.034 19.1635 172.746 18.5436C173.252 18.1035 173.611 17.804 173.908 17.605C173.611 17.4074 173.252 17.1079 172.746 16.6678C172.034 16.0479 171.636 15.7668 171.209 15.6317C170.419 15.3818 169.038 15.3705 167.088 15.6109C167.011 15.7364 166.867 15.8108 166.714 15.7892C166.518 15.7613 166.378 15.585 166.389 15.3871C166.383 15.3662 166.378 15.3443 166.375 15.3218C166.363 15.2332 166.383 15.1476 166.426 15.0765L166.392 15.3541C166.655 13.4293 166.655 12.0767 166.408 11.3233C166.281 10.9371 166.014 10.5735 165.426 9.92117C165.008 9.45869 164.723 9.12897 164.531 8.85566Z" fill="white"/>
<path fill-rule="evenodd" clip-rule="evenodd" d="M11.5899 27.9582L7.31991 20.638H4.16828V27.9582H0V6.87891H8.43823C10.3699 6.87891 12.0304 7.5567 13.4198 8.91228C14.7754 10.2679 15.4532 11.9284 15.4532 13.8601C15.4532 15.1479 15.0804 16.368 14.3348 17.4863C13.5893 18.6047 12.6065 19.4519 11.3865 19.9941L16.0631 27.9243H11.5899V27.9582ZM4.16828 10.7762V17.0119H8.43823C9.21767 17.0119 9.89544 16.7069 10.4715 16.0969C11.0476 15.4868 11.3188 14.7413 11.3188 13.894C11.3188 13.0468 11.0476 12.3012 10.4715 11.6912C9.89544 11.0812 9.25156 10.7762 8.43823 10.7762H4.16828ZM20.8384 22.0261C21.3467 23.9239 22.77 24.8389 25.0744 24.8389C26.5655 24.8389 27.6838 24.3306 28.4294 23.3478L31.5471 25.1439C30.056 27.2789 27.8872 28.3634 24.9728 28.3634C22.4989 28.3634 20.4995 27.6178 18.9745 26.0928C17.4834 24.6017 16.704 22.7039 16.704 20.3994C16.704 18.1288 17.4495 16.231 18.9406 14.7398C20.4317 13.2148 22.3295 12.4692 24.6678 12.4692C26.8705 12.4692 28.7005 13.2487 30.1238 14.7737C31.5471 16.2987 32.2927 18.1966 32.2927 20.4333C32.2927 20.9416 32.2588 21.45 32.1571 22.0261H20.8384ZM20.8045 19.0099H28.4633C28.2261 17.9932 27.7855 17.2138 27.1077 16.7054C26.43 16.1971 25.6166 15.9599 24.7355 15.9599C23.685 15.9599 22.8378 16.231 22.16 16.7732C21.4484 17.2815 21.0078 18.061 20.8045 19.0099ZM47.5118 14.1298C46.4613 13.0115 45.1057 12.4692 43.4452 12.4692C41.378 12.4692 39.8869 13.1809 38.938 14.6043V12.9098H35.0408V27.9567H38.938V19.8233C38.938 18.5693 39.243 17.6204 39.853 17.0104C40.463 16.3665 41.2424 16.0615 42.2591 16.0615C43.1741 16.0615 43.8857 16.3326 44.428 16.8749C44.9702 17.4171 45.2413 18.1627 45.2413 19.1794V27.9567H49.1385V18.7049C49.1385 16.7732 48.5962 15.2482 47.5118 14.1298ZM55.7154 22.0261C56.2237 23.9239 57.647 24.8389 59.9514 24.8389C61.4425 24.8389 62.5608 24.3306 63.3064 23.3478L66.4241 25.1439C64.933 27.2789 62.7642 28.3634 59.8498 28.3634C57.3759 28.3634 55.3765 27.6178 53.8515 26.0928C52.3604 24.6017 51.581 22.7039 51.581 20.3994C51.581 18.1288 52.3265 16.231 53.8176 14.7398C55.3087 13.2148 57.2065 12.4692 59.5448 12.4692C61.7475 12.4692 63.5775 13.2487 65.0008 14.7737C66.4241 16.2987 67.1697 18.1966 67.1697 20.4333C67.1697 20.9416 67.1358 21.45 67.0341 22.0261H55.7154ZM55.6476 19.0099H63.3064C63.0692 17.9932 62.6286 17.2138 61.9509 16.7054C61.2731 16.1971 60.4598 15.9599 59.5787 15.9599C58.5281 15.9599 57.6809 16.231 57.0031 16.7732C56.3254 17.2815 55.8848 18.061 55.6476 19.0099ZM89.9741 12.9061H86.2464L83.7048 22.1919L80.9598 12.9061H77.2998L74.5549 22.158L71.9793 12.9061H67.8788L72.3182 27.9531H76.1137L78.9604 18.8368L81.807 27.9531H85.5686L89.9741 12.9061Z" fill="white"/>
<path fill-rule="evenodd" clip-rule="evenodd" d="M113.778 6.54297H114.117V6.88186V27.995V28.3339H113.778H109.644H109.305V27.995V15.5237L103.984 24.2672L103.883 24.4366H103.713H103.239H103.036L102.934 24.2672L97.6134 15.5576V27.9611V28.3H97.2745H93.1062H92.7673V27.9611V6.88186V6.54297H93.1062H97.3762H97.5795L97.6812 6.71242L103.442 16.1676L109.169 6.71242L109.271 6.54297H109.474H113.778ZM118.696 14.5081C120.255 12.9492 122.254 12.1358 124.66 12.1358C126.965 12.1358 128.897 12.9492 130.388 14.5759C131.879 16.1687 132.624 18.1343 132.624 20.4727C132.624 20.981 132.557 21.5571 132.455 22.1332L132.421 22.4044H132.15H121.272C121.814 23.8277 123.068 24.5394 125.033 24.5394C126.423 24.5394 127.439 24.0988 128.151 23.1838L128.32 22.9466L128.592 23.0821L131.709 24.8783L132.014 25.0477L131.811 25.3527C130.252 27.5894 127.948 28.7078 124.965 28.7078C122.39 28.7078 120.289 27.8944 118.73 26.3355C117.137 24.7766 116.358 22.7771 116.358 20.4049C116.358 18.0665 117.137 16.067 118.696 14.5081ZM122.288 17.0498C121.78 17.4565 121.407 17.9987 121.17 18.6765H127.948C127.744 17.9648 127.372 17.3887 126.829 17.0159C126.185 16.5754 125.474 16.3381 124.66 16.3381C123.712 16.3381 122.898 16.5754 122.288 17.0498Z" fill="#A6A6A6"/>
<g opacity="0.65">
<path d="M137.066 6.87695V7.41918H136.287V9.82534H135.711V7.41918H134.931V6.87695H137.066Z" fill="white"/>
<path d="M140.286 6.87695V9.82534H139.71V7.92753L138.863 9.28311H138.795L137.982 7.92753V9.82534H137.406V6.87695H138.016L138.863 8.26642L139.71 6.87695H140.286Z" fill="white"/>
</g>
</svg>
