<svg width="540" height="402" viewBox="0 0 540 402" fill="none" xmlns="http://www.w3.org/2000/svg" opacity="0.2">
  <g filter="url(#prefix__filter0_b_1993_806)">
    <path fill-rule="evenodd" clip-rule="evenodd"
      d="M201.911 76.6635C180.09 99.0406 167.062 126.984 167.062 161.088C167.062 164.104 164.931 166.617 162.108 167.174C161.096 167.919 159.849 168.358 158.502 168.358C124.757 168.358 97.1078 181.525 74.9663 203.578C67.1791 211.334 60.6488 219.654 55.3409 227.964C53.4911 230.86 51.9299 233.54 50.6521 235.932C49.9042 237.331 49.4277 238.298 49.2169 238.761C41.6922 255.523 33.5789 267.469 24.7042 274.302C33.5789 281.134 41.6922 293.08 49.2169 309.842C49.4277 310.305 49.9042 311.272 50.6521 312.671C51.9299 315.063 53.4911 317.743 55.3409 320.639C60.6488 328.949 67.1791 337.269 74.9663 345.025C97.1078 367.078 124.757 380.245 158.502 380.245C158.822 380.245 159.136 380.27 159.443 380.318C162.77 380.39 165.445 383.138 165.445 386.518C165.445 420.622 178.473 448.565 200.293 470.942C207.968 478.812 216.201 485.412 224.423 490.776C227.289 492.646 229.941 494.224 232.307 495.515C233.692 496.271 234.649 496.752 235.106 496.965C251.721 504.583 263.554 512.798 270.308 521.786C277.063 512.8 288.894 504.586 305.507 496.969C305.965 496.756 306.922 496.275 308.306 495.519C310.673 494.227 313.324 492.65 316.19 490.78C324.413 485.416 332.645 478.816 340.32 470.946C362.14 448.569 375.169 420.626 375.169 386.522C375.169 383.404 377.445 380.824 380.409 380.386C380.767 380.32 381.137 380.285 381.514 380.285C415.259 380.285 442.908 367.119 465.049 345.066C472.836 337.31 479.367 328.989 484.675 320.679C486.525 317.783 488.086 315.103 489.364 312.712C490.111 311.312 490.588 310.345 490.799 309.883C498.703 292.274 507.257 279.981 516.66 273.347C507.257 266.713 498.703 254.42 490.799 236.812C490.588 236.349 490.111 235.382 489.364 233.982C488.086 231.591 486.525 228.911 484.675 226.015C479.367 217.705 472.836 209.384 465.049 201.628C444.296 180.958 418.703 168.094 387.787 166.563C386.927 167.026 385.945 167.289 384.903 167.289C383.75 167.289 382.671 166.968 381.749 166.409L381.514 166.409C378.125 166.409 375.378 163.632 375.378 160.207C375.378 157.842 376.687 155.787 378.613 154.741C377.097 123.499 364.369 97.6365 343.917 76.6635C336.243 68.7935 328.01 62.1937 319.788 56.8292C316.922 54.9597 314.27 53.382 311.904 52.0906C310.519 51.3347 309.562 50.8532 309.105 50.6401C291.647 42.6356 279.469 33.9721 272.914 24.4457C266.359 33.9721 254.181 42.6356 236.723 50.6401C236.266 50.8532 235.309 51.3347 233.924 52.0906C231.558 53.382 228.906 54.9597 226.041 56.8292C217.818 62.1937 209.585 68.7935 201.911 76.6635ZM153.297 392.552C154.758 427.458 168.898 456.416 191.552 479.648C199.897 488.206 208.827 495.364 217.767 501.197C223.173 504.724 227.43 507.047 230.002 508.245C250.2 517.506 261.263 526.909 264.007 535.945C263.77 537.419 263.651 538.912 263.651 540.425C263.651 543.85 266.398 546.627 269.787 546.627C269.886 546.627 269.983 546.625 270.08 546.62C270.164 546.616 270.247 546.61 270.33 546.603C270.493 546.616 270.659 546.623 270.826 546.623C274.215 546.623 276.962 543.846 276.962 540.421C276.962 538.91 276.844 537.419 276.607 535.947C279.353 526.911 290.415 517.509 310.611 508.249C313.183 507.051 317.44 504.728 322.846 501.201C331.786 495.368 340.716 488.209 349.061 479.652C371.713 456.423 385.852 427.469 387.315 392.569C421.93 391.132 450.639 376.833 473.664 353.9C482.131 345.467 489.215 336.441 494.986 327.406C498.475 321.943 500.774 317.641 501.96 315.041C512.647 291.233 523.526 279.984 533.797 279.984C537.186 279.984 539.934 277.208 539.934 273.783C539.934 273.636 539.929 273.491 539.919 273.347C539.929 273.203 539.934 273.058 539.934 272.911C539.934 269.486 537.186 266.71 533.797 266.71C523.526 266.71 512.647 255.461 501.96 231.653C500.774 229.053 498.475 224.752 494.986 219.288C489.215 210.253 482.131 201.227 473.664 192.794C451.434 170.653 423.906 156.56 390.881 154.32C389.254 119.741 375.155 91.0267 352.659 67.9572C344.314 59.3999 335.384 52.2411 326.444 46.4085C321.038 42.8817 316.781 40.5585 314.209 39.3603C290.651 28.5591 279.521 17.5644 279.521 7.18411C279.521 3.75901 276.774 0.982422 273.385 0.982422C273.227 0.982422 273.069 0.988491 272.914 1.00041C272.759 0.988491 272.602 0.982422 272.443 0.982422C269.054 0.982422 266.307 3.75901 266.307 7.18411C266.307 17.5644 255.177 28.5591 231.619 39.3603C229.047 40.5585 224.79 42.8817 219.385 46.4085C210.444 52.2411 201.514 59.3999 193.169 67.9572C170.31 91.3996 156.12 120.671 154.878 156.001C119.288 156.917 89.8582 171.331 66.3517 194.743C57.8844 203.177 50.8011 212.202 45.0298 221.237C41.5402 226.701 39.2414 231.003 38.0558 233.602C28.9414 253.906 19.6877 265.076 10.7905 267.924C9.28714 267.669 7.76334 267.541 6.21841 267.541C2.82939 267.541 0.0820312 270.317 0.0820312 273.742C0.0820312 273.931 0.0903473 274.117 0.106628 274.302C0.0903473 274.486 0.0820312 274.672 0.0820312 274.861C0.0820312 278.286 2.82939 281.062 6.21841 281.062C7.76334 281.062 9.28714 280.934 10.7905 280.679C19.6877 283.527 28.9414 294.697 38.0558 315.001C39.2414 317.6 41.5402 321.902 45.0298 327.366C50.8011 336.401 57.8844 345.426 66.3517 353.86C89.5093 376.925 118.416 391.256 153.297 392.552Z"
      fill="#B38DB2" fill-opacity="0.5" />
  </g>
  <path fill-rule="evenodd" clip-rule="evenodd"
    d="M271.44 440.303C297.156 463.952 327.63 474.43 360.077 474.839C372.029 474.989 383.405 473.737 393.851 471.539C400.168 470.211 404.82 468.843 407.487 467.872C428.315 460.139 442.785 458.965 451.115 463.412C451.99 464.622 452.962 465.763 454.033 466.833C456.455 469.255 460.361 469.276 462.757 466.88C462.885 466.752 463.006 466.62 463.12 466.484C463.247 466.376 463.371 466.262 463.491 466.142C465.887 463.746 465.866 459.84 463.444 457.418C462.375 456.348 461.235 455.377 460.026 454.503C455.58 446.172 456.754 431.702 464.487 410.876C465.458 408.21 466.825 403.557 468.154 397.241C470.352 386.794 471.604 375.418 471.454 363.466C471.045 331.023 460.57 300.553 436.927 274.84C460.392 249.346 470.583 218.932 470.648 186.431C470.672 174.481 469.299 163.09 466.991 152.62C465.595 146.29 464.179 141.622 463.179 138.946C453.901 114.554 453.64 98.9073 460.903 91.6446C463.299 89.2482 463.279 85.3421 460.857 82.9202C460.828 82.8914 460.799 82.863 460.77 82.8349C460.748 82.8138 460.726 82.7929 460.704 82.7722C460.648 82.7206 460.593 82.6702 460.536 82.621C460.442 82.5129 460.343 82.4074 460.24 82.3045C457.818 79.8826 453.912 79.8619 451.516 82.2583C444.253 89.521 428.607 89.2599 404.215 79.9821C401.538 78.9821 396.871 77.5657 390.54 76.17C380.07 73.8619 368.68 72.4888 356.729 72.5128C325.353 72.5757 295.922 82.0757 270.985 103.845C245.384 80.5451 215.11 70.2108 182.891 69.8051C170.939 69.6547 159.563 70.9073 149.117 73.1048C142.8 74.4335 138.148 75.8006 135.481 76.7723C111.186 85.7924 95.5417 85.8879 88.2017 78.548C85.7798 76.1261 81.8738 76.1054 79.4774 78.5018C79.365 78.6142 79.258 78.7298 79.1563 78.8485C79.0376 78.9502 78.9219 79.0572 78.8096 79.1696C76.4132 81.566 76.4338 85.472 78.8558 87.8939C86.1957 95.2339 86.1002 110.878 77.0801 135.174C76.1084 137.84 74.7413 142.492 73.4125 148.809C71.215 159.255 69.9625 170.631 70.1129 182.583C70.5251 215.323 81.1896 246.055 105.293 271.916C80.7749 297.729 70.1567 328.732 70.0902 361.909C70.0662 373.859 71.4393 385.25 73.7474 395.72C75.1431 402.05 76.5595 406.718 77.5595 409.394C85.4719 430.197 86.8263 444.638 82.5486 452.943C81.3054 453.826 80.1375 454.813 79.0452 455.905C76.6488 458.301 76.6695 462.207 79.0914 464.629C79.2246 464.763 79.3623 464.889 79.504 465.007C79.6227 465.149 79.7487 465.287 79.8819 465.42C82.3038 467.842 86.2098 467.862 88.6062 465.466C89.6985 464.374 90.6854 463.206 91.5681 461.963C99.8731 457.685 114.314 459.039 135.117 466.952C137.793 467.952 142.461 469.368 148.792 470.764C159.262 473.072 170.652 474.445 182.603 474.421C215.286 474.356 245.859 464.05 271.44 440.303ZM82.4502 182.558C82.8436 213.811 93.39 242.782 117.505 266.897C119.638 269.03 119.909 272.314 118.306 274.704C118.117 275.946 117.546 277.138 116.593 278.092C92.7314 301.953 82.491 330.814 82.4284 362.064C82.4063 373.055 83.6722 383.556 85.7951 393.185C86.5349 396.541 87.326 399.54 88.1133 402.134C88.5742 403.653 88.9212 404.674 89.099 405.15C95.6314 422.324 98.3413 436.508 96.897 447.614C108.004 446.17 122.188 448.88 139.361 455.412C139.837 455.59 140.858 455.937 142.377 456.398C144.971 457.185 147.97 457.976 151.326 458.716C160.955 460.839 171.457 462.105 182.447 462.083C213.697 462.02 242.558 451.78 266.42 427.919C266.647 427.691 266.887 427.486 267.139 427.302C269.543 425.005 273.375 425.058 275.763 427.447C299.878 451.562 328.849 462.108 360.102 462.502C371.093 462.64 381.582 461.485 391.189 459.464C394.538 458.76 397.528 458 400.114 457.24C401.628 456.796 402.645 456.459 403.12 456.287C420.254 449.925 434.429 447.367 445.56 448.946C443.983 437.815 446.541 423.641 452.902 406.509C453.074 406.035 453.411 405.017 453.855 403.504C454.615 400.917 455.375 397.927 456.079 394.578C458.1 384.971 459.255 374.483 459.116 363.491C458.723 332.239 448.177 303.268 424.061 279.152C421.844 276.935 421.639 273.474 423.46 271.066C423.661 270.779 423.889 270.505 424.146 270.248C448.007 246.387 458.247 217.526 458.31 186.276C458.332 175.285 457.066 164.784 454.943 155.155C454.204 151.799 453.413 148.8 452.625 146.206C452.164 144.687 451.817 143.666 451.64 143.19C444.778 125.151 442.134 110.41 444.092 99.0693C432.751 101.028 418.01 98.3834 399.97 91.5216C399.494 91.3438 398.473 90.9968 396.955 90.5359C394.361 89.7486 391.362 88.9575 388.006 88.2177C378.376 86.0948 367.875 84.8289 356.884 84.851C327.592 84.9097 300.399 93.9108 277.455 114.69C277.175 115.626 276.666 116.506 275.929 117.244C275.114 118.059 274.124 118.594 273.077 118.851L272.912 119.015C270.516 121.412 266.61 121.391 264.188 118.969C262.516 117.298 261.989 114.92 262.61 112.818C239.446 91.799 212.158 82.5112 182.866 82.1424C171.874 82.004 161.386 83.1588 151.779 85.1799C148.43 85.8842 145.44 86.6437 142.853 87.4036C141.34 87.8483 140.322 88.1846 139.848 88.3574C121.842 95.0425 107.105 97.5272 95.7332 95.4254C97.835 106.797 95.3503 121.535 88.6651 139.541C88.4924 140.015 88.1561 141.032 87.7113 142.546C86.9514 145.132 86.192 148.123 85.4877 151.471C83.4666 161.078 82.3118 171.567 82.4502 182.558Z"
    fill="#539ED8" fill-opacity="0.5" />
  <path fill-rule="evenodd" clip-rule="evenodd"
    d="M148.869 307.607C162.848 312.428 187.838 312.737 223.348 308.233C224.738 307.357 226.439 306.954 228.202 307.209C232.156 307.782 234.93 311.446 234.399 315.394C229.122 354.641 229.122 382.289 234.115 397.835C236.692 405.859 242.056 413.36 253.885 426.834C261.952 436.024 267.544 442.647 271.336 448.119C275.129 442.726 280.721 436.221 288.791 427.199C300.62 413.975 305.983 406.588 308.561 398.618C313.124 384.507 313.517 360.2 309.522 326.075C307.999 324.514 307.186 322.294 307.509 319.983C307.644 319.015 307.965 318.122 308.431 317.333C308.38 316.947 308.329 316.56 308.277 316.171C307.746 312.212 310.52 308.607 314.473 308.118C318.427 307.629 322.061 310.442 322.592 314.401L322.661 314.915C355.008 319.33 377.978 319.282 391.158 315.015C398.392 312.673 405.203 307.653 417.421 296.551C426.466 288.332 432.801 282.822 438.051 279.234C432.792 275.535 426.448 269.883 417.378 261.45C405.16 250.089 398.349 244.925 391.115 242.43C377.003 237.563 351.668 237.295 315.615 241.935C311.665 242.443 308.016 239.648 307.466 235.692C307.228 233.981 307.608 232.334 308.435 230.974C313.518 192.497 313.457 165.341 308.525 149.987C305.948 141.963 300.584 134.462 288.756 120.988C280.711 111.824 275.129 105.212 271.337 99.7498C267.545 105.127 261.967 111.614 253.935 120.593C242.107 133.817 236.743 141.204 234.166 149.174C229.339 164.102 229.178 190.439 233.942 227.738C236.281 229.228 237.67 231.989 237.265 234.895C236.714 238.84 233.066 241.558 229.115 240.966C193.063 235.563 167.728 235.294 153.615 239.863C146.382 242.205 139.571 247.224 127.352 258.327C118.754 266.139 112.606 271.504 107.51 275.097C111.642 278.504 116.508 282.917 122.606 288.587C134.825 299.948 141.636 305.112 148.869 307.607ZM264.107 80.1576C263.568 86.8549 258.762 93.4173 243.125 110.899C229.963 125.613 223.822 134.071 220.418 144.597C214.993 161.374 214.619 188.045 219.067 225.01C187.218 220.975 163.993 221.273 149.036 226.115C139.191 229.302 131.31 235.11 117.578 247.589C105.07 258.953 98.6226 264.204 93.5851 266.186C90.3756 264.974 87.2339 264.494 83.5853 264.455C79.5967 264.413 76.3633 267.613 76.3633 271.602C76.3633 275.28 79.1127 278.345 82.6685 278.833C83.9914 280.516 86.0364 281.608 88.3314 281.633C89.53 281.645 90.6738 281.609 91.7833 281.514C96.4468 284.289 102.619 289.623 112.831 299.119C126.564 311.888 134.445 317.862 144.29 321.258C159.942 326.657 184.648 327.27 218.817 323.35C214.581 359.357 215.024 385.485 220.367 402.121C223.771 412.719 229.913 421.307 243.074 436.3C259.75 455.296 264.109 461.613 264.109 468.827C264.109 472.816 267.342 476.084 271.331 476.126C272.119 476.134 272.877 476.016 273.587 475.79C276.478 474.877 278.567 472.181 278.567 468.975C278.567 461.762 282.925 455.537 299.602 436.893C312.763 422.179 318.904 413.722 322.308 403.195C327.389 387.484 328.04 363.098 324.449 329.707C356.945 333.91 380.584 333.669 395.738 328.763C405.582 325.576 413.463 319.768 427.196 307.289C444.336 291.715 450.096 287.623 456.442 287.69C460.431 287.732 463.664 284.533 463.664 280.544C463.664 280.135 463.63 279.733 463.565 279.342C463.602 279.045 463.621 278.743 463.621 278.436C463.621 274.447 460.388 271.179 456.399 271.137C450.053 271.07 444.293 266.856 427.153 250.918C413.42 238.149 405.539 232.175 395.695 228.779C380.415 223.509 356.507 222.799 323.592 226.415C328.074 189.403 327.712 162.635 322.273 145.701C318.869 135.103 312.728 126.515 299.566 111.522C283.919 93.6971 279.116 87.0361 278.583 80.3225C278.597 79.8783 278.604 79.4277 278.604 78.9697C278.604 74.9808 275.37 71.713 271.382 71.6708C270.503 71.6615 269.661 71.8095 268.882 72.0885C266.088 73.0561 264.088 75.7049 264.088 78.8421C264.088 79.2871 264.094 79.7253 264.107 80.1576Z"
    fill="#F07E58" fill-opacity="0.5" />
  <path fill-rule="evenodd" clip-rule="evenodd"
    d="M128.91 141.128C133.226 146.248 134.463 154.314 135.763 177.645C136.861 197.356 138.498 207.679 143.535 217.53C151.562 233.229 170.157 252.353 199.441 275.346C174.066 295.014 157.854 311.647 150.701 325.648C145.994 334.862 144.528 344.542 143.641 363.076C142.833 379.958 141.986 388.23 139.825 393.193C136.698 394.606 134.137 396.488 131.529 399.041C128.679 401.832 128.655 406.38 131.475 409.201C134.077 411.803 138.19 412.025 141.05 409.854C143.175 410.108 145.394 409.435 147.033 407.829C147.889 406.991 148.672 406.158 149.389 405.307C154.649 403.971 162.785 403.378 176.72 402.872C195.459 402.19 205.257 400.842 214.619 396.282C229.504 389.032 247.408 371.996 268.797 345.062C291.262 373.519 310.051 391.68 325.593 399.665C335.494 404.752 345.909 406.482 365.817 407.777C391.041 409.418 398.59 410.803 403.691 415.904C406.511 418.724 411.108 418.749 413.959 415.958C414.647 415.285 415.17 414.509 415.528 413.679C416.661 411.07 416.16 407.93 414.017 405.788C408.916 400.687 407.596 393.204 406.205 368.229C405.107 348.517 403.469 338.195 398.433 328.344C390.916 313.643 374.133 295.938 347.983 274.866C373.934 254.86 390.479 237.974 397.725 223.789C402.432 214.575 403.898 204.895 404.785 186.361C405.893 163.228 407.072 156.262 411.607 151.822C414.457 149.031 414.481 144.483 411.661 141.662C411.373 141.374 411.066 141.116 410.745 140.886C410.561 140.648 410.359 140.419 410.141 140.2C407.32 137.38 402.723 137.356 399.873 140.146C395.338 144.586 388.285 145.679 364.896 146.53C346.156 147.211 336.359 148.559 326.997 153.119C312.465 160.198 295.057 176.601 274.338 202.436C251.336 173.094 232.152 154.422 216.332 146.294C206.431 141.207 196.016 139.477 176.108 138.182C152.526 136.648 144.393 135.338 139.266 131.006C138.946 130.664 138.615 130.323 138.272 129.981C135.452 127.16 130.855 127.136 128.005 129.926C127.428 130.491 126.967 131.127 126.622 131.806C125.214 134.498 125.641 137.89 127.912 140.161C128.245 140.494 128.577 140.816 128.91 141.128ZM208.204 383.391C221.498 376.916 239.387 359.464 261.311 331.169C261.674 329.567 262.592 328.079 264.02 327.012C267.22 324.622 271.773 325.251 274.189 328.418C298.21 359.902 317.76 379.451 332.283 386.914C339.78 390.765 348.876 392.276 366.768 393.44C378.969 394.234 387.605 394.963 394.156 396.15C393.025 389.655 392.379 381.102 391.706 369.018C390.719 351.303 389.289 342.287 385.476 334.829C378.724 321.624 361.814 304.158 334.859 282.852C332.679 282.824 330.535 281.83 329.129 279.968C328.541 279.189 328.137 278.331 327.909 277.444C327.599 277.207 327.288 276.969 326.976 276.731C323.801 274.307 323.213 269.796 325.663 266.654C328.112 263.513 332.672 262.932 335.847 265.356C335.984 265.461 336.122 265.567 336.259 265.672C362.254 245.92 378.463 229.643 384.765 217.306C388.224 210.535 389.491 202.17 390.281 185.679C390.865 173.471 391.448 165.096 392.623 158.846C386.289 159.949 377.807 160.438 365.431 160.888C348.758 161.495 340.291 162.66 333.412 166.01C319.991 172.548 301.887 190.273 279.675 219.047C277.241 222.2 272.684 222.803 269.498 220.394C268.123 219.355 267.228 217.926 266.849 216.383C243.234 185.578 223.986 166.416 209.641 159.045C202.145 155.194 193.048 153.683 175.157 152.519C162.993 151.728 154.372 151.001 147.829 149.82C148.949 156.303 149.592 164.832 150.262 176.856C151.248 194.57 152.679 203.587 156.492 211.045C163.634 225.014 182.145 243.751 211.888 266.758C214.595 266.158 217.529 267.128 219.297 269.469C221.697 272.648 221.039 277.149 217.827 279.524C188.513 301.196 170.409 318.921 163.661 332.131C160.202 338.902 158.935 347.267 158.146 363.757C157.59 375.362 157.036 383.504 155.973 389.649C161.304 389.136 167.864 388.816 176.185 388.513C192.858 387.907 201.325 386.742 208.204 383.391Z"
    fill="#00C0C5" />
  <defs>
    <filter id="prefix__filter0_b_1993_806" x="-3.86277" y="-2.96238" width="547.741" height="553.534"
      filterUnits="userSpaceOnUse" color-interpolation-filters="sRGB">
      <feFlood flood-opacity="0" result="BackgroundImageFix" />
      <feGaussianBlur in="BackgroundImageFix" stdDeviation="1.9724" />
      <feComposite in2="SourceAlpha" operator="in" result="effect1_backgroundBlur_1993_806" />
      <feBlend in="SourceGraphic" in2="effect1_backgroundBlur_1993_806" result="shape" />
    </filter>
  </defs>
</svg>