<svg width="859" height="1024" viewBox="0 0 859 1024" fill="none" xmlns="http://www.w3.org/2000/svg">
  <path opacity="0.461565" fill-rule="evenodd" clip-rule="evenodd"
    d="M231.019 700.699C261.95 700.309 290.623 689.871 314.49 666.004C316.602 663.892 319.854 663.625 322.22 665.214C323.449 665.401 324.628 665.966 325.572 666.909C349.187 690.525 377.752 700.66 408.68 700.722C419.558 700.744 429.951 699.491 439.482 697.39C442.803 696.658 445.771 695.875 448.339 695.096C449.842 694.64 450.852 694.296 451.323 694.12C468.322 687.654 482.361 684.972 493.354 686.403C491.924 675.41 494.606 661.37 501.072 644.371C501.248 643.9 501.591 642.889 502.047 641.386C502.826 638.819 503.609 635.85 504.342 632.529C506.443 622.999 507.695 612.606 507.674 601.728C507.612 570.799 497.477 542.235 473.861 518.619C473.658 518.416 473.472 518.202 473.304 517.979C470.967 515.605 470.999 511.765 473.385 509.38C497.252 485.512 507.69 456.839 508.079 425.908C508.216 415.03 507.073 404.649 505.073 395.141C504.376 391.827 503.624 388.867 502.872 386.307C502.432 384.809 502.099 383.802 501.928 383.333C495.631 366.374 493.1 352.344 494.663 341.327C483.647 342.888 469.62 340.356 452.665 334.061C452.196 333.89 451.189 333.557 449.691 333.117C447.131 332.365 444.171 331.613 440.857 330.916C431.349 328.916 420.968 327.773 410.09 327.91C379.159 328.299 350.486 338.737 326.618 362.604C324.385 364.838 320.877 365.008 318.49 363.103C318.252 362.927 318.025 362.731 317.81 362.516C294.194 338.9 265.63 328.765 234.701 328.703C223.823 328.681 213.43 329.934 203.9 332.035C200.578 332.768 197.61 333.551 195.043 334.33C193.54 334.786 192.529 335.129 192.058 335.305C174.202 342.097 159.612 344.714 148.388 342.775C150.327 353.999 147.71 368.589 140.918 386.445C140.743 386.916 140.399 387.927 139.943 389.43C139.164 391.997 138.381 394.965 137.649 398.287C135.548 407.817 134.295 418.21 134.317 429.088C134.375 458.078 143.283 484.991 163.847 507.699C164.774 507.976 165.646 508.479 166.376 509.21C167.183 510.017 167.714 510.997 167.967 512.034L168.129 512.197C170.501 514.568 170.481 518.434 168.084 520.831C166.429 522.486 164.075 523.008 161.996 522.393C141.193 545.318 132.001 572.325 131.636 601.316C131.499 612.194 132.642 622.574 134.642 632.083C135.339 635.397 136.091 638.357 136.843 640.916C137.283 642.415 137.616 643.422 137.787 643.891C144.404 661.711 146.863 676.298 144.782 687.552C156.037 685.472 170.623 687.931 188.443 694.548C188.913 694.719 189.92 695.051 191.418 695.492C193.977 696.244 196.937 696.995 200.251 697.692C209.76 699.693 220.14 700.836 231.019 700.699ZM486.117 513.649C509.517 488.2 519.885 458.043 520.289 425.933C520.438 414.104 519.199 402.845 517.024 392.506C515.709 386.255 514.356 381.65 513.394 379.011C505.741 358.397 504.579 344.076 508.98 335.831C510.179 334.965 511.309 334.002 512.369 332.941C514.766 330.544 514.787 326.679 512.415 324.307C512.283 324.175 512.147 324.051 512.006 323.934C511.904 323.814 511.796 323.697 511.682 323.583C509.31 321.211 505.445 321.232 503.048 323.629C501.989 324.687 501.028 325.815 500.163 327.011C491.917 331.41 477.597 330.247 456.987 322.595C454.348 321.633 449.743 320.28 443.492 318.965C433.153 316.79 421.894 315.551 410.065 315.7C377.958 316.104 347.802 326.47 322.354 349.867C297.123 326.643 267.022 316.556 234.855 316.492C223.027 316.468 211.754 317.827 201.391 320.112C195.126 321.493 190.506 322.895 187.857 323.884C163.716 333.067 148.231 333.325 141.043 326.137C138.671 323.765 134.805 323.786 132.408 326.183C132.391 326.2 132.375 326.216 132.359 326.233C132.332 326.26 132.305 326.288 132.279 326.315C132.222 326.376 132.167 326.437 132.113 326.499C132.005 326.593 131.899 326.692 131.796 326.795C129.399 329.192 129.379 333.058 131.75 335.43C138.938 342.618 138.68 358.103 129.498 382.244C128.508 384.893 127.106 389.513 125.725 395.778C123.44 406.141 122.081 417.414 122.105 429.242C122.167 460.295 131.57 489.423 153.115 514.103C130.055 539.441 119.827 569.403 119.426 601.291C119.277 613.12 120.516 624.379 122.691 634.718C124.006 640.969 125.359 645.574 126.321 648.213C135.249 672.258 135.343 687.742 128.079 695.006C125.682 697.403 125.661 701.269 128.033 703.641C128.144 703.751 128.257 703.857 128.374 703.957C128.475 704.075 128.582 704.19 128.693 704.302C131.065 706.674 134.931 706.653 137.328 704.256C144.592 696.992 160.076 697.086 184.121 706.014C186.76 706.975 191.365 708.328 197.616 709.643C207.955 711.818 219.215 713.058 231.043 712.909C263.447 712.501 293.863 701.946 319.457 678.09C345.006 702.358 375.69 712.868 408.527 712.934C420.354 712.957 431.628 711.598 441.99 709.314C448.255 707.933 452.875 706.531 455.524 705.541C476.12 697.707 490.416 696.369 498.634 700.608C499.506 701.835 500.481 702.988 501.559 704.067C503.931 706.438 507.797 706.418 510.194 704.021C510.324 703.891 510.447 703.756 510.564 703.618C510.704 703.5 510.841 703.375 510.973 703.243C513.37 700.846 513.391 696.98 511.019 694.608C509.94 693.529 508.787 692.554 507.56 691.682C503.32 683.464 504.658 669.168 512.492 648.572C513.482 645.923 514.884 641.303 516.265 635.037C518.55 624.675 519.909 613.402 519.885 601.574C519.82 569.226 509.62 538.967 486.117 513.649Z"
    fill="#3A3A3B" fill-opacity="0.15" />
  <path opacity="0.551595" fill-rule="evenodd" clip-rule="evenodd"
    d="M124.114 583.332C146.03 604.926 173.471 617.744 207.047 617.566C208.359 617.559 209.572 617.966 210.563 618.665C213.757 618.844 216.274 621.484 216.257 624.729C216.079 658.304 228.897 685.746 250.491 707.661C258.086 715.369 266.243 721.823 274.397 727.061C277.238 728.887 279.868 730.426 282.216 731.685C283.59 732.422 284.54 732.891 284.994 733.098C302.284 740.87 314.34 749.315 320.823 758.634C327.401 749.236 339.554 740.655 356.942 732.694C357.398 732.481 358.353 732.002 359.735 731.251C362.096 729.967 364.743 728.4 367.604 726.544C375.813 721.219 384.039 714.678 391.716 706.89C413.013 685.283 426.01 658.503 426.794 626.027C426.004 625 425.538 623.71 425.545 622.308C425.563 618.936 428.311 616.188 431.683 616.17C465.258 615.992 492.837 602.884 514.982 581.056C522.771 573.379 529.312 565.153 534.636 556.944C536.492 554.083 538.059 551.436 539.343 549.075C540.094 547.693 540.574 546.739 540.786 546.282C548.366 529.726 556.508 517.917 565.383 511.146C556.591 504.466 548.584 492.75 541.186 476.292C540.979 475.838 540.51 474.888 539.773 473.514C538.514 471.166 536.975 468.536 535.149 465.695C529.911 457.541 523.457 449.384 515.75 441.789C493.93 420.289 466.633 407.49 433.258 407.553C432.871 407.632 432.472 407.674 432.063 407.676C428.691 407.694 425.972 404.975 425.99 401.603C426.167 368.028 413.35 340.586 391.756 318.671C384.161 310.963 376.004 304.509 367.85 299.271C365.009 297.445 362.378 295.906 360.031 294.647C358.657 293.91 357.707 293.441 357.253 293.234C340.834 285.854 329.135 277.867 322.446 269.1C315.672 277.963 303.87 286.096 287.332 293.668C286.876 293.88 285.921 294.359 284.539 295.111C282.178 296.394 279.531 297.962 276.67 299.817C268.461 305.142 260.235 311.683 252.558 319.471C230.731 341.616 217.622 369.195 217.445 402.771C217.427 406.143 214.679 408.891 211.307 408.909C209.564 408.918 207.995 408.196 206.889 407.031C173.889 407.529 146.728 420.58 124.863 442.131C117.075 449.808 110.534 458.034 105.209 466.244C103.354 469.105 101.786 471.751 100.503 474.112C99.7512 475.494 99.2721 476.449 99.0599 476.905C91.1063 494.276 82.5346 506.421 73.1474 513.004C82.4647 519.488 90.9078 531.543 98.6775 548.83C98.8849 549.284 99.354 550.233 100.091 551.607C101.35 553.955 102.889 556.585 104.715 559.426C109.953 567.58 116.407 575.737 124.114 583.332ZM205.502 394.847C169.692 395.724 140.043 410.114 116.338 433.479C107.869 441.827 100.774 450.749 94.9851 459.675C91.4846 465.072 89.1749 469.32 87.9817 471.885C77.2239 495.381 66.3409 506.512 56.1215 506.566C52.7495 506.584 50.0014 509.332 49.9836 512.704C49.9829 512.842 49.9867 512.978 49.9949 513.113C49.984 513.256 49.9781 513.401 49.9773 513.548C49.9595 516.92 52.6786 519.639 56.0506 519.621C66.2701 519.567 77.0359 530.584 87.5456 553.967C88.7117 556.52 90.9765 560.743 94.4202 566.103C100.115 574.969 107.116 583.817 115.497 592.075C138.923 615.158 168.372 629.228 204.107 629.763C205.15 664.556 219.118 693.312 241.749 716.279C250.007 724.66 258.855 731.66 267.72 737.356C273.08 740.799 277.303 743.064 279.857 744.23C303.24 754.74 314.256 765.506 314.202 775.725C314.184 779.097 316.903 781.816 320.276 781.799C320.48 781.797 320.682 781.786 320.881 781.766C320.968 781.769 321.055 781.77 321.143 781.77C324.515 781.752 327.263 779.004 327.281 775.632C327.335 765.412 338.466 754.529 361.962 743.772C364.527 742.578 368.775 740.269 374.172 736.768C383.098 730.979 392.02 723.884 400.368 715.415C423.318 692.131 437.61 663.112 438.941 628.152C472.699 626.206 500.825 612.066 523.508 589.708C531.976 581.361 539.071 572.438 544.861 563.512C548.361 558.115 550.671 553.868 551.864 551.302C561.05 531.24 570.327 520.193 579.204 517.359C580.698 517.601 582.212 517.719 583.749 517.711C587.121 517.693 589.869 514.945 589.887 511.573C589.888 511.331 589.875 511.092 589.849 510.857C589.857 510.733 589.861 510.609 589.862 510.483C589.88 507.111 587.161 504.392 583.789 504.41C582.266 504.418 580.763 504.55 579.279 504.804C570.438 502.053 561.285 491.104 552.318 471.154C551.152 468.601 548.887 464.378 545.444 459.018C539.749 450.153 532.748 441.304 524.367 433.046C501.455 410.47 472.782 396.515 438.101 395.412C436.786 361.138 422.878 332.765 400.498 310.053C392.24 301.672 383.392 294.672 374.527 288.976C369.167 285.533 364.943 283.268 362.39 282.102C342.556 273.187 331.619 264.088 328.789 255.295C329.057 253.772 329.196 252.229 329.204 250.665C329.222 247.293 326.503 244.574 323.131 244.591C323.05 244.592 322.97 244.594 322.89 244.597C322.591 244.554 322.284 244.532 321.971 244.534C318.599 244.551 315.851 247.299 315.833 250.671C315.825 252.264 315.952 253.834 316.213 255.381C313.313 264.218 302.276 273.449 282.312 282.59C279.747 283.783 275.499 286.092 270.102 289.593C261.176 295.382 252.253 302.477 243.906 310.946C221.696 333.48 207.595 361.385 205.502 394.847Z"
    fill="#000" fill-opacity="0.15" />
  <path fill-rule="evenodd" clip-rule="evenodd"
    d="M351.188 616.636C355.202 604.797 355.351 583.669 351.383 553.667C350.638 552.497 350.29 551.062 350.498 549.571C350.964 546.226 354.05 543.864 357.39 544.295C390.591 548.581 413.963 548.457 427.083 544.167C433.855 541.952 440.172 537.384 451.509 527.325C459.24 520.466 464.812 515.71 469.42 512.48C464.845 509.298 459.32 504.599 451.657 497.818C440.426 487.878 434.157 483.376 427.408 481.233C415.459 477.439 394.91 477.215 366.082 480.744C364.769 482.039 362.897 482.735 360.942 482.473C360.123 482.364 359.367 482.096 358.698 481.706C358.37 481.751 358.042 481.796 357.712 481.842C354.368 482.309 351.307 479.979 350.876 476.64C350.445 473.3 352.807 470.215 356.151 469.748L356.59 469.687C360.177 442.322 360.034 422.905 356.367 411.782C354.355 405.677 350.082 399.942 340.642 389.663C333.651 382.051 328.965 376.72 325.908 372.297C322.804 376.76 318.055 382.149 310.964 389.856C301.415 400.236 297.08 406.017 295.003 412.143C290.951 424.095 290.838 445.513 294.922 475.97C295.37 479.307 293.023 482.404 289.681 482.887C288.236 483.096 286.841 482.781 285.687 482.088C253.14 477.964 230.185 478.137 217.228 482.374C210.456 484.589 204.139 489.157 192.802 499.216C185.093 506.056 179.53 510.804 174.93 514.034C179.492 517.215 185 521.901 192.625 528.649C203.857 538.589 210.126 543.091 216.875 545.234C229.515 549.248 251.78 549.265 283.288 545.072C284.537 543.09 286.864 541.904 289.322 542.234C292.659 542.681 294.973 545.753 294.49 549.096C290.084 579.597 289.97 601.016 293.896 612.925C295.908 619.03 300.181 624.765 309.622 635.044C316.266 642.28 320.829 647.454 323.89 651.747C326.752 648.238 330.461 644.105 335.227 638.923C344.777 628.543 349.111 622.763 351.188 616.636ZM158.441 520.235C164.09 520.678 169.669 524.725 184.478 537.831C196.976 548.892 204.153 554.045 213.067 556.876C227.274 561.387 249.82 561.584 281.047 557.659C277.778 584.602 278.133 604.235 282.294 616.858C285.032 625.166 289.977 631.802 300.588 643.356C310.255 653.883 314.722 659.31 316.419 663.561C315.41 666.278 315.018 668.935 315.002 672.018C314.984 675.39 317.703 678.109 321.075 678.091C324.187 678.075 326.767 675.734 327.161 672.723C328.575 671.597 329.488 669.865 329.498 667.927C329.503 666.916 329.468 665.952 329.383 665.017C331.707 661.061 336.189 655.819 344.174 647.139C354.907 635.473 359.923 628.784 362.749 620.447C367.243 607.19 367.651 586.301 364.183 557.432C394.642 560.853 416.728 560.361 430.767 555.769C439.712 552.844 446.944 547.614 459.56 536.421C475.544 522.239 480.864 518.526 486.963 518.494C490.335 518.476 493.083 515.728 493.1 512.356C493.109 510.767 492.51 509.323 491.521 508.242C490.411 507.024 488.807 506.265 487.019 506.274C480.921 506.306 475.64 502.65 459.804 488.636C447.307 477.575 440.13 472.422 431.216 469.591C417.912 465.367 397.295 464.925 369.086 468.109C372.494 440.62 372.184 420.637 367.969 407.849C365.231 399.541 360.286 392.905 349.676 381.351C336.433 366.931 332.948 362.081 332.976 356.715C332.994 353.343 330.275 350.624 326.903 350.642C326.556 350.644 326.216 350.675 325.885 350.732C325.633 350.702 325.377 350.687 325.116 350.688C321.744 350.706 318.996 353.454 318.978 356.826C318.95 362.191 315.413 367.079 302.017 381.64C291.284 393.306 286.269 399.995 283.443 408.332C279.056 421.273 278.562 441.486 281.767 469.296C250.46 465.672 227.833 466.098 213.543 470.772C204.599 473.697 197.367 478.927 184.751 490.12C169.792 503.393 164.173 507.496 158.515 507.994C158.126 507.983 157.73 507.98 157.328 507.982C153.956 508 151.208 510.748 151.19 514.12C151.187 514.769 151.285 515.393 151.469 515.979C152.223 518.471 154.537 520.273 157.284 520.258C157.676 520.256 158.061 520.249 158.441 520.235Z"
    fill="#D37760" fill-opacity="0.8" />
  <path fill-rule="evenodd" clip-rule="evenodd"
    d="M414.712 566.632C409.239 555.395 394.489 540.275 370.575 521.745C369.215 521.44 367.952 520.663 367.047 519.451C365.026 516.746 365.558 512.897 368.235 510.854C394.85 490.548 411.377 474.021 417.685 461.743C420.941 455.406 422.219 447.716 423.202 432.591C423.873 422.276 424.49 414.975 425.493 409.437C420.003 410.393 412.772 410.939 402.557 411.508C387.582 412.342 379.96 413.551 373.655 416.775C362.493 422.482 347.729 436.775 329.721 459.558C329.698 461.402 328.857 463.214 327.283 464.403C326.624 464.9 325.898 465.242 325.148 465.435C324.946 465.699 324.743 465.963 324.541 466.229C322.491 468.913 318.678 469.41 316.022 467.339C313.367 465.268 312.875 461.414 314.925 458.73L315.196 458.375C298.499 436.4 284.739 422.698 274.31 417.37C268.586 414.446 261.514 413.375 247.574 412.707C237.25 412.213 230.168 411.72 224.884 410.726C225.817 416.081 226.231 423.253 226.612 433.719C227.124 447.814 228.109 454.972 230.942 460.787C236.468 472.133 251.452 487.438 275.777 506.215C278.442 508.272 278.953 512.124 276.916 514.818C276.038 515.98 274.83 516.737 273.526 517.057C247.484 537.021 231.284 553.293 225.054 565.42C221.798 571.757 220.52 579.447 219.536 594.572C218.868 604.854 218.253 612.142 217.255 617.673C222.735 616.726 229.945 616.182 240.11 615.616C255.085 614.782 262.707 613.573 269.012 610.349C280.821 604.311 296.661 588.663 316.11 563.519C315.604 561.231 316.425 558.752 318.403 557.258C321.09 555.229 324.896 555.786 326.903 558.501C345.224 583.282 360.209 598.587 371.376 604.292C377.1 607.216 384.171 608.287 398.112 608.954C407.924 609.424 414.807 609.892 420.003 610.791C419.569 606.284 419.298 600.737 419.042 593.7C418.529 579.605 417.545 572.447 414.712 566.632ZM209.914 633.66C214.242 630.017 221.065 628.971 240.777 627.873C257.44 626.945 266.167 625.561 274.494 621.303C287.766 614.517 303.933 598.798 323.37 574.043C339.997 595.495 354.059 609.201 365.895 615.247C373.685 619.227 381.868 620.466 397.536 621.216C411.813 621.899 418.806 622.615 423.001 624.444C424.195 627.085 425.786 629.248 427.942 631.451C430.301 633.861 434.147 633.881 436.531 631.496C438.731 629.296 438.919 625.817 437.081 623.4C437.294 621.605 436.724 619.733 435.369 618.348C434.662 617.626 433.959 616.965 433.241 616.36C432.111 611.914 431.609 605.035 431.18 593.248C430.604 577.406 429.465 569.124 425.61 561.209C419.48 548.625 405.079 533.49 382.31 515.409C406.364 496.419 421.715 480.537 428.465 467.4C432.766 459.029 434.228 450.225 435.323 433.395C436.71 412.071 437.881 405.69 442.193 401.378C444.577 398.993 444.598 395.107 442.239 392.697C441.86 392.311 441.443 391.985 441 391.722C438.682 390.338 435.646 390.643 433.641 392.647C429.329 396.959 423.003 398.075 401.89 399.251C385.227 400.179 376.5 401.563 368.173 405.821C355.746 412.175 340.781 426.361 322.969 448.464C306.056 426.526 291.781 412.54 279.79 406.414C272.001 402.434 263.818 401.195 248.15 400.445C228.594 399.509 222.705 398.512 218.951 394.679C216.592 392.269 212.747 392.249 210.363 394.633C210.119 394.877 209.899 395.137 209.705 395.409C209.503 395.566 209.308 395.737 209.123 395.923C206.738 398.307 206.718 402.193 209.077 404.603C212.83 408.436 213.754 414.398 214.473 434.171C215.049 450.013 216.189 458.296 220.044 466.21C226.028 478.495 239.895 493.211 261.735 510.726C236.93 530.172 221.145 546.39 214.274 559.764C209.973 568.134 208.511 576.938 207.416 593.768C206.12 613.691 205.013 620.57 201.356 624.905C201.065 625.178 200.774 625.46 200.483 625.752C198.098 628.136 198.078 632.022 200.437 634.432C200.891 634.896 201.4 635.271 201.944 635.558C204.233 636.8 207.146 636.454 209.089 634.511C209.373 634.227 209.648 633.944 209.914 633.66Z"
    fill="#00C0C5" opacity="0.15" />
</svg>