<svg width="541" height="538" viewBox="0 0 541 538" fill="none" xmlns="http://www.w3.org/2000/svg">
  <path opacity="0.461565" fill-rule="evenodd" clip-rule="evenodd"
    d="M182.019 456.699C212.95 456.309 241.623 445.871 265.49 422.004C267.602 419.892 270.854 419.625 273.22 421.214C274.449 421.401 275.628 421.966 276.572 422.909C300.187 446.525 328.752 456.66 359.68 456.722C370.558 456.744 380.951 455.491 390.482 453.39C393.803 452.658 396.771 451.875 399.339 451.096C400.842 450.64 401.852 450.296 402.323 450.12C419.322 443.654 433.361 440.972 444.354 442.403C442.924 431.41 445.606 417.37 452.072 400.371C452.248 399.9 452.591 398.889 453.047 397.386C453.826 394.819 454.609 391.85 455.342 388.529C457.443 378.999 458.695 368.606 458.674 357.728C458.612 326.799 448.477 298.235 424.861 274.619C424.658 274.416 424.472 274.202 424.304 273.979C421.967 271.605 421.999 267.765 424.385 265.38C448.252 241.512 458.69 212.839 459.079 181.908C459.216 171.03 458.073 160.649 456.073 151.141C455.376 147.827 454.624 144.867 453.872 142.307C453.432 140.809 453.099 139.802 452.928 139.333C446.631 122.374 444.1 108.344 445.663 97.327C434.647 98.888 420.62 96.356 403.665 90.061C403.196 89.89 402.189 89.557 400.691 89.117C398.131 88.365 395.171 87.613 391.857 86.916C382.349 84.916 371.968 83.773 361.09 83.91C330.159 84.299 301.486 94.737 277.618 118.604C275.385 120.838 271.877 121.008 269.49 119.103C269.252 118.927 269.025 118.731 268.81 118.516C245.194 94.9 216.63 84.765 185.701 84.703C174.823 84.681 164.43 85.934 154.9 88.035C151.578 88.768 148.61 89.551 146.043 90.33C144.54 90.786 143.529 91.129 143.058 91.305C125.202 98.097 110.612 100.714 99.3881 98.775C101.327 109.999 98.7101 124.589 91.9181 142.445C91.7431 142.916 91.3991 143.927 90.9431 145.43C90.1641 147.997 89.3811 150.965 88.6491 154.287C86.5481 163.817 85.2951 174.21 85.3171 185.088C85.3751 214.078 94.2831 240.991 114.847 263.699C115.774 263.976 116.646 264.479 117.376 265.21C118.183 266.017 118.714 266.997 118.967 268.034L119.129 268.197C121.501 270.568 121.481 274.434 119.084 276.831C117.429 278.486 115.075 279.008 112.996 278.393C92.1931 301.318 83.0011 328.325 82.6361 357.316C82.4991 368.194 83.6421 378.574 85.6421 388.083C86.3391 391.397 87.0911 394.357 87.8431 396.916C88.2831 398.415 88.6161 399.422 88.7871 399.891C95.4041 417.711 97.8631 432.298 95.7821 443.552C107.037 441.472 121.623 443.931 139.443 450.548C139.913 450.719 140.92 451.051 142.418 451.492C144.977 452.244 147.937 452.995 151.251 453.692C160.76 455.693 171.14 456.836 182.019 456.699ZM437.117 269.649C460.517 244.2 470.885 214.043 471.289 181.933C471.438 170.104 470.199 158.845 468.024 148.506C466.709 142.255 465.356 137.65 464.394 135.011C456.741 114.397 455.579 100.076 459.98 91.831C461.179 90.965 462.309 90.0021 463.369 88.9411C465.766 86.5441 465.787 82.679 463.415 80.307C463.283 80.175 463.147 80.051 463.006 79.934C462.904 79.814 462.796 79.6971 462.682 79.5831C460.31 77.2111 456.445 77.232 454.048 79.629C452.989 80.687 452.028 81.815 451.163 83.011C442.917 87.41 428.597 86.247 407.987 78.595C405.348 77.633 400.743 76.28 394.492 74.965C384.153 72.79 372.894 71.5511 361.065 71.7001C328.958 72.1041 298.802 82.47 273.354 105.867C248.123 82.643 218.022 72.556 185.855 72.492C174.027 72.468 162.754 73.827 152.391 76.112C146.126 77.493 141.506 78.895 138.857 79.884C114.716 89.067 99.2311 89.325 92.0431 82.137C89.6711 79.765 85.8051 79.7861 83.4081 82.1831C83.3911 82.2001 83.3751 82.216 83.3591 82.233C83.3321 82.26 83.3051 82.288 83.2791 82.315C83.2221 82.376 83.1671 82.437 83.1131 82.499C83.0051 82.593 82.8991 82.6921 82.7961 82.7951C80.3991 85.1921 80.3791 89.058 82.7501 91.43C89.9381 98.618 89.6801 114.103 80.4981 138.244C79.5081 140.893 78.1061 145.513 76.7251 151.778C74.4401 162.141 73.0811 173.414 73.1051 185.242C73.1671 216.295 82.5701 245.423 104.115 270.103C81.0551 295.441 70.8271 325.403 70.4261 357.291C70.2771 369.12 71.5161 380.379 73.6911 390.718C75.0061 396.969 76.3591 401.574 77.3211 404.213C86.2491 428.258 86.3431 443.742 79.0791 451.006C76.6821 453.403 76.6611 457.269 79.0331 459.641C79.1441 459.751 79.2571 459.857 79.3741 459.957C79.4751 460.075 79.5821 460.19 79.6931 460.302C82.0651 462.674 85.9311 462.653 88.3281 460.256C95.5921 452.992 111.076 453.086 135.121 462.014C137.76 462.975 142.365 464.328 148.616 465.643C158.955 467.818 170.215 469.058 182.043 468.909C214.447 468.501 244.863 457.946 270.457 434.09C296.006 458.358 326.69 468.868 359.527 468.934C371.354 468.957 382.628 467.598 392.99 465.314C399.255 463.933 403.875 462.531 406.524 461.541C427.12 453.707 441.416 452.369 449.634 456.608C450.506 457.835 451.481 458.988 452.559 460.067C454.931 462.438 458.797 462.418 461.194 460.021C461.324 459.891 461.447 459.756 461.564 459.618C461.704 459.5 461.841 459.375 461.973 459.243C464.37 456.846 464.391 452.98 462.019 450.608C460.94 449.529 459.787 448.554 458.56 447.682C454.32 439.464 455.658 425.168 463.492 404.572C464.482 401.923 465.884 397.303 467.265 391.037C469.55 380.675 470.909 369.402 470.885 357.574C470.82 325.226 460.62 294.967 437.117 269.649Z"
    fill="#3A3A3B" fill-opacity="0.15" />
  <path opacity="0.551595" fill-rule="evenodd" clip-rule="evenodd"
    d="M75.1143 339.332C97.0303 360.926 124.471 373.744 158.047 373.566C159.359 373.559 160.572 373.966 161.563 374.665C164.757 374.844 167.274 377.484 167.257 380.729C167.079 414.304 179.897 441.746 201.491 463.661C209.086 471.369 217.243 477.823 225.397 483.061C228.238 484.887 230.868 486.426 233.216 487.685C234.59 488.422 235.54 488.891 235.994 489.098C253.284 496.87 265.34 505.315 271.823 514.634C278.401 505.236 290.554 496.655 307.942 488.694C308.398 488.481 309.353 488.002 310.735 487.251C313.096 485.967 315.743 484.4 318.604 482.544C326.813 477.219 335.039 470.678 342.716 462.89C364.013 441.283 377.01 414.503 377.794 382.027C377.004 381 376.538 379.71 376.545 378.308C376.563 374.936 379.311 372.188 382.683 372.17C416.258 371.992 443.837 358.884 465.982 337.056C473.771 329.379 480.312 321.153 485.636 312.944C487.492 310.083 489.059 307.436 490.343 305.075C491.094 303.693 491.574 302.739 491.786 302.282C499.366 285.726 507.508 273.917 516.383 267.146C507.591 260.466 499.584 248.75 492.186 232.292C491.979 231.838 491.51 230.888 490.773 229.514C489.514 227.166 487.975 224.536 486.149 221.695C480.911 213.541 474.457 205.384 466.75 197.789C444.93 176.289 417.633 163.49 384.258 163.553C383.871 163.632 383.472 163.674 383.063 163.676C379.691 163.694 376.972 160.975 376.99 157.603C377.167 124.028 364.35 96.5858 342.756 74.6708C335.161 66.9628 327.004 60.5088 318.85 55.2708C316.009 53.4448 313.378 51.9058 311.031 50.6468C309.657 49.9098 308.707 49.4408 308.253 49.2338C291.834 41.8538 280.135 33.8668 273.446 25.0998C266.672 33.9628 254.87 42.0958 238.332 49.6678C237.876 49.8798 236.921 50.3588 235.539 51.1108C233.178 52.3938 230.531 53.9618 227.67 55.8168C219.461 61.1418 211.235 67.6828 203.558 75.4708C181.731 97.6158 168.622 125.195 168.445 158.771C168.427 162.143 165.679 164.891 162.307 164.909C160.564 164.918 158.995 164.196 157.889 163.031C124.889 163.529 97.7283 176.58 75.8633 198.131C68.0753 205.808 61.5343 214.034 56.2093 222.244C54.3543 225.105 52.7863 227.751 51.5033 230.112C50.7515 231.494 50.2724 232.449 50.0602 232.905C42.1066 250.276 33.5349 262.421 24.1477 269.004C33.465 275.488 41.9081 287.543 49.6778 304.83C49.8852 305.284 50.3543 306.233 51.0913 307.607C52.3503 309.955 53.8893 312.585 55.7153 315.426C60.9533 323.58 67.4073 331.737 75.1143 339.332ZM156.502 150.847C120.692 151.724 91.0433 166.114 67.3383 189.479C58.8693 197.827 51.7743 206.749 45.9854 215.675C42.4849 221.072 40.1752 225.32 38.982 227.885C28.2242 251.381 17.3412 262.512 7.12183 262.566C3.74983 262.584 1.00173 265.332 0.983928 268.704C0.983228 268.842 0.987027 268.978 0.995227 269.113C0.984327 269.256 0.978426 269.401 0.977626 269.548C0.959826 272.92 3.67893 275.639 7.05093 275.621C17.2704 275.567 28.0362 286.584 38.5459 309.967C39.712 312.52 41.9768 316.743 45.4205 322.103C51.1153 330.969 58.1163 339.817 66.4973 348.075C89.9233 371.158 119.372 385.228 155.107 385.763C156.15 420.556 170.118 449.312 192.749 472.279C201.007 480.66 209.855 487.66 218.72 493.356C224.08 496.799 228.303 499.064 230.857 500.23C254.24 510.74 265.256 521.506 265.202 531.725C265.184 535.097 267.903 537.816 271.276 537.799C271.48 537.797 271.682 537.786 271.881 537.766C271.968 537.769 272.055 537.77 272.143 537.77C275.515 537.752 278.263 535.004 278.281 531.632C278.335 521.412 289.466 510.529 312.962 499.772C315.527 498.578 319.775 496.269 325.172 492.768C334.098 486.979 343.02 479.884 351.368 471.415C374.318 448.131 388.61 419.112 389.941 384.152C423.699 382.206 451.825 368.066 474.508 345.708C482.976 337.361 490.071 328.438 495.861 319.512C499.361 314.115 501.671 309.868 502.864 307.302C512.05 287.24 521.327 276.193 530.204 273.359C531.698 273.601 533.212 273.719 534.749 273.711C538.121 273.693 540.869 270.945 540.887 267.573C540.888 267.331 540.875 267.092 540.849 266.857C540.857 266.733 540.861 266.609 540.862 266.483C540.88 263.111 538.161 260.392 534.789 260.41C533.266 260.418 531.763 260.55 530.279 260.804C521.438 258.053 512.285 247.104 503.318 227.154C502.152 224.601 499.887 220.378 496.444 215.018C490.749 206.153 483.748 197.304 475.367 189.046C452.455 166.47 423.782 152.515 389.101 151.412C387.786 117.138 373.878 88.7648 351.498 66.0528C343.24 57.6718 334.392 50.6718 325.527 44.9758C320.167 41.5328 315.943 39.2678 313.39 38.1018C293.556 29.1868 282.619 20.0878 279.789 11.2948C280.057 9.77182 280.196 8.22881 280.204 6.66481C280.222 3.29281 277.503 0.573823 274.131 0.590823C274.05 0.591823 273.97 0.59382 273.89 0.59682C273.591 0.55382 273.284 0.531817 272.971 0.533817C269.599 0.550817 266.851 3.29883 266.833 6.67083C266.825 8.26383 266.952 9.83382 267.213 11.3808C264.313 20.2178 253.276 29.4488 233.312 38.5898C230.747 39.7828 226.499 42.0918 221.102 45.5928C212.176 51.3818 203.253 58.4768 194.906 66.9458C172.696 89.4798 158.595 117.385 156.502 150.847Z"
    fill="#000" fill-opacity="0.15" />
  <path fill-rule="evenodd" clip-rule="evenodd"
    d="M302.188 372.636C306.201 360.797 306.351 339.669 302.383 309.667C301.638 308.497 301.289 307.062 301.497 305.571C301.963 302.226 305.05 299.864 308.39 300.295C341.591 304.581 364.963 304.457 378.083 300.167C384.855 297.952 391.172 293.384 402.509 283.325C410.24 276.466 415.812 271.71 420.42 268.48C415.845 265.298 410.32 260.599 402.657 253.818C391.426 243.878 385.157 239.376 378.408 237.233C366.459 233.439 345.91 233.215 317.082 236.744C315.769 238.039 313.896 238.735 311.941 238.473C311.122 238.364 310.367 238.096 309.698 237.706C309.37 237.751 309.042 237.796 308.712 237.842C305.368 238.309 302.307 235.979 301.876 232.64C301.445 229.3 303.807 226.215 307.151 225.748L307.59 225.687C311.177 198.322 311.034 178.905 307.367 167.782C305.355 161.677 301.082 155.942 291.642 145.663C284.651 138.051 279.965 132.72 276.908 128.297C273.804 132.76 269.055 138.149 261.964 145.856C252.415 156.236 248.08 162.017 246.003 168.143C241.951 180.095 241.838 201.513 245.922 231.97C246.37 235.307 244.023 238.404 240.681 238.887C239.236 239.096 237.841 238.781 236.687 238.088C204.14 233.964 181.185 234.137 168.228 238.374C161.456 240.589 155.139 245.157 143.802 255.216C136.093 262.056 130.53 266.804 125.93 270.034C130.492 273.215 136 277.901 143.625 284.649C154.857 294.589 161.126 299.091 167.875 301.234C180.515 305.248 202.78 305.265 234.288 301.072C235.537 299.09 237.864 297.904 240.322 298.234C243.659 298.681 245.973 301.753 245.49 305.096C241.084 335.597 240.97 357.016 244.896 368.925C246.908 375.03 251.181 380.765 260.622 391.044C267.266 398.28 271.829 403.454 274.89 407.747C277.752 404.238 281.461 400.105 286.227 394.923C295.777 384.543 300.111 378.763 302.188 372.636ZM109.441 276.235C115.09 276.678 120.669 280.725 135.478 293.831C147.976 304.892 155.153 310.045 164.067 312.876C178.274 317.387 200.82 317.584 232.047 313.659C228.778 340.602 229.133 360.235 233.294 372.858C236.032 381.166 240.977 387.802 251.588 399.356C261.255 409.883 265.722 415.31 267.419 419.561C266.41 422.278 266.018 424.935 266.002 428.018C265.984 431.39 268.703 434.109 272.075 434.091C275.187 434.075 277.767 431.734 278.161 428.723C279.575 427.597 280.487 425.865 280.497 423.927C280.502 422.916 280.468 421.952 280.383 421.017C282.707 417.061 287.189 411.819 295.174 403.139C305.907 391.473 310.923 384.784 313.749 376.447C318.243 363.19 318.651 342.301 315.183 313.432C345.642 316.853 367.728 316.361 381.767 311.769C390.712 308.844 397.944 303.614 410.56 292.421C426.544 278.239 431.864 274.526 437.963 274.494C441.335 274.476 444.083 271.728 444.1 268.356C444.109 266.767 443.51 265.323 442.521 264.242C441.411 263.024 439.807 262.265 438.019 262.274C431.921 262.306 426.639 258.65 410.803 244.636C398.306 233.575 391.13 228.422 382.216 225.591C368.912 221.367 348.295 220.925 320.086 224.109C323.494 196.62 323.184 176.637 318.969 163.849C316.231 155.541 311.286 148.905 300.676 137.351C287.433 122.931 283.948 118.081 283.976 112.715C283.994 109.343 281.275 106.624 277.903 106.642C277.556 106.644 277.216 106.675 276.885 106.732C276.633 106.702 276.377 106.687 276.116 106.688C272.744 106.706 269.996 109.454 269.978 112.826C269.95 118.191 266.413 123.079 253.017 137.64C242.284 149.306 237.269 155.995 234.443 164.332C230.056 177.273 229.562 197.486 232.767 225.296C201.46 221.672 178.833 222.098 164.543 226.772C155.599 229.697 148.367 234.927 135.751 246.12C120.792 259.393 115.173 263.496 109.515 263.994C109.126 263.983 108.73 263.98 108.328 263.982C104.956 264 102.208 266.748 102.19 270.12C102.187 270.769 102.285 271.393 102.469 271.979C103.223 274.471 105.537 276.273 108.284 276.258C108.676 276.256 109.061 276.249 109.441 276.235Z"
    fill="#D37760" fill-opacity="0.8" />
  <path fill-rule="evenodd" clip-rule="evenodd"
    d="M365.712 322.632C360.239 311.395 345.489 296.275 321.575 277.745C320.215 277.44 318.952 276.663 318.047 275.451C316.026 272.746 316.558 268.897 319.235 266.854C345.85 246.548 362.377 230.021 368.685 217.743C371.941 211.406 373.219 203.716 374.202 188.591C374.873 178.276 375.49 170.975 376.493 165.437C371.003 166.393 363.772 166.939 353.557 167.508C338.582 168.342 330.96 169.551 324.655 172.775C313.493 178.482 298.729 192.775 280.721 215.558C280.698 217.402 279.857 219.214 278.283 220.403C277.624 220.9 276.898 221.242 276.148 221.435C275.946 221.699 275.743 221.963 275.541 222.229C273.491 224.913 269.678 225.41 267.022 223.339C264.367 221.268 263.875 217.414 265.925 214.73L266.196 214.375C249.499 192.4 235.739 178.698 225.31 173.37C219.586 170.446 212.514 169.375 198.574 168.707C188.25 168.213 181.168 167.72 175.884 166.726C176.817 172.081 177.231 179.253 177.612 189.719C178.124 203.814 179.109 210.972 181.942 216.787C187.468 228.133 202.452 243.438 226.777 262.215C229.442 264.272 229.953 268.124 227.916 270.818C227.038 271.98 225.83 272.737 224.526 273.057C198.484 293.021 182.284 309.293 176.054 321.42C172.798 327.757 171.52 335.447 170.536 350.572C169.868 360.854 169.253 368.142 168.255 373.673C173.735 372.726 180.945 372.182 191.11 371.616C206.085 370.782 213.707 369.573 220.012 366.349C231.821 360.311 247.661 344.663 267.11 319.519C266.604 317.231 267.425 314.752 269.403 313.258C272.09 311.229 275.896 311.786 277.903 314.501C296.224 339.282 311.209 354.587 322.376 360.292C328.1 363.216 335.171 364.287 349.112 364.954C358.924 365.424 365.807 365.892 371.003 366.791C370.569 362.284 370.298 356.737 370.042 349.7C369.529 335.605 368.545 328.447 365.712 322.632ZM160.914 389.66C165.242 386.017 172.065 384.971 191.777 383.873C208.44 382.945 217.167 381.561 225.494 377.303C238.766 370.517 254.933 354.798 274.37 330.043C290.997 351.495 305.059 365.201 316.895 371.247C324.685 375.227 332.868 376.466 348.536 377.216C362.813 377.899 369.806 378.615 374.001 380.444C375.195 383.085 376.786 385.248 378.942 387.451C381.301 389.861 385.147 389.881 387.531 387.496C389.731 385.296 389.919 381.817 388.081 379.4C388.294 377.605 387.724 375.733 386.369 374.348C385.662 373.626 384.959 372.965 384.241 372.36C383.111 367.914 382.609 361.035 382.18 349.248C381.604 333.406 380.465 325.124 376.61 317.209C370.48 304.625 356.079 289.49 333.31 271.409C357.364 252.419 372.715 236.537 379.465 223.4C383.766 215.029 385.228 206.225 386.323 189.395C387.71 168.071 388.881 161.69 393.193 157.378C395.577 154.993 395.598 151.107 393.239 148.697C392.86 148.311 392.443 147.985 392 147.722C389.682 146.338 386.646 146.643 384.641 148.647C380.329 152.959 374.003 154.075 352.89 155.251C336.227 156.179 327.5 157.563 319.173 161.821C306.746 168.175 291.781 182.361 273.969 204.464C257.056 182.526 242.781 168.54 230.79 162.414C223.001 158.434 214.818 157.195 199.15 156.445C179.594 155.509 173.705 154.512 169.951 150.679C167.592 148.269 163.747 148.249 161.363 150.633C161.119 150.877 160.899 151.137 160.705 151.409C160.503 151.566 160.308 151.737 160.123 151.923C157.738 154.307 157.718 158.193 160.077 160.603C163.83 164.436 164.754 170.398 165.473 190.171C166.049 206.013 167.189 214.296 171.044 222.21C177.028 234.495 190.895 249.211 212.735 266.726C187.93 286.172 172.145 302.39 165.274 315.764C160.973 324.134 159.511 332.938 158.416 349.768C157.12 369.691 156.013 376.57 152.356 380.905C152.065 381.178 151.774 381.46 151.483 381.752C149.098 384.136 149.078 388.022 151.437 390.432C151.891 390.896 152.4 391.271 152.944 391.558C155.233 392.8 158.146 392.454 160.089 390.511C160.373 390.227 160.648 389.944 160.914 389.66Z"
    fill="#00C0C5" opacity="0.15" />
</svg>