<svg width="133" height="34" viewBox="0 0 133 34" fill="none" xmlns="http://www.w3.org/2000/svg">
<path d="M42.3509 24.0565L39.3645 18.9371H37.1603V24.0565H34.2451V9.31445H40.1467C41.4976 9.31445 42.659 9.78847 43.6307 10.7365C44.5788 11.6846 45.0528 12.8459 45.0528 14.1969C45.0528 15.0975 44.7921 15.9508 44.2707 16.7329C43.7492 17.515 43.0619 18.1076 42.2087 18.4868L45.4794 24.0328H42.3509V24.0565ZM37.1603 12.0401V16.4011H40.1467C40.6918 16.4011 41.1658 16.1878 41.5687 15.7611C41.9717 15.3345 42.1613 14.8131 42.1613 14.2206C42.1613 13.628 41.9717 13.1066 41.5687 12.68C41.1658 12.2534 40.7155 12.0401 40.1467 12.0401H37.1603Z" fill="white"/>
<path d="M48.8193 19.9064C49.1748 21.2336 50.1702 21.8735 51.7819 21.8735C52.8247 21.8735 53.6069 21.518 54.1283 20.8307L56.3088 22.0869C55.266 23.58 53.7491 24.3385 51.7108 24.3385C49.9806 24.3385 48.5823 23.817 47.5157 22.7505C46.4729 21.7076 45.9277 20.3804 45.9277 18.7687C45.9277 17.1807 46.4492 15.8535 47.492 14.8106C48.5349 13.7441 49.8621 13.2227 51.4975 13.2227C53.0381 13.2227 54.3179 13.7678 55.3134 14.8343C56.3088 15.9009 56.8302 17.2281 56.8302 18.7924C56.8302 19.1479 56.8065 19.5034 56.7354 19.9064H48.8193ZM48.7956 17.797H54.152C53.9861 17.0859 53.678 16.5408 53.204 16.1853C52.7299 15.8298 52.1611 15.6639 51.5449 15.6639C50.8102 15.6639 50.2176 15.8535 49.7436 16.2327C49.2459 16.5882 48.9378 17.1333 48.7956 17.797Z" fill="white"/>
<path d="M64.6298 13.2227C65.7912 13.2227 66.7392 13.6019 67.4739 14.384C68.2324 15.1661 68.6116 16.2327 68.6116 17.5837V24.054H65.886V17.9155C65.886 17.2044 65.6964 16.683 65.3172 16.3038C64.9379 15.9246 64.4402 15.735 63.8003 15.735C63.0892 15.735 62.5441 15.9483 62.1175 16.3986C61.6909 16.8252 61.4776 17.4888 61.4776 18.3658V24.054H58.752V13.5308H61.4776V14.7158C62.1412 13.7204 63.1841 13.2227 64.6298 13.2227Z" fill="white"/>
<path d="M73.2118 19.9064C73.5674 21.2336 74.5628 21.8735 76.1745 21.8735C77.2173 21.8735 77.9995 21.518 78.5209 20.8307L80.7014 22.0869C79.6585 23.58 78.1417 24.3385 76.1034 24.3385C74.3732 24.3385 72.9748 23.817 71.9083 22.7505C70.8654 21.7076 70.3203 20.3804 70.3203 18.7687C70.3203 17.1807 70.8417 15.8535 71.8846 14.8106C72.9274 13.7441 74.2547 13.2227 75.8901 13.2227C77.4306 13.2227 78.7105 13.7678 79.7059 14.8343C80.7014 15.9009 81.2228 17.2281 81.2228 18.7924C81.2228 19.1479 81.1991 19.5034 81.128 19.9064H73.2118ZM73.1644 17.797H78.5209C78.355 17.0859 78.0469 16.5408 77.5728 16.1853C77.0988 15.8298 76.53 15.6639 75.9138 15.6639C75.179 15.6639 74.5865 15.8535 74.1125 16.2327C73.6385 16.5882 73.3303 17.1333 73.1644 17.797Z" fill="white"/>
<path d="M94.5647 13.5312H97.1719L94.0907 24.0545H91.4599L89.469 17.6789L87.4781 24.0545H84.8236L81.7188 13.5312H84.5866L86.3879 20.0016L88.3077 13.5312H90.8674L92.7872 20.0253L94.5647 13.5312Z" fill="white"/>
<g opacity="0.65">
<path d="M110.81 24.1763V14.9092L106.852 21.4507L106.378 21.4744L102.42 14.9566V24.1763H99.291V9.19727H102.467L106.615 16.0469L110.762 9.19727H113.938V24.1763H110.81Z" fill="white"/>
<path d="M113.82 9.31514V24.0572H110.928V14.482L106.78 21.3079H106.449L102.301 14.5057V24.0335H99.3857V9.31514H102.372L106.591 16.2833L110.786 9.31514H113.82ZM114.057 9.07812H113.82H110.81H110.667L110.596 9.19663L106.591 15.8092L102.562 9.19663L102.491 9.07812H102.348H99.362H99.125V9.31514V24.0572V24.2942H99.362H102.277H102.514V24.0572V15.3826L106.235 21.4738L106.306 21.5923H106.449H106.78H106.899L106.97 21.4738L110.691 15.3589V24.0809V24.3179H110.928H113.82H114.057V24.0809V9.31514V9.07812Z" fill="white"/>
</g>
<g opacity="0.65">
<path d="M121.643 24.4622C119.89 24.4622 118.444 23.9171 117.377 22.8505C116.311 21.784 115.766 20.4093 115.766 18.7976C115.766 17.186 116.311 15.835 117.354 14.7447C118.42 13.6782 119.795 13.1094 121.43 13.1094C122.994 13.1094 124.322 13.6545 125.341 14.7447C126.36 15.835 126.881 17.186 126.881 18.7739C126.881 19.1294 126.834 19.5087 126.763 19.9116L126.739 20.0064H118.87C119.25 21.1677 120.174 21.7366 121.691 21.7366C122.686 21.7366 123.445 21.4047 123.942 20.7411L124.014 20.6463L126.407 22.021L126.336 22.1158C125.293 23.6801 123.705 24.4622 121.643 24.4622ZM123.895 17.6837C123.729 17.0675 123.445 16.6171 123.018 16.309C122.568 15.9772 122.023 15.8113 121.43 15.8113C120.743 15.8113 120.15 16.0009 119.7 16.3327C119.273 16.6645 118.989 17.1149 118.823 17.6837H123.895Z" fill="white"/>
<path d="M121.431 13.2272C122.971 13.2272 124.251 13.7724 125.247 14.8389C126.242 15.9055 126.764 17.2327 126.764 18.797C126.764 19.1525 126.74 19.508 126.669 19.9109H118.729C119.084 21.2382 120.08 21.8781 121.691 21.8781C122.734 21.8781 123.516 21.5226 124.038 20.8353L126.218 22.0914C125.176 23.5846 123.659 24.343 121.62 24.343C119.89 24.343 118.492 23.8216 117.425 22.7551C116.382 21.7122 115.837 20.385 115.837 18.7733C115.837 17.1853 116.359 15.8581 117.402 14.8152C118.492 13.7724 119.819 13.2272 121.431 13.2272ZM118.681 17.8016H124.038C123.872 17.0905 123.564 16.5454 123.09 16.1899C122.616 15.8344 122.047 15.6685 121.431 15.6685C120.696 15.6685 120.104 15.8581 119.63 16.2373C119.155 16.5928 118.847 17.1379 118.681 17.8016ZM121.431 12.9902C119.748 12.9902 118.35 13.5591 117.259 14.6493C116.169 15.7396 115.624 17.1379 115.624 18.7733C115.624 20.4324 116.169 21.8307 117.283 22.921C118.373 24.0112 119.843 24.5801 121.644 24.5801C123.73 24.5801 125.341 23.7979 126.432 22.2337L126.574 22.0203L126.361 21.9018L124.18 20.6457L123.99 20.5509L123.872 20.7168C123.374 21.3567 122.663 21.6648 121.691 21.6648C120.317 21.6648 119.44 21.1671 119.061 20.1717H126.669H126.858L126.882 19.982C126.953 19.5791 127.001 19.1762 127.001 18.8207C127.001 17.1853 126.479 15.8107 125.436 14.6967C124.393 13.5591 123.042 12.9902 121.431 12.9902ZM118.99 17.5645C119.155 17.0905 119.416 16.7113 119.772 16.4269C120.198 16.0951 120.767 15.9292 121.431 15.9292C122 15.9292 122.497 16.0951 122.948 16.4032C123.327 16.6639 123.588 17.0668 123.73 17.5645H118.99Z" fill="white"/>
</g>
<g opacity="0.65">
<path d="M130.106 9.3125V9.69172H129.561V11.3745H129.158V9.69172H128.613V9.3125H130.106Z" fill="white"/>
<path d="M132.358 9.3125V11.3745H131.955V10.0472L131.363 10.9953H131.316L130.747 10.0472V11.3745H130.344V9.3125H130.77L131.363 10.2842L131.955 9.3125H132.358Z" fill="white"/>
</g>
<g opacity="0.6">
<path d="M17.01 4.81123L17.028 4.81055C17.1765 4.81055 17.2968 4.93092 17.2968 5.07941C17.2968 5.52944 17.7845 6.0061 18.8167 6.47436C18.9294 6.52631 19.1159 6.62703 19.3527 6.77993C19.7444 7.0328 20.1357 7.34316 20.5013 7.71415C21.4846 8.71184 22.1017 9.95307 22.1755 11.4473C23.6922 11.5094 24.9509 12.1295 25.9602 13.1242C26.3312 13.4898 26.6416 13.8811 26.8944 14.2728C27.0473 14.5097 27.1481 14.6962 27.2 14.8089C27.6683 15.841 28.1449 16.3287 28.595 16.3287C28.7434 16.3287 28.8638 16.4491 28.8638 16.5976C28.8638 16.6041 28.8636 16.6105 28.8631 16.6169L28.8638 16.6348C28.8638 16.7833 28.7434 16.9037 28.595 16.9037C28.1449 16.9037 27.6683 17.3914 27.2 18.4235C27.1481 18.5362 27.0473 18.7228 26.8944 18.9596C26.6416 19.3513 26.3312 19.7426 25.9602 20.1082C24.9515 21.1024 23.6937 21.7223 22.1773 21.7847C22.1137 23.2977 21.4941 24.5534 20.5013 25.5608C20.1357 25.9318 19.7444 26.2422 19.3527 26.495C19.1159 26.6479 18.9294 26.7486 18.8167 26.8006C17.9321 27.2019 17.4474 27.6094 17.3269 28.0009C17.3382 28.065 17.3434 28.1298 17.3434 28.1955C17.3434 28.344 17.223 28.4644 17.0745 28.4644L17.0507 28.4623L17.028 28.4644C16.898 28.4644 16.7896 28.3722 16.7646 28.2497L16.7591 28.1955C16.7591 28.1303 16.7643 28.0659 16.7745 28.0023C16.6562 27.6103 16.1714 27.2024 15.2858 26.8006C15.1731 26.7486 14.9866 26.6479 14.7498 26.495C14.358 26.2422 13.9668 25.9318 13.6012 25.5608C12.6088 24.5539 11.9893 23.2988 11.9251 21.7861C10.3962 21.7302 9.1288 21.1087 8.11356 20.1082C7.74257 19.7426 7.43221 19.3513 7.17934 18.9596C7.02645 18.7228 6.92573 18.5362 6.87378 18.4235C6.47247 17.539 6.065 17.0543 5.67342 16.9338C5.60941 16.945 5.54455 16.9503 5.47883 16.9503C5.33034 16.9503 5.20996 16.8299 5.20996 16.6814L5.21211 16.6576L5.20996 16.6348C5.20996 16.5049 5.30212 16.3965 5.42464 16.3714L5.47883 16.366C5.54409 16.366 5.6085 16.3711 5.67207 16.3814C6.06406 16.2631 6.47201 15.7783 6.87378 14.8927C6.92573 14.78 7.02645 14.5935 7.17934 14.3567C7.43221 13.9649 7.74257 13.5737 8.11356 13.208C9.10959 12.2264 10.3483 11.6097 11.8392 11.5342L11.8386 11.5495L11.8396 11.5311C11.894 9.99944 12.5157 8.73044 13.5173 7.71415C13.8829 7.34316 14.2742 7.0328 14.6659 6.77993C14.9028 6.62703 15.0893 6.52631 15.202 6.47436C16.2342 6.0061 16.7218 5.52944 16.7218 5.07941C16.7218 4.93092 16.8422 4.81055 16.9907 4.81055C16.9972 4.81055 17.0036 4.81078 17.01 4.81123ZM17.0085 5.8294C16.7227 6.24176 16.1895 6.61682 15.4256 6.96339C15.4056 6.97262 15.3636 6.9935 15.303 7.02627C15.1993 7.08226 15.0831 7.15066 14.9576 7.23171C14.5973 7.46428 14.2366 7.7504 13.9003 8.0916C12.967 9.03867 12.4008 10.2157 12.3744 11.6467C12.4035 11.6894 12.42 11.7404 12.42 11.7953C12.42 11.9438 12.2996 12.0641 12.1511 12.0641C10.6726 12.0641 9.46114 12.635 8.49101 13.591C8.14982 13.9273 7.86369 14.288 7.63112 14.6483C7.55007 14.7738 7.48167 14.89 7.42569 14.9937C7.39292 15.0544 7.37204 15.0963 7.3628 15.1164C7.03241 15.8446 6.67611 16.3632 6.2863 16.6591C6.67611 16.9531 7.03241 17.4716 7.3628 18.1999C7.37204 18.22 7.39292 18.2619 7.42569 18.3226C7.48167 18.4262 7.55007 18.5424 7.63112 18.668C7.86369 19.0283 8.14982 19.389 8.49101 19.7252C9.46114 20.6813 10.6726 21.2521 12.1511 21.2521L12.1835 21.2544C12.1851 21.2544 12.1868 21.2544 12.1884 21.2544C12.3369 21.2544 12.4573 21.3748 12.4573 21.5233C12.4573 23.0018 13.0281 24.2132 13.9841 25.1834C14.3204 25.5245 14.6811 25.8107 15.0414 26.0432C15.167 26.1243 15.2831 26.1927 15.3868 26.2487C15.4475 26.2815 15.4894 26.3023 15.5095 26.3116C16.2377 26.642 16.7563 26.9983 17.0522 27.3881C17.3462 26.9983 17.8648 26.642 18.593 26.3116C18.6131 26.3023 18.655 26.2815 18.7157 26.2487C18.8193 26.1927 18.9355 26.1243 19.0611 26.0432C19.4214 25.8107 19.7821 25.5245 20.1183 25.1834C21.0744 24.2132 21.6452 23.0018 21.6452 21.5233C21.6452 21.3931 21.7377 21.2845 21.8606 21.2597C21.8802 21.2547 21.9011 21.2521 21.9227 21.2521C23.4012 21.2521 24.6126 20.6813 25.5828 19.7252C25.924 19.389 26.2101 19.0283 26.4427 18.668C26.5237 18.5424 26.5921 18.4262 26.6481 18.3226C26.6809 18.2619 26.7017 18.22 26.711 18.1999C27.0575 17.436 27.4326 16.9028 27.845 16.6154C27.4326 16.3296 27.0575 15.7964 26.711 15.0325C26.7017 15.0125 26.6809 14.9705 26.6481 14.9099C26.5921 14.8062 26.5237 14.69 26.4427 14.5644C26.2101 14.2042 25.924 13.8434 25.5828 13.5072C24.6407 12.5788 23.4711 12.0136 22.0503 11.9817C22.0103 12.0071 21.9638 12.0206 21.9141 12.0206C21.7656 12.0206 21.6452 11.9002 21.6452 11.7517C21.6452 10.2732 21.0744 9.06172 20.1183 8.0916C19.7821 7.7504 19.4214 7.46428 19.0611 7.23171C18.9355 7.15066 18.8193 7.08226 18.7157 7.02627C18.655 6.9935 18.6131 6.97262 18.593 6.96339C17.8291 6.61682 17.2959 6.24176 17.0085 5.8294Z" fill="white"/>
</g>
<g opacity="0.551595">
<path d="M25.3303 8.50407L25.3434 8.51621C25.4477 8.62056 25.4477 8.78974 25.3434 8.89408C25.0271 9.21032 25.0348 9.88797 25.4311 10.9424C25.4738 11.0581 25.5341 11.2599 25.5931 11.5338C25.6907 11.9868 25.7475 12.4798 25.7437 12.9974C25.7335 14.4048 25.2853 15.7242 24.2636 16.8337C25.2821 17.9419 25.7291 19.2596 25.7393 20.6651C25.7431 21.1828 25.6862 21.6758 25.5887 22.1288C25.5297 22.4027 25.4694 22.6045 25.4267 22.7202C25.0867 23.6249 25.0327 24.2522 25.224 24.6119C25.2769 24.6483 25.3258 24.6899 25.3716 24.7358C25.476 24.8401 25.476 25.0093 25.3716 25.1137L25.3534 25.1289L25.3389 25.1464C25.2476 25.2377 25.1067 25.2491 25.003 25.1806L24.9611 25.1464C24.9149 25.1002 24.873 25.051 24.8353 24.9987C24.476 24.8076 23.8491 24.8618 22.9455 25.2014C22.8298 25.2441 22.628 25.3044 22.3541 25.3634C21.9011 25.461 21.408 25.5178 20.8904 25.514C19.4856 25.5038 18.1684 25.0572 17.0602 24.0394C15.9464 25.0744 14.6191 25.5283 13.2025 25.5386C12.6849 25.5424 12.1919 25.4856 11.7389 25.388C11.465 25.329 11.2632 25.2687 11.1475 25.226C10.2428 24.886 9.61548 24.832 9.25582 25.0233C9.21937 25.0763 9.17775 25.1251 9.13191 25.171C9.02756 25.2753 8.85838 25.2753 8.75403 25.171L8.73877 25.1528L8.72131 25.1383C8.63001 25.047 8.61859 24.906 8.68707 24.8023L8.72131 24.7604C8.76748 24.7142 8.81672 24.6723 8.86901 24.6347C9.06012 24.2754 9.00588 23.6484 8.66628 22.7448C8.62358 22.6291 8.5633 22.4273 8.5043 22.1534C8.40673 21.7004 8.34986 21.2074 8.35364 20.6897C8.36378 19.2999 8.80096 17.9959 9.79577 16.8952L9.94584 17.0507C8.79983 15.9047 8.30113 14.5173 8.29029 13.0318C8.28652 12.5141 8.34338 12.0211 8.44095 11.5681C8.49995 11.2942 8.56024 11.0924 8.60293 10.9767C8.9992 9.92229 9.00692 9.24464 8.69068 8.9284C8.58634 8.82406 8.58634 8.65487 8.69068 8.55053C8.69525 8.54596 8.69994 8.5416 8.70474 8.53743L8.71688 8.52433C8.82123 8.41998 8.99041 8.41998 9.09476 8.52433C9.411 8.84057 10.0886 8.83284 11.143 8.43658C11.2587 8.39388 11.4606 8.3336 11.7345 8.2746C12.1874 8.17702 12.6805 8.12016 13.1981 8.12394C14.5901 8.13409 15.8959 8.57259 16.9977 9.57061C18.1075 8.5486 19.4277 8.09989 20.8359 8.08962C21.3536 8.08584 21.8466 8.1427 22.2996 8.24028C22.5735 8.29928 22.7753 8.35956 22.891 8.40226C23.9454 8.79853 24.623 8.80625 24.9393 8.49001C25.0436 8.38566 25.2128 8.38566 25.3172 8.49001C25.3217 8.49457 25.3261 8.49926 25.3303 8.50407ZM24.6136 9.21874C24.1638 9.30001 23.5901 9.21341 22.8966 8.97256L22.7045 8.90305L22.6562 8.88656C22.6344 8.87946 22.607 8.87086 22.5741 8.86105C22.4619 8.82754 22.3322 8.79397 22.187 8.76269C21.7704 8.67295 21.3159 8.62052 20.8398 8.624C19.5252 8.63359 18.306 9.05848 17.2851 10.0348C17.2751 10.0804 17.2519 10.1225 17.2171 10.1574C17.1127 10.2617 16.9436 10.2617 16.8392 10.1574C15.8002 9.11836 14.5478 8.6682 13.1942 8.65832C12.7182 8.65484 12.2636 8.70727 11.847 8.79701C11.7018 8.82828 11.5721 8.86186 11.4599 8.89537C11.4271 8.90518 11.3996 8.91378 11.3778 8.92088L11.3295 8.93737C10.5493 9.2306 9.91117 9.34171 9.41942 9.25404C9.50068 9.70392 9.41409 10.2776 9.17323 10.9711L9.10373 11.1632L9.08724 11.2115C9.08014 11.2333 9.07153 11.2607 9.06173 11.2936C9.02822 11.4057 8.99464 11.5355 8.96336 11.6806C8.87362 12.0972 8.8212 12.5518 8.82467 13.0279C8.83432 14.3492 9.2635 15.5741 10.2504 16.5982C10.3011 16.6079 10.3485 16.6322 10.3871 16.6708C10.4914 16.7751 10.4914 16.9443 10.3871 17.0486C9.34806 18.0876 8.8979 19.3401 8.88802 20.6936C8.88455 21.1697 8.93697 21.6243 9.02671 22.0409C9.05799 22.186 9.09157 22.3158 9.12507 22.4279C9.14469 22.4936 9.15948 22.5378 9.16708 22.5583C9.44667 23.3023 9.56069 23.917 9.49469 24.3989C9.97524 24.3316 10.59 24.4456 11.334 24.7252C11.3545 24.7328 11.3987 24.7476 11.4643 24.7672C11.5765 24.8007 11.7062 24.8343 11.8514 24.8656C12.268 24.9553 12.7226 25.0077 13.1986 25.0043C14.5522 24.9944 15.8046 24.5442 16.8436 23.5052L16.8652 23.4871C16.8672 23.4849 16.8693 23.4827 16.8714 23.4806C16.9758 23.3763 17.145 23.3763 17.2493 23.4806C18.2883 24.5196 19.5407 24.9698 20.8943 24.9797C21.3704 24.9831 21.8249 24.9307 22.2415 24.841C22.3867 24.8097 22.5164 24.7761 22.6286 24.7426C22.6943 24.723 22.7384 24.7082 22.759 24.7006C23.5029 24.421 24.1177 24.307 24.5996 24.373C24.5323 23.8924 24.6463 23.2777 24.9259 22.5337C24.9335 22.5132 24.9483 22.469 24.9679 22.4033C25.0014 22.2912 25.035 22.1614 25.0662 22.0163C25.156 21.5997 25.2084 21.1451 25.2049 20.669C25.1951 19.3155 24.7449 18.063 23.7059 17.024C23.6138 16.9319 23.603 16.7893 23.6735 16.6853C23.6834 16.6687 23.6959 16.653 23.7103 16.6385C24.7493 15.5995 25.1995 14.3471 25.2094 12.9935C25.2128 12.5175 25.1604 12.0629 25.0707 11.6463C25.0394 11.5011 25.0058 11.3714 24.9723 11.2592C24.9625 11.2264 24.9539 11.1989 24.9468 11.1771L24.9303 11.1289C24.6371 10.3486 24.526 9.7105 24.6136 9.21874Z" fill="white" fill-opacity="0.55"/>
</g>
<path d="M22.2198 11.7276C22.3242 11.832 22.3242 12.0012 22.2198 12.1055C22.1253 12.2 22.0323 12.2701 21.919 12.3231C21.8375 12.5059 21.8076 12.8136 21.7808 13.4487C21.7518 14.1381 21.6997 14.4984 21.5283 14.8421C21.2681 15.3635 20.676 15.9844 19.7482 16.7196C20.8288 17.5693 21.5162 18.2764 21.8145 18.8584C22.0017 19.2237 22.064 19.6074 22.1083 20.3402C22.1643 21.2688 22.2143 21.5469 22.4031 21.7356C22.4944 21.8269 22.5058 21.9678 22.4373 22.0716L22.4031 22.1135L22.3612 22.1477C22.2574 22.2162 22.1165 22.2048 22.0252 22.1135C21.8365 21.9247 21.5584 21.8747 20.6298 21.8187C19.8969 21.7744 19.5133 21.7121 19.148 21.5249C18.5646 21.2259 17.8556 20.536 17.0042 19.4506C16.2459 20.4157 15.6086 21.029 15.0753 21.2951C14.7317 21.4665 14.3714 21.5186 13.6819 21.5476C12.8213 21.5839 12.562 21.6259 12.396 21.7919C12.2916 21.8963 12.1224 21.8963 12.0181 21.7919C12.0083 21.7821 11.9994 21.7718 11.9915 21.761L11.9608 21.7347C11.8565 21.6303 11.8565 21.4611 11.9608 21.3568C12.1269 21.1908 12.1689 20.9315 12.2051 20.0709C12.2342 19.3814 12.2862 19.0211 12.4577 18.6775C12.7216 18.1485 13.3271 17.5173 14.2781 16.7682C13.3119 15.9887 12.6906 15.3334 12.4111 14.788C12.2239 14.4227 12.1616 14.039 12.1173 13.3062C12.0613 12.3776 12.0113 12.0995 11.8225 11.9108C11.7312 11.8195 11.7198 11.6786 11.7883 11.5748L11.8225 11.5329C11.9269 11.4286 12.0961 11.4286 12.2004 11.5329C12.3891 11.7217 12.6672 11.7717 13.5958 11.8277C14.3286 11.872 14.7122 11.9343 15.0776 12.1215C15.651 12.4154 16.3458 13.0869 17.1779 14.1405C17.9604 13.1345 18.6161 12.4971 19.1626 12.2245C19.5062 12.053 19.8665 12.001 20.556 11.9719C21.0726 11.9502 21.3726 11.9263 21.5657 11.8748C21.5902 11.8442 21.6175 11.8146 21.6473 11.7849C21.7065 11.7256 21.7867 11.7 21.864 11.708C21.9685 11.6237 22.1224 11.6302 22.2198 11.7276ZM21.3226 12.4581C21.1275 12.4797 20.8856 12.4929 20.5785 12.5059C19.965 12.5317 19.6537 12.5767 19.4012 12.7027C18.9128 12.9463 18.2571 13.5998 17.4549 14.6581C17.4425 14.7177 17.4092 14.7722 17.3577 14.8115C17.2404 14.901 17.0727 14.8785 16.9832 14.7612C16.0931 13.595 15.3698 12.8718 14.8339 12.5971C14.5573 12.4553 14.2222 12.4009 13.5636 12.3612C13.114 12.334 12.7959 12.3086 12.5545 12.2656C12.5982 12.5063 12.6236 12.8244 12.6508 13.274C12.6905 13.9326 12.7449 14.2677 12.8867 14.5443C13.1379 15.0345 13.7644 15.6813 14.7618 16.4693C14.842 16.47 14.9197 16.5065 14.9711 16.5746C14.9925 16.6029 15.0075 16.6342 15.0161 16.6666L15.0508 16.6936C15.1681 16.7831 15.1906 16.9508 15.1011 17.0681C15.0116 17.1854 14.8439 17.2079 14.7266 17.1184L14.7122 17.1071C13.759 17.8471 13.1655 18.4558 12.9359 18.916C12.8099 19.1685 12.7649 19.4799 12.7391 20.0934C12.7198 20.5502 12.6999 20.8628 12.6573 21.096C12.8899 21.0529 13.2025 21.0329 13.6594 21.0137C14.2729 20.9879 14.5842 20.9429 14.8367 20.8169C15.3293 20.5711 15.9921 19.9083 16.8039 18.8338C16.8929 18.716 17.0605 18.6927 17.1782 18.7817C17.2276 18.819 17.2604 18.8702 17.2753 18.9258L17.2424 18.8852C18.1325 20.0514 18.8558 20.7746 19.3917 21.0493C19.6683 21.1911 20.0034 21.2455 20.662 21.2852C21.1116 21.3124 21.4297 21.3378 21.6703 21.3815C21.6274 21.1401 21.602 20.822 21.5748 20.3724C21.5351 19.7138 21.4807 19.3787 21.3389 19.1021C21.0642 18.5662 20.341 17.8429 19.1748 16.9528L19.2918 17.0435C19.1913 17.0681 19.0812 17.0328 19.0149 16.945C18.9259 16.8272 18.9493 16.6597 19.067 16.5707C20.1415 15.7589 20.8043 15.0961 21.0501 14.6035C21.1761 14.351 21.2211 14.0396 21.2469 13.4262C21.2652 12.9915 21.2842 12.6874 21.3226 12.4581Z" fill="#E27454"/>
<path d="M16.9494 9.53125C17.0956 9.53125 17.2141 9.65198 17.2141 9.8009C17.2141 9.9361 17.198 10.0527 17.1555 10.1715C17.2275 10.3604 17.4222 10.6012 17.8475 11.0726C18.3102 11.5854 18.5261 11.8797 18.6468 12.2472C18.8306 12.8073 18.8501 13.6779 18.7132 14.8724C20.0673 14.7152 21.0471 14.7309 21.6682 14.9274C22.0626 15.0522 22.3808 15.2773 22.9353 15.7597C23.638 16.371 23.8721 16.5307 24.1414 16.5307C24.2904 16.5307 24.4111 16.6493 24.4111 16.7955V16.8283C24.4111 16.9745 24.2904 17.0931 24.1414 17.0931C23.8721 17.0931 23.638 17.2528 22.9353 17.864C22.3808 18.3465 22.0626 18.5716 21.6682 18.6963C21.0456 18.8933 20.0624 18.9086 18.704 18.7504C18.8509 19.9871 18.8347 20.8844 18.6468 21.457C18.5261 21.8246 18.3102 22.1189 17.8475 22.6316C17.2701 23.2716 17.1178 23.4866 17.1178 23.7236C17.1178 23.8725 16.9993 23.9932 16.8531 23.9932C16.8395 23.9932 16.8261 23.9922 16.813 23.9902L16.7729 23.9932C16.6267 23.9932 16.5082 23.8725 16.5082 23.7236C16.5082 23.4866 16.356 23.2716 15.7785 22.6316C15.3158 22.1189 15.0999 21.8246 14.9793 21.457C14.7928 20.8888 14.7754 20.0009 14.9189 18.7793C13.6942 18.9059 12.7968 18.8806 12.2146 18.6963C11.8202 18.5716 11.502 18.3465 10.9474 17.864C10.2448 17.2528 10.0107 17.0931 9.74133 17.0931C9.59241 17.0931 9.47168 16.9745 9.47168 16.8283L9.4722 16.812C9.47185 16.8065 9.47168 16.801 9.47168 16.7955C9.47168 16.6493 9.59241 16.5307 9.74133 16.5307C10.0107 16.5307 10.2448 16.371 10.9474 15.7597C11.502 15.2773 11.8202 15.0522 12.2146 14.9274C12.8265 14.7338 13.7868 14.7157 15.1092 14.8654C14.9509 13.5819 14.9632 12.6543 15.1558 12.0674C15.2764 11.6999 15.4923 11.4056 15.955 10.8929C16.3016 10.5088 16.495 10.2778 16.5942 10.1032C16.59 10.0639 16.5884 10.0232 16.5884 9.98067C16.5884 9.89594 16.6268 9.82033 16.6868 9.7709C16.7007 9.6363 16.813 9.53125 16.9494 9.53125ZM16.8324 10.6924C16.7114 10.847 16.5511 11.0292 16.3448 11.2578C15.9331 11.7141 15.7465 11.9684 15.6579 12.2384C15.4951 12.7344 15.4855 13.6015 15.6384 14.824L15.6611 14.9987L15.6583 14.9695C15.7322 15.0253 15.7745 15.1173 15.7612 15.2146C15.7414 15.3595 15.6057 15.4612 15.4581 15.4418C13.9907 15.2483 12.9584 15.2483 12.38 15.4313C12.0814 15.5258 11.8035 15.7224 11.3051 16.156C10.9513 16.4638 10.7003 16.6732 10.4927 16.8124C10.7003 16.9506 10.9513 17.16 11.3051 17.4678C11.8035 17.9014 12.0814 18.098 12.38 18.1924C12.9035 18.3581 13.7987 18.3738 15.0518 18.2319C15.1078 18.1786 15.1856 18.1513 15.2669 18.1628C15.3002 18.1675 15.3312 18.1784 15.3589 18.1941L15.4581 18.182C15.6057 18.1626 15.7414 18.2643 15.7612 18.4092C15.781 18.5541 15.6774 18.6873 15.5298 18.7068L15.4592 18.716C15.3091 19.9302 15.3193 20.7922 15.4814 21.286C15.57 21.5561 15.7566 21.8104 16.1683 22.2666C16.4749 22.6064 16.6799 22.8437 16.8134 23.0405C16.9461 22.8437 17.1511 22.6064 17.4577 22.2666C17.8694 21.8104 18.056 21.5561 18.1447 21.286C18.3137 20.7711 18.3175 19.8559 18.1458 18.558C18.1234 18.5127 18.1144 18.4617 18.1216 18.4092C18.1276 18.3649 18.1445 18.3247 18.1692 18.2907C18.2085 18.2237 18.2768 18.1745 18.3592 18.1628C18.4183 18.1544 18.4756 18.1666 18.524 18.194L18.4247 18.182C19.8921 18.3755 20.9243 18.3755 21.5028 18.1924C21.8014 18.098 22.0793 17.9014 22.5777 17.4678C22.9315 17.16 23.1825 16.9506 23.3901 16.8114C23.1825 16.6732 22.9315 16.4638 22.5777 16.156C22.0793 15.7224 21.8014 15.5258 21.5028 15.4313C20.9504 15.2566 19.9842 15.2487 18.6205 15.4168C18.5669 15.5046 18.466 15.5566 18.3592 15.5415C18.222 15.522 18.1241 15.3987 18.1313 15.2603C18.1273 15.2456 18.1237 15.2304 18.1216 15.2146C18.1131 15.1526 18.1272 15.0928 18.1577 15.0431L18.1335 15.2372C18.3176 13.8911 18.3176 12.9451 18.1447 12.4182C18.056 12.1481 17.8694 11.8938 17.4577 11.4376C17.1659 11.1142 16.9661 10.8836 16.8324 10.6924Z" fill="#00C0C5"/>
</svg>
