<svg width="62" height="46" viewBox="0 0 62 46" fill="none" xmlns="http://www.w3.org/2000/svg">
<path d="M53.2255 0.0395508H8.77445C3.93676 0.0395508 0 3.97631 0 8.81522V36.6256C0 41.4645 3.93676 45.4013 8.77445 45.4013H53.2255C58.0632 45.4013 62 41.4645 62 36.6256V8.81522C62 3.97631 58.0632 0.0395508 53.2255 0.0395508ZM22.5004 14.0005L13.2695 23.2314L21.4784 31.4404C22.188 32.15 22.188 33.3004 21.4784 34.0088C20.77 34.7184 19.6196 34.7184 18.91 34.0088L9.41625 24.515C8.70664 23.8054 8.70664 22.6562 9.41625 21.9466L19.9308 11.4321C20.6404 10.7224 21.7908 10.7224 22.5004 11.4321C23.2088 12.1405 23.2088 13.2908 22.5004 14.0005ZM37.4834 9.72705L27.8782 36.9235C27.544 37.8705 26.5062 38.3657 25.5605 38.0315C24.6147 37.6973 24.1182 36.6595 24.4525 35.7138L34.0576 8.51733C34.3918 7.57158 35.4284 7.0751 36.3754 7.40932C37.3211 7.74354 37.8176 8.78131 37.4834 9.72705ZM52.5837 23.4942L42.0692 34.0088C41.3596 34.7184 40.2092 34.7184 39.4996 34.0088C38.7912 33.3004 38.7912 32.15 39.4996 31.4404L48.7305 22.2094L40.5216 14.0005C39.812 13.2908 39.812 12.1405 40.5216 11.4321C41.23 10.7224 42.3804 10.7224 43.09 11.4321L52.5837 20.9258C53.2934 21.6354 53.2934 22.7846 52.5837 23.4942Z" fill="#F07E58"/>
</svg>
