<svg width="62" height="49" viewBox="0 0 62 49" fill="none" xmlns="http://www.w3.org/2000/svg">
<path d="M55.611 20.098C52.383 22.4134 47.8521 25.4924 45.8084 25.4924C45.4036 25.4924 45.2737 25.3703 45.1792 25.2555C44.3447 24.2268 44.5704 20.6196 45.8517 14.5384C45.9783 13.9361 45.6608 13.3305 45.0959 13.0924C44.531 12.8529 43.8749 13.0491 43.5324 13.5582C39.1229 20.1328 37.1035 21.5119 36.1882 21.5119C34.8898 21.5119 33.5705 17.7775 32.2609 10.4109C32.1566 9.82309 31.6606 9.39467 31.0714 9.36055V9.35333C31.059 9.35333 31.0472 9.35596 31.0347 9.35596C31.0222 9.35596 31.0084 9.35333 30.9966 9.35333V9.36055C30.4094 9.39467 29.9148 9.82309 29.8085 10.4109C28.4976 17.7775 27.1769 21.5119 25.8798 21.5119C24.9639 21.5119 22.9458 20.1321 18.5369 13.5582C18.1951 13.0491 17.539 12.8529 16.9728 13.0924C16.4073 13.3305 16.0897 13.9361 16.217 14.5384C17.4977 20.6196 17.7254 24.2268 16.8888 25.2555C16.7963 25.371 16.6645 25.4924 16.2603 25.4924C14.2166 25.4924 9.68569 22.414 6.45645 20.098C5.94601 19.7313 5.24597 19.791 4.80311 20.2352C4.3596 20.6774 4.30121 21.3774 4.6673 21.8885C12.0502 31.3309 10.6606 42.1681 10.6606 42.1681C10.6337 42.3183 10.6193 42.4718 10.6193 42.6332C10.6193 45.2956 14.3472 46.3493 17.5941 46.9699C21.1718 47.6556 25.8838 48.0374 30.8904 48.0505V48.0518C30.9382 48.0518 30.9868 48.0518 31.0347 48.0505C31.0826 48.0518 31.1305 48.0518 31.1797 48.0518V48.0505C36.185 48.0367 40.8976 47.6549 44.4739 46.9699C47.7215 46.3493 51.4501 45.2937 51.4501 42.6332C51.4501 42.4718 51.4356 42.319 51.4087 42.1681C51.4087 42.1681 50.0198 31.3289 57.4014 21.8885C57.7682 21.3781 57.7104 20.6774 57.2669 20.2352C56.8214 19.7923 56.1227 19.7319 55.611 20.098ZM31.1784 44.3771H31.1685C31.1226 44.3771 31.0786 44.3791 31.0334 44.3791C30.9874 44.3791 30.9448 44.3771 30.8989 44.3771H30.889C22.9327 44.3541 17.6729 43.4284 15.3516 42.6339C17.6729 41.8381 22.9327 40.9123 30.889 40.89H30.9081C30.9494 40.89 30.9907 40.89 31.0327 40.89C31.0747 40.89 31.1141 40.89 31.1574 40.89H31.1771C39.1327 40.9123 44.3919 41.8381 46.7138 42.6339C44.3932 43.4284 39.1341 44.3541 31.1784 44.3771Z" fill="#F07E58"/>
<path d="M31.0341 7.79972C33.177 7.79972 34.9142 6.06255 34.9142 3.91964C34.9142 1.77672 33.177 0.0395508 31.0341 0.0395508C28.8912 0.0395508 27.1541 1.77672 27.1541 3.91964C27.1541 6.06255 28.8912 7.79972 31.0341 7.79972Z" fill="#F07E58"/>
<path d="M14.6563 11.8405C16.4419 11.8405 17.8895 10.393 17.8895 8.60733C17.8895 6.82169 16.4419 5.37415 14.6563 5.37415C12.8706 5.37415 11.4231 6.82169 11.4231 8.60733C11.4231 10.393 12.8706 11.8405 14.6563 11.8405Z" fill="#F07E58"/>
<path d="M47.1429 11.8405C48.9285 11.8405 50.376 10.393 50.376 8.60733C50.376 6.82169 48.9285 5.37415 47.1429 5.37415C45.3572 5.37415 43.9097 6.82169 43.9097 8.60733C43.9097 10.393 45.3572 11.8405 47.1429 11.8405Z" fill="#F07E58"/>
<path d="M2.17951 19.999C3.38323 19.999 4.35903 19.0232 4.35903 17.8195C4.35903 16.6158 3.38323 15.64 2.17951 15.64C0.975801 15.64 0 16.6158 0 17.8195C0 19.0232 0.975801 19.999 2.17951 19.999Z" fill="#F07E58"/>
<path d="M59.8204 19.999C61.0241 19.999 61.9999 19.0232 61.9999 17.8195C61.9999 16.6158 61.0241 15.64 59.8204 15.64C58.6167 15.64 57.6409 16.6158 57.6409 17.8195C57.6409 19.0232 58.6167 19.999 59.8204 19.999Z" fill="#F07E58"/>
</svg>
