<svg width="46" height="47" viewBox="0 0 46 47" fill="none" xmlns="http://www.w3.org/2000/svg">
<path d="M39.2641 6.77616C30.2821 -2.20484 15.7191 -2.20584 6.73612 6.77616C-2.24588 15.7582 -2.24487 30.3212 6.73612 39.3042C15.7181 48.2842 30.2811 48.2852 39.2641 39.3042C48.2451 30.3212 48.2441 15.7592 39.2641 6.77616ZM25.9991 33.0402C25.9991 34.6972 24.6561 36.0402 22.9991 36.0402C21.3421 36.0402 19.9991 34.6972 19.9991 33.0402V21.0402C19.9991 19.3832 21.3421 18.0402 22.9991 18.0402C24.6561 18.0402 25.9991 19.3832 25.9991 21.0402V33.0402ZM22.9461 15.9122C21.2181 15.9122 20.0661 14.6882 20.1021 13.1772C20.0661 11.5932 21.2181 10.4062 22.9811 10.4062C24.7451 10.4062 25.8611 11.5942 25.8981 13.1772C25.8971 14.6882 24.7461 15.9122 22.9461 15.9122Z" fill="#F07E58"/>
</svg>
