<svg width="63" height="62" viewBox="0 0 63 62" fill="none" xmlns="http://www.w3.org/2000/svg">
<g clip-path="url(#clip0_21_93)">
<path d="M60.4775 1.776H15.6999C14.7488 1.776 13.9775 2.54734 13.9775 3.49843V55.1651C13.9712 57.0339 13.3512 58.8496 12.2122 60.3318H53.589C58.3426 60.3267 62.1949 56.4744 62.1999 51.7202V3.49843C62.1999 2.54734 61.4286 1.776 60.4775 1.776ZM50.1441 46.5536H26.0332C25.0822 46.5536 24.3108 45.7829 24.3108 44.8318C24.3108 43.8807 25.0822 43.1093 26.0332 43.1093H50.1441C51.0952 43.1093 51.8666 43.8807 51.8666 44.8318C51.8666 45.7829 51.0952 46.5536 50.1441 46.5536ZM50.1441 36.2202H26.0332C25.0822 36.2202 24.3108 35.4495 24.3108 34.4984C24.3108 33.5473 25.0822 32.776 26.0332 32.776H50.1441C51.0952 32.776 51.8666 33.5473 51.8666 34.4984C51.8666 35.4495 51.0952 36.2202 50.1441 36.2202ZM50.1441 25.8869H26.0332C25.0822 25.8869 24.3108 25.1162 24.3108 24.1651C24.3108 23.214 25.0822 22.4427 26.0332 22.4427H50.1441C51.0952 22.4427 51.8666 23.214 51.8666 24.1651C51.8666 25.1162 51.0952 25.8869 50.1441 25.8869ZM50.1441 15.5536H26.0332C25.0822 15.5536 24.3108 14.7829 24.3108 13.8318C24.3108 12.8807 25.0822 12.1093 26.0332 12.1093H50.1441C51.0952 12.1093 51.8666 12.8807 51.8666 13.8318C51.8666 14.7829 51.0952 15.5536 50.1441 15.5536Z" fill="#F07E58"/>
<path d="M8.81085 8.66516H1.92238C0.971293 8.66516 0.199951 9.43587 0.199951 10.387V55.1652C0.199951 58.0184 2.51335 60.3318 5.36662 60.3318C8.21989 60.3318 10.5333 58.0184 10.5333 55.1652V10.387C10.5333 9.43587 9.76194 8.66516 8.81085 8.66516Z" fill="#F07E58"/>
</g>
<defs>
<clipPath id="clip0_21_93">
<rect width="62" height="62" fill="white" transform="translate(0.199951)"/>
</clipPath>
</defs>
</svg>
