<svg width="62" height="48" viewBox="0 0 62 48" fill="none" xmlns="http://www.w3.org/2000/svg">
<path d="M14.0917 28.2966C13.4024 28.2966 12.741 28.1898 12.0826 28.0925C12.2959 28.8209 12.5154 29.5618 12.8677 30.2274C13.2201 31.1944 13.7702 32.0327 14.3173 32.8772C14.7747 33.7909 15.5814 34.4094 16.1749 35.1911C16.7961 35.9509 17.643 36.4564 18.3137 37.0875C18.972 37.7468 19.8344 38.0764 20.5205 38.5411C21.2376 38.9587 21.8619 39.4202 22.5295 39.64L24.1955 40.337L25.6605 40.9555L24.1615 47.04L22.3163 46.5879C21.7259 46.4372 21.0058 46.2614 20.1867 46.0511C19.3491 45.8941 18.4559 45.464 17.4606 45.0715C16.4778 44.6257 15.3403 44.3243 14.2833 43.6084C13.2201 42.924 11.993 42.3526 10.9112 41.4358C9.86345 40.4908 8.59931 39.6714 7.66589 38.4689C6.64592 37.3449 5.63832 36.1644 4.85635 34.8207C3.95074 33.5397 3.33567 32.1332 2.68661 30.7423C2.09935 29.3515 1.62646 27.9292 1.24011 26.5478C0.507592 23.7787 0.179967 21.1477 0.0532435 18.8966C-0.0518439 16.6423 0.00997197 14.768 0.139785 13.4117C0.186147 12.7712 0.27269 12.1495 0.334506 11.7194L0.411775 11.192L0.492136 11.2108C1.04187 8.6023 2.30737 6.20521 4.14226 4.2968C5.97714 2.38839 8.30642 1.04663 10.8607 0.426768C13.4149 -0.193094 16.0897 -0.0657477 18.5756 0.794077C21.0616 1.6539 23.2571 3.21107 24.9082 5.28545C26.5594 7.35983 27.5986 9.86665 27.9057 12.5159C28.2129 15.1652 27.7754 17.8487 26.6438 20.2559C25.5123 22.6632 23.7329 24.6958 21.5116 26.1188C19.2903 27.5417 16.7178 28.2967 14.0917 28.2966ZM48.0905 28.2966C47.4012 28.2966 46.7398 28.1898 46.0814 28.0925C46.2947 28.8209 46.5142 29.5618 46.8665 30.2274C47.2189 31.1944 47.769 32.0327 48.3161 32.8772C48.7735 33.7909 49.5802 34.4094 50.1737 35.1911C50.7949 35.9509 51.6418 36.4564 52.3125 37.0875C52.9708 37.7468 53.8332 38.0764 54.5193 38.5411C55.2364 38.9587 55.8607 39.4202 56.5283 39.64L58.1943 40.337L59.6593 40.9555L58.1603 47.04L56.3151 46.5879C55.7247 46.4372 55.0046 46.2614 54.1855 46.0511C53.3479 45.8941 52.4547 45.4639 51.4594 45.0715C50.4797 44.6225 49.3391 44.3243 48.2821 43.6053C47.2189 42.9209 45.9918 42.3495 44.91 41.4327C43.8623 40.4877 42.5981 39.6682 41.6647 38.4689C40.6447 37.3449 39.6371 36.1644 38.8552 34.8207C37.9495 33.5397 37.3345 32.1332 36.6854 30.7423C36.0982 29.3515 35.6253 27.9292 35.2389 26.5478C34.5064 23.7787 34.1788 21.1477 34.052 18.8966C33.947 16.6423 34.0088 14.768 34.1386 13.4117C34.1849 12.7712 34.2715 12.1495 34.3333 11.7194L34.4106 11.1919L34.4909 11.2108C35.0407 8.6023 36.3062 6.20521 38.1411 4.2968C39.9759 2.38838 42.3052 1.04663 44.8595 0.426765C47.4137 -0.193096 50.0885 -0.0657507 52.5745 0.794074C55.0604 1.6539 57.2559 3.21107 58.907 5.28545C60.5582 7.35983 61.5974 9.86665 61.9045 12.5159C62.2117 15.1652 61.7742 17.8487 60.6426 20.2559C59.5111 22.6632 57.7317 24.6958 55.5104 26.1188C53.2891 27.5417 50.7166 28.2967 48.0905 28.2966Z" fill="#F07E58"/>
</svg>
