<svg width="48" height="48" viewBox="0 0 48 48" fill="none" xmlns="http://www.w3.org/2000/svg">
<circle cx="24" cy="24" r="24" fill="#539ED8"/>
<path d="M37.8099 11.6222C37.7537 11.5683 37.6838 11.5311 37.6078 11.5145C37.5317 11.498 37.4526 11.5028 37.3791 11.5284L28.5071 14.8167L19.6351 11.5293C19.541 11.4965 19.4384 11.4972 19.3447 11.5312L10.3358 14.8697C10.2573 14.8988 10.1896 14.9512 10.1418 15.0199C10.094 15.0886 10.0684 15.1703 10.0684 15.254V36.0855C10.0683 36.1517 10.0843 36.2169 10.1149 36.2755C10.1455 36.3342 10.1898 36.3845 10.2441 36.4223C10.2984 36.4601 10.3611 36.4842 10.4267 36.4925C10.4923 36.5008 10.559 36.4932 10.621 36.4701L19.493 33.1828L28.3651 36.4701C28.4571 36.5044 28.5583 36.5044 28.6503 36.4701L37.6639 33.1298C37.7424 33.1007 37.8101 33.0483 37.8579 32.9796C37.9057 32.9108 37.9313 32.8291 37.9313 32.7454V11.9128C37.9287 11.8041 37.8854 11.7004 37.8099 11.6222ZM37.1115 28.6296L28.9173 27.9454V21.2165L37.1115 12.9138V28.6296ZM28.097 27.214L23.6837 22.0643L28.097 21.5128V27.214ZM35.9328 12.9405L28.9173 20.0489V15.5388L35.9328 12.9405ZM28.097 15.5388V20.6861L19.9027 21.7099V12.5032L28.097 15.5388ZM15.668 25.6905L12.9781 14.7654L19.0824 12.5034V22.0134L15.668 25.6905ZM12.204 15.052L14.9998 26.4096L10.8882 30.8386V15.5388L12.204 15.052ZM10.8882 32.0442L15.755 26.8022L19.0824 23.2188V32.4607L10.8882 35.4963V32.0442ZM19.9027 22.5365L22.7077 22.1861L28.097 28.4747V35.4963L19.9027 32.4607V22.5365ZM28.9173 35.4975V28.7709L37.1115 29.4548V32.4607L28.9173 35.4975Z" fill="white"/>
</svg>
