<svg width="48" height="49" viewBox="0 0 48 49" fill="none" xmlns="http://www.w3.org/2000/svg">
<circle cx="24" cy="24.9443" r="24" fill="#00CACB"/>
<path d="M37.8099 12.5665C37.7537 12.5127 37.6838 12.4754 37.6078 12.4589C37.5317 12.4423 37.4526 12.4471 37.3791 12.4727L28.5071 15.761L19.6351 12.4737C19.541 12.4408 19.4384 12.4415 19.3447 12.4756L10.3358 15.814C10.2573 15.8431 10.1896 15.8955 10.1418 15.9642C10.094 16.033 10.0684 16.1147 10.0684 16.1984V37.0299C10.0683 37.096 10.0843 37.1612 10.1149 37.2198C10.1455 37.2785 10.1898 37.3289 10.2441 37.3667C10.2984 37.4044 10.3611 37.4285 10.4267 37.4369C10.4923 37.4452 10.559 37.4375 10.621 37.4145L19.493 34.1271L28.3651 37.4145C28.4571 37.4487 28.5583 37.4487 28.6503 37.4145L37.6639 34.0741C37.7424 34.045 37.8101 33.9926 37.8579 33.9239C37.9057 33.8552 37.9313 33.7735 37.9313 33.6898V12.8571C37.9287 12.7484 37.8854 12.6447 37.8099 12.5665ZM37.1115 29.5739L28.9173 28.8898V22.1609L37.1115 13.8581V29.5739ZM28.097 28.1583L23.6837 23.0086L28.097 22.4571V28.1583ZM35.9328 13.8848L28.9173 20.9932V16.4831L35.9328 13.8848ZM28.097 16.4831V21.6305L19.9027 22.6542V13.4475L28.097 16.4831ZM15.668 26.6348L12.9781 15.7097L19.0824 13.4477V22.9577L15.668 26.6348ZM12.204 15.9963L14.9998 27.3539L10.8882 31.7829V16.4831L12.204 15.9963ZM10.8882 32.9885L15.755 27.7465L19.0824 24.1631V33.405L10.8882 36.4406V32.9885ZM19.9027 23.4809L22.7077 23.1305L28.097 29.419V36.4406L19.9027 33.405V23.4809ZM28.9173 36.4418V29.7152L37.1115 30.3991V33.405L28.9173 36.4418Z" fill="white"/>
</svg>
