<svg width="48" height="49" viewBox="0 0 48 49" fill="none" xmlns="http://www.w3.org/2000/svg">
<circle cx="24" cy="24.4707" r="24" fill="#00C0C5"/>
<path d="M32.6953 10.5391H13.4297C13.3758 10.539 13.3225 10.5496 13.2727 10.5702C13.2229 10.5908 13.1777 10.621 13.1396 10.6591C13.1015 10.6972 13.0713 10.7424 13.0507 10.7922C13.0301 10.842 13.0195 10.8953 13.0195 10.9492V37.9928C13.0195 38.0467 13.0301 38.1 13.0507 38.1498C13.0713 38.1996 13.1015 38.2448 13.1396 38.2829C13.1777 38.321 13.2229 38.3512 13.2727 38.3718C13.3225 38.3924 13.3758 38.403 13.4297 38.403H32.6953C33.3012 38.4023 33.882 38.1613 34.3104 37.7329C34.7388 37.3045 34.9798 36.7237 34.9805 36.1178V12.8242C34.9798 12.2184 34.7388 11.6375 34.3104 11.2091C33.882 10.7807 33.3012 10.5397 32.6953 10.5391ZM34.1602 36.1178C34.1598 36.5062 34.0053 36.8786 33.7307 37.1532C33.4561 37.4278 33.0837 37.5823 32.6953 37.5827H13.8394V11.3594H32.6953C33.0837 11.3597 33.4561 11.5142 33.7307 11.7888C34.0053 12.0635 34.1598 12.4358 34.1602 12.8242V36.1178Z" fill="white"/>
<path d="M29.8567 29.4854H18.1436C18.0348 29.4854 17.9304 29.5286 17.8535 29.6055C17.7766 29.6824 17.7334 29.7867 17.7334 29.8955V33.7125C17.7334 33.8213 17.7766 33.9256 17.8535 34.0026C17.9304 34.0795 18.0348 34.1227 18.1436 34.1227H29.8567C29.9655 34.1227 30.0698 34.0795 30.1467 34.0026C30.2236 33.9256 30.2668 33.8213 30.2668 33.7125V29.8955C30.2668 29.7867 30.2236 29.6824 30.1467 29.6055C30.0698 29.5286 29.9655 29.4854 29.8567 29.4854ZM29.4465 33.3024H18.5537V30.3057H29.4465V33.3024Z" fill="white"/>
<path d="M23.9996 14.8193C22.7601 14.8193 21.5484 15.1868 20.5178 15.8754C19.4872 16.564 18.6839 17.5427 18.2095 18.6879C17.7352 19.833 17.611 21.0931 17.8528 22.3088C18.0946 23.5245 18.6915 24.6411 19.5679 25.5176C20.4443 26.3941 21.561 26.991 22.7767 27.2328C23.9923 27.4746 25.2524 27.3505 26.3976 26.8762C27.5427 26.4019 28.5215 25.5986 29.2101 24.568C29.8988 23.5374 30.2663 22.3258 30.2663 21.0863C30.2636 19.4251 29.6025 17.8327 28.4279 16.658C27.2532 15.4833 25.6608 14.8221 23.9996 14.8193ZM28.8277 23.6037H26.5484C26.6728 22.9079 26.7433 22.2036 26.7594 21.4969H29.4289C29.3745 22.2329 29.1699 22.9499 28.8277 23.6037ZM23.9996 26.5306C23.4591 26.5306 22.8812 25.7232 22.497 24.4236H25.5022C25.1181 25.7232 24.5401 26.5306 23.9996 26.5306ZM22.2952 23.6037C22.1578 22.9093 22.0794 22.2045 22.0609 21.4969H25.9379C25.9194 22.2045 25.841 22.9093 25.7035 23.6037H22.2952ZM18.5703 21.4964H21.2401C21.2562 22.2031 21.3267 22.9074 21.451 23.6032H19.1715C18.8293 22.9494 18.6247 22.2324 18.5703 21.4964ZM19.1715 18.5689H21.4498C21.3254 19.2648 21.2549 19.9693 21.2389 20.6761H18.5703C18.6247 19.94 18.8293 19.2229 19.1715 18.5689ZM23.9996 15.6396C24.5403 15.6396 25.1185 16.448 25.5027 17.749H22.4966C22.8807 16.448 23.4589 15.6396 23.9996 15.6396ZM25.7045 18.5693C25.8418 19.2639 25.9202 19.9688 25.9388 20.6766H22.0613C22.08 19.9688 22.1584 19.2639 22.2957 18.5693H25.7045ZM26.7591 20.6766C26.7432 19.9698 26.6727 19.2653 26.5482 18.5693H28.8277C29.1702 19.2233 29.375 19.9404 29.4296 20.6766H26.7591ZM28.299 17.749H26.3668C26.204 17.0863 25.9373 16.4535 25.5767 15.874C26.6559 16.2028 27.6069 16.8576 28.299 17.7486V17.749ZM22.4237 15.874C22.0631 16.4535 21.7964 17.0863 21.6336 17.749H19.7002C20.3925 16.8574 21.3439 16.202 22.4237 15.8731V15.874ZM19.7 24.424H21.6343C21.7972 25.0869 22.0642 25.7198 22.4253 26.299C21.345 25.9706 20.3929 25.3156 19.7 24.424ZM25.5739 26.299C25.935 25.7198 26.202 25.0869 26.3649 24.424H28.2992C27.6063 25.3156 26.6542 25.9706 25.5739 26.299Z" fill="white"/>
</svg>
