<svg width="48" height="48" viewBox="0 0 48 48" fill="none" xmlns="http://www.w3.org/2000/svg">
<circle cx="24" cy="24" r="24" fill="#9AC17E"/>
<path d="M32.6953 10.0684H13.4297C13.3758 10.0683 13.3225 10.0789 13.2727 10.0995C13.2229 10.1201 13.1777 10.1503 13.1396 10.1884C13.1015 10.2265 13.0713 10.2717 13.0507 10.3215C13.0301 10.3713 13.0195 10.4246 13.0195 10.4785V37.5221C13.0195 37.576 13.0301 37.6293 13.0507 37.6791C13.0713 37.7289 13.1015 37.7741 13.1396 37.8122C13.1777 37.8503 13.2229 37.8805 13.2727 37.9011C13.3225 37.9217 13.3758 37.9323 13.4297 37.9323H32.6953C33.3012 37.9316 33.882 37.6906 34.3104 37.2622C34.7388 36.8338 34.9798 36.253 34.9805 35.6471V12.3535C34.9798 11.7477 34.7388 11.1668 34.3104 10.7384C33.882 10.31 33.3012 10.069 32.6953 10.0684ZM34.1602 35.6471C34.1598 36.0355 34.0053 36.4079 33.7307 36.6825C33.4561 36.9571 33.0837 37.1116 32.6953 37.112H13.8394V10.8887H32.6953C33.0837 10.889 33.4561 11.0435 33.7307 11.3181C34.0053 11.5928 34.1598 11.9651 34.1602 12.3535V35.6471Z" fill="white"/>
<path d="M29.8557 29.0146H18.1426C18.0338 29.0146 17.9295 29.0579 17.8526 29.1348C17.7756 29.2117 17.7324 29.316 17.7324 29.4248V33.2418C17.7324 33.3506 17.7756 33.4549 17.8526 33.5319C17.9295 33.6088 18.0338 33.652 18.1426 33.652H29.8557C29.9645 33.652 30.0688 33.6088 30.1457 33.5319C30.2226 33.4549 30.2659 33.3506 30.2659 33.2418V29.4248C30.2659 29.316 30.2226 29.2117 30.1457 29.1348C30.0688 29.0579 29.9645 29.0146 29.8557 29.0146ZM29.4455 32.8317H18.5527V29.835H29.4455V32.8317Z" fill="white"/>
<path d="M23.9996 14.3486C22.7601 14.3486 21.5484 14.7161 20.5178 15.4047C19.4872 16.0933 18.6839 17.072 18.2095 18.2172C17.7352 19.3623 17.611 20.6224 17.8528 21.8381C18.0946 23.0537 18.6915 24.1704 19.5679 25.0469C20.4443 25.9234 21.561 26.5203 22.7767 26.7621C23.9923 27.0039 25.2524 26.8798 26.3976 26.4055C27.5427 25.9312 28.5215 25.1279 29.2101 24.0973C29.8988 23.0667 30.2663 21.8551 30.2663 20.6156C30.2636 18.9544 29.6025 17.362 28.4279 16.1873C27.2532 15.0126 25.6608 14.3514 23.9996 14.3486ZM28.8277 23.133H26.5484C26.6728 22.4372 26.7433 21.7329 26.7594 21.0262H29.4289C29.3745 21.7622 29.1699 22.4792 28.8277 23.133ZM23.9996 26.0599C23.4591 26.0599 22.8812 25.2525 22.497 23.9529H25.5022C25.1181 25.2525 24.5401 26.0599 23.9996 26.0599ZM22.2952 23.133C22.1578 22.4386 22.0794 21.7338 22.0609 21.0262H25.9379C25.9194 21.7338 25.841 22.4386 25.7035 23.133H22.2952ZM18.5703 21.0257H21.2401C21.2562 21.7324 21.3267 22.4367 21.451 23.1325H19.1715C18.8293 22.4787 18.6247 21.7617 18.5703 21.0257ZM19.1715 18.0982H21.4498C21.3254 18.7941 21.2549 19.4986 21.2389 20.2054H18.5703C18.6247 19.4693 18.8293 18.7522 19.1715 18.0982ZM23.9996 15.1689C24.5403 15.1689 25.1185 15.9773 25.5027 17.2783H22.4966C22.8807 15.9773 23.4589 15.1689 23.9996 15.1689ZM25.7045 18.0986C25.8418 18.7932 25.9202 19.4981 25.9388 20.2059H22.0613C22.08 19.4981 22.1584 18.7932 22.2957 18.0986H25.7045ZM26.7591 20.2059C26.7432 19.4991 26.6727 18.7946 26.5482 18.0986H28.8277C29.1702 18.7526 29.375 19.4697 29.4296 20.2059H26.7591ZM28.299 17.2783H26.3668C26.204 16.6156 25.9373 15.9828 25.5767 15.4033C26.6559 15.7321 27.6069 16.3869 28.299 17.2779V17.2783ZM22.4237 15.4033C22.0631 15.9828 21.7964 16.6156 21.6336 17.2783H19.7002C20.3925 16.3867 21.3439 15.7313 22.4237 15.4024V15.4033ZM19.7 23.9533H21.6343C21.7972 24.6162 22.0642 25.2491 22.4253 25.8283C21.345 25.4999 20.3929 24.8449 19.7 23.9533ZM25.5739 25.8283C25.935 25.2491 26.202 24.6162 26.3649 23.9533H28.2992C27.6063 24.8449 26.6542 25.4999 25.5739 25.8283Z" fill="white"/>
</svg>
