<svg width="48" height="49" viewBox="0 0 48 49" fill="none" xmlns="http://www.w3.org/2000/svg">
<circle cx="24" cy="24.918" r="24" fill="#00C0C5"/>
<path d="M35.2079 11.4648H21.7852C21.4909 11.4679 21.2095 11.5862 21.0014 11.7943C20.7933 12.0024 20.675 12.2838 20.672 12.5781V18.7586H12.9631C12.668 18.759 12.385 18.8764 12.1763 19.0851C11.9676 19.2938 11.8502 19.5767 11.8499 19.8719V37.258C11.8502 37.5532 11.9676 37.8362 12.1763 38.0449C12.385 38.2536 12.668 38.371 12.9631 38.3713H26.3865C26.6817 38.371 26.9646 38.2536 27.1734 38.0449C27.3821 37.8362 27.4995 37.5532 27.4998 37.258V31.0773H35.2079C35.503 31.077 35.786 30.9596 35.9947 30.7509C36.2034 30.5422 36.3208 30.2592 36.3212 29.9641V12.5781C36.3209 12.283 36.2035 12 35.9948 11.7913C35.7861 11.5825 35.5031 11.4652 35.2079 11.4648ZM35.5009 12.5781V25.6593L33.8394 24.0527C33.7297 23.9465 33.5994 23.8641 33.4565 23.8105C33.3136 23.7568 33.1612 23.7332 33.0088 23.741C32.8564 23.7487 32.7072 23.7878 32.5705 23.8557C32.4338 23.9236 32.3125 24.0189 32.2142 24.1356L30.4131 26.2734C30.3672 26.3279 30.303 26.3638 30.2325 26.3744C30.1621 26.385 30.0902 26.3695 30.0303 26.3308L27.4991 24.6981V19.1688C27.4969 19.0739 27.464 18.9824 27.4053 18.9079L21.9514 12.2852H35.2079C35.2856 12.2852 35.3601 12.316 35.4151 12.371C35.47 12.4259 35.5009 12.5004 35.5009 12.5781ZM21.4923 13.018L26.2201 18.7586H21.4923V13.018ZM26.3865 37.5508H12.9631C12.8855 37.5507 12.811 37.5198 12.756 37.4649C12.7011 37.41 12.6702 37.3355 12.6702 37.2578V19.8719C12.6702 19.7942 12.7011 19.7197 12.756 19.6648C12.811 19.6099 12.8855 19.579 12.9631 19.5789H26.6795V37.258C26.6793 37.3357 26.6484 37.4101 26.5935 37.465C26.5386 37.5199 26.4641 37.5507 26.3865 37.5508ZM27.4998 30.2568V25.6745L29.5857 27.0203C29.8134 27.1666 30.0866 27.2251 30.3542 27.1849C30.6219 27.1447 30.8658 27.0086 31.0405 26.8019L32.8417 24.6641C32.8674 24.6333 32.8993 24.6081 32.9353 24.5902C32.9712 24.5723 33.0106 24.5622 33.0507 24.5603C33.0908 24.5584 33.1308 24.5646 33.1684 24.5787C33.2059 24.5928 33.2402 24.6143 33.2691 24.6421L35.5004 26.8V29.9641C35.5004 30.0418 35.4695 30.1163 35.4146 30.1712C35.3596 30.2262 35.2851 30.257 35.2074 30.257L27.4998 30.2568Z" fill="white"/>
<path d="M32.2458 20.4799C32.6387 20.4797 33.0228 20.363 33.3495 20.1446C33.6761 19.9261 33.9306 19.6157 34.0809 19.2526C34.2311 18.8895 34.2704 18.4901 34.1936 18.1047C34.1168 17.7193 33.9275 17.3653 33.6496 17.0875C33.3716 16.8097 33.0176 16.6206 32.6322 16.544C32.2467 16.4674 31.8473 16.5068 31.4842 16.6572C31.1212 16.8076 30.8109 17.0623 30.5926 17.3891C30.3743 17.7158 30.2578 18.0999 30.2578 18.4929C30.2584 19.0199 30.468 19.5251 30.8407 19.8976C31.2135 20.2702 31.7188 20.4796 32.2458 20.4799ZM32.2458 17.3262C32.4765 17.3264 32.702 17.3949 32.8937 17.5233C33.0855 17.6516 33.2349 17.8339 33.323 18.0471C33.4112 18.2603 33.4342 18.4948 33.389 18.7211C33.3439 18.9473 33.2327 19.1551 33.0695 19.3182C32.9063 19.4813 32.6984 19.5923 32.4721 19.6373C32.2458 19.6822 32.0113 19.659 31.7981 19.5707C31.585 19.4824 31.4028 19.3328 31.2747 19.141C31.1465 18.9491 31.0781 18.7236 31.0781 18.4929C31.0785 18.1834 31.2017 17.8867 31.4206 17.668C31.6395 17.4492 31.9363 17.3263 32.2458 17.3262Z" fill="white"/>
<path d="M27.7717 14.3799H29.2204C29.3292 14.3799 29.4335 14.3367 29.5104 14.2598C29.5873 14.1828 29.6306 14.0785 29.6306 13.9697C29.6306 13.8609 29.5873 13.7566 29.5104 13.6797C29.4335 13.6028 29.3292 13.5596 29.2204 13.5596H27.7717C27.6629 13.5596 27.5586 13.6028 27.4817 13.6797C27.4048 13.7566 27.3616 13.8609 27.3616 13.9697C27.3616 14.0785 27.4048 14.1828 27.4817 14.2598C27.5586 14.3367 27.6629 14.3799 27.7717 14.3799Z" fill="white"/>
<path d="M26.6633 15.9316H30.3283C30.437 15.9316 30.5414 15.8884 30.6183 15.8115C30.6952 15.7346 30.7384 15.6303 30.7384 15.5215C30.7384 15.4127 30.6952 15.3084 30.6183 15.2315C30.5414 15.1545 30.437 15.1113 30.3283 15.1113H26.6633C26.5545 15.1113 26.4502 15.1545 26.3733 15.2315C26.2964 15.3084 26.2532 15.4127 26.2532 15.5215C26.2532 15.6303 26.2964 15.7346 26.3733 15.8115C26.4502 15.8884 26.5545 15.9316 26.6633 15.9316Z" fill="white"/>
<path d="M22.7751 30.0088H16.7026C16.5939 30.0088 16.4895 30.052 16.4126 30.1289C16.3357 30.2058 16.2925 30.3102 16.2925 30.4189C16.2925 30.5277 16.3357 30.632 16.4126 30.709C16.4895 30.7859 16.5939 30.8291 16.7026 30.8291H22.7751C22.8838 30.8291 22.9882 30.7859 23.0651 30.709C23.142 30.632 23.1852 30.5277 23.1852 30.4189C23.1852 30.3102 23.142 30.2058 23.0651 30.1289C22.9882 30.052 22.8838 30.0088 22.7751 30.0088Z" fill="white"/>
<path d="M22.7748 32.4053H16.7024C16.5936 32.4053 16.4893 32.4485 16.4124 32.5254C16.3354 32.6023 16.2922 32.7066 16.2922 32.8154C16.2922 32.9242 16.3354 33.0285 16.4124 33.1055C16.4893 33.1824 16.5936 33.2256 16.7024 33.2256H22.7748C22.8836 33.2256 22.9879 33.1824 23.0648 33.1055C23.1418 33.0285 23.185 32.9242 23.185 32.8154C23.185 32.7066 23.1418 32.6023 23.0648 32.5254C22.9879 32.4485 22.8836 32.4053 22.7748 32.4053Z" fill="white"/>
<path d="M22.7751 34.8027H16.7026C16.5939 34.8027 16.4895 34.8459 16.4126 34.9229C16.3357 34.9998 16.2925 35.1041 16.2925 35.2129C16.2925 35.3217 16.3357 35.426 16.4126 35.5029C16.4895 35.5798 16.5939 35.623 16.7026 35.623H22.7751C22.8838 35.623 22.9882 35.5798 23.0651 35.5029C23.142 35.426 23.1852 35.3217 23.1852 35.2129C23.1852 35.1041 23.142 34.9998 23.0651 34.9229C22.9882 34.8459 22.8838 34.8027 22.7751 34.8027Z" fill="white"/>
<path d="M18.8053 28.0697C19.0666 28.2308 19.3675 28.316 19.6744 28.316C19.9813 28.316 20.2822 28.2308 20.5435 28.0697C21.8478 27.2588 22.8249 25.2169 22.6763 23.6115C22.644 23.0774 22.4563 22.5644 22.1364 22.1355C21.8165 21.7066 21.3783 21.3806 20.8756 21.1974C20.1021 20.899 19.2453 20.899 18.4718 21.1974C17.9692 21.3807 17.531 21.7068 17.2112 22.1356C16.8913 22.5645 16.7037 23.0774 16.6713 23.6115C16.5232 25.2169 17.501 27.2586 18.8053 28.0697ZM17.4888 23.6869C17.5054 23.3041 17.6364 22.935 17.8651 22.6275C18.0937 22.32 18.4095 22.0882 18.7713 21.9622C19.3526 21.7378 19.9965 21.7378 20.5777 21.9622C20.9396 22.0882 21.2553 22.32 21.4839 22.6275C21.7126 22.935 21.8437 23.3041 21.8602 23.6869C21.9806 24.9961 21.1629 26.7188 20.1103 27.3734C19.9793 27.4542 19.8284 27.497 19.6745 27.497C19.5206 27.497 19.3697 27.4542 19.2387 27.3734C18.1859 26.7186 17.3684 24.9959 17.4888 23.6867V23.6869Z" fill="white"/>
<path d="M19.6746 25.0227C19.7285 25.0228 19.7819 25.0124 19.8318 24.9919C19.8817 24.9714 19.927 24.9413 19.9652 24.9033C20.0034 24.8652 20.0337 24.82 20.0545 24.7703C20.0752 24.7205 20.0859 24.6671 20.0859 24.6132V23.8027C20.0859 23.694 20.0427 23.5896 19.9658 23.5127C19.8889 23.4358 19.7846 23.3926 19.6758 23.3926C19.567 23.3926 19.4627 23.4358 19.3858 23.5127C19.3088 23.5896 19.2656 23.694 19.2656 23.8027V24.6132C19.2658 24.7217 19.3089 24.8256 19.3856 24.9024C19.4622 24.9791 19.5662 25.0223 19.6746 25.0227Z" fill="white"/>
<path d="M14.9017 20.5166H13.8362C13.7274 20.5166 13.6231 20.5598 13.5462 20.6367C13.4692 20.7137 13.426 20.818 13.426 20.9268C13.426 21.0355 13.4692 21.1399 13.5462 21.2168C13.6231 21.2937 13.7274 21.3369 13.8362 21.3369H14.9017C15.0104 21.3369 15.1148 21.2937 15.1917 21.2168C15.2686 21.1399 15.3118 21.0355 15.3118 20.9268C15.3118 20.818 15.2686 20.7137 15.1917 20.6367C15.1148 20.5598 15.0104 20.5166 14.9017 20.5166Z" fill="white"/>
<path d="M25.5127 20.5166H24.4475C24.3387 20.5166 24.2344 20.5598 24.1575 20.6367C24.0806 20.7137 24.0374 20.818 24.0374 20.9268C24.0374 21.0355 24.0806 21.1399 24.1575 21.2168C24.2344 21.2937 24.3387 21.3369 24.4475 21.3369H25.5127C25.6215 21.3369 25.7259 21.2937 25.8028 21.2168C25.8797 21.1399 25.9229 21.0355 25.9229 20.9268C25.9229 20.818 25.8797 20.7137 25.8028 20.6367C25.7259 20.5598 25.6215 20.5166 25.5127 20.5166Z" fill="white"/>
</svg>
