<svg width="48" height="48" viewBox="0 0 48 48" fill="none" xmlns="http://www.w3.org/2000/svg">
<circle cx="24" cy="24" r="24" fill="#B38DB2"/>
<path d="M35.2077 10.5469H21.785C21.4907 10.5499 21.2093 10.6682 21.0012 10.8763C20.793 11.0844 20.6748 11.3658 20.6717 11.6602V17.8406H12.9629C12.6677 17.841 12.3848 17.9584 12.1761 18.1671C11.9674 18.3758 11.85 18.6588 11.8496 18.9539V36.3401C11.8499 36.6352 11.9673 36.9182 12.176 37.1269C12.3847 37.3357 12.6677 37.4531 12.9629 37.4534H26.3862C26.6814 37.4531 26.9644 37.3357 27.1731 37.1269C27.3818 36.9182 27.4992 36.6352 27.4995 36.3401V30.1594H35.2077C35.5028 30.159 35.7858 30.0416 35.9945 29.8329C36.2032 29.6242 36.3206 29.3412 36.3209 29.0461V11.6602C36.3206 11.365 36.2032 11.082 35.9945 10.8733C35.7858 10.6646 35.5028 10.5472 35.2077 10.5469ZM35.5006 11.6602V24.7413L33.8391 23.1347C33.7295 23.0286 33.5991 22.9461 33.4562 22.8925C33.3133 22.8389 33.161 22.8152 33.0085 22.823C32.8561 22.8308 32.7069 22.8698 32.5702 22.9377C32.4335 23.0056 32.3123 23.1009 32.214 23.2177L30.4128 25.3554C30.367 25.4099 30.3028 25.4459 30.2323 25.4565C30.1618 25.467 30.0899 25.4515 30.0301 25.4128L27.4988 23.7802V18.2508C27.4967 18.156 27.4638 18.0644 27.4051 17.9899L21.9512 11.3672H35.2077C35.2854 11.3672 35.3599 11.3981 35.4148 11.453C35.4698 11.5079 35.5006 11.5825 35.5006 11.6602ZM21.492 12.1001L26.2198 17.8406H21.492V12.1001ZM26.3862 36.6328H12.9629C12.8852 36.6328 12.8107 36.6019 12.7558 36.5469C12.7009 36.492 12.67 36.4175 12.6699 36.3398V18.9539C12.67 18.8762 12.7009 18.8017 12.7558 18.7468C12.8107 18.6919 12.8852 18.661 12.9629 18.6609H26.6792V36.3401C26.6791 36.4177 26.6482 36.4921 26.5933 36.547C26.5383 36.6019 26.4639 36.6328 26.3862 36.6328ZM27.4995 29.3388V24.7566L29.5855 26.1023C29.8132 26.2486 30.0863 26.3071 30.354 26.2669C30.6216 26.2268 30.8655 26.0906 31.0402 25.8839L32.8414 23.7462C32.8671 23.7153 32.899 23.6901 32.935 23.6723C32.971 23.6544 33.0103 23.6442 33.0505 23.6423C33.0905 23.6404 33.1306 23.6467 33.1681 23.6607C33.2057 23.6748 33.24 23.6964 33.2689 23.7241L35.5002 25.882V29.0461C35.5002 29.1238 35.4693 29.1983 35.4143 29.2533C35.3594 29.3082 35.2849 29.3391 35.2072 29.3391L27.4995 29.3388Z" fill="white"/>
<path d="M32.2458 19.562C32.6387 19.5618 33.0228 19.4451 33.3495 19.2266C33.6761 19.0082 33.9306 18.6978 34.0809 18.3347C34.2311 17.9716 34.2704 17.5721 34.1936 17.1867C34.1168 16.8013 33.9275 16.4473 33.6496 16.1695C33.3716 15.8918 33.0176 15.7026 32.6322 15.626C32.2467 15.5494 31.8473 15.5888 31.4842 15.7392C31.1212 15.8897 30.8109 16.1443 30.5926 16.4711C30.3743 16.7978 30.2578 17.182 30.2578 17.5749C30.2584 18.1019 30.468 18.6071 30.8407 18.9797C31.2135 19.3522 31.7188 19.5616 32.2458 19.562ZM32.2458 16.4082C32.4765 16.4084 32.702 16.477 32.8937 16.6053C33.0855 16.7336 33.2349 16.9159 33.323 17.1291C33.4112 17.3423 33.4342 17.5769 33.389 17.8031C33.3439 18.0294 33.2327 18.2372 33.0695 18.4002C32.9063 18.5633 32.6984 18.6743 32.4721 18.7193C32.2458 18.7642 32.0113 18.7411 31.7981 18.6527C31.585 18.5644 31.4028 18.4149 31.2747 18.223C31.1465 18.0312 31.0781 17.8056 31.0781 17.5749C31.0785 17.2654 31.2017 16.9688 31.4206 16.75C31.6395 16.5313 31.9363 16.4083 32.2458 16.4082Z" fill="white"/>
<path d="M27.7715 13.4619H29.2202C29.3289 13.4619 29.4333 13.4187 29.5102 13.3418C29.5871 13.2649 29.6303 13.1605 29.6303 13.0518C29.6303 12.943 29.5871 12.8387 29.5102 12.7617C29.4333 12.6848 29.3289 12.6416 29.2202 12.6416H27.7715C27.6627 12.6416 27.5584 12.6848 27.4815 12.7617C27.4045 12.8387 27.3613 12.943 27.3613 13.0518C27.3613 13.1605 27.4045 13.2649 27.4815 13.3418C27.5584 13.4187 27.6627 13.4619 27.7715 13.4619Z" fill="white"/>
<path d="M26.6621 15.0137H30.327C30.4358 15.0137 30.5401 14.9705 30.6171 14.8935C30.694 14.8166 30.7372 14.7123 30.7372 14.6035C30.7372 14.4947 30.694 14.3904 30.6171 14.3135C30.5401 14.2366 30.4358 14.1934 30.327 14.1934H26.6621C26.5533 14.1934 26.449 14.2366 26.3721 14.3135C26.2952 14.3904 26.252 14.4947 26.252 14.6035C26.252 14.7123 26.2952 14.8166 26.3721 14.8935C26.449 14.9705 26.5533 15.0137 26.6621 15.0137Z" fill="white"/>
<path d="M22.7755 29.0908H16.7031C16.5943 29.0908 16.49 29.134 16.4131 29.211C16.3362 29.2879 16.293 29.3922 16.293 29.501C16.293 29.6098 16.3362 29.7141 16.4131 29.791C16.49 29.8679 16.5943 29.9111 16.7031 29.9111H22.7755C22.8843 29.9111 22.9887 29.8679 23.0656 29.791C23.1425 29.7141 23.1857 29.6098 23.1857 29.501C23.1857 29.3922 23.1425 29.2879 23.0656 29.211C22.9887 29.134 22.8843 29.0908 22.7755 29.0908Z" fill="white"/>
<path d="M22.7755 31.4873H16.7031C16.5943 31.4873 16.49 31.5305 16.4131 31.6074C16.3362 31.6844 16.293 31.7887 16.293 31.8975C16.293 32.0062 16.3362 32.1106 16.4131 32.1875C16.49 32.2644 16.5943 32.3076 16.7031 32.3076H22.7755C22.8843 32.3076 22.9887 32.2644 23.0656 32.1875C23.1425 32.1106 23.1857 32.0062 23.1857 31.8975C23.1857 31.7887 23.1425 31.6844 23.0656 31.6074C22.9887 31.5305 22.8843 31.4873 22.7755 31.4873Z" fill="white"/>
<path d="M22.7755 33.8848H16.7031C16.5943 33.8848 16.49 33.928 16.4131 34.0049C16.3362 34.0818 16.293 34.1861 16.293 34.2949C16.293 34.4037 16.3362 34.508 16.4131 34.5849C16.49 34.6619 16.5943 34.7051 16.7031 34.7051H22.7755C22.8843 34.7051 22.9887 34.6619 23.0656 34.5849C23.1425 34.508 23.1857 34.4037 23.1857 34.2949C23.1857 34.1861 23.1425 34.0818 23.0656 34.0049C22.9887 33.928 22.8843 33.8848 22.7755 33.8848Z" fill="white"/>
<path d="M18.8051 27.1518C19.0664 27.3128 19.3672 27.398 19.6741 27.398C19.9811 27.398 20.2819 27.3128 20.5432 27.1518C21.8475 26.3408 22.8246 24.299 22.676 22.6935C22.6437 22.1594 22.4561 21.6464 22.1362 21.2175C21.8163 20.7887 21.378 20.4626 20.8753 20.2794C20.1018 19.9811 19.245 19.9811 18.4716 20.2794C17.9689 20.4627 17.5308 20.7888 17.2109 21.2176C16.8911 21.6465 16.7034 22.1595 16.6711 22.6935C16.523 24.299 17.5008 26.3406 18.8051 27.1518ZM17.4886 22.769C17.5051 22.3861 17.6362 22.017 17.8648 21.7095C18.0935 21.402 18.4092 21.1702 18.7711 21.0442C19.3523 20.8198 19.9962 20.8198 20.5774 21.0442C20.9393 21.1702 21.255 21.402 21.4837 21.7095C21.7123 22.017 21.8434 22.3861 21.8599 22.769C21.9804 24.0782 21.1627 25.8008 20.1101 26.4554C19.9791 26.5362 19.8282 26.579 19.6743 26.579C19.5203 26.579 19.3695 26.5362 19.2384 26.4554C18.1856 25.8006 17.3681 24.0779 17.4886 22.7687V22.769Z" fill="white"/>
<path d="M19.6746 24.1047C19.7285 24.1049 19.7819 24.0944 19.8318 24.0739C19.8817 24.0534 19.927 24.0233 19.9652 23.9853C20.0034 23.9473 20.0337 23.9021 20.0545 23.8523C20.0752 23.8025 20.0859 23.7491 20.0859 23.6952V22.8848C20.0859 22.776 20.0427 22.6717 19.9658 22.5947C19.8889 22.5178 19.7846 22.4746 19.6758 22.4746C19.567 22.4746 19.4627 22.5178 19.3858 22.5947C19.3088 22.6717 19.2656 22.776 19.2656 22.8848V23.6952C19.2658 23.8037 19.3089 23.9077 19.3856 23.9844C19.4622 24.0611 19.5662 24.1044 19.6746 24.1047Z" fill="white"/>
<path d="M14.9014 19.5986H13.8359C13.7272 19.5986 13.6228 19.6418 13.5459 19.7188C13.469 19.7957 13.4258 19.9 13.4258 20.0088C13.4258 20.1176 13.469 20.2219 13.5459 20.2988C13.6228 20.3757 13.7272 20.4189 13.8359 20.4189H14.9014C15.0102 20.4189 15.1145 20.3757 15.1914 20.2988C15.2683 20.2219 15.3116 20.1176 15.3116 20.0088C15.3116 19.9 15.2683 19.7957 15.1914 19.7188C15.1145 19.6418 15.0102 19.5986 14.9014 19.5986Z" fill="white"/>
<path d="M25.5125 19.5986H24.4473C24.3385 19.5986 24.2342 19.6418 24.1572 19.7188C24.0803 19.7957 24.0371 19.9 24.0371 20.0088C24.0371 20.1176 24.0803 20.2219 24.1572 20.2988C24.2342 20.3757 24.3385 20.4189 24.4473 20.4189H25.5125C25.6213 20.4189 25.7256 20.3757 25.8025 20.2988C25.8794 20.2219 25.9227 20.1176 25.9227 20.0088C25.9227 19.9 25.8794 19.7957 25.8025 19.7188C25.7256 19.6418 25.6213 19.5986 25.5125 19.5986Z" fill="white"/>
</svg>
