<svg width="48" height="48" viewBox="0 0 48 48" fill="none" xmlns="http://www.w3.org/2000/svg">
<circle cx="24" cy="24" r="24" fill="#00C0C5"/>
<path d="M37.8866 23.9998C37.8896 21.9549 37.4396 19.9348 36.569 18.0845C35.6984 16.2343 34.4287 14.5999 32.8513 13.2987C30.3612 11.2397 27.2312 10.1133 24.0001 10.1133C20.769 10.1133 17.6391 11.2397 15.149 13.2987C12.92 15.1416 11.3223 17.6348 10.5792 20.4299C9.83615 23.2251 9.98475 26.1825 11.0043 28.8891C10.5507 29.3784 10.2546 29.9926 10.1543 30.6523C10.054 31.3119 10.1541 31.9864 10.4418 32.5884L12.0772 35.9979C12.2657 36.3922 12.53 36.7455 12.8552 37.0374C13.1804 37.3294 13.56 37.5543 13.9723 37.6993C14.3845 37.8443 14.8214 37.9065 15.2577 37.8823C15.6941 37.8582 16.1214 37.7482 16.5151 37.5586L16.8611 37.3926C16.8907 37.378 16.9184 37.3599 16.9436 37.3385C17.2461 37.438 17.5712 37.4462 17.8784 37.3622C18.1856 37.2783 18.4613 37.1058 18.6712 36.8662C18.881 36.6267 19.0158 36.3307 19.0587 36.0152C19.1016 35.6996 19.0507 35.3784 18.9123 35.0916L15.1691 27.2958C15.0627 27.0726 14.9068 26.8768 14.7131 26.7232C14.5194 26.5695 14.2932 26.4622 14.0517 26.4095C13.8102 26.3567 13.5599 26.3598 13.3198 26.4186C13.0797 26.4774 12.8562 26.5903 12.6665 26.7487C12.1606 24.6581 12.2434 22.4682 12.9058 20.4217C13.5681 18.3752 14.7841 16.552 16.419 15.1542C16.5865 15.2423 16.7726 15.2892 16.9618 15.2911C17.2154 15.2906 17.4625 15.2108 17.6685 15.063C19.5182 13.7488 21.731 13.0427 24 13.0427C26.269 13.0427 28.4818 13.7488 30.3315 15.063C30.5112 15.1925 30.7232 15.2698 30.9441 15.2864C31.165 15.3029 31.3861 15.2581 31.5831 15.1568C33.2172 16.5547 34.4325 18.3776 35.0943 20.4237C35.7562 22.4698 35.8389 24.6591 35.3331 26.7492C35.1433 26.5908 34.9199 26.4779 34.6798 26.4191C34.4397 26.3603 34.1893 26.3571 33.9478 26.4099C33.7063 26.4627 33.4801 26.57 33.2864 26.7236C33.0928 26.8772 32.9368 27.0731 32.8304 27.2962L29.0882 35.0916C28.9482 35.3784 28.8961 35.7001 28.9383 36.0164C28.9805 36.3328 29.1152 36.6296 29.3255 36.8696C29.5358 37.1096 29.8123 37.2822 30.1204 37.3657C30.4284 37.4491 30.7542 37.4398 31.0569 37.3387C31.0822 37.3599 31.1099 37.378 31.1394 37.3926L31.4854 37.5588C32.2809 37.9403 33.1953 37.9901 34.0276 37.6974C34.8598 37.4047 35.5417 36.7933 35.9233 35.9979L37.5587 32.5884C37.8464 31.9864 37.9465 31.3119 37.8462 30.6523C37.7459 29.9926 37.4498 29.3784 36.9962 28.8891C37.5874 27.3269 37.8891 25.6701 37.8866 23.9998ZM14.244 36.9237C13.9332 36.8152 13.6469 36.6462 13.4018 36.4265C13.1567 36.2067 12.9576 35.9405 12.816 35.6433L11.1808 32.2336C10.8958 31.6384 10.857 30.9549 11.0726 30.3312C11.2882 29.7076 11.741 29.194 12.3327 28.9019L16.1354 36.8304C15.5419 37.1094 14.8622 37.143 14.244 36.9237ZM13.3534 27.2733C13.4617 27.221 13.5805 27.1938 13.7008 27.1938C13.8528 27.1938 14.0017 27.2366 14.1305 27.3175C14.2592 27.3983 14.3625 27.5139 14.4285 27.6509L18.1722 35.4466C18.2179 35.542 18.2445 35.6455 18.2503 35.7512C18.2561 35.8569 18.241 35.9627 18.2059 36.0625C18.1708 36.1623 18.1164 36.2543 18.0457 36.3331C17.9751 36.4119 17.8896 36.476 17.7942 36.5218C17.6988 36.5676 17.5953 36.5941 17.4896 36.5999C17.384 36.6057 17.2782 36.5906 17.1784 36.5555C17.0785 36.5204 16.9866 36.466 16.9078 36.3954C16.8289 36.3248 16.7648 36.2393 16.719 36.1439L12.9843 28.3626L12.9775 28.3481C12.9316 28.2528 12.905 28.1493 12.8992 28.0437C12.8933 27.938 12.9084 27.8323 12.9435 27.7324C12.9785 27.6326 13.0329 27.5407 13.1036 27.4619C13.1742 27.3831 13.2596 27.319 13.355 27.2733H13.3534ZM11.5194 23.9998C11.5188 25.2733 11.7134 26.5394 12.0962 27.754C12.0779 27.8726 12.0729 27.9928 12.0812 28.1126L12.0018 28.1505C11.8886 28.2054 11.7785 28.2666 11.6722 28.3338C10.8077 25.8736 10.6993 23.2109 11.3611 20.6886C12.0228 18.1663 13.4244 15.8997 15.3854 14.1809L15.7968 14.6084C14.4528 15.7761 13.3754 17.2189 12.6374 18.8392C11.8994 20.4594 11.5182 22.2193 11.5194 23.9998ZM30.8071 14.3948C28.8185 12.9817 26.4394 12.2224 23.9999 12.2224C21.5603 12.2224 19.1813 12.9817 17.1927 14.3948C17.1176 14.4498 17.0251 14.4758 16.9323 14.468C16.8395 14.4602 16.7527 14.419 16.6879 14.3522L16.0171 13.6542C18.3043 11.8901 21.1114 10.9333 23.9999 10.9333C26.8884 10.9333 29.6955 11.8901 31.9827 13.6542L31.3124 14.3519C31.2476 14.4189 31.1607 14.4602 31.0678 14.4681C30.9749 14.476 30.8823 14.4499 30.8071 14.3948ZM32.203 14.6084L32.6139 14.1809C34.575 15.8996 35.9768 18.1661 36.6388 20.6884C37.3007 23.2108 37.1925 25.8735 36.328 28.3338C36.2217 28.2666 36.1117 28.2054 35.9985 28.1505L35.919 28.1123C35.9274 27.9927 35.9224 27.8725 35.904 27.754C36.6333 25.4404 36.6716 22.9642 36.0142 20.6292C35.3568 18.2941 34.0323 16.2016 32.203 14.6084ZM30.2047 36.5224C30.0123 36.4298 29.8645 36.2646 29.7937 36.0631C29.7229 35.8616 29.7349 35.6402 29.8272 35.4476L33.5697 27.6518C33.6356 27.5148 33.7389 27.3993 33.8677 27.3184C33.9964 27.2376 34.1454 27.1947 34.2974 27.1948C34.4335 27.195 34.5674 27.2297 34.6864 27.2956C34.8055 27.3616 34.906 27.4566 34.9783 27.5719C35.0507 27.6872 35.0927 27.8189 35.1004 27.9548C35.1081 28.0907 35.0812 28.2263 35.0223 28.3491L35.0155 28.3636L31.2798 36.1448C31.2341 36.2403 31.1699 36.3257 31.0911 36.3963C31.0123 36.467 30.9204 36.5214 30.8205 36.5564C30.7207 36.5915 30.6149 36.6065 30.5092 36.6007C30.4036 36.5949 30.3001 36.5683 30.2047 36.5224ZM36.8186 32.2333L35.1833 35.643C34.8979 36.2382 34.3892 36.6968 33.7677 36.9191C33.1461 37.1414 32.462 37.1094 31.8639 36.8301L35.6671 28.9019C36.259 29.1938 36.712 29.7073 36.9279 30.3309C37.1437 30.9546 37.1051 31.6382 36.8202 32.2336L36.8186 32.2333Z" fill="white"/>
</svg>
