<svg width="48" height="48" viewBox="0 0 48 48" fill="none" xmlns="http://www.w3.org/2000/svg">
<circle cx="24" cy="24" r="24" fill="#F07E59"/>
<path d="M37.4766 23.9996C37.7109 23.9996 37.875 23.8121 37.8984 23.6012V18.4918C37.8984 18.2574 37.7109 18.0934 37.4766 18.0699H36.3516L35.8594 14.7184C35.8359 14.484 35.625 14.3434 35.3906 14.3668L29.0391 15.3043H29.0156L10.4531 18.0934C10.4531 18.0934 10.1016 18.1637 10.1016 18.4918V23.5777C10.1016 23.8121 10.2891 23.9762 10.5 23.9996C11.5313 23.9996 12.3516 24.8199 12.3516 25.8512C12.3516 26.8824 11.5313 27.7027 10.5 27.7027C10.2656 27.7027 10.1016 27.8902 10.0781 28.1012V33.1871C10.0781 33.4215 10.2656 33.5855 10.5 33.609H37.4531C37.6875 33.609 37.8516 33.4215 37.875 33.1871V28.1246C37.875 27.8902 37.6875 27.7262 37.4766 27.7027C36.4453 27.7027 35.625 26.8824 35.625 25.8512C35.625 24.8199 36.4453 23.9996 37.4766 23.9996ZM28.7344 16.1949L28.8984 17.2965C28.9219 17.5074 29.1094 17.648 29.2969 17.648H29.3672C29.6016 17.6246 29.7422 17.4137 29.7188 17.1793L29.5547 16.0777L35.1094 15.2574L35.5312 18.0934H16.0547L28.7344 16.1949ZM37.0781 28.4996V32.8121H31.0078V31.6871C31.0078 31.4527 30.8203 31.2652 30.5859 31.2652C30.3516 31.2652 30.1641 31.4527 30.1641 31.6871V32.8121H10.9453V28.4996C12.3984 28.2652 13.4062 26.9059 13.1719 25.4527C12.9844 24.3043 12.0938 23.3902 10.9453 23.2262V18.9137H30.1875V20.0152C30.1875 20.2496 30.375 20.4371 30.6094 20.4371C30.8438 20.4371 31.0312 20.2496 31.0312 20.0152V18.8902H37.1016V23.2027C35.6484 23.4371 34.6406 24.7965 34.875 26.2496C35.0156 27.4215 35.9063 28.3121 37.0781 28.4996Z" fill="white"/>
<path d="M30.5859 26.4844C30.3516 26.4844 30.1875 26.6719 30.1641 26.8828V29.6016C30.1641 29.8359 30.3516 30.0234 30.5859 30.0234C30.8203 30.0234 31.0078 29.8359 31.0078 29.6016V26.9063C31.0078 26.6719 30.8203 26.4844 30.5859 26.4844Z" fill="white"/>
<path d="M30.5859 21.7031C30.3516 21.7031 30.1875 21.8906 30.1641 22.1016V24.8203C30.1641 25.0547 30.3516 25.2422 30.5859 25.2422C30.8203 25.2422 31.0078 25.0547 31.0078 24.8203V22.1016C31.0078 21.8906 30.8203 21.7031 30.5859 21.7031Z" fill="white"/>
<path d="M15.3984 22.3594H20.4844C20.7188 22.3594 20.9062 22.1719 20.9062 21.9375C20.9062 21.7031 20.7188 21.5391 20.4844 21.5391H15.3984C15.1641 21.5391 14.9766 21.7266 14.9766 21.9609C14.9766 22.1953 15.1641 22.3594 15.3984 22.3594Z" fill="white"/>
<path d="M25.5703 24.1406H15.3984C15.1641 24.1406 14.9766 24.3281 14.9766 24.5625C14.9766 24.7969 15.1641 24.9844 15.3984 24.9844H25.5703C25.8047 24.9844 25.9922 24.7969 25.9922 24.5625C25.9922 24.3281 25.8047 24.1406 25.5703 24.1406Z" fill="white"/>
<path d="M25.5703 26.7422H15.3984C15.1641 26.7422 14.9766 26.9297 14.9766 27.1641C14.9766 27.3984 15.1641 27.5859 15.3984 27.5859H25.5703C25.8047 27.5859 25.9922 27.3984 25.9922 27.1641C25.9922 26.9297 25.8047 26.7422 25.5703 26.7422Z" fill="white"/>
<path d="M25.5703 29.3438H15.3984C15.1641 29.3438 14.9766 29.5312 14.9766 29.7656C14.9766 30 15.1641 30.1875 15.3984 30.1875H25.5703C25.8047 30.1875 25.9922 30 25.9922 29.7656C25.9922 29.5312 25.8047 29.3438 25.5703 29.3438Z" fill="white"/>
</svg>
