<svg width="49" height="49" viewBox="0 0 49 49" fill="none" xmlns="http://www.w3.org/2000/svg">
<circle cx="24.1404" cy="24.2314" r="24" fill="#00CACB"/>
<path d="M37.6169 24.2311C37.8513 24.2311 38.0154 24.0436 38.0388 23.8326V18.7232C38.0388 18.4889 37.8513 18.3248 37.6169 18.3014H36.4919L35.9998 14.9498C35.9763 14.7154 35.7654 14.5748 35.531 14.5982L29.1794 15.5357H29.156L10.5935 18.3248C10.5935 18.3248 10.2419 18.3951 10.2419 18.7232V23.8092C10.2419 24.0436 10.4294 24.2076 10.6404 24.2311C11.6716 24.2311 12.4919 25.0514 12.4919 26.0826C12.4919 27.1139 11.6716 27.9342 10.6404 27.9342C10.406 27.9342 10.2419 28.1217 10.2185 28.3326V33.4186C10.2185 33.6529 10.406 33.817 10.6404 33.8404H37.5935C37.8279 33.8404 37.9919 33.6529 38.0154 33.4186V28.3561C38.0154 28.1217 37.8279 27.9576 37.6169 27.9342C36.5857 27.9342 35.7654 27.1139 35.7654 26.0826C35.7654 25.0514 36.5857 24.2311 37.6169 24.2311ZM28.8748 16.4264L29.0388 17.5279C29.0623 17.7389 29.2498 17.8795 29.4373 17.8795H29.5076C29.7419 17.8561 29.8826 17.6451 29.8591 17.4107L29.6951 16.3092L35.2498 15.4889L35.6716 18.3248H16.1951L28.8748 16.4264ZM37.2185 28.7311V33.0436H31.1482V31.9186C31.1482 31.6842 30.9607 31.4967 30.7263 31.4967C30.4919 31.4967 30.3044 31.6842 30.3044 31.9186V33.0436H11.0857V28.7311C12.5388 28.4967 13.5466 27.1373 13.3123 25.6842C13.1248 24.5357 12.2341 23.6217 11.0857 23.4576V19.1451H30.3279V20.2467C30.3279 20.4811 30.5154 20.6686 30.7498 20.6686C30.9841 20.6686 31.1716 20.4811 31.1716 20.2467V19.1217H37.2419V23.4342C35.7888 23.6686 34.781 25.0279 35.0154 26.4811C35.156 27.6529 36.0466 28.5436 37.2185 28.7311Z" fill="white"/>
<path d="M30.7263 26.7158C30.4919 26.7158 30.3279 26.9033 30.3044 27.1143V29.833C30.3044 30.0674 30.4919 30.2549 30.7263 30.2549C30.9607 30.2549 31.1482 30.0674 31.1482 29.833V27.1377C31.1482 26.9033 30.9607 26.7158 30.7263 26.7158Z" fill="white"/>
<path d="M30.7263 21.9346C30.4919 21.9346 30.3279 22.1221 30.3044 22.333V25.0518C30.3044 25.2861 30.4919 25.4736 30.7263 25.4736C30.9607 25.4736 31.1482 25.2861 31.1482 25.0518V22.333C31.1482 22.1221 30.9607 21.9346 30.7263 21.9346Z" fill="white"/>
<path d="M15.5388 22.5908H20.6248C20.8591 22.5908 21.0466 22.4033 21.0466 22.1689C21.0466 21.9346 20.8591 21.7705 20.6248 21.7705H15.5388C15.3044 21.7705 15.1169 21.958 15.1169 22.1924C15.1169 22.4268 15.3044 22.5908 15.5388 22.5908Z" fill="white"/>
<path d="M25.7107 24.3721H15.5388C15.3044 24.3721 15.1169 24.5596 15.1169 24.7939C15.1169 25.0283 15.3044 25.2158 15.5388 25.2158H25.7107C25.9451 25.2158 26.1326 25.0283 26.1326 24.7939C26.1326 24.5596 25.9451 24.3721 25.7107 24.3721Z" fill="white"/>
<path d="M25.7107 26.9736H15.5388C15.3044 26.9736 15.1169 27.1611 15.1169 27.3955C15.1169 27.6299 15.3044 27.8174 15.5388 27.8174H25.7107C25.9451 27.8174 26.1326 27.6299 26.1326 27.3955C26.1326 27.1611 25.9451 26.9736 25.7107 26.9736Z" fill="white"/>
<path d="M25.7107 29.5752H15.5388C15.3044 29.5752 15.1169 29.7627 15.1169 29.9971C15.1169 30.2314 15.3044 30.4189 15.5388 30.4189H25.7107C25.9451 30.4189 26.1326 30.2314 26.1326 29.9971C26.1326 29.7627 25.9451 29.5752 25.7107 29.5752Z" fill="white"/>
</svg>
