<svg width="48" height="48" viewBox="0 0 48 48" fill="none" xmlns="http://www.w3.org/2000/svg">
<circle cx="24" cy="24" r="24" fill="#539ED8"/>
<path d="M35.4307 27.4973C35.1294 27.1967 34.7211 27.0278 34.2955 27.0278C33.8699 27.0278 33.4616 27.1967 33.1603 27.4973L29.9259 30.7317H23.8106L26.7094 22.102L28.3359 22.6486C28.4158 22.6755 28.502 22.6771 28.5829 22.6532C28.6637 22.6293 28.7352 22.581 28.7876 22.515L29.6979 21.3698L29.7319 22.8323C29.7338 22.9166 29.7617 22.9982 29.8117 23.0661C29.8617 23.1339 29.9313 23.1847 30.0112 23.2116L34.0402 24.5653C34.1201 24.5922 34.2063 24.5938 34.2872 24.5699C34.368 24.546 34.4396 24.4977 34.492 24.4317L36.1071 22.3997C36.1487 22.347 36.1768 22.285 36.1889 22.219C36.1927 22.2082 36.1997 22.1995 36.2027 22.1883C39.0823 11.1755 21.945 5.92453 18.3068 16.1977C18.3026 16.2096 18.3009 16.2211 18.2979 16.2342C18.2742 16.2876 18.2624 16.3455 18.2632 16.4039L18.3234 18.9989C18.3254 19.0832 18.3533 19.1648 18.4033 19.2326C18.4533 19.3005 18.5229 19.3513 18.6028 19.3781L22.6317 20.7319C22.7116 20.7587 22.7979 20.7603 22.8787 20.7363C22.9596 20.7124 23.0311 20.6642 23.0836 20.5983L23.9939 19.4536L24.0279 20.9161C24.0298 21.0004 24.0576 21.082 24.1076 21.1499C24.1576 21.2177 24.2273 21.2685 24.3073 21.2953L25.9317 21.8412L22.9453 30.7317H15.0445C14.6189 30.7322 14.2108 30.9014 13.9098 31.2024C13.6088 31.5034 13.4395 31.9115 13.4391 32.3372V33.4153C13.439 33.4692 13.4496 33.5225 13.4702 33.5723C13.4908 33.6221 13.521 33.6673 13.5591 33.7054C13.5972 33.7435 13.6424 33.7737 13.6922 33.7943C13.742 33.8149 13.7953 33.8255 13.8492 33.8255H15.0703V36.1514C15.0719 36.2724 15.0924 36.3924 15.1312 36.507H11.8828C11.774 36.507 11.6697 36.5502 11.5928 36.6271C11.5159 36.704 11.4727 36.8083 11.4727 36.9171C11.4727 37.0259 11.5159 37.1302 11.5928 37.2071C11.6697 37.2841 11.774 37.3273 11.8828 37.3273H35.5022C35.611 37.3273 35.7153 37.2841 35.7922 37.2071C35.8691 37.1302 35.9123 37.0259 35.9123 36.9171C35.9123 36.8083 35.8691 36.704 35.7922 36.6271C35.7153 36.5502 35.611 36.507 35.5022 36.507H30.2852C30.3239 36.3923 30.3445 36.2724 30.3462 36.1514V33.8255H30.3696C30.6558 33.8248 30.939 33.7676 31.2031 33.6572C31.4671 33.5468 31.7068 33.3853 31.9083 33.1821L36.1936 28.8382C36.2697 28.7612 36.3122 28.6571 36.3118 28.5488C36.3115 28.4405 36.2683 28.3368 36.1917 28.2602L35.4307 27.4973ZM29.8786 19.7266L24.8475 18.0361C25.1053 16.8227 26.2376 12.679 29.6838 12.1259C32.0899 14.6435 30.42 18.6173 29.8786 19.7266ZM34.0289 23.6958L30.5456 22.5256L30.5055 20.8027L35.1012 22.347L34.0289 23.6958ZM35.4963 21.6138L30.6656 19.9913C31.2466 18.7917 32.6137 15.402 31.0969 12.6633C34.5497 14.4248 36.3014 17.9016 35.4963 21.6143V21.6138ZM28.2502 11.6916C25.3563 12.9478 24.3424 16.477 24.0623 17.7724L19.2063 16.1407C20.6313 12.6038 24.1917 10.8954 28.2502 11.6916ZM22.6202 19.8628L19.137 18.6921L19.0969 16.9692L23.6927 18.5133L22.6202 19.8628ZM24.8013 18.8862L29.397 20.4302L28.3247 21.7795L24.8414 20.6088L24.8013 18.8862ZM16.2466 36.5058C16.1523 36.5057 16.0619 36.4683 15.9952 36.4016C15.9285 36.3349 15.891 36.2445 15.8909 36.1502V33.8243H16.9957V36.1502C16.9956 36.2445 16.958 36.3349 16.8913 36.4016C16.8246 36.4683 16.7342 36.5057 16.6399 36.5058H16.2466ZM21.9042 33.8243L21.0037 36.5058H17.7553C17.794 36.3912 17.8146 36.2712 17.8163 36.1502V33.8243H21.9042ZM27.5995 33.8243V36.1502C27.6012 36.2712 27.6218 36.3912 27.6607 36.5058H21.8693L22.7698 33.8243H27.5995ZM29.5249 36.1502C29.5248 36.2445 29.4873 36.3349 29.4206 36.4016C29.3539 36.4683 29.2634 36.5057 29.1691 36.5058H28.7766C28.6823 36.5057 28.5918 36.4683 28.5251 36.4016C28.4584 36.3349 28.4209 36.2445 28.4208 36.1502V33.8243H29.5259L29.5249 36.1502ZM31.3242 32.6048C31.199 32.7307 31.0503 32.8307 30.8865 32.8991C30.7226 32.9675 30.5469 33.0029 30.3694 33.0033H14.2594V32.3372C14.2596 32.129 14.3424 31.9295 14.4896 31.7823C14.6368 31.6351 14.8364 31.5523 15.0445 31.552H30.0959C30.2046 31.552 30.3089 31.5087 30.3858 31.4318L33.7402 28.0786C33.8898 27.9357 34.0887 27.856 34.2955 27.856C34.5024 27.856 34.7013 27.9357 34.8509 28.0786L35.3243 28.552L31.3242 32.6048Z" fill="white"/>
</svg>
