<svg width="193" height="43" viewBox="0 0 193 43" fill="none" xmlns="http://www.w3.org/2000/svg">
<path d="M188.915 16.3814V14.0658H193V35.1316H188.819V32.7195C187.34 34.4562 185.217 35.614 182.194 35.614C176.212 35.614 172.352 30.8541 172.352 24.6148C172.352 18.4076 176.212 13.6155 182.194 13.6155C184.799 13.5834 187.275 14.5804 188.915 16.3814ZM188.626 20.4981C187.372 18.6649 185.281 17.5392 182.837 17.5392C179.138 17.5392 176.565 20.6911 176.565 24.6148C176.565 28.5385 179.01 31.7546 182.837 31.7546C185.378 31.7546 187.436 30.3074 188.626 28.442V20.4981ZM163.894 8.63048C163.894 7.0224 165.212 5.70377 166.853 5.70377C168.429 5.70377 169.779 7.05456 169.779 8.63048C169.779 10.2707 168.461 11.5893 166.853 11.5893C165.212 11.5893 163.894 10.2707 163.894 8.63048ZM164.666 35.0994H169.007V14.0658H164.666V35.0994ZM156.143 6.25052H160.388V35.0994H156.207V32.7195C154.728 34.4562 152.605 35.614 149.582 35.614C143.6 35.614 139.74 30.8541 139.74 24.6148C139.74 18.4076 143.6 13.6155 149.582 13.6155C152.155 13.6155 154.535 14.5482 156.143 16.1884V6.25052ZM156.046 20.4981C154.792 18.6649 152.702 17.5392 150.257 17.5392C146.559 17.5392 143.986 20.6911 143.986 24.6148C143.986 28.5385 146.43 31.7546 150.257 31.7546C152.798 31.7546 154.856 30.3074 156.046 28.442V20.4981ZM127.487 35.6462C129.384 35.6462 131.121 35.2924 132.665 34.5849C134.241 33.8773 135.592 32.8481 136.782 31.4974L134.176 28.7315C133.308 29.6641 132.343 30.3395 131.25 30.9184C130.188 31.4652 128.966 31.7225 127.583 31.7225C124.335 31.7225 121.505 29.2782 121.087 26.062H137.457C137.457 26.0299 137.457 25.9656 137.457 25.9334C137.489 25.4188 137.521 24.9364 137.521 24.4218C137.521 18.4076 133.212 13.519 127.23 13.519C121.215 13.519 116.681 18.2789 116.681 24.5826C116.681 31.0149 121.215 35.6462 127.487 35.6462ZM98.2198 33.0089V42.9147H93.9424V14.0658H98.1234V16.4457C99.6028 14.709 101.725 13.5512 104.749 13.5512C110.731 13.5512 114.59 18.3111 114.59 24.5505C114.59 30.7576 110.731 35.5497 104.749 35.5497C102.208 35.5819 99.8279 34.6492 98.2198 33.0089ZM98.2842 28.6671C99.5385 30.5003 101.629 31.626 104.073 31.626C107.772 31.626 110.345 28.4742 110.345 24.5505C110.345 20.6267 107.9 17.4106 104.073 17.4106C101.532 17.4106 99.4741 18.8579 98.2842 20.7232V28.6671ZM78.8264 24.2932L71.3971 14.0658H76.6394L81.5923 21.0448L86.5452 14.0658H91.7232L84.2939 24.3253L92.1091 35.0994H86.8346L81.5602 27.638L76.2857 35.0994H71.0112L78.8264 24.2932ZM57.3747 22.7494H68.3096V18.6327H57.3747V11.1391H69.2423V6.99023H52.6147V35.0994H69.3388V30.9828H57.3747V22.7494ZM40.9722 27.8631C44.7352 16.8638 38.8496 4.89973 27.8503 1.13682C16.8511 -2.62608 4.88696 3.25949 1.12406 14.2587C-2.60668 25.258 3.24673 37.2221 14.2781 40.985C25.2774 44.7479 37.2415 38.8624 40.9722 27.8631Z" fill="#868688"/>
<path d="M121.184 22.4613H133.051C132.633 19.5346 130.221 17.3477 127.133 17.3477C125.59 17.3477 124.175 18.023 123.081 19.0201C122.084 19.9849 121.377 21.2392 121.184 22.4613Z" fill="white"/>
<path d="M3.2474 32.2711C6.52788 30.6952 17.6879 25.2277 19.8749 23.9413C21.676 22.8799 24.3776 21.3362 24.3776 21.3362L25.5032 23.6518L27.2399 35.1013L28.5586 34.3295L29.4269 18.3452C32.1285 16.6728 34.4763 15.0325 36.9527 13.328C37.8533 12.7169 38.7859 12.0737 39.7508 11.3983C39.4613 10.8194 39.1076 10.2404 38.7538 9.69369C37.7246 10.2083 36.6954 10.6907 35.6984 11.141C32.9647 12.4274 30.3918 13.6496 27.5937 15.1612L13.314 7.9248L11.9953 8.69668L21.0328 15.933L22.48 18.0879C22.48 18.0879 19.7785 19.6316 17.9774 20.693C15.7583 21.9473 5.43439 28.862 2.44336 30.9203C2.70065 31.3706 2.95794 31.8209 3.2474 32.2711Z" fill="white"/>
</svg>
