<svg width="208" height="65" viewBox="0 0 208 65" fill="none" xmlns="http://www.w3.org/2000/svg">
<path d="M64.1191 40.4476H66.9532V43.9345H67.0209C68.385 41.5323 69.8513 40.1738 72.7826 40.1738V42.6144C71.2499 42.6464 70.1184 43.2028 69.1532 44.1238C67.9886 45.238 66.9754 47.1861 66.9532 48.9232V58.0589H64.1191V40.4476Z" fill="#868688"/>
<path d="M75.1743 43.8349C76.2995 41.7997 78.8603 40.1074 82.2003 40.1074C85.2031 40.1074 88.7192 41.5324 88.7192 45.3903V54.2663C88.7192 56.1965 88.8903 57.1457 89.1279 58.059H86.2249L85.9553 55.6196C84.7254 56.9717 82.7457 58.3954 80.0902 58.3954C77.3608 58.3954 74.6621 56.7696 74.6621 53.5551C74.6621 49.6921 78.0083 47.7618 85.8851 46.3752V45.4287C85.8851 43.0904 84.3499 42.2078 82.2336 42.2078C79.5091 42.2078 78.1782 43.7658 77.7005 44.9515L75.1743 43.8349ZM85.8851 48.5408C80.2588 49.5232 77.4962 51.149 77.4962 53.5883C77.4962 55.2129 79.0659 56.295 80.4312 56.295C82.2003 56.295 84.4521 55.0133 85.8851 53.3824V48.5408Z" fill="#868688"/>
<path d="M100.077 58.0585H96.4256L90.9668 40.4473H93.839L98.3388 55.0129H98.4065L102.908 40.4473H105.397L100.077 58.0585Z" fill="#868688"/>
<path d="M128.95 33.1211V58.0604H126.084V34.3824L128.95 33.1211Z" fill="#868688"/>
<path d="M139.94 58.3954C135.098 58.3954 132.299 54.3315 132.299 49.2546C132.299 44.1713 135.098 40.1074 139.94 40.1074C144.783 40.1074 147.583 44.1713 147.583 49.2546C147.583 54.3315 144.783 58.3954 139.94 58.3954ZM139.94 42.2078C137.007 42.2078 135.132 44.7162 135.132 49.2546C135.132 53.7905 137.007 56.295 139.94 56.295C142.874 56.295 144.747 53.7905 144.747 49.2546C144.747 44.7162 142.874 42.2078 139.94 42.2078Z" fill="#868688"/>
<path d="M161.711 45.696C161.03 43.5637 159.631 42.2078 157.519 42.2078C154.484 42.2078 152.71 44.7801 152.71 49.2546C152.71 53.7227 154.484 56.295 157.519 56.295C159.767 56.295 161.03 55.5518 162.393 53.046L164.751 53.9248C162.975 56.9052 161.03 58.3954 157.519 58.3954C153.083 58.3954 149.877 54.9442 149.877 49.2546C149.877 43.5637 153.083 40.1074 157.519 40.1074C161.166 40.1074 163.251 42.1387 164.375 44.885L161.711 45.696Z" fill="#868688"/>
<path d="M167.73 40.4473H170.566V58.0585H167.73V40.4473Z" fill="#868688"/>
<path d="M57.7448 56.2947C56.313 56.2947 55.7331 55.8905 55.7331 55.0795V42.5464H59.2776L59.8242 40.4474H55.7331V34.1719L52.8978 35.4318V40.4474H50.2891V42.5464H52.8978V55.4837C53.1859 57.7197 54.4023 58.3951 57.0615 58.3951C58.2163 58.3951 58.8996 58.3081 59.7072 58.1507L60.2477 56.0785C59.2566 56.232 58.5512 56.2947 57.7448 56.2947Z" fill="#868688"/>
<path d="M201.134 40.4473L194.892 59.6166C193.505 63.5448 190.806 64.6551 188.485 64.6551C187.668 64.6551 186.641 64.5182 186.162 64.453L186.77 62.3578C187.114 62.3897 187.557 62.4588 188.101 62.4588C189.599 62.4588 191.886 62.1211 192.739 58.2607L186.567 40.4473H189.156L193.931 53.8924H193.998L198.161 40.4473H201.134Z" fill="#868688"/>
<path d="M181.915 56.2947C180.482 56.2947 179.905 55.8905 179.905 55.0795V42.5464H183.449L183.996 40.4474H179.905V34.1719L177.066 35.4318V40.4474H174.461V42.5464H177.066V55.4837C177.359 57.7197 178.573 58.3951 181.233 58.3951C182.387 58.3951 183.069 58.3081 183.879 58.1507L184.42 56.0785C183.427 56.232 182.723 56.2947 181.915 56.2947Z" fill="#868688"/>
<path d="M120.327 53.4067C119.302 55.1834 117.62 56.295 115.47 56.295C112.539 56.295 110.222 53.5883 110.222 49.7253H122.127V48.1021C122.127 42.4764 118.677 40.1074 114.993 40.1074C110.63 40.1074 107.387 43.5637 107.387 49.2546C107.387 55.6849 111.516 58.3954 115.47 58.3954C118.856 58.3954 120.027 58.0871 122.099 55.1834L120.327 53.4067ZM115.063 42.2078C117.723 42.2078 119.291 44.3747 119.291 47.6262H110.288C110.494 44.3747 112.097 42.2078 115.063 42.2078Z" fill="#868688"/>
<path d="M170.566 34.5V37.4139H167.73V34.5H170.566Z" fill="#868688"/>
<path d="M4.08613 32.1001C4.50594 31.9147 4.94299 31.8673 5.37635 31.7164C4.7177 30.977 3.98148 30.2991 3.4127 29.4293C3.23911 29.1901 3.32529 29.0596 3.4681 29.0097C3.60229 29.0302 3.50749 28.727 3.59367 28.5978C3.88299 28.4993 3.85344 28.2064 4.01472 28.0171C4.02703 27.9455 3.98641 27.7267 4.06274 27.6666C4.13907 27.6052 4.28311 27.5553 4.40868 27.6462C4.94176 28.2947 5.56718 28.7424 6.19506 29.1926C6.94974 29.7286 7.72166 30.1264 8.3877 30.7954C8.45295 30.8056 8.64624 30.9041 8.66471 30.7673C8.7595 30.065 8.97988 29.4523 9.26796 28.8511C9.36399 28.6516 9.40215 28.3701 9.56343 28.1808C9.75549 27.7792 10.2073 27.4875 10.5828 27.2573C11.1787 26.9132 11.8927 27.2317 12.3064 26.72C12.4591 26.5985 12.7188 26.7098 12.8555 26.729C13.2408 26.926 13.8084 26.7968 14.1063 27.1255C13.6003 28.3394 13.5646 29.6186 13.1854 30.922C13.1473 31.2009 12.9552 31.6013 13.1485 31.7023C13.7357 31.9313 15.287 31.655 15.3633 31.5949C16.1931 31.5731 16.9416 31.6089 17.7418 31.7995C18.3389 31.9569 18.7834 32.2357 19.2758 32.6642C20.145 33.3627 20.1216 34.574 20.0478 35.6331C20.0367 35.7048 19.6439 36.0744 19.5085 36.0565C19.4408 36.0463 19.41 35.7559 19.3423 35.7457C19.037 35.9875 18.4005 36.6091 18.19 36.6513C18.121 36.6411 17.6963 36.2215 17.5042 36.1243C16.8111 35.6638 16.0392 35.7662 15.2697 35.8685C14.3636 35.9516 13.4883 35.8237 12.6117 36.1972C12.9404 36.8164 13.5191 37.1144 14.0029 37.612C14.7834 38.4421 15.5947 39.06 16.4553 39.8287C16.9945 40.4082 17.5559 40.8469 17.8773 41.5351C17.6557 41.6477 17.8588 41.7603 17.7726 41.892C17.6298 41.9419 17.6458 41.718 17.5104 41.6963C17.3774 41.6771 17.2826 41.8779 17.3282 42.0276C17.386 42.1069 17.2001 42.474 17.0561 42.5252C16.9785 42.5853 16.6609 42.7964 16.5415 42.7721C16.4725 42.7567 16.0503 42.5827 16.0946 42.6352C16.2497 42.813 16.3568 43.1341 16.3199 43.1891C15.9801 43.1392 15.809 43.0944 15.5689 42.845C14.4572 41.8958 13.492 40.8994 12.3212 39.871C11.8989 39.4527 11.6268 38.9116 11.1257 38.5534C10.3218 40.4363 9.76411 41.7948 8.96018 43.679C8.76689 44.0052 8.66594 44.8826 8.48866 44.9888C8.37539 45.0566 7.87186 44.3531 7.63179 43.8376C7.61948 42.7234 7.73397 42.2783 7.83 41.0746L7.85708 40.8648C7.92972 39.303 8.3877 37.942 8.32491 36.361C8.34584 36.219 8.14024 36.1908 7.93834 36.1627C5.90697 35.9363 3.94208 35.724 1.91687 35.4298C1.44658 35.3607 0.962745 35.362 0.509689 35.1535C0.451825 35.0729 0.192057 34.9641 0.123113 34.9539C0.0664813 34.8746 0.0664813 34.8746 0 34.8631C0.79408 34.0496 1.51429 33.213 2.61246 32.6911C2.89932 32.5555 3.71925 32.26 4.08613 32.1001Z" fill="#868688"/>
<path d="M22.903 43.0151C22.7861 42.9729 22.8489 42.8437 22.8489 42.7887C22.9572 42.5623 23.2293 42.6199 23.3918 42.6199C23.9347 42.4523 24.5318 42.6224 25.0735 42.4536C25.1819 42.3986 25.2902 42.2297 25.3456 42.2297C25.7814 42.0622 26.1618 41.9483 26.5977 41.837C26.7023 41.782 26.9756 41.6119 26.8685 41.4431C26.3798 40.9352 25.8935 40.4261 25.6792 39.8057C25.513 39.4642 25.2422 39.1854 25.2446 38.8451C25.2446 38.5637 25.5721 38.5087 25.8405 38.6213C27.0347 39.3005 27.8448 40.3161 28.7127 41.3906C28.8753 41.617 29.039 41.1092 29.0932 40.9403C29.4748 40.0386 29.7494 39.0792 30.2394 38.1774C30.3465 37.8973 30.5644 37.5608 30.8389 37.5033C31.271 37.3933 31.4889 37.1119 31.8694 36.8867C32.1402 36.7742 32.3569 36.8867 32.6302 36.7179C32.7903 36.6642 33.0094 36.943 33.2273 36.8343C33.5523 36.6053 33.8244 36.778 34.1507 36.8343C34.3649 36.9481 34.4203 37.172 34.3649 37.3997C34.0362 38.1863 33.8712 39.0319 33.3849 39.8211C33.0032 40.4389 32.6758 41.003 32.2412 41.6234C32.2412 41.6797 32.1845 41.7923 32.2941 41.8498C32.5625 41.9061 32.8912 41.8498 33.1091 41.9624C33.9217 42.2464 34.7367 42.1325 35.6034 42.3065C36.038 42.419 36.0368 43.042 36.4159 43.381C36.6326 43.5485 36.251 43.7174 36.0355 43.7737C35.4372 43.9425 34.8413 43.7161 34.2442 43.8849C33.2113 44.1062 32.2362 43.8798 31.26 44.2712C31.5813 44.6102 31.9075 44.8916 32.1784 45.2332C32.4492 45.6284 32.7213 46.0224 32.9909 46.4189C33.2618 46.8692 33.4218 47.3207 33.5314 47.771C33.6373 47.9987 33.5831 48.2801 33.5819 48.5628C33.476 48.5052 33.476 48.2801 33.3664 48.2225C33.2581 48.2225 33.1497 48.4464 32.9848 48.3914C32.826 48.3364 32.7718 48.2225 32.7152 48.1087C32.4997 47.881 32.3384 47.5996 32.2313 47.3169C31.8521 46.4701 31.0913 45.9073 30.3859 45.3406C29.7334 46.7515 29.2409 48.1573 28.3188 49.5093C28.2622 49.6232 28.0996 49.6232 27.9359 49.6232C27.8805 49.5644 27.7734 49.7345 27.7192 49.7895C27.6663 49.6769 27.5579 49.6232 27.5038 49.5644C27.2317 49.3367 26.8525 49.1115 26.7454 48.7738C26.5829 48.4349 26.477 48.1535 26.477 47.8145C26.4745 47.7595 26.3662 47.6444 26.3662 47.5881C26.477 47.3642 26.477 47.0815 26.5853 46.9114C26.7491 46.7413 26.9645 46.5187 27.0199 46.2923C27.2933 45.6169 27.7832 45.1078 27.8953 44.3774C26.5903 44.1484 25.2348 44.2572 23.9877 43.7494C23.7131 43.6342 23.3893 43.5217 23.1197 43.3528C23.0101 43.2377 23.0655 43.0701 22.903 43.0151Z" fill="#868688"/>
<path d="M24.4486 22.0396C24.8389 21.0559 25.4976 20.4137 25.6022 19.3034C23.4551 18.1073 20.8412 18.8045 19.2739 15.9774C18.9009 15.3864 19.2924 12.5134 19.5042 12.1884C19.988 11.1459 20.9237 11.1536 21.82 11.8802C21.9099 11.8162 22.5785 12.0183 22.7237 12.0848C23.604 11.962 24.5644 12.2972 25.468 12.5006C26.6955 12.6426 27.7137 13.1082 28.828 12.9867C28.9154 12.9227 29.0373 12.6617 29.0114 12.3343C28.743 10.6329 28.3564 9.18999 27.9415 7.42213C27.7728 7.02686 27.7814 6.50366 27.7002 6.04571C27.6263 5.06328 26.9467 3.48858 27.5672 3.03703C27.6559 2.97179 27.7716 3.23402 27.859 3.17134C28.0375 3.04086 28.157 2.77991 28.3035 2.84642C30.4174 4.2382 32.1706 6.41028 34.0125 8.51969C34.6182 9.11452 34.7303 7.47842 35.2055 6.96034C35.3274 6.70194 35.1895 6.11095 35.3102 5.84999C35.762 5.00316 35.8666 3.89281 36.2286 3.11122C36.9452 2.07123 37.3502 0.570723 38.4386 0.121723C39.1712 -0.0688787 39.9874 0.201033 40.6498 0.925062C40.7951 0.99158 41.1189 0.930179 41.3208 1.12846C42.0706 1.78852 42.701 2.70955 43.5099 3.50138C43.7672 3.83013 43.9026 4.41984 43.7832 4.6808C43.5899 5.85639 42.568 5.91267 41.9696 6.69171C40.8 8.57853 39.6328 10.4654 38.462 12.3509C38.3426 12.6119 38.0126 13.1977 38.2699 13.5252C39.8865 15.1101 41.322 16.823 43.1479 18.0804C44.2769 18.8109 45.5388 18.7559 46.5472 19.746C47.2637 20.603 47.8067 21.588 48.1724 22.7035C44.0639 25.3489 39.3878 20.9906 34.9974 21.0853C34.6761 21.148 34.7573 21.6047 34.7229 21.8004C34.958 23.7013 35.2843 25.5356 35.4628 27.3009C35.5613 28.6108 36.2151 29.8568 36.401 31.1027C36.4822 31.5607 36.9021 32.8079 36.2902 32.7363C35.5872 32.7299 34.6835 32.5265 34.2292 31.4763C33.6087 30.0308 32.9857 28.5891 32.54 27.0144C32.46 26.5564 32.2913 26.1624 32.4439 25.7045C32.4821 24.9869 32.0537 24.2616 31.8271 23.7396C31.7151 23.4761 31.4171 23.865 31.2398 23.9942C30.6415 24.7745 30.0468 25.5535 29.5063 26.4656C28.4918 27.8958 27.3358 28.7362 25.9815 29.3784C24.9805 29.7621 23.4551 30.0103 22.7779 28.4343C23.0992 28.3704 23.3726 27.654 23.1694 27.4544C21.5972 25.1532 23.7813 23.7345 24.4486 22.0396Z" fill="#868688"/>
<path d="M203.039 41.5992C203.148 41.342 203.299 41.1182 203.486 40.9289C203.675 40.7396 203.894 40.5912 204.144 40.4837C204.395 40.375 204.661 40.3213 204.943 40.3213C205.225 40.3213 205.49 40.375 205.739 40.4837C205.989 40.5912 206.205 40.7396 206.392 40.9289C206.578 41.1182 206.727 41.342 206.837 41.5992C206.946 41.8575 207.002 42.1351 207.002 42.4344C207.002 42.7414 206.946 43.0241 206.837 43.2838C206.727 43.5435 206.578 43.7686 206.392 43.9605C206.205 44.1511 205.989 44.3007 205.739 44.4069C205.49 44.5118 205.225 44.5655 204.943 44.5655C204.661 44.5655 204.395 44.5118 204.144 44.4069C203.894 44.3007 203.675 44.1511 203.486 43.9605C203.299 43.7686 203.148 43.5435 203.039 43.2838C202.929 43.0241 202.875 42.7414 202.875 42.4344C202.875 42.1351 202.929 41.8575 203.039 41.5992ZM203.38 43.161C203.466 43.3823 203.584 43.5754 203.736 43.7379C203.887 43.9016 204.067 44.0283 204.272 44.1216C204.479 44.2137 204.702 44.2611 204.943 44.2611C205.181 44.2611 205.401 44.2137 205.606 44.1216C205.81 44.0283 205.989 43.9016 206.14 43.7379C206.291 43.5754 206.41 43.3823 206.496 43.161C206.582 42.9397 206.624 42.6992 206.624 42.437C206.624 42.1837 206.582 41.9471 206.496 41.7271C206.41 41.5071 206.291 41.3165 206.14 41.1566C205.989 40.9954 205.81 40.8688 205.606 40.7754C205.401 40.6833 205.181 40.6372 204.943 40.6372C204.702 40.6372 204.479 40.6833 204.272 40.7754C204.067 40.8688 203.887 40.9954 203.736 41.1566C203.584 41.3165 203.466 41.5071 203.38 41.7271C203.295 41.9471 203.252 42.1837 203.252 42.437C203.252 42.6992 203.295 42.9397 203.38 43.161ZM205.071 41.2026C205.357 41.2026 205.569 41.2615 205.705 41.3779C205.843 41.4955 205.912 41.6733 205.912 41.91C205.912 42.1338 205.851 42.2963 205.73 42.3999C205.609 42.5048 205.458 42.5662 205.278 42.5841L205.964 43.6867H205.564L204.913 42.6174H204.519V43.6867H204.142V41.2026H205.071ZM204.906 42.3014C204.99 42.3014 205.069 42.2988 205.144 42.2937C205.218 42.2873 205.286 42.272 205.343 42.2451C205.401 42.2195 205.448 42.1786 205.483 42.1236C205.517 42.0699 205.534 41.9931 205.534 41.8959C205.534 41.8128 205.519 41.7475 205.489 41.6989C205.458 41.649 205.417 41.6119 205.368 41.5851C205.319 41.5595 205.262 41.5416 205.199 41.5326C205.135 41.5224 205.073 41.5186 205.01 41.5186H204.519V42.3014H204.906Z" fill="#868688"/>
<path d="M203.039 41.5992C203.148 41.342 203.299 41.1182 203.486 40.9289C203.675 40.7396 203.894 40.5912 204.144 40.4837C204.395 40.375 204.661 40.3213 204.943 40.3213C205.225 40.3213 205.49 40.375 205.739 40.4837C205.989 40.5912 206.205 40.7396 206.392 40.9289C206.578 41.1182 206.727 41.342 206.837 41.5992C206.946 41.8575 207.002 42.1351 207.002 42.4344C207.002 42.7414 206.946 43.0241 206.837 43.2838C206.727 43.5435 206.578 43.7686 206.392 43.9605C206.205 44.1511 205.989 44.3007 205.739 44.4069C205.49 44.5118 205.225 44.5655 204.943 44.5655C204.661 44.5655 204.395 44.5118 204.144 44.4069C203.894 44.3007 203.675 44.1511 203.486 43.9605C203.299 43.7686 203.148 43.5435 203.039 43.2838C202.929 43.0241 202.875 42.7414 202.875 42.4344C202.875 42.1351 202.929 41.8575 203.039 41.5992ZM203.38 43.161C203.466 43.3823 203.584 43.5754 203.736 43.7379C203.887 43.9016 204.067 44.0283 204.272 44.1216C204.479 44.2137 204.702 44.2611 204.943 44.2611C205.181 44.2611 205.401 44.2137 205.606 44.1216C205.81 44.0283 205.989 43.9016 206.14 43.7379C206.291 43.5754 206.41 43.3823 206.496 43.161C206.582 42.9397 206.624 42.6992 206.624 42.437C206.624 42.1837 206.582 41.9471 206.496 41.7271C206.41 41.5071 206.291 41.3165 206.14 41.1566C205.989 40.9954 205.81 40.8688 205.606 40.7754C205.401 40.6833 205.181 40.6372 204.943 40.6372C204.702 40.6372 204.479 40.6833 204.272 40.7754C204.067 40.8688 203.887 40.9954 203.736 41.1566C203.584 41.3165 203.466 41.5071 203.38 41.7271C203.295 41.9471 203.252 42.1837 203.252 42.437C203.252 42.6992 203.295 42.9397 203.38 43.161ZM205.071 41.2026C205.357 41.2026 205.569 41.2615 205.705 41.3779C205.843 41.4955 205.912 41.6733 205.912 41.91C205.912 42.1338 205.851 42.2963 205.73 42.3999C205.609 42.5048 205.458 42.5662 205.278 42.5841L205.964 43.6867H205.564L204.913 42.6174H204.519V43.6867H204.142V41.2026H205.071ZM204.906 42.3014C204.99 42.3014 205.069 42.2988 205.144 42.2937C205.218 42.2873 205.286 42.272 205.343 42.2451C205.401 42.2195 205.448 42.1786 205.483 42.1236C205.517 42.0699 205.534 41.9931 205.534 41.8959C205.534 41.8128 205.519 41.7475 205.489 41.6989C205.458 41.649 205.417 41.6119 205.368 41.5851C205.319 41.5595 205.262 41.5416 205.199 41.5326C205.135 41.5224 205.073 41.5186 205.01 41.5186H204.519V42.3014H204.906Z" fill="#868688"/>
</svg>
