<svg width="144" height="46" viewBox="0 0 144 46" fill="none" xmlns="http://www.w3.org/2000/svg">
<path d="M122.398 11.088H132.262V20.808H134.086V11.088H143.998V9.456H134.086V0H132.262V9.456H122.398V11.088Z" fill="#868688"/>
<path d="M87.3355 45.1909C81.6715 45.1909 77.8555 41.9269 77.8555 37.0549V23.8789H82.8715V37.0549C82.8715 39.8629 85.2715 40.8709 87.3355 40.8709C90.1435 40.8709 91.8715 39.4069 91.8715 37.0549V23.8789H96.8875V37.0549C96.8635 41.9989 93.1195 45.1909 87.3355 45.1909Z" fill="#868688"/>
<path d="M65.0161 45.1903C60.7681 45.1903 57.0721 43.8703 53.7121 41.1583L53.4961 40.9903L56.3521 37.5583L56.5681 37.7263C58.5121 39.2863 61.2481 41.0623 65.0881 41.0623C67.0801 41.0623 69.4321 40.3663 69.4321 38.4703C69.4321 36.8143 67.7281 36.3583 64.5601 36.1183C60.6241 35.8783 54.6721 35.4943 54.6721 29.9503C54.6721 25.0303 59.1361 23.2783 63.3121 23.2783C67.4401 23.2783 71.0881 24.7663 72.9841 26.0383L73.2241 26.2063L70.3441 29.7103L70.1281 29.5663C69.4561 29.0623 66.9841 27.4543 63.1921 27.4543C61.4881 27.4543 59.6641 28.0303 59.6641 29.6623C59.6641 31.1023 61.9201 31.2943 64.3201 31.4863L64.7041 31.5103C68.3281 31.7503 74.4001 32.1583 74.4001 38.0143C74.4001 42.5743 70.9921 45.1903 65.0161 45.1903Z" fill="#868688"/>
<path d="M143.52 44.5669H125.4V23.8789H142.8V28.2469H130.368V31.6309H137.856V35.9509H130.368V40.2469H143.52V44.5669Z" fill="#868688"/>
<path d="M50.0623 23.8789H45.0703V44.5909H50.0623V23.8789Z" fill="#868688"/>
<path d="M40.8231 44.5669H22.7031V23.8789H40.1031V28.2469H27.6711V31.6309H35.1591V35.9509H27.6711V40.2469H40.8231V44.5669Z" fill="#868688"/>
<path d="M19.8017 44.5669H2.92969V23.8789H7.92169V40.2469H19.8017V44.5669Z" fill="#868688"/>
<path d="M117.189 36.3115C119.733 35.1115 121.173 32.9995 121.173 30.5035C121.173 28.8955 120.549 27.3355 119.421 26.1355C117.957 24.5995 115.893 23.8555 113.133 23.8555H101.637V44.5675H106.605V37.1515H112.197L116.277 44.5675H121.989L117.189 36.3115ZM113.613 32.8795H106.629V28.1515H113.301C114.069 28.1515 114.885 28.2475 115.533 28.9435C115.941 29.3515 116.181 29.9035 116.181 30.5035C116.157 31.8475 115.053 32.8795 113.613 32.8795Z" fill="#868688"/>
<path d="M126.602 20.7105H109.73V0.0224609H114.722V16.3665H126.602V20.7105Z" fill="#868688"/>
<path d="M106.319 20.7105H88.2227V0.0224609H105.599V4.39046H93.1907V7.77446H100.655V12.0945H93.1907V16.3665H106.319V20.7105Z" fill="#868688"/>
<path d="M76.6326 20.7105H72.4566L62.8086 0.0224609H68.4246L74.6406 14.4225L80.8326 0.0224609H86.2806L76.6326 20.7105Z" fill="#868688"/>
<path d="M12.312 20.7105H7.344V4.39046H0V0.0224609H19.608V4.39046H12.312V20.7105Z" fill="#868688"/>
<path d="M57.4557 0.0224609H53.3037L43.6797 20.7105H48.9597L50.7837 16.4385H59.7837L61.6317 20.7105H67.1037L57.4557 0.0224609ZM52.5117 12.4305L55.2477 6.04646L58.0077 12.4305H52.5117Z" fill="#868688"/>
<path d="M37.5846 12.4549C40.1046 11.2549 41.5446 9.14288 41.5446 6.67088C41.5446 5.06288 40.9206 3.50288 39.7926 2.32688C38.3286 0.790875 36.2646 0.046875 33.5286 0.046875H22.0566V20.7109H27.0246V13.3189H32.5926L36.6726 20.7109H42.3846L37.5846 12.4549ZM34.0086 9.02287H27.0486V4.29488H33.6966C34.4646 4.29488 35.2806 4.39088 35.9286 5.06288C36.3366 5.47088 36.5526 6.02288 36.5526 6.62288C36.5526 8.01488 35.4486 9.02287 34.0086 9.02287Z" fill="#868688"/>
</svg>
