<svg width="223" height="39" viewBox="0 0 223 39" fill="none" xmlns="http://www.w3.org/2000/svg">
<path d="M13.0098 21.565C13.0098 23.0207 14.14 24.195 15.541 24.195C16.9368 24.195 18.0671 23.0207 18.0671 21.565C18.0671 20.1147 16.9368 18.9404 15.541 18.9404C14.14 18.9404 13.0098 20.1147 13.0098 21.565Z" fill="#868688"/>
<path d="M43.459 21.565C43.459 23.0207 44.5944 24.195 45.9902 24.195C47.3861 24.195 48.5215 23.0207 48.5215 21.565C48.5215 20.1147 47.3861 18.9404 45.9902 18.9404C44.5944 18.9404 43.459 20.1147 43.459 21.565Z" fill="#868688"/>
<path d="M11.8743 25.3748C10.9004 24.3575 10.3587 23.0046 10.3587 21.5652C10.3587 20.1311 10.9004 18.7783 11.8743 17.7663C12.8535 16.749 14.1556 16.1862 15.541 16.1862C18.39 16.1862 20.7129 18.5997 20.7129 21.5652C20.7129 24.5361 18.39 26.9496 15.541 26.9496C14.1556 26.9496 12.8535 26.3868 11.8743 25.3748ZM10.2598 16.0834C8.84831 17.5499 8.07227 19.498 8.07227 21.5652C8.07227 23.6378 8.84831 25.5913 10.2598 27.0524C11.666 28.5189 13.541 29.3252 15.541 29.3252C19.6504 29.3252 23.0046 25.8456 23.0046 21.5652C23.0046 17.2901 19.6504 13.8105 15.541 13.8105C13.541 13.8105 11.666 14.6169 10.2598 16.0834Z" fill="#868688"/>
<path d="M42.3288 25.3748C41.3496 24.3575 40.8132 23.0046 40.8132 21.5652C40.8132 20.1311 41.3496 18.7783 42.3288 17.7663C43.3027 16.749 44.6048 16.1862 45.9902 16.1862C48.8444 16.1862 51.1673 18.5997 51.1673 21.5652C51.1673 24.5361 48.8444 26.9496 45.9902 26.9496C44.6048 26.9496 43.3027 26.3868 42.3288 25.3748ZM40.709 16.0834C39.2975 17.5499 38.5215 19.498 38.5215 21.5652C38.5215 23.6378 39.2975 25.5913 40.709 27.0524C42.1204 28.5189 43.9954 29.3252 45.9902 29.3252C50.11 29.3252 53.4538 25.8456 53.4538 21.5652C53.4538 17.2901 50.11 13.8105 45.9902 13.8105C43.9954 13.8105 42.1204 14.6169 40.709 16.0834Z" fill="#868688"/>
<path d="M45.9896 34.5413C39.1042 34.5413 33.5 28.724 33.5 21.5647C33.5 14.4107 39.1042 8.5934 45.9896 8.5934C52.875 8.5934 58.474 14.4107 58.474 21.5647C58.474 28.724 52.875 34.5413 45.9896 34.5413ZM15.5417 34.5413C8.65104 34.5413 3.05208 28.724 3.05208 21.5647C3.05208 14.4107 8.65104 8.5934 15.5417 8.5934C22.4271 8.5934 28.026 14.4107 28.026 21.5647C28.026 28.724 22.4271 34.5413 15.5417 34.5413ZM58.0208 11.3641C58.6094 9.55122 59.5 7.41911 60.7396 6.13118H50.5365C50.3646 6.07707 50.1927 6.03919 50.0208 5.99048C49.4635 5.08677 45.6719 0 30.5 0C13.8542 0 10.901 6.13118 10.901 6.13118H0.260417C1.61979 7.54357 2.5625 9.96791 3.14063 11.8782C1.17708 14.5785 0 17.9282 0 21.5647C0 30.4719 6.96875 37.7125 15.5417 37.7125C20.2865 37.7125 24.5417 35.4829 27.3906 31.9817L30.9219 37.1118L33.9635 31.7815C36.8177 35.3963 41.1458 37.7125 45.9896 37.7125C54.5573 37.7125 61.526 30.4719 61.526 21.5647C61.526 17.7009 60.2083 14.151 58.0208 11.3641Z" fill="#868688"/>
<path d="M31.4479 1.8623C42.0885 1.8623 46.0938 6.46205 46.0938 6.46205C46.0938 6.46205 34.7135 4.49227 30.9219 19.0491C27.1302 4.49227 15.75 6.46205 15.75 6.46205C15.75 6.46205 19.7552 1.8623 30.3958 1.8623H31.4479Z" fill="#868688"/>
<path d="M31.4479 1.86106C42.0885 1.86106 46.0938 6.4608 46.0938 6.4608C46.0938 6.4608 34.7135 4.49103 30.9219 19.0479C27.1302 4.49103 15.75 6.4608 15.75 6.4608C15.75 6.4608 19.7552 1.86106 30.3958 1.86106H31.4479Z" stroke="#868688" stroke-width="0.762727"/>
<path d="M73.0215 9.6377V13.7775H77.3444V16.1639H73.0215V25.4716C73.0215 27.6146 73.6048 28.8267 75.2871 28.8267C76.11 28.8267 76.5892 28.751 77.0371 28.6103L77.1725 31.0021C76.5892 31.2132 75.6621 31.4296 74.4954 31.4296C73.0892 31.4296 71.9538 30.9264 71.235 30.1092C70.4069 29.146 70.0684 27.6146 70.0684 25.5799V16.1639H67.4902V13.7775H70.0684V10.6009L73.0215 9.6377Z" fill="#868688"/>
<path d="M80.0514 19.1613C80.0514 17.1266 80.0202 15.3787 79.916 13.7769H82.5566L82.6973 17.1644H82.7962C83.5514 14.8429 85.4056 13.3818 87.4316 13.3818C87.7389 13.3818 87.9837 13.4197 88.2598 13.4901V16.4123C87.9108 16.3798 87.6035 16.3419 87.1921 16.3419C85.0618 16.3419 83.5514 18.0195 83.14 20.3356C83.0723 20.8009 83.041 21.2988 83.041 21.8345V31.034H80.0202L80.0514 19.1613Z" fill="#868688"/>
<path d="M90.6608 31.0355V13.7784H93.6816V31.0355H90.6608ZM92.1035 10.6018C90.9681 10.6018 90.2129 9.67649 90.2129 8.56714C90.2129 7.4632 91.0046 6.57031 92.1712 6.57031C93.3379 6.57031 94.0931 7.4632 94.0931 8.56714C94.0931 9.67649 93.3379 10.6018 92.1348 10.6018H92.1035Z" fill="#868688"/>
<path d="M100.99 24.0099C100.99 24.4374 101.027 24.9028 101.126 25.2925C101.641 27.4679 103.495 28.9668 105.626 28.9668C108.818 28.9668 110.673 26.2557 110.673 22.2999C110.673 18.8366 108.954 15.8819 105.761 15.8819C103.704 15.8819 101.745 17.3755 101.162 19.7295C101.094 20.157 100.99 20.6224 100.99 21.012V24.0099ZM97.9694 19.4102C97.9694 17.1969 97.9382 15.4165 97.834 13.7769H100.542L100.714 16.7369H100.787C101.985 14.594 103.975 13.3818 106.652 13.3818C110.704 13.3818 113.725 16.9155 113.725 22.1538C113.725 28.3608 110.053 31.429 106.173 31.429C103.943 31.429 102.053 30.4279 101.058 28.7179H100.99V38.096H97.9694V19.4102Z" fill="#868688"/>
<path d="M125.532 22.2296C122.235 22.1538 118.495 22.7599 118.495 26.115C118.495 28.1822 119.798 29.1075 121.308 29.1075C123.506 29.1075 124.912 27.6843 125.391 26.2178C125.495 25.8985 125.532 25.5414 125.532 25.2221V22.2296ZM128.48 26.8997C128.48 28.3986 128.553 29.8597 128.725 31.034H126.011L125.735 28.8586H125.636C124.74 30.2169 122.923 31.4291 120.553 31.4291C117.193 31.4291 115.475 28.9668 115.475 26.4722C115.475 22.2999 119.042 20.0163 125.464 20.0542V19.697C125.464 18.2684 125.084 15.6655 121.688 15.6979C120.11 15.6979 118.495 16.1633 117.329 16.9859L116.641 14.8808C118.016 13.9879 120.042 13.3818 122.131 13.3818C127.245 13.3818 128.48 16.9859 128.48 20.4438V26.8997Z" fill="#868688"/>
<path d="M143.927 20.802C143.927 20.3745 143.895 19.8712 143.791 19.4437C143.343 17.4848 141.698 15.8451 139.432 15.8451C136.307 15.8451 134.453 18.6969 134.453 22.4795C134.453 26.0078 136.135 28.8975 139.364 28.8975C141.385 28.8975 143.239 27.4689 143.791 25.1528C143.895 24.7253 143.927 24.2978 143.927 23.7945V20.802ZM146.948 5.71484V26.576C146.948 28.1129 146.979 29.8608 147.083 31.0351H144.369L144.239 28.0425H144.166C143.239 29.969 141.25 31.4301 138.536 31.4301C134.526 31.4301 131.401 27.8964 131.401 22.6527C131.364 16.8787 134.833 13.3829 138.849 13.3829C141.422 13.3829 143.14 14.6329 143.859 15.9858H143.927V5.71484H146.948Z" fill="#868688"/>
<path d="M152.37 13.7783L155.636 23.4378C156.183 25.045 156.631 26.4736 156.969 27.8968H157.074C157.454 26.4736 157.933 25.045 158.48 23.4378L161.709 13.7783H164.865L158.344 31.0355H155.464L149.146 13.7783H152.37Z" fill="#868688"/>
<path d="M166.99 31.0355V13.7784H170.016V31.0355H166.99ZM168.432 10.6018C167.302 10.6018 166.547 9.67649 166.547 8.56714C166.547 7.4632 167.339 6.57031 168.505 6.57031C169.672 6.57031 170.427 7.4632 170.427 8.56714C170.427 9.67649 169.672 10.6018 168.469 10.6018H168.432Z" fill="#868688"/>
<path d="M173.891 27.8629C174.818 28.4311 176.396 29.0751 177.906 29.0751C180.068 29.0751 181.099 27.9657 181.099 26.5046C181.099 25.0056 180.24 24.1885 178.042 23.3335C175.026 22.1917 173.615 20.5141 173.615 18.447C173.615 15.6655 175.812 13.3818 179.349 13.3818C181.031 13.3818 182.505 13.8472 183.401 14.4533L182.677 16.6991C182.026 16.304 180.823 15.6979 179.281 15.6979C177.495 15.6979 176.531 16.7694 176.531 18.0519C176.531 19.5184 177.495 20.157 179.656 21.012C182.505 22.1213 184.016 23.6149 184.016 26.2178C184.016 29.2861 181.714 31.4291 177.839 31.4291C176.021 31.4291 174.339 30.9258 173.172 30.2169L173.891 27.8629Z" fill="#868688"/>
<path d="M194.037 29.0751C196.923 29.0751 199.084 26.2557 199.084 22.3324C199.084 19.4102 197.678 15.7358 194.105 15.7358C190.574 15.7358 189.027 19.1613 189.027 22.4406C189.027 26.2178 191.084 29.0751 194.006 29.0751H194.037ZM193.933 31.4291C189.475 31.4291 185.975 28.0036 185.975 22.5488C185.975 16.7694 189.646 13.3818 194.209 13.3818C198.98 13.3818 202.209 16.9859 202.209 22.2296C202.209 28.6476 197.917 31.4291 193.969 31.4291H193.933Z" fill="#868688"/>
<path d="M205.329 19.1613C205.329 17.1266 205.298 15.3787 205.193 13.7769H207.834L207.975 17.1644H208.079C208.829 14.8429 210.683 13.3818 212.709 13.3818C213.021 13.3818 213.256 13.4197 213.532 13.4901V16.4123C213.193 16.3798 212.881 16.3419 212.469 16.3419C210.344 16.3419 208.829 18.0195 208.417 20.3356C208.35 20.8009 208.318 21.2988 208.318 21.8345V31.034H205.298L205.329 19.1613Z" fill="#868688"/>
<path d="M218.86 15.1301H219.167C219.558 15.1301 219.787 14.9191 219.787 14.5944C219.787 14.2589 219.574 14.0857 219.214 14.0857C219.021 14.0857 218.917 14.0966 218.86 14.1128V15.1301ZM218.084 13.5392C218.334 13.4905 218.704 13.458 219.126 13.458C219.641 13.458 219.995 13.5392 220.245 13.7556C220.454 13.9288 220.568 14.1886 220.568 14.5295C220.568 15.0003 220.256 15.325 219.959 15.4386V15.4548C220.199 15.5577 220.334 15.8012 220.417 16.1421C220.527 16.5642 220.631 17.0512 220.699 17.1919H219.896C219.844 17.0891 219.756 16.7861 219.657 16.3261C219.563 15.8607 219.412 15.7416 219.089 15.7362H218.86V17.1919H218.084V13.5392Z" fill="#868688"/>
<path d="M216.578 15.4654C216.578 13.8798 217.818 12.5865 219.354 12.5865C220.88 12.5865 222.13 13.8798 222.13 15.4654C222.13 17.0564 220.88 18.3497 219.354 18.3497C217.818 18.3497 216.578 17.0564 216.578 15.4654ZM215.812 15.4654C215.812 17.4947 217.401 19.1452 219.354 19.1452C221.302 19.1452 222.891 17.4947 222.891 15.4654C222.891 13.4415 221.302 11.791 219.354 11.791C217.401 11.791 215.812 13.4415 215.812 15.4654Z" fill="#868688"/>
</svg>
