<svg width="374" height="40" viewBox="0 0 374 40" fill="none" xmlns="http://www.w3.org/2000/svg">
<g filter="url(#filter0_i_2388_222)">
<g filter="url(#filter1_d_2388_222)">
<path d="M24.9512 28.7939C25.1834 29.0471 25.2139 29.4256 25.0252 29.7126L21.9373 34.4119C21.806 34.6118 21.5872 34.737 21.3483 34.7491C21.1094 34.7611 20.8791 34.6584 20.7283 34.4728C20.2866 33.9287 19.7023 33.2421 19.0067 32.4246C18.8368 32.2249 18.6601 32.0173 18.4773 31.8021C18.4773 31.802 18.4773 31.802 18.4772 31.802L18.3688 31.6747C17.3676 30.4985 16.2 29.127 14.9994 27.6774C14.9785 27.7137 14.9542 27.7486 14.9267 27.7817C13.7225 29.2327 12.5599 30.6008 11.5339 31.8026C11.3512 32.0177 11.1747 32.2252 11.0048 32.4249C10.3093 33.2422 9.72512 33.9288 9.28341 34.4728C9.13271 34.6584 8.90255 34.761 8.66377 34.7491C8.425 34.7371 8.20621 34.6121 8.07474 34.4124L4.98099 29.7132C4.79237 29.4267 4.82216 29.0487 5.05335 28.7953C7.13576 26.5127 8.08479 25.3586 9.70985 23.3824L9.79715 23.2762L24.9512 28.7939ZM24.9512 28.7939C22.7401 26.3825 20.811 24.2142 19.1387 22.2583C19.2752 22.2079 19.3958 22.1182 19.4838 21.998C21.0651 19.8404 22.0358 18.259 22.6108 17.0936C23.1772 15.9457 23.3952 15.1323 23.3786 14.5329C23.3109 11.9699 22.6081 9.50903 21.3377 7.32591C21.1787 7.05268 20.8655 6.90848 20.5545 6.96537C20.5368 6.96861 20.5193 6.97246 20.5021 6.9769C20.5125 6.55347 20.4543 6.1898 20.3375 5.87663C20.3069 5.79454 20.2621 5.71844 20.2052 5.65179C18.903 4.12597 17.0131 3.25 15 3.25C12.9869 3.25 11.097 4.12597 9.79475 5.65179C9.74113 5.71463 9.69825 5.78589 9.66785 5.8627C9.49801 6.29191 9.41289 6.74939 9.4035 7.2346C9.37727 7.22625 9.35038 7.21929 9.32292 7.21379C9.00302 7.14979 8.67844 7.29993 8.52007 7.58515C7.34215 9.70664 6.69499 12.0687 6.62724 14.5262L6.62723 14.5266C6.61042 15.1486 6.84535 16.0019 7.46275 17.2231C8.07395 18.4321 9.09747 20.073 10.7558 22.3121M24.9512 28.7939L10.7558 22.3121M10.7558 22.3121C10.6126 22.3545 10.4836 22.4393 10.3871 22.5578C10.2555 22.7195 10.1279 22.8743 10.0027 23.0263C9.93376 23.11 9.8655 23.1929 9.79767 23.2756L10.7558 22.3121ZM14.8407 16.8805C14.8303 16.8946 14.8205 16.909 14.8112 16.9236C13.7764 15.5551 12.9202 14.3266 12.2255 13.2172L12.225 13.2164C11.8064 12.5496 11.4488 11.9307 11.1484 11.3551C11.2664 11.3424 11.381 11.3018 11.4822 11.2349C12.5217 10.5471 13.7552 10.1699 15 10.1699C16.154 10.1699 17.2742 10.4791 18.2582 11.0706C18.3488 11.1251 18.4489 11.1591 18.5517 11.172C17.6976 12.7662 16.4572 14.6777 14.8407 16.8805Z" fill="#7FB82B" stroke="#F9F9F9" stroke-width="1.5" />
<path fill-rule="evenodd" clip-rule="evenodd" d="M24.398 29.3008C17.9937 22.3164 13.9156 17.3301 11.5894 13.6152C10.1363 11.3008 9.34529 9.46094 9.17537 7.94922C8.05623 9.96484 7.441 12.209 7.37654 14.5469C7.35311 15.4141 8.04451 17.418 11.484 22.0352C13.8805 25.252 16.8687 28.7559 19.0484 31.3164C19.9742 32.4063 20.7535 33.3145 21.3101 34L24.398 29.3008Z" fill="#3C7B22"/>
</g>
<mask id="path-3-outside-1_2388_222" maskUnits="userSpaceOnUse" x="35.5" y="6.41211" width="338" height="25" fill="black">
<rect fill="white" x="35.5" y="6.41211" width="338" height="25"/>
<path d="M53.0895 9.26711L47.0475 19.2421L41.034 9.26711H37.5V29.2171H40.7775V14.9671L46.848 25.0276H47.247L53.3175 14.9956V29.2171H56.595V9.26711H53.0895Z"/>
<path d="M74.3179 23.4031C74.4034 22.8616 74.4319 22.4341 74.4319 22.1206C74.4319 20.0401 73.7479 18.2446 72.4084 16.7911C71.0689 15.3376 69.3589 14.5966 67.2784 14.5966C65.0838 14.5966 63.2598 15.3091 61.8633 16.7626C60.4668 18.1876 59.7544 19.9546 59.7544 22.0921C59.7544 24.2581 60.4669 26.0536 61.8919 27.4786C63.3169 28.8751 65.1979 29.5876 67.5064 29.5876C70.2709 29.5876 72.3513 28.5616 73.7479 26.4811L71.2113 24.9991C70.3848 26.1676 69.1594 26.7661 67.5349 26.7661C65.1694 26.7661 63.4309 25.5691 62.9749 23.4031H74.3179ZM62.9464 20.8951C63.3738 18.7291 64.9699 17.3896 67.2499 17.3896C69.2734 17.3896 70.8979 18.5866 71.3254 20.8951H62.9464Z"/>
<path d="M84.8148 14.5966C82.7913 14.5966 81.3378 15.3376 80.3973 16.7911V14.9671H77.3193V29.2171H80.3973V21.5791C80.3973 18.8146 81.8508 17.4751 84.0168 17.4751C85.9833 17.4751 87.2088 18.6436 87.2088 20.7811V29.2171H90.2868V20.4676C90.2868 16.8196 88.0923 14.5966 84.8148 14.5966Z"/>
<path d="M101.732 14.9671H98.1977V10.9771L95.1197 11.8891V14.9671H92.4977V17.9311H95.1197V24.7711C95.1197 28.5046 97.0292 29.7871 101.732 29.2171V26.4526C99.3947 26.5666 98.1977 26.5951 98.1977 24.7711V17.9311H101.732V14.9671Z"/>
<path d="M115.404 16.9906C114.235 15.3946 112.582 14.5966 110.416 14.5966C108.45 14.5966 106.797 15.3091 105.4 16.7626C104.004 18.2161 103.32 19.9831 103.32 22.0921C103.32 24.1726 104.004 25.9681 105.4 27.4216C106.797 28.8751 108.45 29.5876 110.416 29.5876C112.582 29.5876 114.235 28.7896 115.404 27.1651V29.2171H118.482V14.9671H115.404V16.9906ZM107.68 25.3696C106.825 24.4861 106.398 23.4031 106.398 22.0921C106.398 20.7811 106.825 19.6981 107.68 18.8431C108.535 17.9596 109.618 17.5321 110.901 17.5321C112.183 17.5321 113.266 17.9596 114.121 18.8431C114.976 19.6981 115.404 20.7811 115.404 22.0921C115.404 23.4031 114.976 24.4861 114.121 25.3696C113.266 26.2246 112.183 26.6521 110.901 26.6521C109.618 26.6521 108.535 26.2246 107.68 25.3696Z"/>
<path d="M125.327 29.2171V8.41211H122.249V29.2171H125.327Z"/>
<path d="M148.411 17.4466H139.861V9.26711H136.583V29.2171H139.861V20.5816H148.411V29.2171H151.688V9.26711H148.411V17.4466Z"/>
<path d="M169.421 23.4031C169.507 22.8616 169.535 22.4341 169.535 22.1206C169.535 20.0401 168.851 18.2446 167.512 16.7911C166.172 15.3376 164.462 14.5966 162.382 14.5966C160.187 14.5966 158.363 15.3091 156.967 16.7626C155.57 18.1876 154.858 19.9546 154.858 22.0921C154.858 24.2581 155.57 26.0536 156.995 27.4786C158.42 28.8751 160.301 29.5876 162.61 29.5876C165.374 29.5876 167.455 28.5616 168.851 26.4811L166.315 24.9991C165.488 26.1676 164.263 26.7661 162.638 26.7661C160.273 26.7661 158.534 25.5691 158.078 23.4031H169.421ZM158.05 20.8951C158.477 18.7291 160.073 17.3896 162.353 17.3896C164.377 17.3896 166.001 18.5866 166.429 20.8951H158.05Z"/>
<path d="M183.625 16.9906C182.457 15.3946 180.804 14.5966 178.638 14.5966C176.671 14.5966 175.018 15.3091 173.622 16.7626C172.225 18.2161 171.541 19.9831 171.541 22.0921C171.541 24.1726 172.225 25.9681 173.622 27.4216C175.018 28.8751 176.671 29.5876 178.638 29.5876C180.804 29.5876 182.457 28.7896 183.625 27.1651V29.2171H186.703V14.9671H183.625V16.9906ZM175.902 25.3696C175.047 24.4861 174.619 23.4031 174.619 22.0921C174.619 20.7811 175.047 19.6981 175.902 18.8431C176.757 17.9596 177.84 17.5321 179.122 17.5321C180.405 17.5321 181.488 17.9596 182.343 18.8431C183.198 19.6981 183.625 20.7811 183.625 22.0921C183.625 23.4031 183.198 24.4861 182.343 25.3696C181.488 26.2246 180.405 26.6521 179.122 26.6521C177.84 26.6521 176.757 26.2246 175.902 25.3696Z"/>
<path d="M193.548 29.2171V8.41211H190.47V29.2171H193.548Z"/>
<path d="M205.252 14.9671H201.718V10.9771L198.64 11.8891V14.9671H196.018V17.9311H198.64V24.7711C198.64 28.5046 200.55 29.7871 205.252 29.2171V26.4526C202.915 26.5666 201.718 26.5951 201.718 24.7711V17.9311H205.252V14.9671Z"/>
<path d="M215.719 14.5966C213.695 14.5966 212.242 15.3376 211.301 16.7911V9.26711H208.223V29.2171H211.301V21.5791C211.301 18.8146 212.755 17.4751 214.921 17.4751C216.887 17.4751 218.113 18.6436 218.113 20.7811V29.2171H221.191V20.4676C221.191 16.8196 218.996 14.5966 215.719 14.5966Z"/>
<path d="M248.718 29.2171L241.507 9.26711H237.574L230.335 29.2171H233.898L235.294 25.1986H243.787L245.184 29.2171H248.718ZM239.54 13.1146L242.704 22.1206H236.377L239.54 13.1146Z"/>
<path d="M263.909 24.7996L260.945 14.9671H258.009L255.017 24.7996L252.252 14.9671H249.003L253.478 29.2171H256.499L259.491 19.6126L262.455 29.2171H265.476L269.951 14.9671H266.702L263.909 24.7996Z"/>
<path d="M283.126 16.9906C281.957 15.3946 280.304 14.5966 278.138 14.5966C276.172 14.5966 274.519 15.3091 273.122 16.7626C271.726 18.2161 271.042 19.9831 271.042 22.0921C271.042 24.1726 271.726 25.9681 273.122 27.4216C274.519 28.8751 276.172 29.5876 278.138 29.5876C280.304 29.5876 281.957 28.7896 283.126 27.1651V29.2171H286.204V14.9671H283.126V16.9906ZM275.402 25.3696C274.547 24.4861 274.12 23.4031 274.12 22.0921C274.12 20.7811 274.547 19.6981 275.402 18.8431C276.257 17.9596 277.34 17.5321 278.623 17.5321C279.905 17.5321 280.988 17.9596 281.843 18.8431C282.698 19.6981 283.126 20.7811 283.126 22.0921C283.126 23.4031 282.698 24.4861 281.843 25.3696C280.988 26.2246 279.905 26.6521 278.623 26.6521C277.34 26.6521 276.257 26.2246 275.402 25.3696Z"/>
<path d="M293.049 14.9671H289.971V29.2171H293.049V22.0351C293.049 20.5816 293.476 19.5271 294.36 18.9001C295.243 18.2446 296.269 17.9596 297.438 18.0451V14.7106C295.3 14.7106 293.818 15.5941 293.049 17.3611V14.9671Z"/>
<path d="M312.988 23.4031C313.074 22.8616 313.102 22.4341 313.102 22.1206C313.102 20.0401 312.418 18.2446 311.079 16.7911C309.739 15.3376 308.029 14.5966 305.949 14.5966C303.754 14.5966 301.93 15.3091 300.534 16.7626C299.137 18.1876 298.425 19.9546 298.425 22.0921C298.425 24.2581 299.137 26.0536 300.562 27.4786C301.987 28.8751 303.868 29.5876 306.177 29.5876C308.941 29.5876 311.022 28.5616 312.418 26.4811L309.882 24.9991C309.055 26.1676 307.83 26.7661 306.205 26.7661C303.84 26.7661 302.101 25.5691 301.645 23.4031H312.988ZM301.617 20.8951C302.044 18.7291 303.64 17.3896 305.92 17.3896C307.944 17.3896 309.568 18.5866 309.996 20.8951H301.617Z"/>
<path d="M323.485 14.5966C321.462 14.5966 320.008 15.3376 319.068 16.7911V14.9671H315.99V29.2171H319.068V21.5791C319.068 18.8146 320.521 17.4751 322.687 17.4751C324.654 17.4751 325.879 18.6436 325.879 20.7811V29.2171H328.957V20.4676C328.957 16.8196 326.763 14.5966 323.485 14.5966Z"/>
<path d="M346.216 23.4031C346.302 22.8616 346.33 22.4341 346.33 22.1206C346.33 20.0401 345.646 18.2446 344.307 16.7911C342.967 15.3376 341.257 14.5966 339.177 14.5966C336.982 14.5966 335.158 15.3091 333.762 16.7626C332.365 18.1876 331.653 19.9546 331.653 22.0921C331.653 24.2581 332.365 26.0536 333.79 27.4786C335.215 28.8751 337.096 29.5876 339.405 29.5876C342.169 29.5876 344.25 28.5616 345.646 26.4811L343.11 24.9991C342.283 26.1676 341.058 26.7661 339.433 26.7661C337.068 26.7661 335.329 25.5691 334.873 23.4031H346.216ZM334.845 20.8951C335.272 18.7291 336.868 17.3896 339.148 17.3896C341.172 17.3896 342.796 18.5866 343.224 20.8951H334.845Z"/>
<path d="M351.426 18.9001C351.426 17.9026 352.338 17.3896 353.506 17.3896C354.789 17.3896 355.701 17.9311 356.185 19.0141L358.779 17.5606C357.781 15.7081 355.872 14.5966 353.506 14.5966C352.024 14.5966 350.77 14.9956 349.773 15.7936C348.775 16.5916 348.291 17.6461 348.291 18.9571C348.234 21.9496 351.112 22.8046 353.25 23.3461C354.76 23.7166 355.957 24.2581 355.957 25.1701C355.957 26.2246 355.159 26.7661 353.535 26.7661C351.91 26.7661 350.856 26.0821 350.371 24.7141L347.721 26.2531C348.633 28.3336 350.713 29.5876 353.535 29.5876C355.131 29.5876 356.442 29.1886 357.496 28.4191C358.551 27.6496 359.092 26.5666 359.092 25.1986C359.149 22.1491 356.299 21.2371 354.105 20.7526C352.623 20.3251 351.426 19.8406 351.426 18.9001Z"/>
<path d="M363.879 18.9001C363.879 17.9026 364.791 17.3896 365.959 17.3896C367.242 17.3896 368.154 17.9311 368.638 19.0141L371.232 17.5606C370.234 15.7081 368.325 14.5966 365.959 14.5966C364.477 14.5966 363.223 14.9956 362.226 15.7936C361.228 16.5916 360.744 17.6461 360.744 18.9571C360.687 21.9496 363.565 22.8046 365.703 23.3461C367.213 23.7166 368.41 24.2581 368.41 25.1701C368.41 26.2246 367.612 26.7661 365.988 26.7661C364.363 26.7661 363.309 26.0821 362.824 24.7141L360.174 26.2531C361.086 28.3336 363.166 29.5876 365.988 29.5876C367.584 29.5876 368.895 29.1886 369.949 28.4191C371.004 27.6496 371.545 26.5666 371.545 25.1986C371.602 22.1491 368.752 21.2371 366.558 20.7526C365.076 20.3251 363.879 19.8406 363.879 18.9001Z"/>
</mask>
<g filter="url(#filter2_i_2388_222)">
<path d="M53.0895 9.26711L47.0475 19.2421L41.034 9.26711H37.5V29.2171H40.7775V14.9671L46.848 25.0276H47.247L53.3175 14.9956V29.2171H56.595V9.26711H53.0895Z" fill="#609E34"/>
<path d="M74.3179 23.4031C74.4034 22.8616 74.4319 22.4341 74.4319 22.1206C74.4319 20.0401 73.7479 18.2446 72.4084 16.7911C71.0689 15.3376 69.3589 14.5966 67.2784 14.5966C65.0838 14.5966 63.2598 15.3091 61.8633 16.7626C60.4668 18.1876 59.7544 19.9546 59.7544 22.0921C59.7544 24.2581 60.4669 26.0536 61.8919 27.4786C63.3169 28.8751 65.1979 29.5876 67.5064 29.5876C70.2709 29.5876 72.3513 28.5616 73.7479 26.4811L71.2113 24.9991C70.3848 26.1676 69.1594 26.7661 67.5349 26.7661C65.1694 26.7661 63.4309 25.5691 62.9749 23.4031H74.3179ZM62.9464 20.8951C63.3738 18.7291 64.9699 17.3896 67.2499 17.3896C69.2734 17.3896 70.8979 18.5866 71.3254 20.8951H62.9464Z" fill="#609E34"/>
<path d="M84.8148 14.5966C82.7913 14.5966 81.3378 15.3376 80.3973 16.7911V14.9671H77.3193V29.2171H80.3973V21.5791C80.3973 18.8146 81.8508 17.4751 84.0168 17.4751C85.9833 17.4751 87.2088 18.6436 87.2088 20.7811V29.2171H90.2868V20.4676C90.2868 16.8196 88.0923 14.5966 84.8148 14.5966Z" fill="#609E34"/>
<path d="M101.732 14.9671H98.1977V10.9771L95.1197 11.8891V14.9671H92.4977V17.9311H95.1197V24.7711C95.1197 28.5046 97.0292 29.7871 101.732 29.2171V26.4526C99.3947 26.5666 98.1977 26.5951 98.1977 24.7711V17.9311H101.732V14.9671Z" fill="#609E34"/>
<path d="M115.404 16.9906C114.235 15.3946 112.582 14.5966 110.416 14.5966C108.45 14.5966 106.797 15.3091 105.4 16.7626C104.004 18.2161 103.32 19.9831 103.32 22.0921C103.32 24.1726 104.004 25.9681 105.4 27.4216C106.797 28.8751 108.45 29.5876 110.416 29.5876C112.582 29.5876 114.235 28.7896 115.404 27.1651V29.2171H118.482V14.9671H115.404V16.9906ZM107.68 25.3696C106.825 24.4861 106.398 23.4031 106.398 22.0921C106.398 20.7811 106.825 19.6981 107.68 18.8431C108.535 17.9596 109.618 17.5321 110.901 17.5321C112.183 17.5321 113.266 17.9596 114.121 18.8431C114.976 19.6981 115.404 20.7811 115.404 22.0921C115.404 23.4031 114.976 24.4861 114.121 25.3696C113.266 26.2246 112.183 26.6521 110.901 26.6521C109.618 26.6521 108.535 26.2246 107.68 25.3696Z" fill="#609E34"/>
<path d="M125.327 29.2171V8.41211H122.249V29.2171H125.327Z" fill="#609E34"/>
<path d="M148.411 17.4466H139.861V9.26711H136.583V29.2171H139.861V20.5816H148.411V29.2171H151.688V9.26711H148.411V17.4466Z" fill="#609E34"/>
<path d="M169.421 23.4031C169.507 22.8616 169.535 22.4341 169.535 22.1206C169.535 20.0401 168.851 18.2446 167.512 16.7911C166.172 15.3376 164.462 14.5966 162.382 14.5966C160.187 14.5966 158.363 15.3091 156.967 16.7626C155.57 18.1876 154.858 19.9546 154.858 22.0921C154.858 24.2581 155.57 26.0536 156.995 27.4786C158.42 28.8751 160.301 29.5876 162.61 29.5876C165.374 29.5876 167.455 28.5616 168.851 26.4811L166.315 24.9991C165.488 26.1676 164.263 26.7661 162.638 26.7661C160.273 26.7661 158.534 25.5691 158.078 23.4031H169.421ZM158.05 20.8951C158.477 18.7291 160.073 17.3896 162.353 17.3896C164.377 17.3896 166.001 18.5866 166.429 20.8951H158.05Z" fill="#609E34"/>
<path d="M183.625 16.9906C182.457 15.3946 180.804 14.5966 178.638 14.5966C176.671 14.5966 175.018 15.3091 173.622 16.7626C172.225 18.2161 171.541 19.9831 171.541 22.0921C171.541 24.1726 172.225 25.9681 173.622 27.4216C175.018 28.8751 176.671 29.5876 178.638 29.5876C180.804 29.5876 182.457 28.7896 183.625 27.1651V29.2171H186.703V14.9671H183.625V16.9906ZM175.902 25.3696C175.047 24.4861 174.619 23.4031 174.619 22.0921C174.619 20.7811 175.047 19.6981 175.902 18.8431C176.757 17.9596 177.84 17.5321 179.122 17.5321C180.405 17.5321 181.488 17.9596 182.343 18.8431C183.198 19.6981 183.625 20.7811 183.625 22.0921C183.625 23.4031 183.198 24.4861 182.343 25.3696C181.488 26.2246 180.405 26.6521 179.122 26.6521C177.84 26.6521 176.757 26.2246 175.902 25.3696Z" fill="#609E34"/>
<path d="M193.548 29.2171V8.41211H190.47V29.2171H193.548Z" fill="#609E34"/>
<path d="M205.252 14.9671H201.718V10.9771L198.64 11.8891V14.9671H196.018V17.9311H198.64V24.7711C198.64 28.5046 200.55 29.7871 205.252 29.2171V26.4526C202.915 26.5666 201.718 26.5951 201.718 24.7711V17.9311H205.252V14.9671Z" fill="#609E34"/>
<path d="M215.719 14.5966C213.695 14.5966 212.242 15.3376 211.301 16.7911V9.26711H208.223V29.2171H211.301V21.5791C211.301 18.8146 212.755 17.4751 214.921 17.4751C216.887 17.4751 218.113 18.6436 218.113 20.7811V29.2171H221.191V20.4676C221.191 16.8196 218.996 14.5966 215.719 14.5966Z" fill="#609E34"/>
<path d="M248.718 29.2171L241.507 9.26711H237.574L230.335 29.2171H233.898L235.294 25.1986H243.787L245.184 29.2171H248.718ZM239.54 13.1146L242.704 22.1206H236.377L239.54 13.1146Z" fill="#609E34"/>
<path d="M263.909 24.7996L260.945 14.9671H258.009L255.017 24.7996L252.252 14.9671H249.003L253.478 29.2171H256.499L259.491 19.6126L262.455 29.2171H265.476L269.951 14.9671H266.702L263.909 24.7996Z" fill="#609E34"/>
<path d="M283.126 16.9906C281.957 15.3946 280.304 14.5966 278.138 14.5966C276.172 14.5966 274.519 15.3091 273.122 16.7626C271.726 18.2161 271.042 19.9831 271.042 22.0921C271.042 24.1726 271.726 25.9681 273.122 27.4216C274.519 28.8751 276.172 29.5876 278.138 29.5876C280.304 29.5876 281.957 28.7896 283.126 27.1651V29.2171H286.204V14.9671H283.126V16.9906ZM275.402 25.3696C274.547 24.4861 274.12 23.4031 274.12 22.0921C274.12 20.7811 274.547 19.6981 275.402 18.8431C276.257 17.9596 277.34 17.5321 278.623 17.5321C279.905 17.5321 280.988 17.9596 281.843 18.8431C282.698 19.6981 283.126 20.7811 283.126 22.0921C283.126 23.4031 282.698 24.4861 281.843 25.3696C280.988 26.2246 279.905 26.6521 278.623 26.6521C277.34 26.6521 276.257 26.2246 275.402 25.3696Z" fill="#609E34"/>
<path d="M293.049 14.9671H289.971V29.2171H293.049V22.0351C293.049 20.5816 293.476 19.5271 294.36 18.9001C295.243 18.2446 296.269 17.9596 297.438 18.0451V14.7106C295.3 14.7106 293.818 15.5941 293.049 17.3611V14.9671Z" fill="#609E34"/>
<path d="M312.988 23.4031C313.074 22.8616 313.102 22.4341 313.102 22.1206C313.102 20.0401 312.418 18.2446 311.079 16.7911C309.739 15.3376 308.029 14.5966 305.949 14.5966C303.754 14.5966 301.93 15.3091 300.534 16.7626C299.137 18.1876 298.425 19.9546 298.425 22.0921C298.425 24.2581 299.137 26.0536 300.562 27.4786C301.987 28.8751 303.868 29.5876 306.177 29.5876C308.941 29.5876 311.022 28.5616 312.418 26.4811L309.882 24.9991C309.055 26.1676 307.83 26.7661 306.205 26.7661C303.84 26.7661 302.101 25.5691 301.645 23.4031H312.988ZM301.617 20.8951C302.044 18.7291 303.64 17.3896 305.92 17.3896C307.944 17.3896 309.568 18.5866 309.996 20.8951H301.617Z" fill="#609E34"/>
<path d="M323.485 14.5966C321.462 14.5966 320.008 15.3376 319.068 16.7911V14.9671H315.99V29.2171H319.068V21.5791C319.068 18.8146 320.521 17.4751 322.687 17.4751C324.654 17.4751 325.879 18.6436 325.879 20.7811V29.2171H328.957V20.4676C328.957 16.8196 326.763 14.5966 323.485 14.5966Z" fill="#609E34"/>
<path d="M346.216 23.4031C346.302 22.8616 346.33 22.4341 346.33 22.1206C346.33 20.0401 345.646 18.2446 344.307 16.7911C342.967 15.3376 341.257 14.5966 339.177 14.5966C336.982 14.5966 335.158 15.3091 333.762 16.7626C332.365 18.1876 331.653 19.9546 331.653 22.0921C331.653 24.2581 332.365 26.0536 333.79 27.4786C335.215 28.8751 337.096 29.5876 339.405 29.5876C342.169 29.5876 344.25 28.5616 345.646 26.4811L343.11 24.9991C342.283 26.1676 341.058 26.7661 339.433 26.7661C337.068 26.7661 335.329 25.5691 334.873 23.4031H346.216ZM334.845 20.8951C335.272 18.7291 336.868 17.3896 339.148 17.3896C341.172 17.3896 342.796 18.5866 343.224 20.8951H334.845Z" fill="#609E34"/>
<path d="M351.426 18.9001C351.426 17.9026 352.338 17.3896 353.506 17.3896C354.789 17.3896 355.701 17.9311 356.185 19.0141L358.779 17.5606C357.781 15.7081 355.872 14.5966 353.506 14.5966C352.024 14.5966 350.77 14.9956 349.773 15.7936C348.775 16.5916 348.291 17.6461 348.291 18.9571C348.234 21.9496 351.112 22.8046 353.25 23.3461C354.76 23.7166 355.957 24.2581 355.957 25.1701C355.957 26.2246 355.159 26.7661 353.535 26.7661C351.91 26.7661 350.856 26.0821 350.371 24.7141L347.721 26.2531C348.633 28.3336 350.713 29.5876 353.535 29.5876C355.131 29.5876 356.442 29.1886 357.496 28.4191C358.551 27.6496 359.092 26.5666 359.092 25.1986C359.149 22.1491 356.299 21.2371 354.105 20.7526C352.623 20.3251 351.426 19.8406 351.426 18.9001Z" fill="#609E34"/>
<path d="M363.879 18.9001C363.879 17.9026 364.791 17.3896 365.959 17.3896C367.242 17.3896 368.154 17.9311 368.638 19.0141L371.232 17.5606C370.234 15.7081 368.325 14.5966 365.959 14.5966C364.477 14.5966 363.223 14.9956 362.226 15.7936C361.228 16.5916 360.744 17.6461 360.744 18.9571C360.687 21.9496 363.565 22.8046 365.703 23.3461C367.213 23.7166 368.41 24.2581 368.41 25.1701C368.41 26.2246 367.612 26.7661 365.988 26.7661C364.363 26.7661 363.309 26.0821 362.824 24.7141L360.174 26.2531C361.086 28.3336 363.166 29.5876 365.988 29.5876C367.584 29.5876 368.895 29.1886 369.949 28.4191C371.004 27.6496 371.545 26.5666 371.545 25.1986C371.602 22.1491 368.752 21.2371 366.558 20.7526C365.076 20.3251 363.879 19.8406 363.879 18.9001Z" fill="#609E34"/>
</g>
<path d="M53.0895 9.26711L47.0475 19.2421L41.034 9.26711H37.5V29.2171H40.7775V14.9671L46.848 25.0276H47.247L53.3175 14.9956V29.2171H56.595V9.26711H53.0895Z" stroke="#F9F9F9" stroke-width="3" mask="url(#path-3-outside-1_2388_222)"/>
<path d="M74.3179 23.4031C74.4034 22.8616 74.4319 22.4341 74.4319 22.1206C74.4319 20.0401 73.7479 18.2446 72.4084 16.7911C71.0689 15.3376 69.3589 14.5966 67.2784 14.5966C65.0838 14.5966 63.2598 15.3091 61.8633 16.7626C60.4668 18.1876 59.7544 19.9546 59.7544 22.0921C59.7544 24.2581 60.4669 26.0536 61.8919 27.4786C63.3169 28.8751 65.1979 29.5876 67.5064 29.5876C70.2709 29.5876 72.3513 28.5616 73.7479 26.4811L71.2113 24.9991C70.3848 26.1676 69.1594 26.7661 67.5349 26.7661C65.1694 26.7661 63.4309 25.5691 62.9749 23.4031H74.3179ZM62.9464 20.8951C63.3738 18.7291 64.9699 17.3896 67.2499 17.3896C69.2734 17.3896 70.8979 18.5866 71.3254 20.8951H62.9464Z" stroke="#F9F9F9" stroke-width="3" mask="url(#path-3-outside-1_2388_222)"/>
<path d="M84.8148 14.5966C82.7913 14.5966 81.3378 15.3376 80.3973 16.7911V14.9671H77.3193V29.2171H80.3973V21.5791C80.3973 18.8146 81.8508 17.4751 84.0168 17.4751C85.9833 17.4751 87.2088 18.6436 87.2088 20.7811V29.2171H90.2868V20.4676C90.2868 16.8196 88.0923 14.5966 84.8148 14.5966Z" stroke="#F9F9F9" stroke-width="3" mask="url(#path-3-outside-1_2388_222)"/>
<path d="M101.732 14.9671H98.1977V10.9771L95.1197 11.8891V14.9671H92.4977V17.9311H95.1197V24.7711C95.1197 28.5046 97.0292 29.7871 101.732 29.2171V26.4526C99.3947 26.5666 98.1977 26.5951 98.1977 24.7711V17.9311H101.732V14.9671Z" stroke="#F9F9F9" stroke-width="3" mask="url(#path-3-outside-1_2388_222)"/>
<path d="M115.404 16.9906C114.235 15.3946 112.582 14.5966 110.416 14.5966C108.45 14.5966 106.797 15.3091 105.4 16.7626C104.004 18.2161 103.32 19.9831 103.32 22.0921C103.32 24.1726 104.004 25.9681 105.4 27.4216C106.797 28.8751 108.45 29.5876 110.416 29.5876C112.582 29.5876 114.235 28.7896 115.404 27.1651V29.2171H118.482V14.9671H115.404V16.9906ZM107.68 25.3696C106.825 24.4861 106.398 23.4031 106.398 22.0921C106.398 20.7811 106.825 19.6981 107.68 18.8431C108.535 17.9596 109.618 17.5321 110.901 17.5321C112.183 17.5321 113.266 17.9596 114.121 18.8431C114.976 19.6981 115.404 20.7811 115.404 22.0921C115.404 23.4031 114.976 24.4861 114.121 25.3696C113.266 26.2246 112.183 26.6521 110.901 26.6521C109.618 26.6521 108.535 26.2246 107.68 25.3696Z" stroke="#F9F9F9" stroke-width="3" mask="url(#path-3-outside-1_2388_222)"/>
<path d="M125.327 29.2171V8.41211H122.249V29.2171H125.327Z" stroke="#F9F9F9" stroke-width="3" mask="url(#path-3-outside-1_2388_222)"/>
<path d="M148.411 17.4466H139.861V9.26711H136.583V29.2171H139.861V20.5816H148.411V29.2171H151.688V9.26711H148.411V17.4466Z" stroke="#F9F9F9" stroke-width="3" mask="url(#path-3-outside-1_2388_222)"/>
<path d="M169.421 23.4031C169.507 22.8616 169.535 22.4341 169.535 22.1206C169.535 20.0401 168.851 18.2446 167.512 16.7911C166.172 15.3376 164.462 14.5966 162.382 14.5966C160.187 14.5966 158.363 15.3091 156.967 16.7626C155.57 18.1876 154.858 19.9546 154.858 22.0921C154.858 24.2581 155.57 26.0536 156.995 27.4786C158.42 28.8751 160.301 29.5876 162.61 29.5876C165.374 29.5876 167.455 28.5616 168.851 26.4811L166.315 24.9991C165.488 26.1676 164.263 26.7661 162.638 26.7661C160.273 26.7661 158.534 25.5691 158.078 23.4031H169.421ZM158.05 20.8951C158.477 18.7291 160.073 17.3896 162.353 17.3896C164.377 17.3896 166.001 18.5866 166.429 20.8951H158.05Z" stroke="#F9F9F9" stroke-width="3" mask="url(#path-3-outside-1_2388_222)"/>
<path d="M183.625 16.9906C182.457 15.3946 180.804 14.5966 178.638 14.5966C176.671 14.5966 175.018 15.3091 173.622 16.7626C172.225 18.2161 171.541 19.9831 171.541 22.0921C171.541 24.1726 172.225 25.9681 173.622 27.4216C175.018 28.8751 176.671 29.5876 178.638 29.5876C180.804 29.5876 182.457 28.7896 183.625 27.1651V29.2171H186.703V14.9671H183.625V16.9906ZM175.902 25.3696C175.047 24.4861 174.619 23.4031 174.619 22.0921C174.619 20.7811 175.047 19.6981 175.902 18.8431C176.757 17.9596 177.84 17.5321 179.122 17.5321C180.405 17.5321 181.488 17.9596 182.343 18.8431C183.198 19.6981 183.625 20.7811 183.625 22.0921C183.625 23.4031 183.198 24.4861 182.343 25.3696C181.488 26.2246 180.405 26.6521 179.122 26.6521C177.84 26.6521 176.757 26.2246 175.902 25.3696Z" stroke="#F9F9F9" stroke-width="3" mask="url(#path-3-outside-1_2388_222)"/>
<path d="M193.548 29.2171V8.41211H190.47V29.2171H193.548Z" stroke="#F9F9F9" stroke-width="3" mask="url(#path-3-outside-1_2388_222)"/>
<path d="M205.252 14.9671H201.718V10.9771L198.64 11.8891V14.9671H196.018V17.9311H198.64V24.7711C198.64 28.5046 200.55 29.7871 205.252 29.2171V26.4526C202.915 26.5666 201.718 26.5951 201.718 24.7711V17.9311H205.252V14.9671Z" stroke="#F9F9F9" stroke-width="3" mask="url(#path-3-outside-1_2388_222)"/>
<path d="M215.719 14.5966C213.695 14.5966 212.242 15.3376 211.301 16.7911V9.26711H208.223V29.2171H211.301V21.5791C211.301 18.8146 212.755 17.4751 214.921 17.4751C216.887 17.4751 218.113 18.6436 218.113 20.7811V29.2171H221.191V20.4676C221.191 16.8196 218.996 14.5966 215.719 14.5966Z" stroke="#F9F9F9" stroke-width="3" mask="url(#path-3-outside-1_2388_222)"/>
<path d="M248.718 29.2171L241.507 9.26711H237.574L230.335 29.2171H233.898L235.294 25.1986H243.787L245.184 29.2171H248.718ZM239.54 13.1146L242.704 22.1206H236.377L239.54 13.1146Z" stroke="#F9F9F9" stroke-width="3" mask="url(#path-3-outside-1_2388_222)"/>
<path d="M263.909 24.7996L260.945 14.9671H258.009L255.017 24.7996L252.252 14.9671H249.003L253.478 29.2171H256.499L259.491 19.6126L262.455 29.2171H265.476L269.951 14.9671H266.702L263.909 24.7996Z" stroke="#F9F9F9" stroke-width="3" mask="url(#path-3-outside-1_2388_222)"/>
<path d="M283.126 16.9906C281.957 15.3946 280.304 14.5966 278.138 14.5966C276.172 14.5966 274.519 15.3091 273.122 16.7626C271.726 18.2161 271.042 19.9831 271.042 22.0921C271.042 24.1726 271.726 25.9681 273.122 27.4216C274.519 28.8751 276.172 29.5876 278.138 29.5876C280.304 29.5876 281.957 28.7896 283.126 27.1651V29.2171H286.204V14.9671H283.126V16.9906ZM275.402 25.3696C274.547 24.4861 274.12 23.4031 274.12 22.0921C274.12 20.7811 274.547 19.6981 275.402 18.8431C276.257 17.9596 277.34 17.5321 278.623 17.5321C279.905 17.5321 280.988 17.9596 281.843 18.8431C282.698 19.6981 283.126 20.7811 283.126 22.0921C283.126 23.4031 282.698 24.4861 281.843 25.3696C280.988 26.2246 279.905 26.6521 278.623 26.6521C277.34 26.6521 276.257 26.2246 275.402 25.3696Z" stroke="#F9F9F9" stroke-width="3" mask="url(#path-3-outside-1_2388_222)"/>
<path d="M293.049 14.9671H289.971V29.2171H293.049V22.0351C293.049 20.5816 293.476 19.5271 294.36 18.9001C295.243 18.2446 296.269 17.9596 297.438 18.0451V14.7106C295.3 14.7106 293.818 15.5941 293.049 17.3611V14.9671Z" stroke="#F9F9F9" stroke-width="3" mask="url(#path-3-outside-1_2388_222)"/>
<path d="M312.988 23.4031C313.074 22.8616 313.102 22.4341 313.102 22.1206C313.102 20.0401 312.418 18.2446 311.079 16.7911C309.739 15.3376 308.029 14.5966 305.949 14.5966C303.754 14.5966 301.93 15.3091 300.534 16.7626C299.137 18.1876 298.425 19.9546 298.425 22.0921C298.425 24.2581 299.137 26.0536 300.562 27.4786C301.987 28.8751 303.868 29.5876 306.177 29.5876C308.941 29.5876 311.022 28.5616 312.418 26.4811L309.882 24.9991C309.055 26.1676 307.83 26.7661 306.205 26.7661C303.84 26.7661 302.101 25.5691 301.645 23.4031H312.988ZM301.617 20.8951C302.044 18.7291 303.64 17.3896 305.92 17.3896C307.944 17.3896 309.568 18.5866 309.996 20.8951H301.617Z" stroke="#F9F9F9" stroke-width="3" mask="url(#path-3-outside-1_2388_222)"/>
<path d="M323.485 14.5966C321.462 14.5966 320.008 15.3376 319.068 16.7911V14.9671H315.99V29.2171H319.068V21.5791C319.068 18.8146 320.521 17.4751 322.687 17.4751C324.654 17.4751 325.879 18.6436 325.879 20.7811V29.2171H328.957V20.4676C328.957 16.8196 326.763 14.5966 323.485 14.5966Z" stroke="#F9F9F9" stroke-width="3" mask="url(#path-3-outside-1_2388_222)"/>
<path d="M346.216 23.4031C346.302 22.8616 346.33 22.4341 346.33 22.1206C346.33 20.0401 345.646 18.2446 344.307 16.7911C342.967 15.3376 341.257 14.5966 339.177 14.5966C336.982 14.5966 335.158 15.3091 333.762 16.7626C332.365 18.1876 331.653 19.9546 331.653 22.0921C331.653 24.2581 332.365 26.0536 333.79 27.4786C335.215 28.8751 337.096 29.5876 339.405 29.5876C342.169 29.5876 344.25 28.5616 345.646 26.4811L343.11 24.9991C342.283 26.1676 341.058 26.7661 339.433 26.7661C337.068 26.7661 335.329 25.5691 334.873 23.4031H346.216ZM334.845 20.8951C335.272 18.7291 336.868 17.3896 339.148 17.3896C341.172 17.3896 342.796 18.5866 343.224 20.8951H334.845Z" stroke="#F9F9F9" stroke-width="3" mask="url(#path-3-outside-1_2388_222)"/>
<path d="M351.426 18.9001C351.426 17.9026 352.338 17.3896 353.506 17.3896C354.789 17.3896 355.701 17.9311 356.185 19.0141L358.779 17.5606C357.781 15.7081 355.872 14.5966 353.506 14.5966C352.024 14.5966 350.77 14.9956 349.773 15.7936C348.775 16.5916 348.291 17.6461 348.291 18.9571C348.234 21.9496 351.112 22.8046 353.25 23.3461C354.76 23.7166 355.957 24.2581 355.957 25.1701C355.957 26.2246 355.159 26.7661 353.535 26.7661C351.91 26.7661 350.856 26.0821 350.371 24.7141L347.721 26.2531C348.633 28.3336 350.713 29.5876 353.535 29.5876C355.131 29.5876 356.442 29.1886 357.496 28.4191C358.551 27.6496 359.092 26.5666 359.092 25.1986C359.149 22.1491 356.299 21.2371 354.105 20.7526C352.623 20.3251 351.426 19.8406 351.426 18.9001Z" stroke="#F9F9F9" stroke-width="3" mask="url(#path-3-outside-1_2388_222)"/>
<path d="M363.879 18.9001C363.879 17.9026 364.791 17.3896 365.959 17.3896C367.242 17.3896 368.154 17.9311 368.638 19.0141L371.232 17.5606C370.234 15.7081 368.325 14.5966 365.959 14.5966C364.477 14.5966 363.223 14.9956 362.226 15.7936C361.228 16.5916 360.744 17.6461 360.744 18.9571C360.687 21.9496 363.565 22.8046 365.703 23.3461C367.213 23.7166 368.41 24.2581 368.41 25.1701C368.41 26.2246 367.612 26.7661 365.988 26.7661C364.363 26.7661 363.309 26.0821 362.824 24.7141L360.174 26.2531C361.086 28.3336 363.166 29.5876 365.988 29.5876C367.584 29.5876 368.895 29.1886 369.949 28.4191C371.004 27.6496 371.545 26.5666 371.545 25.1986C371.602 22.1491 368.752 21.2371 366.558 20.7526C365.076 20.3251 363.879 19.8406 363.879 18.9001Z" stroke="#F9F9F9" stroke-width="3" mask="url(#path-3-outside-1_2388_222)"/>
</g>
<defs>
<filter id="filter0_i_2388_222" x="0" y="2.5" width="373.046" height="37" filterUnits="userSpaceOnUse" color-interpolation-filters="sRGB">
<feFlood flood-opacity="0" result="BackgroundImageFix"/>
<feBlend mode="normal" in="SourceGraphic" in2="BackgroundImageFix" result="shape"/>
<feColorMatrix in="SourceAlpha" type="matrix" values="0 0 0 0 0 0 0 0 0 0 0 0 0 0 0 0 0 0 127 0" result="hardAlpha"/>
<feOffset dy="4"/>
<feGaussianBlur stdDeviation="2"/>
<feComposite in2="hardAlpha" operator="arithmetic" k2="-1" k3="1"/>
<feColorMatrix type="matrix" values="0 0 0 0 0 0 0 0 0 0 0 0 0 0 0 0 0 0 0.25 0"/>
<feBlend mode="normal" in2="shape" result="effect1_innerShadow_2388_222"/>
</filter>
<filter id="filter1_d_2388_222" x="-3" y="0.25" width="36" height="39" filterUnits="userSpaceOnUse" color-interpolation-filters="sRGB">
<feFlood flood-opacity="0" result="BackgroundImageFix"/>
<feColorMatrix in="SourceAlpha" type="matrix" values="0 0 0 0 0 0 0 0 0 0 0 0 0 0 0 0 0 0 127 0" result="hardAlpha"/>
<feOffset dy="0.75"/>
<feGaussianBlur stdDeviation="1.5"/>
<feComposite in2="hardAlpha" operator="out"/>
<feColorMatrix type="matrix" values="0 0 0 0 0 0 0 0 0 0 0 0 0 0 0 0 0 0 0.12 0"/>
<feBlend mode="normal" in2="BackgroundImageFix" result="effect1_dropShadow_2388_222"/>
<feBlend mode="normal" in="SourceGraphic" in2="effect1_dropShadow_2388_222" result="shape"/>
</filter>
<filter id="filter2_i_2388_222" x="36" y="6.91211" width="337.046" height="24.9258" filterUnits="userSpaceOnUse" color-interpolation-filters="sRGB">
<feFlood flood-opacity="0" result="BackgroundImageFix"/>
<feBlend mode="normal" in="SourceGraphic" in2="BackgroundImageFix" result="shape"/>
<feColorMatrix in="SourceAlpha" type="matrix" values="0 0 0 0 0 0 0 0 0 0 0 0 0 0 0 0 0 0 127 0" result="hardAlpha"/>
<feOffset dy="0.75"/>
<feGaussianBlur stdDeviation="1.5"/>
<feComposite in2="hardAlpha" operator="arithmetic" k2="-1" k3="1"/>
<feColorMatrix type="matrix" values="0 0 0 0 0 0 0 0 0 0 0 0 0 0 0 0 0 0 0.12 0"/>
<feBlend mode="normal" in2="shape" result="effect1_innerShadow_2388_222"/>
</filter>
</defs>
</svg>
