<svg width="38" height="38" viewBox="0 0 38 38" fill="none" xmlns="http://www.w3.org/2000/svg">
<g filter="url(#filter0_d_453_1383)">
<circle cx="19" cy="18" r="16" fill="#F07E59"/>
</g>
<path d="M17.0512 12.0449C16.9925 12.3001 16.8473 12.5271 16.6403 12.6874C16.6058 12.7127 16.5766 12.7445 16.5545 12.7811C16.5323 12.8176 16.5175 12.8582 16.5111 12.9004C16.5046 12.9427 16.5065 12.9858 16.5166 13.0273C16.5268 13.0689 16.5451 13.108 16.5703 13.1425C16.5956 13.1769 16.6275 13.2061 16.664 13.2282C16.7006 13.2504 16.7411 13.2652 16.7834 13.2717C16.8257 13.2782 16.8688 13.2763 16.9103 13.2661C16.9518 13.2559 16.9909 13.2377 17.0254 13.2124C17.3751 12.9497 17.6141 12.566 17.6957 12.1363C17.7186 11.9471 17.7018 11.7553 17.6467 11.5729C17.5915 11.3905 17.499 11.2215 17.3752 11.0767C16.8957 10.4655 17.2642 10.0457 17.3444 9.96654C17.407 9.90704 17.4434 9.82512 17.4456 9.7388C17.4477 9.65248 17.4155 9.56883 17.356 9.50626C17.2965 9.44368 17.2146 9.40731 17.1283 9.40513C17.042 9.40296 16.9583 9.43517 16.8957 9.49467C16.5798 9.79258 16.1666 10.5902 16.8629 11.4785C16.9317 11.5548 16.984 11.6445 17.0164 11.742C17.0488 11.8395 17.0606 11.9426 17.0512 12.0449Z" fill="white"/>
<path d="M18.9556 12.0452C18.8968 12.3003 18.7516 12.5273 18.5446 12.6876C18.5095 12.7126 18.4797 12.7444 18.4569 12.781C18.4341 12.8176 18.4189 12.8584 18.412 12.901C18.4051 12.9436 18.4068 12.9871 18.4169 13.0291C18.427 13.071 18.4453 13.1105 18.4708 13.1453C18.4963 13.1801 18.5285 13.2095 18.5655 13.2317C18.6024 13.254 18.6434 13.2686 18.6861 13.2749C18.7288 13.2812 18.7723 13.2789 18.8141 13.2682C18.8559 13.2575 18.8951 13.2386 18.9295 13.2126C19.2787 12.9498 19.5174 12.5662 19.5988 12.1368C19.6216 11.9476 19.6049 11.7558 19.5498 11.5734C19.4946 11.3909 19.4021 11.222 19.2782 11.0772C18.7988 10.466 19.1673 10.0462 19.2475 9.96703C19.3101 9.90753 19.3465 9.82561 19.3486 9.73929C19.3508 9.65297 19.3186 9.56932 19.2591 9.50674C19.1996 9.44417 19.1177 9.40779 19.0314 9.40562C18.945 9.40345 18.8614 9.43565 18.7988 9.49515C18.4829 9.79307 18.0696 10.5907 18.766 11.479C18.835 11.5552 18.8874 11.6448 18.92 11.7422C18.9527 11.8397 18.9648 11.9428 18.9556 12.0452Z" fill="white"/>
<path d="M20.8601 12.0449C20.8015 12.3001 20.6563 12.5271 20.4492 12.6874C20.414 12.7124 20.3842 12.7441 20.3614 12.7808C20.3387 12.8174 20.3234 12.8582 20.3165 12.9008C20.3097 12.9434 20.3113 12.9869 20.3214 13.0288C20.3315 13.0708 20.3499 13.1103 20.3754 13.1451C20.4009 13.1799 20.4331 13.2092 20.47 13.2315C20.507 13.2537 20.548 13.2684 20.5907 13.2747C20.6333 13.2809 20.6768 13.2787 20.7186 13.268C20.7604 13.2573 20.7997 13.2384 20.8341 13.2124C21.1837 12.9497 21.4228 12.566 21.5044 12.1363C21.5272 11.9471 21.5105 11.7553 21.4553 11.5729C21.4002 11.3905 21.3077 11.2215 21.1838 11.0767C20.7044 10.4655 21.0726 10.046 21.1531 9.96654C21.2157 9.90704 21.252 9.82512 21.2542 9.7388C21.2564 9.65248 21.2242 9.56883 21.1647 9.50626C21.1052 9.44368 21.0233 9.40731 20.9369 9.40513C20.8506 9.40296 20.767 9.43517 20.7044 9.49467C20.3883 9.79258 19.9752 10.5902 20.6716 11.4785C20.7404 11.5548 20.7927 11.6445 20.8252 11.742C20.8576 11.8395 20.8695 11.9426 20.8601 12.0449Z" fill="white"/>
<path d="M26.6444 24.2124H22.5532C22.5939 24.1046 22.6152 23.9905 22.6162 23.8754C22.6163 23.8299 22.6256 23.7849 22.6435 23.743C22.6614 23.7012 22.6876 23.6634 22.7204 23.6319L22.9855 23.3793C23.082 23.2868 23.1588 23.1759 23.2114 23.053C23.2639 22.9302 23.2912 22.798 23.2915 22.6644V22.1124C23.9838 22.0329 24.6227 21.7017 25.0865 21.1816C25.5503 20.6616 25.8066 19.9891 25.8066 19.2923C25.8066 18.5955 25.5503 17.923 25.0865 17.403C24.6227 16.8829 23.9838 16.5517 23.2915 16.4722V15.6597C23.2915 15.5734 23.2572 15.4906 23.1961 15.4296C23.1351 15.3685 23.0523 15.3342 22.966 15.3342H15.0339C14.9476 15.3342 14.8648 15.3685 14.8038 15.4296C14.7427 15.4906 14.7084 15.5734 14.7084 15.6597V22.665C14.709 22.7986 14.7364 22.9307 14.7892 23.0534C14.842 23.1762 14.9191 23.287 15.0157 23.3793L15.2808 23.6316C15.3136 23.6631 15.3398 23.7009 15.3577 23.7428C15.3756 23.7846 15.3849 23.8296 15.385 23.8751C15.386 23.9903 15.4073 24.1044 15.448 24.2121H11.3556C11.2692 24.2121 11.1864 24.2464 11.1254 24.3074C11.0643 24.3685 11.03 24.4513 11.03 24.5376V24.8678C11.0304 25.3253 11.2122 25.764 11.5357 26.0876C11.8592 26.4111 12.2978 26.5931 12.7553 26.5936H25.2446C25.7019 26.5928 26.1402 26.4108 26.4634 26.0873C26.7867 25.7638 26.9684 25.3254 26.9688 24.8681V24.5379C26.9688 24.4517 26.9347 24.3691 26.8739 24.3081C26.813 24.247 26.7305 24.2126 26.6444 24.2124ZM25.1553 19.292C25.1541 19.8155 24.9656 20.3213 24.6237 20.7178C24.2819 21.1143 23.8094 21.3753 23.2917 21.4535V17.1298C23.8095 17.208 24.2821 17.4691 24.624 17.8658C24.9658 18.2624 25.1543 18.7684 25.1553 19.292ZM26.3178 24.8681C26.3175 25.1527 26.2044 25.4257 26.0032 25.6271C25.8021 25.8285 25.5293 25.9419 25.2446 25.9426H12.7553C12.4707 25.9419 12.1979 25.8284 11.9968 25.627C11.7957 25.4256 11.6826 25.1527 11.6824 24.8681L17.3834 24.8634C17.4697 24.8634 17.5525 24.8291 17.6136 24.7681C17.6746 24.707 17.7089 24.6242 17.7089 24.5379C17.7089 24.4515 17.6746 24.3687 17.6136 24.3077C17.5525 24.2466 17.4697 24.2124 17.3834 24.2124H16.373C16.2838 24.2119 16.1984 24.1762 16.1353 24.1131C16.0723 24.05 16.0367 23.9646 16.0363 23.8754C16.036 23.7417 16.0088 23.6094 15.9561 23.4865C15.9034 23.3636 15.8264 23.2526 15.7298 23.1603L15.4652 22.9082C15.4323 22.8766 15.4061 22.8387 15.3882 22.7968C15.3703 22.7549 15.3611 22.7098 15.361 22.6642V15.985H22.6404V22.6642C22.6404 22.7097 22.6311 22.7548 22.6132 22.7967C22.5953 22.8386 22.5691 22.8764 22.5363 22.9079L22.2717 23.1603C22.1749 23.2526 22.0978 23.3635 22.0451 23.4864C21.9923 23.6093 21.9651 23.7416 21.9649 23.8754C21.9645 23.9646 21.9289 24.05 21.8659 24.1131C21.8028 24.1762 21.7174 24.2119 21.6282 24.2124H18.8699C18.7835 24.2124 18.7007 24.2466 18.6397 24.3077C18.5786 24.3687 18.5444 24.4515 18.5444 24.5379C18.5444 24.6242 18.5786 24.707 18.6397 24.7681C18.7007 24.8291 18.7835 24.8634 18.8699 24.8634H26.3178V24.8681Z" fill="white"/>
<path d="M11.3555 21.1634H13.5818C13.6681 21.1634 13.7509 21.1291 13.812 21.0681C13.873 21.007 13.9073 20.9242 13.9073 20.8379V18.3907C13.9073 18.3336 13.8923 18.2775 13.8637 18.228C13.8351 18.1786 13.794 18.1375 13.7445 18.109L12.7943 17.5592V17.2233C12.7947 16.8951 12.9253 16.5804 13.1573 16.3483C13.3894 16.1163 13.7041 15.9857 14.0323 15.9853C14.1186 15.9853 14.2014 15.951 14.2625 15.8899C14.3235 15.8289 14.3578 15.7461 14.3578 15.6597C14.3578 15.5734 14.3235 15.4906 14.2625 15.4296C14.2014 15.3685 14.1186 15.3342 14.0323 15.3342C13.5315 15.3348 13.0513 15.534 12.6971 15.8881C12.343 16.2423 12.1438 16.7224 12.1432 17.2233V17.5592L11.1927 18.1082C11.1434 18.137 11.1024 18.1782 11.0741 18.2278C11.0458 18.2774 11.031 18.3336 11.0313 18.3907V20.8387C11.0315 20.9246 11.0657 21.007 11.1264 21.0679C11.1872 21.1287 11.2695 21.1631 11.3555 21.1634ZM11.681 18.578L12.4685 18.1228L13.256 18.578V20.5124H11.6823L11.681 18.578Z" fill="white"/>
<defs>
<filter id="filter0_d_453_1383" x="0.333333" y="0.666667" width="37.3333" height="37.3333" filterUnits="userSpaceOnUse" color-interpolation-filters="sRGB">
<feFlood flood-opacity="0" result="BackgroundImageFix"/>
<feColorMatrix in="SourceAlpha" type="matrix" values="0 0 0 0 0 0 0 0 0 0 0 0 0 0 0 0 0 0 127 0" result="hardAlpha"/>
<feOffset dy="1.33333"/>
<feGaussianBlur stdDeviation="1.33333"/>
<feComposite in2="hardAlpha" operator="out"/>
<feColorMatrix type="matrix" values="0 0 0 0 0 0 0 0 0 0 0 0 0 0 0 0 0 0 0.12 0"/>
<feBlend mode="normal" in2="BackgroundImageFix" result="effect1_dropShadow_453_1383"/>
<feBlend mode="normal" in="SourceGraphic" in2="effect1_dropShadow_453_1383" result="shape"/>
</filter>
</defs>
</svg>
