<svg width="32" height="32" viewBox="0 0 32 32" fill="none" xmlns="http://www.w3.org/2000/svg">
<circle cx="16" cy="16" r="16" fill="#9AC17E"/>
<path d="M13.5313 17.1855L16.6719 13.8819C16.9963 13.5414 17.1835 13.0931 17.1975 12.6231C17.2115 12.153 17.0515 11.6943 16.748 11.3351C16.5688 11.1221 16.3451 10.951 16.0927 10.8337C15.8403 10.7165 15.5652 10.6559 15.2869 10.6563H15.1419C14.7467 10.6576 14.3557 10.7375 13.9917 10.8914C13.6277 11.0453 13.298 11.2701 13.0217 11.5527C12.7455 11.2701 12.4157 11.0453 12.0517 10.8914C11.6877 10.7375 11.2968 10.6576 10.9016 10.6563H10.7922C10.2728 10.6526 9.77309 10.8548 9.40252 11.2188C9.04982 11.5702 8.84899 12.046 8.84315 12.5438C8.83731 13.0417 9.02692 13.522 9.37127 13.8816L12.5119 17.1855C12.5776 17.2547 12.6566 17.3097 12.7443 17.3473C12.8319 17.385 12.9263 17.4044 13.0217 17.4044C13.117 17.4044 13.2114 17.385 13.299 17.3473C13.3867 17.3097 13.4657 17.2547 13.5314 17.1855H13.5313ZM9.76861 13.5051C9.52283 13.2483 9.38753 12.9054 9.39176 12.55C9.396 12.1945 9.53943 11.855 9.79127 11.6041C10.059 11.3435 10.4192 11.1995 10.7928 11.2038H10.9022C11.2695 11.205 11.6317 11.2896 11.9616 11.4511C12.2914 11.6127 12.5802 11.8471 12.8063 12.1366C12.8328 12.168 12.8659 12.1933 12.9032 12.2106C12.9406 12.2279 12.9812 12.2369 13.0224 12.2369C13.0635 12.2369 13.1042 12.2279 13.1415 12.2106C13.1788 12.1933 13.2119 12.168 13.2385 12.1366C13.4644 11.8471 13.7531 11.6126 14.0828 11.4509C14.4125 11.2892 14.7747 11.2045 15.1419 11.2032H15.2869C15.4854 11.203 15.6816 11.2462 15.8617 11.3299C16.0417 11.4136 16.2012 11.5357 16.3291 11.6876C16.5456 11.9439 16.6598 12.2711 16.6498 12.6064C16.6398 12.9418 16.5063 13.2616 16.2749 13.5046L13.1352 16.8088C13.1206 16.8242 13.103 16.8365 13.0835 16.8449C13.064 16.8533 13.043 16.8576 13.0217 16.8576C13.0005 16.8576 12.9795 16.8533 12.96 16.8449C12.9405 16.8365 12.9229 16.8242 12.9083 16.8088L9.76861 13.5051Z" fill="white"/>
<path d="M25.9844 24.1381L24.7275 20.5834C25.2647 19.5883 25.5343 18.4707 25.5099 17.3401C25.4856 16.2095 25.1682 15.1046 24.5887 14.1334C24.0092 13.1623 23.1876 12.3582 22.2041 11.7999C21.2207 11.2416 20.1091 10.9481 18.9783 10.9483C18.9128 10.9483 18.8483 10.952 18.7833 10.9541C18.3776 10.1983 17.827 9.52976 17.163 8.98673C16.4989 8.4437 15.7344 8.03678 14.9132 7.78921C14.0919 7.54163 13.2298 7.45824 12.3763 7.54381C11.5228 7.62938 10.6945 7.88222 9.93866 8.2879C9.18286 8.69358 8.51435 9.24416 7.97132 9.9082C7.4283 10.5722 7.02138 11.3367 6.7738 12.158C6.52622 12.9793 6.44284 13.8413 6.5284 14.6949C6.61397 15.5484 6.86681 16.3767 7.27249 17.1325L6.01562 20.6875C5.99842 20.7362 5.99536 20.7887 6.00676 20.839C6.01817 20.8894 6.04359 20.9354 6.08009 20.9719C6.11658 21.0084 6.16266 21.0339 6.21299 21.0453C6.26333 21.0567 6.31586 21.0536 6.36452 21.0364L9.9189 19.7799C10.8722 20.2943 11.9384 20.5638 13.0217 20.5641C13.0881 20.5641 13.1539 20.5611 13.2198 20.5591C13.6244 21.3181 14.175 21.9896 14.8401 22.5351C15.5051 23.0806 16.2713 23.4892 17.0948 23.7375C17.9183 23.9858 18.7827 24.0689 19.6384 23.9819C20.4941 23.895 21.3242 23.6398 22.0809 23.2309L25.6353 24.4878C25.684 24.505 25.7365 24.508 25.7868 24.4966C25.8372 24.4852 25.8832 24.4598 25.9197 24.4233C25.9562 24.3868 25.9817 24.3408 25.9931 24.2904C26.0045 24.2401 26.0015 24.1876 25.9844 24.1389V24.1381ZM10.0781 19.2427C10.0441 19.2235 10.0063 19.2117 9.96737 19.2083C9.92843 19.2049 9.88921 19.2098 9.85234 19.2228L6.72218 20.3297L7.82905 17.1989C7.84204 17.162 7.84699 17.1228 7.84357 17.0839C7.84014 17.0449 7.82843 17.0072 7.80921 16.9731C7.16972 15.8405 6.91656 14.5303 7.08805 13.2409C7.25954 11.9516 7.84633 10.7531 8.75964 9.82697C9.67296 8.90082 10.8631 8.29735 12.1499 8.10788C13.4368 7.91841 14.7504 8.15326 15.8918 8.77688C17.0333 9.40049 17.9406 10.3789 18.4765 11.5642C19.0123 12.7494 19.1475 14.0769 18.8616 15.3459C18.5757 16.6148 17.8843 17.7561 16.8919 18.597C15.8996 19.4379 14.6603 19.9327 13.3617 20.0066H13.3605C13.2483 20.0128 13.1355 20.0167 13.0217 20.0167C11.9902 20.0166 10.9762 19.75 10.0781 19.2427ZM22.147 22.6738C22.1102 22.6607 22.0709 22.6557 22.032 22.6591C21.993 22.6625 21.9553 22.6742 21.9212 22.6934C20.5546 23.4658 18.9391 23.6701 17.4232 23.2623C15.9073 22.8545 14.6124 21.8674 13.8176 20.5136C14.8201 20.3908 15.7805 20.0373 16.6233 19.4807C17.466 18.924 18.1682 18.1796 18.6746 17.3057C19.1811 16.4319 19.4779 15.4525 19.5419 14.4446C19.6059 13.4366 19.4353 12.4276 19.0434 11.4967C20.0837 11.5077 21.1032 11.7897 22.0013 12.3149C22.8994 12.8401 23.645 13.5903 24.1647 14.4916C24.6843 15.3929 24.9601 16.4141 24.9646 17.4545C24.9692 18.4948 24.7025 19.5184 24.1908 20.4242C24.1715 20.4582 24.1598 20.496 24.1564 20.5349C24.1529 20.5738 24.1579 20.613 24.1709 20.6499L25.2778 23.7806L22.147 22.6738Z" fill="white"/>
</svg>
