<svg  viewBox="0 0 38 34" fill="none" xmlns="http://www.w3.org/2000/svg">
<g filter="url(#filter0_d_453_1288)">
<circle cx="19" cy="18" r="16" fill="#B38DB2"/>
</g>
<path d="M27.3088 20.6041C27.2442 20.5824 27.1745 20.5815 27.1094 20.6014C27.0443 20.6214 26.9871 20.6612 26.9458 20.7153L26.1124 21.8091L22.3546 21.4544C22.5676 21.2271 22.7132 20.9451 22.7751 20.6398C22.8369 20.3346 22.8126 20.0181 22.7049 19.7259C22.5971 19.4336 22.4102 19.1771 22.1649 18.9851C21.9197 18.7931 21.6259 18.673 21.3163 18.6385C21.2646 18.436 21.1634 18.2495 21.022 18.0957C20.8805 17.9419 20.7031 17.8255 20.5056 17.757C20.3082 17.6885 20.0968 17.67 19.8905 17.7032C19.6842 17.7363 19.4893 17.8201 19.3232 17.947C19.1572 18.074 19.0252 18.2401 18.939 18.4305C18.8529 18.6209 18.8153 18.8297 18.8295 19.0382C18.8438 19.2467 18.9096 19.4484 19.0209 19.6253C19.1322 19.8021 19.2856 19.9487 19.4674 20.0518C19.3972 20.4807 19.4974 20.9202 19.7466 21.2763C19.9957 21.6325 20.3742 21.8772 20.8012 21.9583V22.8395H15.3567L16.47 21.494H18.7395C18.8258 21.494 18.9086 21.4597 18.9697 21.3986C19.0307 21.3376 19.065 21.2548 19.065 21.1684C19.065 21.0821 19.0307 20.9993 18.9697 20.9383C18.9086 20.8772 18.8258 20.8429 18.7395 20.8429H16.434L13.2057 18.1721C13.1815 18.1523 13.1655 18.1242 13.161 18.0932C13.1565 18.0623 13.1637 18.0308 13.1812 18.0049L15.2577 14.919L16.677 14.9924H16.6939C16.7588 14.9923 16.8222 14.9729 16.8759 14.9365C16.9296 14.9002 16.9713 14.8487 16.9955 14.7885C17.0197 14.7283 17.0254 14.6623 17.0119 14.5989C16.9984 14.5354 16.9662 14.4775 16.9195 14.4325L15.0156 12.6005C14.9834 12.5696 14.9452 12.5457 14.9034 12.5303C14.8616 12.5148 14.817 12.5081 14.7725 12.5105C14.728 12.5129 14.6845 12.5245 14.6446 12.5445C14.6048 12.5644 14.5694 12.5923 14.5408 12.6265L10.8228 17.1057C10.5945 17.3817 10.4697 17.7289 10.4702 18.0871C10.4707 18.4454 10.5963 18.7922 10.8255 19.0677L14.415 23.3736C14.4821 23.4408 14.5706 23.4822 14.665 23.4906H21.1268C21.2131 23.4906 21.2959 23.4563 21.3569 23.3952C21.418 23.3342 21.4523 23.2514 21.4523 23.1651V22.0229L25.9354 22.4473V22.8395H22.364C22.2777 22.8395 22.1949 22.8738 22.1338 22.9349C22.0728 22.9959 22.0385 23.0787 22.0385 23.1651C22.0385 23.2514 22.0728 23.3342 22.1338 23.3952C22.1949 23.4563 22.2777 23.4906 22.364 23.4906H27.2046C27.291 23.4906 27.3738 23.4563 27.4348 23.3952C27.4958 23.3342 27.5301 23.2514 27.5301 23.1651V20.9135C27.5303 20.8452 27.5091 20.7786 27.4694 20.7231C27.4296 20.6676 27.3735 20.626 27.3088 20.6041ZM14.8156 13.3106L15.84 14.2968L15.215 14.2645L15.1676 14.2255L14.5062 13.6786L14.8156 13.3106ZM11.3236 17.5208L14.0893 14.1781L14.6562 14.6468L12.6419 17.6416C12.5333 17.8014 12.4885 17.996 12.5161 18.1872C12.5437 18.3784 12.6418 18.5524 12.7911 18.6749L15.8588 21.2127L15.4182 21.7455L14.6645 22.657L11.3255 18.651C11.1935 18.4923 11.1211 18.2926 11.1208 18.0862C11.1204 17.8799 11.1922 17.6799 11.3236 17.5208ZM19.4781 18.9531C19.4777 18.8126 19.5255 18.6762 19.6134 18.5666C19.7014 18.457 19.8243 18.3809 19.9616 18.351C20.0989 18.321 20.2423 18.339 20.3679 18.4019C20.4935 18.4648 20.5938 18.5689 20.652 18.6968C20.2563 18.8145 19.9175 19.0732 19.6997 19.4239C19.6306 19.3663 19.5749 19.2942 19.5367 19.2128C19.4984 19.1313 19.4784 19.0425 19.4781 18.9526V18.9531ZM20.096 20.3093C20.096 20.1055 20.1565 19.9062 20.2697 19.7367C20.383 19.5672 20.5439 19.4351 20.7323 19.3571C20.9206 19.2791 21.1278 19.2586 21.3277 19.2984C21.5277 19.3381 21.7113 19.4363 21.8555 19.5804C21.9997 19.7245 22.0978 19.9082 22.1376 20.1081C22.1774 20.308 22.1571 20.5152 22.0791 20.7036C22.0011 20.8919 21.8691 21.0529 21.6996 21.1662C21.5301 21.2795 21.3309 21.34 21.127 21.3401C20.8536 21.3398 20.5915 21.231 20.3982 21.0377C20.2049 20.8443 20.0962 20.5822 20.096 20.3088V20.3093ZM26.8794 22.8401H26.5864V22.2609L26.8791 21.877L26.8794 22.8401Z" fill="white"/>
<defs>
<filter id="filter0_d_453_1288" x="0.0833333" y="0.541667" width="37.8333" height="37.8333" filterUnits="userSpaceOnUse" color-interpolation-filters="sRGB">
<feFlood flood-opacity="0" result="BackgroundImageFix"/>
<feColorMatrix in="SourceAlpha" type="matrix" values="0 0 0 0 0 0 0 0 0 0 0 0 0 0 0 0 0 0 127 0" result="hardAlpha"/>
<feOffset dy="1.45833"/>
<feGaussianBlur stdDeviation="1.45833"/>
<feComposite in2="hardAlpha" operator="out"/>
<feColorMatrix type="matrix" values="0 0 0 0 0 0 0 0 0 0 0 0 0 0 0 0 0 0 0.12 0"/>
<feBlend mode="normal" in2="BackgroundImageFix" result="effect1_dropShadow_453_1288"/>
<feBlend mode="normal" in="SourceGraphic" in2="effect1_dropShadow_453_1288" result="shape"/>
</filter>
</defs>
</svg>
