<svg width="32" height="32" viewBox="0 0 32 32" fill="none" xmlns="http://www.w3.org/2000/svg">
<circle cx="16" cy="16" r="16" fill="#00C0C5"/>
<path d="M13.2882 13.7019C13.144 13.7019 13.0031 13.7447 12.8831 13.8248C12.7632 13.9049 12.6698 14.0188 12.6146 14.152C12.5594 14.2853 12.545 14.4319 12.5731 14.5733C12.6012 14.7148 12.6707 14.8447 12.7727 14.9467C12.8746 15.0486 13.0046 15.1181 13.146 15.1462C13.2874 15.1744 13.4341 15.1599 13.5673 15.1047C13.7005 15.0495 13.8144 14.9561 13.8945 14.8362C13.9747 14.7163 14.0174 14.5753 14.0174 14.4311C14.0174 14.2377 13.9406 14.0522 13.8038 13.9155C13.6671 13.7787 13.4816 13.7019 13.2882 13.7019Z" fill="white"/>
<path d="M11.2069 13.7019C11.0627 13.7019 10.9218 13.7447 10.8018 13.8248C10.6819 13.9049 10.5885 14.0188 10.5333 14.152C10.4781 14.2853 10.4637 14.4319 10.4918 14.5733C10.5199 14.7148 10.5894 14.8447 10.6914 14.9467C10.7933 15.0486 10.9233 15.1181 11.0647 15.1462C11.2061 15.1744 11.3528 15.1599 11.486 15.1047C11.6192 15.0495 11.7331 14.9561 11.8132 14.8362C11.8934 14.7163 11.9361 14.5753 11.9361 14.4311C11.9361 14.2377 11.8593 14.0522 11.7225 13.9155C11.5858 13.7787 11.4003 13.7019 11.2069 13.7019Z" fill="white"/>
<path d="M9.12492 13.7019C8.9807 13.7019 8.83973 13.7447 8.71982 13.8248C8.5999 13.9049 8.50645 14.0188 8.45126 14.152C8.39607 14.2853 8.38163 14.4319 8.40976 14.5733C8.4379 14.7148 8.50734 14.8447 8.60932 14.9467C8.7113 15.0486 8.84122 15.1181 8.98267 15.1462C9.12411 15.1744 9.27072 15.1599 9.40396 15.1047C9.5372 15.0495 9.65108 14.9561 9.7312 14.8362C9.81132 14.7163 9.85409 14.5753 9.85409 14.4311C9.85409 14.2377 9.77726 14.0522 9.64052 13.9155C9.50377 13.7787 9.31831 13.7019 9.12492 13.7019Z" fill="white"/>
<path d="M15.3698 13.7019C15.2256 13.7019 15.0846 13.7447 14.9647 13.8248C14.8448 13.9049 14.7513 14.0188 14.6961 14.152C14.6409 14.2853 14.6265 14.4319 14.6546 14.5733C14.6828 14.7148 14.7522 14.8447 14.8542 14.9467C14.9562 15.0486 15.0861 15.1181 15.2275 15.1462C15.369 15.1744 15.5156 15.1599 15.6488 15.1047C15.7821 15.0495 15.896 14.9561 15.9761 14.8362C16.0562 14.7163 16.099 14.5753 16.099 14.4311C16.099 14.2377 16.0221 14.0522 15.8854 13.9155C15.7486 13.7787 15.5632 13.7019 15.3698 13.7019Z" fill="white"/>
<path d="M17.4511 15.1588C17.5953 15.1588 17.7363 15.116 17.8562 15.0359C17.9761 14.9558 18.0696 14.8419 18.1248 14.7086C18.1799 14.5754 18.1944 14.4288 18.1662 14.2874C18.1381 14.1459 18.0687 14.016 17.9667 13.914C17.8647 13.812 17.7348 13.7426 17.5933 13.7145C17.4519 13.6863 17.3053 13.7008 17.1721 13.7559C17.0388 13.8111 16.9249 13.9046 16.8448 14.0245C16.7647 14.1444 16.7219 14.2854 16.7219 14.4296C16.7219 14.623 16.7987 14.8085 16.9355 14.9452C17.0722 15.082 17.2577 15.1588 17.4511 15.1588Z" fill="white"/>
<path d="M26.2092 23.3361C25.9804 23.2119 25.7906 23.0266 25.661 22.8008C25.5313 22.575 25.4671 22.3176 25.4753 22.0573C25.4817 21.9415 25.4861 21.8346 25.4861 21.7365C25.4863 21.7305 25.4879 21.7246 25.4908 21.7193C25.4938 21.7141 25.4979 21.7096 25.503 21.7063C26.5149 20.8626 27.0722 19.7526 27.0722 18.5813C27.0722 16.123 24.6065 14.1198 21.5513 14.069C21.3142 10.6021 17.6984 7.83984 13.2867 7.83984C8.72237 7.83984 5.00903 10.7969 5.00903 14.4315C5.00903 16.1355 5.82153 17.7517 7.29799 18.9821C7.32606 19.0041 7.34888 19.0321 7.36481 19.0639C7.38074 19.0958 7.38937 19.1309 7.39007 19.1665C7.39007 19.3232 7.39507 19.479 7.40528 19.6415C7.49633 21.0517 6.25237 21.7051 6.2007 21.7317C6.13419 21.765 6.07946 21.8179 6.04387 21.8832C6.00828 21.9485 5.99353 22.0231 6.00161 22.0971C6.00968 22.171 6.04019 22.2407 6.08904 22.2968C6.13789 22.3529 6.20274 22.3927 6.27487 22.4109C6.7716 22.5402 7.28242 22.6076 7.7957 22.6115C10.1615 22.6115 11.174 21.0446 11.2201 20.9709C11.2431 20.9309 11.2777 20.8988 11.3194 20.8789C11.3611 20.859 11.4078 20.8522 11.4534 20.8594C12.0583 20.9691 12.6719 21.024 13.2867 21.0234C14.3295 21.0264 15.3665 20.8674 16.3605 20.5521C17.2961 22.1055 19.247 23.0938 21.433 23.0938C21.8495 23.0943 22.2653 23.0576 22.6753 22.9842C22.688 22.9817 22.7011 22.9917 22.7101 23.0065C22.7395 23.0532 23.4482 24.1523 25.0919 24.1523C25.444 24.1504 25.7944 24.1046 26.1351 24.0161C26.2071 23.9978 26.2718 23.9579 26.3205 23.9018C26.3693 23.8457 26.3997 23.776 26.4077 23.7022C26.4157 23.6283 26.4009 23.5537 26.3653 23.4885C26.3297 23.4232 26.2751 23.3704 26.2086 23.3371L26.2092 23.3361ZM11.5853 20.1417C11.3954 20.1081 11.1998 20.1327 11.0241 20.2123C10.8484 20.2919 10.7009 20.4227 10.6009 20.5876C10.5669 20.6405 9.74528 21.8819 7.79695 21.8819C7.6133 21.8816 7.42982 21.871 7.24737 21.8501C7.55335 21.5636 7.79166 21.2126 7.94496 20.8224C8.09826 20.4323 8.16271 20.013 8.13362 19.5948C8.12424 19.4476 8.11987 19.3073 8.11987 19.1661C8.11906 19.0237 8.08691 18.8832 8.0257 18.7546C7.96449 18.6261 7.87572 18.5125 7.7657 18.4221C6.45841 17.3321 5.73862 15.9151 5.73862 14.4311C5.73862 11.1986 9.12487 8.56859 13.2872 8.56859C17.4495 8.56859 20.8357 11.1986 20.8357 14.4311H20.8374V14.4376H20.8359C20.8332 16.7246 19.0951 18.8169 16.4099 19.7678C15.4068 20.1206 14.3506 20.2985 13.2874 20.2938C12.7166 20.2943 12.1469 20.2434 11.5853 20.1417ZM25.199 23.4203C25.1634 23.4215 25.1278 23.4221 25.0926 23.4221C23.8659 23.4221 23.348 22.649 23.3305 22.6223C23.2515 22.4904 23.1342 22.3857 22.9941 22.3222C22.8541 22.2586 22.698 22.2393 22.5467 22.2667C22.1793 22.3324 21.8068 22.3651 21.4336 22.3646C19.5909 22.3646 17.894 21.5461 17.0636 20.2951C19.6734 19.2292 21.3836 17.1338 21.5478 14.798C24.2022 14.8451 26.343 16.5236 26.343 18.5813C26.343 19.5326 25.8788 20.4434 25.0378 21.1438C24.9501 21.2155 24.8794 21.3057 24.8308 21.4081C24.7823 21.5104 24.757 21.6222 24.7569 21.7355C24.7569 21.8209 24.753 21.9136 24.7476 22.0117C24.709 22.5221 24.8709 23.0274 25.199 23.4203Z" fill="white"/>
<path d="M21.1906 17.8518C21.0464 17.8518 20.9054 17.8946 20.7855 17.9747C20.6656 18.0548 20.5721 18.1687 20.5169 18.3019C20.4617 18.4352 20.4473 18.5818 20.4754 18.7232C20.5036 18.8647 20.573 18.9946 20.675 19.0966C20.777 19.1985 20.9069 19.268 21.0483 19.2961C21.1898 19.3243 21.3364 19.3098 21.4696 19.2546C21.6029 19.1994 21.7168 19.106 21.7969 18.9861C21.877 18.8662 21.9198 18.7252 21.9198 18.581C21.9198 18.3876 21.8429 18.2021 21.7062 18.0654C21.5694 17.9286 21.384 17.8518 21.1906 17.8518Z" fill="white"/>
<path d="M23.2719 17.8518C23.1277 17.8518 22.9867 17.8946 22.8668 17.9747C22.7469 18.0548 22.6534 18.1687 22.5982 18.3019C22.543 18.4352 22.5286 18.5818 22.5567 18.7232C22.5849 18.8647 22.6543 18.9946 22.7563 19.0966C22.8583 19.1985 22.9882 19.268 23.1296 19.2961C23.2711 19.3243 23.4177 19.3098 23.5509 19.2546C23.6842 19.1994 23.7981 19.106 23.8782 18.9861C23.9583 18.8662 24.0011 18.7252 24.0011 18.581C24.0011 18.3876 23.9242 18.2021 23.7875 18.0654C23.6507 17.9286 23.4653 17.8518 23.2719 17.8518Z" fill="white"/>
</svg>
